<svg width="26" height="26" viewBox="0 0 26 26" fill="none" xmlns="http://www.w3.org/2000/svg">
<path fill-rule="evenodd" clip-rule="evenodd" d="M13.0003 3.79199C7.85449 3.79199 3.79199 7.85449 3.79199 13.0003C3.79199 18.1462 7.85449 22.2087 13.0003 22.2087C18.1462 22.2087 22.2087 18.1462 22.2087 13.0003C22.2087 7.85449 18.1462 3.79199 13.0003 3.79199ZM13.0003 21.1253C8.45033 21.1253 4.87533 17.5503 4.87533 13.0003C4.87533 8.45033 8.45033 4.87533 13.0003 4.87533C17.5503 4.87533 21.1253 8.45033 21.1253 13.0003C21.1253 17.5503 17.5503 21.1253 13.0003 21.1253ZM13.0003 11.917L9.20866 8.12533L8.12533 9.20866L11.917 13.0003L8.12533 16.792L9.20866 17.8753L13.0003 14.0837L16.792 17.8753L17.8753 16.792L14.0837 13.0003L17.8753 9.20866L16.792 8.12533L13.0003 11.917Z" fill="black"/>
</svg>
