<svg width="26" height="26" viewBox="0 0 26 26" fill="none" xmlns="http://www.w3.org/2000/svg">
<path fill-rule="evenodd" clip-rule="evenodd" d="M13.0003 22.2082C18.1462 22.2082 22.2087 18.1457 22.2087 12.9998C22.2087 7.854 18.1462 3.7915 13.0003 3.7915C7.85449 3.7915 3.79199 7.854 3.79199 12.9998C3.79199 18.1457 7.85449 22.2082 13.0003 22.2082ZM13.0003 21.1248C8.45033 21.1248 4.87533 17.5498 4.87533 12.9998C4.87533 8.44984 8.45033 4.87484 13.0003 4.87484C17.5503 4.87484 21.1253 8.44984 21.1253 12.9998C21.1253 17.5498 17.5503 21.1248 13.0003 21.1248Z" fill="currentColor"/>
<path d="M13.756 7.74707H12.2432V14.7947H13.756V7.74707Z" fill="currentColor"/>
<path d="M13.756 16.3066H12.2432V17.8195H13.756V16.3066Z" fill="currentColor"/>
</svg>
