<svg width="26" height="26" viewBox="0 0 26 26" fill="none" xmlns="http://www.w3.org/2000/svg">
<path d="M11.1663 14.4595C11.7838 14.0147 12.3666 13.5928 12.6629 13.1356C12.9592 12.6785 13.1016 11.9721 13.2522 11.2262C13.3443 10.7702 13.4385 10.3054 13.5734 9.858C12.0665 5.36758 7.31554 3.47933 5.18246 6.07879C3.29692 8.37816 6.18454 10.5242 6.48571 12.484C6.78688 14.4437 4.676 17.359 7.16496 18.984C7.69771 19.338 8.32597 19.5205 8.96546 19.5072C8.89041 19.3341 8.82778 19.1558 8.77804 18.9737C8.49421 17.9348 8.6605 16.9842 9.27096 16.1484C9.77038 15.4648 10.48 14.9535 11.1663 14.4595Z" fill="black"/>
<path d="M17.009 7.78906C16.8333 7.78912 16.658 7.80325 16.4846 7.83131C14.5888 8.13356 14.2248 9.7071 13.9155 11.2335C13.7454 12.072 13.5905 12.8964 13.2113 13.4874C12.1361 15.1536 8.62395 15.9336 9.40666 18.8022C9.46529 19.0177 9.54588 19.2266 9.64716 19.4257C10.2766 20.665 11.6372 21.3139 13.2135 21.3139C15.3585 21.3139 17.9011 20.1141 19.5418 17.5721C22.4256 13.0974 20.3722 7.78906 17.009 7.78906Z" fill="black"/>
</svg>
