<svg width="26" height="26" viewBox="0 0 26 26" fill="none" xmlns="http://www.w3.org/2000/svg">
<path d="M18.4162 9.95581L16.5745 9.9504L15.0459 7.91752C15.1171 7.91557 15.1871 7.89962 15.2521 7.87059C15.3171 7.84156 15.3757 7.80002 15.4246 7.74834C15.4735 7.69666 15.5118 7.63585 15.5372 7.56938C15.5626 7.50291 15.5747 7.43209 15.5727 7.36096C15.5708 7.28983 15.5548 7.21978 15.5258 7.15481C15.4968 7.08984 15.4552 7.03122 15.4035 6.98231C15.3519 6.93339 15.291 6.89514 15.2246 6.86972C15.1581 6.84431 15.0873 6.83223 15.0162 6.83419H10.9845C10.8409 6.83024 10.7015 6.88352 10.5972 6.98231C10.4928 7.0811 10.4319 7.2173 10.428 7.36096C10.424 7.50462 10.4773 7.64396 10.5761 7.74834C10.6749 7.85271 10.8111 7.91357 10.9547 7.91752L9.42453 9.9504L7.58287 9.95581C7.0412 9.95581 6.44537 10.4975 6.49953 11.0391L7.58287 18.0808C7.63703 18.6766 8.07037 19.1641 8.6662 19.1641H17.3329C17.9287 19.1641 18.362 18.6766 18.4162 18.0808L19.4995 11.0391C19.5537 10.4975 18.9579 9.95581 18.4162 9.95581ZM12.2677 7.97386C12.2807 7.95651 12.2926 7.93843 12.3035 7.91969H13.6956C13.7064 7.93843 13.7184 7.95651 13.7313 7.97386L15.2144 9.94606L12.9995 9.93956L10.7847 9.94606L12.2677 7.97386ZM17.3329 18.0808H8.6662L7.58287 11.0391H18.4162L17.3329 18.0808Z" fill="black"/>
<path d="M10.2913 11.5806H9.20801V13.7472H10.2913V11.5806Z" fill="black"/>
<path d="M12.4583 11.5806H11.375V13.7472H12.4583V11.5806Z" fill="black"/>
<path d="M14.6253 11.5806H13.542V13.7472H14.6253V11.5806Z" fill="black"/>
<path d="M16.7913 11.5806H15.708V13.7472H16.7913V11.5806Z" fill="black"/>
<path d="M10.2913 14.8306H9.20801V16.9972H10.2913V14.8306Z" fill="black"/>
<path d="M12.4583 14.8306H11.375V16.9972H12.4583V14.8306Z" fill="black"/>
<path d="M14.6253 14.8306H13.542V16.9972H14.6253V14.8306Z" fill="black"/>
<path d="M16.7913 14.8306H15.708V16.9972H16.7913V14.8306Z" fill="black"/>
</svg>
