<svg width="26" height="26" viewBox="0 0 26 26" fill="none" xmlns="http://www.w3.org/2000/svg">
<path fill-rule="evenodd" clip-rule="evenodd" d="M13.0003 3.25016C13.0003 2.92516 12.7837 2.7085 12.4587 2.7085C12.1337 2.7085 11.917 2.92516 11.917 3.25016V6.50016H13.0003V3.25016ZM10.1837 7.20433L8.01699 5.09183C7.80033 4.92933 7.47533 4.87516 7.25866 5.09183C7.04199 5.3085 7.04199 5.6335 7.25866 5.85016L9.37116 8.01683L10.1837 7.20433ZM17.6587 5.85016C17.8753 5.6335 17.8753 5.3085 17.6587 5.09183C17.442 4.87516 17.117 4.92933 16.9003 5.09183L14.7337 7.20433L15.5462 8.01683L17.6587 5.85016ZM18.9587 13.0002C18.6878 13.0002 18.417 13.0543 18.1462 13.2168C17.8753 12.7293 17.3878 12.4585 16.792 12.4585C16.3587 12.4585 15.9795 12.621 15.7087 12.8377C15.4378 12.621 15.0587 12.4585 14.6253 12.4585C14.4087 12.4585 14.2462 12.5127 14.0837 12.5668V10.2918C14.0837 9.37099 13.3795 8.66683 12.4587 8.66683C11.5378 8.66683 10.8337 9.37099 10.8337 10.2918V15.4377L9.85866 14.4085C9.58783 14.1377 9.04616 13.921 8.66699 13.921C7.69199 13.921 6.87949 14.7335 6.87949 15.7085C6.87949 16.0335 7.15033 16.6293 7.52949 17.0627L11.3753 21.1252V22.7502C11.3753 23.0752 11.592 23.2918 11.917 23.2918H18.417C18.742 23.2918 18.9587 23.0752 18.9587 22.7502V21.6668C18.9587 20.5835 20.5837 18.2002 20.5837 16.7918V14.6252C20.5837 13.7043 19.8795 13.0002 18.9587 13.0002ZM5.95866 9.75016C5.63366 9.75016 5.41699 9.96683 5.41699 10.2918C5.41699 10.6168 5.63366 10.8335 5.95866 10.8335H8.66699V9.75016H5.95866ZM19.5003 16.7918C19.5003 18.2002 17.8753 20.5835 17.8753 21.6668V22.2085H12.4587V20.5835L8.28783 16.3585C8.12533 16.196 7.96283 15.9793 7.96283 15.7627C7.96283 15.3835 8.28783 15.0043 8.72116 15.0043C8.88366 15.0043 9.04616 15.1127 9.20866 15.2752L10.942 17.1168L10.9962 17.171C11.1045 17.2793 11.2128 17.3335 11.3753 17.3335C11.7003 17.3335 11.917 17.1168 11.917 16.7918V10.2918C11.917 9.96683 12.1337 9.75016 12.4587 9.75016C12.7837 9.75016 13.0003 9.96683 13.0003 10.2918V15.7085C13.0003 16.0335 13.217 16.2502 13.542 16.2502C13.867 16.2502 14.0837 16.0335 14.0837 15.7085V14.0835C14.0837 13.7585 14.3003 13.5418 14.6253 13.5418C14.9503 13.5418 15.167 13.7585 15.167 14.0835V15.7085C15.167 16.0335 15.3837 16.2502 15.7087 16.2502C16.0337 16.2502 16.2503 16.0335 16.2503 15.7085V14.0835C16.2503 13.7585 16.467 13.5418 16.792 13.5418C17.117 13.5418 17.3337 13.7585 17.3337 14.0835V15.7085C17.3337 16.0335 17.5503 16.2502 17.8753 16.2502C18.2003 16.2502 18.417 16.0335 18.417 15.7085V14.6252C18.417 14.3002 18.6337 14.0835 18.9587 14.0835C19.2837 14.0835 19.5003 14.3002 19.5003 14.6252V16.7918ZM18.9587 10.8335C19.2837 10.8335 19.5003 10.6168 19.5003 10.2918C19.5003 9.96683 19.2837 9.75016 18.9587 9.75016H16.2503V10.8335H18.9587Z" fill="black"/>
</svg>
