<svg width="26" height="26" viewBox="0 0 26 26" fill="none" xmlns="http://www.w3.org/2000/svg">
<path fill-rule="evenodd" clip-rule="evenodd" d="M17.875 4.33317L4.33333 21.6665H8.125L21.6667 4.33317H17.875ZM5.95833 8.12484C5.95833 7.204 6.6625 6.49984 7.58333 6.49984C8.50417 6.49984 9.20833 7.204 9.20833 8.12484C9.20833 9.04567 8.50417 9.74984 7.58333 9.74984C6.6625 9.74984 5.95833 9.04567 5.95833 8.12484ZM11.9167 8.12484C11.9167 5.68734 10.0208 3.7915 7.58333 3.7915C5.14583 3.7915 3.25 5.68734 3.25 8.12484C3.25 10.5623 5.14583 12.4582 7.58333 12.4582C10.0208 12.4582 11.9167 10.5623 11.9167 8.12484ZM16.7917 17.8748C16.7917 16.954 17.4958 16.2498 18.4167 16.2498C19.3375 16.2498 20.0417 16.954 20.0417 17.8748C20.0417 18.7957 19.3375 19.4998 18.4167 19.4998C17.4958 19.4998 16.7917 18.7957 16.7917 17.8748ZM22.75 17.8748C22.75 15.4373 20.8542 13.5415 18.4167 13.5415C15.9792 13.5415 14.0833 15.4373 14.0833 17.8748C14.0833 20.3123 15.9792 22.2082 18.4167 22.2082C20.8542 22.2082 22.75 20.3123 22.75 17.8748Z" fill="black"/>
</svg>
