<svg width="26" height="26" viewBox="0 0 26 26" fill="none" xmlns="http://www.w3.org/2000/svg">
<path fill-rule="evenodd" clip-rule="evenodd" d="M14.625 18.4168C14.625 19.2835 13.9208 20.0418 13 20.0418C12.1333 20.0418 11.375 19.2835 11.375 18.4168V5.9585C11.375 4.171 12.7833 2.7085 14.625 2.7085C16.4667 2.7085 17.875 4.171 17.875 5.9585V18.4168C17.875 21.071 15.7083 23.2918 13 23.2918C10.3458 23.2918 8.125 21.071 8.125 18.4168V5.9585H6.5V18.4168C6.5 21.9918 9.425 24.9168 13 24.9168C16.575 24.9168 19.5 21.9918 19.5 18.4168V5.9585C19.5 3.25016 17.3333 1.0835 14.625 1.0835C11.9167 1.0835 9.75 3.25016 9.75 5.9585V18.4168C9.75 20.2043 11.2125 21.6668 13 21.6668C14.7875 21.6668 16.25 20.2043 16.25 18.4168V5.9585H14.625V18.4168Z" fill="black"/>
</svg>
