<svg width="26" height="26" viewBox="0 0 26 26" fill="none" xmlns="http://www.w3.org/2000/svg">
<path fill-rule="evenodd" clip-rule="evenodd" d="M22.4796 3.55335C21.8296 2.90335 21.0171 2.95751 20.4212 3.55335L18.8504 5.07001L18.2546 4.47418L5.79622 16.9325L9.04622 20.1825L21.5046 7.72418L20.9629 7.18251L22.4796 5.66585C23.0212 5.12418 23.0754 4.14918 22.4796 3.55335ZM13.4337 12.545C13.1087 12.22 13.1087 11.7867 13.4879 11.4075L18.7962 6.09918C19.1754 5.72001 19.6087 5.72001 19.9337 6.04501C20.2587 6.37001 20.2587 6.80335 19.8796 7.18251L14.5712 12.4908C14.1921 12.87 13.8129 12.87 13.4337 12.545ZM4.17122 22.3492L8.50456 20.7242L5.25456 17.4742L3.62956 21.8075L3.08789 22.3492L3.62956 22.8908L4.17122 22.3492Z" fill="black"/>
</svg>
