<svg width="26" height="26" viewBox="0 0 26 26" fill="none" xmlns="http://www.w3.org/2000/svg">
<path fill-rule="evenodd" clip-rule="evenodd" d="M7.14967 5.9585C4.60384 5.9585 2.70801 7.85433 2.70801 10.4002V15.6002C2.70801 18.146 5.14551 20.0418 7.69134 20.0418H16.7913V10.4002C16.7913 7.85433 14.8955 5.9585 12.3497 5.9585H7.14967ZM9.74967 17.8752C6.98717 17.8752 4.87467 15.7627 4.87467 13.0002C4.87467 10.2918 6.98717 8.12516 9.74967 8.12516C12.5122 8.12516 14.6247 10.2377 14.6247 13.0002C14.6247 15.7627 12.5122 17.8752 9.74967 17.8752ZM9.74967 11.3752C8.82884 11.3752 8.12467 12.0793 8.12467 13.0002C8.12467 13.921 8.82884 14.6252 9.74967 14.6252C10.6705 14.6252 11.3747 13.921 11.3747 13.0002C11.3747 12.0793 10.6705 11.3752 9.74967 11.3752ZM17.8747 16.7918V20.0418H23.2913V21.1252H24.3747V16.7918H17.8747Z" fill="black"/>
</svg>
