<svg width="26" height="26" viewBox="0 0 26 26" fill="none" xmlns="http://www.w3.org/2000/svg">
<path fill-rule="evenodd" clip-rule="evenodd" d="M19.6403 11.3513H14.2236C15.5236 10.3783 16.3903 8.81077 16.3903 7.02699C16.3903 4.05401 13.9528 1.62158 10.9736 1.62158C7.99448 1.62158 5.55698 4.05401 5.55698 7.02699C5.55698 7.99996 5.82781 8.97293 6.31531 9.78374L2.30698 13.5135C1.87365 13.9459 1.92781 14.7027 2.30698 15.1351C2.74031 15.5135 3.49865 15.5675 3.93198 15.1351L7.61531 11.2432C8.15698 11.6756 8.75281 12 9.45698 12.2162L7.72364 15.6756H5.55698V17.8378H6.64031V23.7837C6.64031 24.1081 6.85698 24.3243 7.18198 24.3243H9.34864C9.67364 24.3243 9.89031 24.1081 9.89031 23.7837V22.1621H19.6403V23.7837C19.6403 24.1081 19.857 24.3243 20.182 24.3243H22.3486C22.6736 24.3243 22.8903 24.1081 22.8903 23.7837V17.8378H23.9736V15.6756H21.807L19.6403 11.3513ZM10.9736 2.70266C13.357 2.70266 15.307 4.64861 15.307 7.02699C15.307 9.40537 13.357 11.3513 10.9736 11.3513C8.59031 11.3513 6.64031 9.40537 6.64031 7.02699C6.64031 4.64861 8.59031 2.70266 10.9736 2.70266ZM10.432 12.4324H19.0986L21.2653 16.7567H8.26531L10.432 12.4324ZM9.34864 18.9189C9.02364 18.9189 8.80698 18.7027 8.80698 18.3783C8.80698 18.054 9.02364 17.8378 9.34864 17.8378H11.5153C11.8403 17.8378 12.057 18.054 12.057 18.3783C12.057 18.7027 11.8403 18.9189 11.5153 18.9189H9.34864ZM18.0153 18.9189C17.6903 18.9189 17.4736 18.7027 17.4736 18.3783C17.4736 18.054 17.6903 17.8378 18.0153 17.8378H20.182C20.507 17.8378 20.7236 18.054 20.7236 18.3783C20.7236 18.7027 20.507 18.9189 20.182 18.9189H18.0153Z" fill="black"/>
</svg>
