<svg width="26" height="26" viewBox="0 0 26 26" fill="none" xmlns="http://www.w3.org/2000/svg">
<path fill-rule="evenodd" clip-rule="evenodd" d="M20.0413 5.95817C19.3913 4.98317 17.8747 4.33317 16.7913 3.7915H16.2497C15.9247 3.7915 15.708 3.954 15.6538 4.33317C15.4372 5.579 14.3538 6.49984 12.9997 6.49984C11.6455 6.49984 10.5622 5.579 10.3455 4.33317C10.2913 3.954 10.0747 3.7915 9.74967 3.7915H9.20801C8.12467 4.33317 6.55384 4.38734 5.95801 5.4165L2.70801 10.8332V11.3748L6.49967 12.4582V22.2082H19.4997V12.4582L23.2913 11.3748V10.8332L20.0413 5.95817ZM7.58301 21.1248V5.95817L9.47884 5.19984C10.0205 6.60817 11.3747 7.58317 12.9997 7.58317C14.6247 7.58317 15.9788 6.60817 16.5205 5.19984L18.4163 5.95817V21.1248H7.58301ZM14.083 10.8332C14.083 11.429 14.5705 11.9165 15.1663 11.9165H15.708C16.3038 11.9165 16.7913 11.429 16.7913 10.8332V8.6665H14.083V10.8332Z" fill="black"/>
</svg>
