<svg width="26" height="26" viewBox="0 0 26 26" fill="none" xmlns="http://www.w3.org/2000/svg">
<path fill-rule="evenodd" clip-rule="evenodd" d="M18.958 5.14551C15.708 5.14551 12.9997 7.79967 12.9997 11.1038C12.9997 13.108 14.083 14.8955 15.708 15.9788V18.6872C15.708 19.0122 15.9247 19.2288 16.2497 19.2288C16.683 19.2288 17.8747 18.633 18.958 17.008C22.208 17.008 24.9163 14.2997 24.9163 11.1038C24.9163 7.79967 22.208 5.14551 18.958 5.14551ZM18.4163 12.1872V7.85384H19.4997V12.1872H18.4163ZM6.49967 8.39551C3.57467 8.39551 1.08301 10.7788 1.08301 13.8122C1.08301 16.7372 3.57467 19.2288 6.49967 19.2288C7.04134 20.3122 7.69134 20.8538 8.12467 20.8538C8.44967 20.8538 8.66634 20.6372 8.66634 20.3122V18.6872C10.5622 17.8747 11.9163 15.9247 11.9163 13.8122C11.9163 10.7788 9.42467 8.39551 6.49967 8.39551ZM6.49967 18.1455C4.06217 18.1455 2.16634 16.2497 2.16634 13.8122C2.16634 11.3747 4.06217 9.47884 6.49967 9.47884C8.93717 9.47884 10.833 11.3747 10.833 13.8122C10.833 16.2497 8.93717 18.1455 6.49967 18.1455ZM6.49967 10.5622C5.30801 10.5622 4.33301 11.5372 4.33301 12.7288H5.41634C5.41634 12.133 5.90384 11.6455 6.49967 11.6455C7.09551 11.6455 7.58301 12.133 7.58301 12.7288C7.58301 13.3247 7.09551 13.8122 6.49967 13.8122H5.95801V14.8955H6.49967C7.69134 14.8955 8.66634 13.9205 8.66634 12.7288C8.66634 11.5372 7.69134 10.5622 6.49967 10.5622ZM18.4163 14.3538V13.2705H19.4997V14.3538H18.4163ZM7.04134 17.0622V15.9788H5.95801V17.0622H7.04134Z" fill="black"/>
</svg>
