<svg width="26" height="26" viewBox="0 0 26 26" fill="none" xmlns="http://www.w3.org/2000/svg">
<path fill-rule="evenodd" clip-rule="evenodd" d="M7.58301 2.16699C4.92884 2.16699 2.70801 4.33366 2.70801 7.04199C2.70801 9.69616 4.92884 11.917 7.58301 11.917C8.12467 13.0003 8.77467 13.542 9.20801 13.542C9.53301 13.542 9.74967 13.3253 9.74967 13.0003V11.3753C11.3205 10.5628 12.458 8.93783 12.458 7.04199C12.458 4.33366 10.2372 2.16699 7.58301 2.16699ZM18.4163 2.16699C15.7622 2.16699 13.5413 4.33366 13.5413 7.04199C13.5413 8.93783 14.6788 10.5628 16.2497 11.3753V13.0003C16.2497 13.3253 16.4663 13.542 16.7913 13.542C17.2247 13.542 17.8747 13.0003 18.4163 11.917C21.0705 11.917 23.2913 9.69616 23.2913 7.04199C23.2913 4.33366 21.0705 2.16699 18.4163 2.16699ZM18.4163 10.8337C16.3038 10.8337 14.6247 9.15449 14.6247 7.04199C14.6247 4.92949 16.3038 3.25033 18.4163 3.25033C20.5288 3.25033 22.208 4.92949 22.208 7.04199C22.208 9.15449 20.5288 10.8337 18.4163 10.8337ZM7.04134 8.12533V7.04199H7.58301C8.17884 7.04199 8.66634 6.55449 8.66634 5.95866C8.66634 5.36283 8.17884 4.87533 7.58301 4.87533C6.98717 4.87533 6.49967 5.36283 6.49967 5.95866H5.41634C5.41634 4.76699 6.39134 3.79199 7.58301 3.79199C8.77467 3.79199 9.74967 4.76699 9.74967 5.95866C9.74967 7.15033 8.77467 8.12533 7.58301 8.12533H7.04134ZM18.958 7.58366V4.33366H17.8747V7.58366H18.958ZM18.958 9.75033V8.66699H17.8747V9.75033H18.958ZM7.04134 9.20866H8.12467V10.292H7.04134V9.20866ZM11.3747 17.3337C11.3747 16.142 10.3997 15.167 9.20801 15.167C8.01634 15.167 7.04134 16.142 7.04134 17.3337C7.04134 18.5253 8.01634 19.5003 9.20801 19.5003C10.3997 19.5003 11.3747 18.5253 11.3747 17.3337ZM18.958 17.3337C18.958 16.142 17.983 15.167 16.7913 15.167C15.5997 15.167 14.6247 16.142 14.6247 17.3337C14.6247 18.5253 15.5997 19.5003 16.7913 19.5003C17.983 19.5003 18.958 18.5253 18.958 17.3337ZM9.20801 20.042C7.36634 20.042 5.95801 21.4503 5.95801 23.292H12.458C12.458 21.4503 11.0497 20.042 9.20801 20.042ZM16.7913 20.042C14.9497 20.042 13.5413 21.4503 13.5413 23.292H20.0413C20.0413 21.4503 18.633 20.042 16.7913 20.042Z" fill="black"/>
</svg>
