<svg width="26" height="26" viewBox="0 0 26 26" fill="none" xmlns="http://www.w3.org/2000/svg">
<path d="M13.1716 14.2417C13.6456 13.6565 14.187 13.1292 14.7846 12.6709C14.8424 12.6346 14.9117 12.6213 14.9787 12.6338C15.0457 12.6464 15.1056 12.6837 15.1463 12.7384C15.187 12.7932 15.2056 12.8612 15.1983 12.9291C15.191 12.9969 15.1584 13.0594 15.1069 13.1042C15.0923 13.1151 14.2208 13.771 13.5496 14.6317C13.8614 14.8592 14.2441 14.9678 14.6289 14.938C15.0136 14.9082 15.375 14.742 15.6481 14.4692C16.6924 13.4282 16.9307 11.5616 16.9833 10.8477C16.2688 10.9018 14.4017 11.1418 13.3601 12.1834C13.0936 12.4507 12.9289 12.8027 12.8944 13.1786C12.86 13.5544 12.958 13.9305 13.1716 14.2417Z" fill="black"/>
<path d="M11.0856 12.9282C10.4096 12.4949 9.40645 12.5431 8.91895 12.6032C9.07115 13.0723 9.44599 14.0034 10.1204 14.4351C10.2691 14.5307 10.4429 14.5801 10.6197 14.577C10.7965 14.5739 10.9684 14.5185 11.1138 14.4178C10.7654 14.1037 10.3868 13.825 9.98332 13.5858C9.92846 13.5472 9.88984 13.4897 9.87495 13.4243C9.86006 13.359 9.86995 13.2904 9.90271 13.2319C9.93547 13.1734 9.98876 13.1291 10.0523 13.1076C10.1158 13.0862 10.185 13.089 10.2466 13.1156C10.6733 13.3666 11.0742 13.6592 11.4431 13.9893C11.5134 13.7982 11.5163 13.5888 11.4513 13.3958C11.3863 13.2028 11.2572 13.0378 11.0856 12.9282V12.9282Z" fill="black"/>
<path d="M16.3908 6.42487H16.1958V5.16171H17.102V3.96191H8.7528V5.16171H9.65901V6.42487H9.46184C8.92858 6.42487 8.41716 6.63671 8.04008 7.01378C7.66301 7.39086 7.45117 7.90228 7.45117 8.43554V18.3919C7.45117 18.925 7.66295 19.4363 8.03992 19.8133C8.4169 20.1903 8.92818 20.402 9.4613 20.402H9.40713V21.6018H16.445V20.402H16.3908C16.924 20.402 17.4352 20.1903 17.8122 19.8133C18.1892 19.4363 18.401 18.925 18.401 18.3919V8.43554C18.401 8.17152 18.3491 7.91007 18.2481 7.66613C18.1471 7.42219 17.9991 7.20053 17.8124 7.01382C17.6257 6.8271 17.4041 6.67899 17.1602 6.57794C16.9163 6.47688 16.6549 6.42487 16.3908 6.42487V6.42487ZM14.9933 6.42487H13.526V5.16171H14.9933V6.42487ZM10.8588 5.16171H12.3262V6.42487H10.8588V5.16171ZM16.0301 14.8516C15.6671 15.2143 15.1867 15.4357 14.6751 15.4761C14.1635 15.5165 13.6543 15.3732 13.2389 15.072C12.9713 15.4978 12.7844 15.9517 12.7844 16.3899H12.2428C12.2428 15.7941 11.8896 15.2378 11.4969 14.8007C11.2625 14.9876 10.9755 15.0965 10.6761 15.1121C10.3767 15.1276 10.0799 15.049 9.82746 14.8873C8.72192 14.1832 8.32596 12.511 8.3108 12.4401V12.4336C8.29671 12.3635 8.31089 12.2907 8.35026 12.231C8.38963 12.1714 8.45099 12.1297 8.52096 12.1151C8.59192 12.1005 10.2781 11.7668 11.3793 12.4737C11.6878 12.6715 11.9088 12.98 11.9968 13.3357C12.0849 13.6915 12.0333 14.0674 11.8528 14.3863C12.1126 14.6582 12.3331 14.9653 12.5076 15.2985C12.6035 15.09 12.7152 14.8891 12.8418 14.6977C12.5009 14.2838 12.3263 13.7578 12.352 13.2222C12.3778 12.6866 12.602 12.1797 12.981 11.8004C14.4365 10.346 17.1519 10.2918 17.2667 10.2918C17.3026 10.2918 17.338 10.2989 17.3711 10.3128C17.4042 10.3266 17.4342 10.3468 17.4594 10.3723C17.4846 10.3978 17.5045 10.428 17.5179 10.4613C17.5313 10.4945 17.538 10.5301 17.5375 10.5659C17.5381 10.6797 17.4888 13.3945 16.0301 14.8516Z" fill="black"/>
</svg>
