<svg width="26" height="26" viewBox="0 0 26 26" fill="none" xmlns="http://www.w3.org/2000/svg">
<path d="M22.1094 7.03764C22.0585 6.98669 21.9979 6.94641 21.9312 6.91916C21.8645 6.89191 21.7931 6.87823 21.721 6.87893C21.4903 6.88218 16.0395 6.98726 13.1172 9.90847C12.3565 10.6701 11.9065 11.6876 11.8548 12.7627C11.8032 13.8379 12.1535 14.8938 12.8377 15.7249C12.584 16.1091 12.3598 16.512 12.1671 16.9301C11.8573 16.3184 11.4192 15.7079 10.853 15.0987C11.2152 14.4586 11.3185 13.7041 11.1417 12.9901C10.9649 12.2762 10.5215 11.6571 9.90239 11.2599C7.69185 9.84131 4.30805 10.5113 4.16559 10.5406C4.09476 10.5551 4.02755 10.5836 3.96791 10.6245C3.90827 10.6653 3.85741 10.7177 3.81834 10.7785C3.77927 10.8394 3.75277 10.9074 3.7404 10.9786C3.72804 11.0499 3.73006 11.1229 3.74634 11.1933C3.77884 11.3352 4.57455 14.686 6.79268 16.1046C7.2994 16.4292 7.89503 16.5869 8.49598 16.5557C9.09692 16.5246 9.67303 16.306 10.1434 15.9307C10.9321 16.8088 11.6406 17.9289 11.6406 19.1206H12.7239C12.7239 18.2409 13.0988 17.3298 13.6361 16.4756C14.47 17.0803 15.4921 17.3678 16.5189 17.2867C17.5457 17.2056 18.51 16.7611 19.2386 16.0331C22.1668 13.1081 22.2654 7.65947 22.2681 7.42872C22.2692 7.35623 22.2557 7.28427 22.2284 7.21709C22.2011 7.14991 22.1607 7.08889 22.1094 7.03764V7.03764ZM7.37605 15.1919C6.02189 14.3252 5.26951 12.4559 4.96455 11.5151C5.94714 11.3997 7.95889 11.3022 9.31576 12.1721C9.65864 12.3922 9.91635 12.7226 10.0465 13.1087C10.1767 13.4948 10.1715 13.9137 10.0318 14.2965C9.2912 13.6343 8.48667 13.0471 7.6301 12.5437C7.50584 12.4838 7.3634 12.4735 7.23184 12.515C7.10027 12.5565 6.9895 12.6466 6.92213 12.767C6.85475 12.8874 6.83584 13.029 6.86926 13.1628C6.90268 13.2966 6.98591 13.4127 7.10197 13.4873C7.91199 13.967 8.67211 14.5265 9.37101 15.1572C9.07922 15.3592 8.73416 15.4703 8.37932 15.4765C8.02449 15.4826 7.67578 15.3836 7.37714 15.1919H7.37605ZM18.471 15.265C17.9228 15.8122 17.1973 16.1456 16.425 16.2052C15.6528 16.2648 14.8846 16.0466 14.259 15.59C15.6061 13.8621 17.3557 12.5453 17.3844 12.5236C17.4899 12.4346 17.5574 12.3086 17.5732 12.1715C17.5889 12.0344 17.5517 11.8964 17.4692 11.7858C17.3866 11.6751 17.2649 11.6002 17.129 11.5763C16.993 11.5523 16.8531 11.5812 16.7377 11.657C16.6163 11.7469 14.9063 13.0328 13.4996 14.8089C13.071 14.1839 12.8743 13.4288 12.9436 12.6741C13.0128 11.9194 13.3436 11.2126 13.8788 10.676C15.9691 8.58572 19.7169 8.10472 21.1512 7.99531C21.0456 9.42801 20.5667 13.1753 18.471 15.265Z" fill="black"/>
</svg>
