<svg width="26" height="26" viewBox="0 0 26 26" fill="none" xmlns="http://www.w3.org/2000/svg">
<path d="M21.169 16.2286L20.2157 17.1825C20.1335 17.2647 20.0359 17.3299 19.9285 17.3744C19.8211 17.4189 19.706 17.4418 19.5898 17.4418C19.4736 17.4418 19.3584 17.4189 19.2511 17.3744C19.1437 17.3299 19.0461 17.2647 18.9639 17.1825L18.0106 16.2286C17.911 16.1291 17.7927 16.0503 17.6626 15.9965C17.5325 15.9428 17.393 15.9153 17.2522 15.9155H15.3358C15.195 15.9152 15.0556 15.9427 14.9254 15.9964C14.7953 16.0502 14.677 16.1291 14.5775 16.2286L13.6236 17.1825C13.5415 17.2647 13.4439 17.3299 13.3366 17.3743C13.2292 17.4188 13.1142 17.4417 12.998 17.4417C12.8818 17.4417 12.7667 17.4188 12.6594 17.3743C12.552 17.3299 12.4545 17.2647 12.3724 17.1825L11.4185 16.2286C11.3189 16.1291 11.2007 16.0502 11.0705 15.9964C10.9404 15.9427 10.8009 15.9152 10.6601 15.9155H8.41602C8.27523 15.9152 8.13577 15.9427 8.00563 15.9964C7.8755 16.0502 7.75725 16.1291 7.65769 16.2286L6.70598 17.1825C6.62384 17.2647 6.5263 17.3299 6.41896 17.3743C6.31161 17.4188 6.19655 17.4417 6.08035 17.4417C5.96416 17.4417 5.8491 17.4188 5.74175 17.3743C5.6344 17.3299 5.53687 17.2647 5.45473 17.1825L4.50085 16.2286C4.40129 16.1291 4.28305 16.0502 4.15291 15.9964C4.02278 15.9427 3.88331 15.9152 3.74252 15.9155H2.25781V22.6864H23.4126V15.9155H21.9252C21.6416 15.9156 21.3696 16.0282 21.169 16.2286V16.2286Z" fill="currentColor"/>
<path d="M23.4126 8.16111V6.32378H20.5087V5.96736C20.5174 5.84142 20.5 5.71503 20.4578 5.59607C20.4156 5.47711 20.3493 5.3681 20.2631 5.27582C20.177 5.18354 20.0728 5.10997 19.957 5.05966C19.8412 5.00936 19.7163 4.9834 19.5901 4.9834C19.4638 4.9834 19.3389 5.00936 19.2231 5.05966C19.1073 5.10997 19.0031 5.18354 18.917 5.27582C18.8308 5.3681 18.7646 5.47711 18.7223 5.59607C18.6801 5.71503 18.6627 5.84142 18.6714 5.96736V6.32378H13.8619V5.96736C13.8619 5.72314 13.7649 5.48893 13.5922 5.31624C13.4195 5.14355 13.1853 5.04653 12.9411 5.04653C12.6969 5.04653 12.4627 5.14355 12.29 5.31624C12.1173 5.48893 12.0203 5.72314 12.0203 5.96736V6.32378H6.99902V5.96736C6.99902 5.72314 6.902 5.48893 6.72931 5.31624C6.55663 5.14355 6.32241 5.04653 6.07819 5.04653V5.04653C5.83397 5.04653 5.59975 5.14355 5.42706 5.31624C5.25437 5.48893 5.15735 5.72314 5.15735 5.96736V6.32378H2.25781V8.16111H5.16169V10.0678L4.52902 9.8327C3.81727 9.56728 3.13748 10.2904 3.44569 10.9848L5.56685 15.7623C5.61064 15.8624 5.68263 15.9475 5.77402 16.0072C5.86541 16.067 5.97224 16.0988 6.08144 16.0988C6.19063 16.0988 6.29746 16.067 6.38886 16.0072C6.48025 15.9475 6.55224 15.8624 6.59602 15.7623L8.71773 10.9859C9.02594 10.2915 8.34615 9.56836 7.6344 9.83378L7.00173 10.0689V8.1622H12.0251V10.0689L11.3925 9.83378C10.6807 9.56836 10.0009 10.2915 10.3091 10.9859L12.4298 15.7623C12.4739 15.8616 12.5459 15.9459 12.637 16.0051C12.7281 16.0643 12.8344 16.0958 12.943 16.0958C13.0516 16.0958 13.1579 16.0643 13.249 16.0051C13.3401 15.9459 13.4121 15.8616 13.4562 15.7623L15.5779 10.9859C15.6464 10.8316 15.6678 10.6605 15.6395 10.494C15.6112 10.3276 15.5344 10.1732 15.4187 10.0502C15.3031 9.92723 15.1537 9.84109 14.9893 9.80259C14.8249 9.76409 14.6528 9.77494 14.4946 9.83378L13.8625 10.0689V8.1622H18.6714V10.0689L18.0376 9.8327C17.8794 9.77358 17.7072 9.76253 17.5427 9.80093C17.3781 9.83933 17.2286 9.92548 17.1129 10.0486C16.9972 10.1716 16.9204 10.3262 16.8922 10.4927C16.864 10.6593 16.8856 10.8305 16.9543 10.9848L19.0766 15.7623C19.1207 15.8616 19.1927 15.9459 19.2838 16.0051C19.3749 16.0643 19.4812 16.0958 19.5898 16.0958C19.6984 16.0958 19.8047 16.0643 19.8958 16.0051C19.9869 15.9459 20.0589 15.8616 20.103 15.7623L22.2242 10.9859C22.2929 10.8316 22.3145 10.6604 22.2863 10.4938C22.2581 10.3272 22.1813 10.1727 22.0656 10.0496C21.9499 9.92657 21.8004 9.84042 21.6358 9.80201C21.4713 9.76361 21.2991 9.77466 21.1409 9.83378L20.5087 10.0689V8.1622L23.4126 8.16111Z" fill="currentColor"/>
</svg>
