<svg width="26" height="26" viewBox="0 0 26 26" fill="none" xmlns="http://www.w3.org/2000/svg">
<path fill-rule="evenodd" clip-rule="evenodd" d="M3.52051 5.14551V19.7705C3.52051 20.3663 4.00801 20.8538 4.60384 20.8538H21.9372V19.7705H4.60384V5.14551H3.52051ZM17.0622 6.77051V8.39551H19.7705L15.4372 12.7288L12.0788 11.0497C11.4288 10.7247 10.9955 11.1038 10.5622 11.6455L7.31217 15.4372C6.98717 15.7622 6.98717 16.1955 7.31217 16.5205C7.63717 16.8455 8.01634 16.8997 8.39551 16.5205L11.6997 12.7288L14.8413 14.3538C15.4913 14.6788 15.7622 14.5705 16.3038 14.0288L20.8538 9.47884V12.1872H22.4788V7.36634C22.4788 7.04134 22.2622 6.77051 21.9372 6.77051H17.0622Z" fill="black"/>
</svg>
