<svg width="26" height="26" viewBox="0 0 26 26" fill="none" xmlns="http://www.w3.org/2000/svg">
<path d="M21.8531 11.7509H21.7053C22.0742 11.1932 22.2852 10.5459 22.3156 9.87785C22.3461 9.20981 22.1949 8.54599 21.8782 7.95701C21.5615 7.36802 21.091 6.87588 20.5169 6.53292C19.9428 6.18996 19.2865 6.009 18.6178 6.00928H7.4784C6.80923 6.00867 6.15242 6.18955 5.5779 6.53265C5.00338 6.87574 4.53266 7.36822 4.21586 7.95765C3.89905 8.54707 3.74802 9.21138 3.77884 9.87984C3.80967 10.5483 4.02119 11.1959 4.3909 11.7537H4.31723C3.343 11.7654 2.41268 12.1607 1.72793 12.8538C1.04318 13.5469 0.65918 14.4819 0.65918 15.4562C0.65918 16.4305 1.04318 17.3656 1.72793 18.0586C2.41268 18.7517 3.343 19.147 4.31723 19.1588H21.8531C22.8274 19.147 23.7577 18.7517 24.4424 18.0586C25.1272 17.3656 25.5112 16.4305 25.5112 15.4562C25.5112 14.4819 25.1272 13.5469 24.4424 12.8538C23.7577 12.1607 22.8274 11.7654 21.8531 11.7537V11.7509ZM22.3948 18.0159C22.2166 18.0526 22.0351 18.0708 21.8531 18.07V18.07C21.506 18.075 21.1614 18.011 20.8392 17.8816C20.517 17.7522 20.2238 17.5601 19.9766 17.3163C19.7293 17.0726 19.533 16.7822 19.399 16.4619C19.265 16.1417 19.196 15.798 19.196 15.4508C19.196 15.1036 19.265 14.7599 19.399 14.4397C19.533 14.1194 19.7293 13.829 19.9766 13.5853C20.2238 13.3416 20.517 13.1494 20.8392 13.02C21.1614 12.8906 21.506 12.8266 21.8531 12.8316V12.8316C22.5008 12.8312 23.1257 13.0709 23.607 13.5043C24.0883 13.9377 24.392 14.5341 24.4593 15.1782C24.5266 15.8224 24.3529 16.4687 23.9716 16.9923C23.5903 17.5158 23.0286 17.8795 22.3948 18.0132V18.0159ZM15.4571 18.07C15.2752 18.071 15.0936 18.0529 14.9155 18.0159C14.3285 17.8909 13.8022 17.5682 13.4246 17.1018C13.047 16.6353 12.8409 16.0534 12.8409 15.4532C12.8409 14.8531 13.047 14.2711 13.4246 13.8047C13.8022 13.3382 14.3285 13.0156 14.9155 12.8906C14.9523 12.883 14.9897 12.8765 15.0265 12.87C15.1688 12.8463 15.3129 12.8344 15.4571 12.8343V12.8343C15.6014 12.8343 15.7455 12.8463 15.8878 12.87C15.9251 12.8765 15.9625 12.883 15.9988 12.8906C16.6321 13.0248 17.1933 13.3887 17.5742 13.9122C17.955 14.4357 18.1285 15.0817 18.0612 15.7256C17.9939 16.3694 17.6906 16.9656 17.2097 17.399C16.7289 17.8324 16.1045 18.0724 15.4571 18.0727V18.07ZM20.2585 11.7509C19.9389 12.0081 19.5634 12.1866 19.1621 12.272C19.1253 12.2796 19.0885 12.2861 19.0511 12.2926C18.9088 12.3163 18.7648 12.3283 18.6205 12.3284V12.3284C18.4753 12.3285 18.3304 12.3165 18.1871 12.2926C18.1498 12.2861 18.1129 12.2796 18.0788 12.272C17.4455 12.1379 16.8843 11.7739 16.5034 11.2504C16.1226 10.7269 15.9491 10.0809 16.0164 9.43708C16.0837 8.79321 16.387 8.19708 16.8679 7.76365C17.3488 7.33022 17.9731 7.09021 18.6205 7.0899V7.0899C19.1629 7.08963 19.692 7.25786 20.1347 7.57135C20.5774 7.88483 20.9118 8.32808 21.0916 8.83983C21.2714 9.35158 21.2879 9.90656 21.1386 10.4281C20.9894 10.9496 20.6818 11.4118 20.2585 11.7509V11.7509Z" fill="black"/>
<path d="M22.395 14.6791C22.2216 14.558 22.0127 14.4985 21.8016 14.5102C21.5904 14.5219 21.3893 14.6042 21.2304 14.7437C21.0716 14.8832 20.9641 15.0721 20.9253 15.2799C20.8864 15.4878 20.9184 15.7027 21.0162 15.8902C21.1139 16.0777 21.2718 16.227 21.4644 16.3141C21.6571 16.4013 21.8734 16.4213 22.0788 16.3709C22.2842 16.3206 22.4667 16.2028 22.5972 16.0364C22.7277 15.87 22.7986 15.6646 22.7985 15.4532C22.7989 15.3011 22.7624 15.1513 22.6921 15.0165C22.6218 14.8816 22.5198 14.7659 22.395 14.6791V14.6791Z" fill="black"/>
<path d="M19.1599 8.93777C18.9866 8.81691 18.7778 8.75768 18.5668 8.76956C18.3558 8.78145 18.155 8.86376 17.9963 9.00332C17.8377 9.14289 17.7304 9.33164 17.6917 9.53937C17.6531 9.7471 17.6852 9.9618 17.783 10.1491C17.8808 10.3364 18.0385 10.4855 18.2311 10.5725C18.4236 10.6596 18.6398 10.6795 18.845 10.6291C19.0502 10.5787 19.2326 10.4609 19.363 10.2946C19.4933 10.1283 19.5641 9.92311 19.564 9.71181C19.5644 9.55971 19.5279 9.40979 19.4575 9.27495C19.3871 9.14011 19.285 9.0244 19.1599 8.93777V8.93777Z" fill="black"/>
<path d="M15.9988 14.679C15.8255 14.5581 15.6166 14.4989 15.4057 14.5108C15.1947 14.5227 14.9938 14.605 14.8352 14.7445C14.6765 14.8841 14.5693 15.0728 14.5306 15.2806C14.4919 15.4883 14.524 15.703 14.6218 15.8903C14.7196 16.0776 14.8774 16.2267 15.07 16.3137C15.2625 16.4008 15.4787 16.4207 15.6839 16.3703C15.8891 16.3199 16.0715 16.2021 16.2018 16.0358C16.3322 15.8695 16.403 15.6643 16.4029 15.453C16.4034 15.3009 16.3669 15.1509 16.2965 15.0161C16.2261 14.8812 16.1239 14.7655 15.9988 14.679Z" fill="black"/>
</svg>
