<svg width="26" height="26" viewBox="0 0 26 26" fill="none" xmlns="http://www.w3.org/2000/svg">
<path fill-rule="evenodd" clip-rule="evenodd" d="M24.8188 21.7154L24.0063 20.9029L21.7746 23.1346V16.1362H20.5559V23.14L18.3242 20.9083L17.5117 21.7208L20.7617 24.9708C20.9676 25.1767 21.3684 25.1767 21.5742 24.9708L24.8188 21.7154Z" fill="black"/>
<path d="M8.52543 9.54443C9.85251 9.54443 10.665 10.319 10.8763 11.4457H9.71709C9.52751 10.9311 9.17543 10.5844 8.53084 10.5844C7.6371 10.5844 7.10626 11.3699 7.10626 12.4424C7.10626 13.504 7.6371 14.3003 8.53084 14.3003C9.18084 14.3003 9.52751 13.9536 9.71709 13.4336H10.8763C10.665 14.5657 9.85251 15.3457 8.52543 15.3457C7.02501 15.3457 5.90918 14.1649 5.90918 12.4478C5.9146 10.7253 7.03043 9.54443 8.52543 9.54443Z" fill="black"/>
<path d="M14.0399 15.3456C12.4745 15.3456 11.3857 14.1215 11.3857 12.4477C11.3857 10.7631 12.4745 9.5498 14.0399 9.5498C15.6053 9.5498 16.6995 10.7686 16.6995 12.4477C16.7049 14.1161 15.6053 15.3456 14.0399 15.3456ZM14.0399 10.5898C13.1516 10.5898 12.5774 11.3481 12.5774 12.4477C12.5774 13.5473 13.1516 14.3056 14.0399 14.3056C14.9337 14.3056 15.5187 13.5473 15.5187 12.4477C15.5187 11.3481 14.9391 10.5898 14.0399 10.5898Z" fill="black"/>
<path d="M18.1078 14.0075C17.8315 14.0075 17.6853 14.2025 17.669 14.4625H16.9648C17.0298 13.8559 17.4578 13.4009 18.1023 13.4009C18.7903 13.4009 19.2019 13.7855 19.2019 14.3759C19.2019 14.7875 18.8878 15.1071 18.5519 15.4592L17.9236 16.1363H19.2398V16.7267H16.9757V16.2825L18.0157 15.1884C18.3028 14.8742 18.5248 14.6467 18.5248 14.3975C18.5248 14.17 18.3678 14.0075 18.1078 14.0075Z" fill="black"/>
<path fill-rule="evenodd" clip-rule="evenodd" d="M19.8409 19.3918V18.3084H18.958H5.95801C3.84551 18.3084 2.16634 16.6293 2.16634 14.5168C2.16634 13.2168 2.81634 12.0793 3.79134 11.3751L4.44134 11.0501C4.71217 10.9418 4.87467 10.6709 4.87467 10.4001V9.64177C4.87467 8.1251 6.06634 6.93343 7.58301 6.93343C8.34134 6.93343 9.04551 7.25843 9.53301 7.74593C9.85801 8.01677 10.2913 8.01677 10.508 7.6376C11.3747 6.28343 12.8913 5.30843 14.6247 5.30843C17.2788 5.30843 19.4997 7.58343 19.4997 10.1834C19.4997 10.5084 19.7163 10.7251 20.0413 10.7251C22.1538 10.7251 23.833 12.4043 23.833 14.5168C23.833 15.7247 23.2805 16.7918 22.4138 17.4851V18.7851C23.9088 17.9564 24.9163 16.3584 24.9163 14.5168C24.9163 11.9709 23.0205 9.9126 20.583 9.64177C20.3122 6.71677 17.7122 4.2251 14.6247 4.2251C12.7288 4.2251 10.9955 5.14593 9.91217 6.60843C9.26217 6.12093 8.44967 5.8501 7.58301 5.8501C5.47051 5.8501 3.79134 7.52927 3.79134 9.64177V10.1293C2.16634 10.9418 1.08301 12.5668 1.08301 14.5168C1.08301 17.2251 3.24967 19.3918 5.95801 19.3918H18.958H19.8409Z" fill="black"/>
</svg>
