<svg width="26" height="26" viewBox="0 0 26 26" fill="none" xmlns="http://www.w3.org/2000/svg">
<path d="M21.2336 16.7427C21.1043 16.7427 20.9803 16.794 20.8889 16.8855C20.7975 16.9769 20.7461 17.1009 20.7461 17.2302V18.5302C20.7461 18.6595 20.7975 18.7835 20.8889 18.8749C20.9803 18.9663 21.1043 19.0177 21.2336 19.0177C21.3629 19.0177 21.4869 18.9663 21.5783 18.8749C21.6697 18.7835 21.7211 18.6595 21.7211 18.5302V17.2302C21.7211 17.1009 21.6697 16.9769 21.5783 16.8855C21.4869 16.794 21.3629 16.7427 21.2336 16.7427V16.7427Z" fill="black"/>
<path d="M21.2336 12.3892C21.1043 12.3892 20.9803 12.4405 20.8889 12.5319C20.7975 12.6234 20.7461 12.7474 20.7461 12.8767V15.0536C20.7461 15.1829 20.7975 15.3069 20.8889 15.3983C20.9803 15.4898 21.1043 15.5411 21.2336 15.5411C21.3629 15.5411 21.4869 15.4898 21.5783 15.3983C21.6697 15.3069 21.7211 15.1829 21.7211 15.0536V12.8767C21.7211 12.7474 21.6697 12.6234 21.5783 12.5319C21.4869 12.4405 21.3629 12.3892 21.2336 12.3892V12.3892Z" fill="black"/>
<path d="M21.2336 8.03516C21.1043 8.03516 20.9803 8.08652 20.8889 8.17794C20.7975 8.26937 20.7461 8.39336 20.7461 8.52266V10.6996C20.7461 10.8289 20.7975 10.9529 20.8889 11.0443C20.9803 11.1358 21.1043 11.1871 21.2336 11.1871C21.3629 11.1871 21.4869 11.1358 21.5783 11.0443C21.6697 10.9529 21.7211 10.8289 21.7211 10.6996V8.52266C21.7211 8.39336 21.6697 8.26937 21.5783 8.17794C21.4869 8.08652 21.3629 8.03516 21.2336 8.03516V8.03516Z" fill="black"/>
<path d="M7.7502 5.53262H9.05019C9.17949 5.53262 9.30348 5.48125 9.39491 5.38983C9.48633 5.29841 9.53769 5.17441 9.53769 5.04512C9.53769 4.91582 9.48633 4.79183 9.39491 4.7004C9.30348 4.60898 9.17949 4.55762 9.05019 4.55762H7.7502C7.6209 4.55762 7.4969 4.60898 7.40548 4.7004C7.31406 4.79183 7.2627 4.91582 7.2627 5.04512C7.2627 5.17441 7.31406 5.29841 7.40548 5.38983C7.4969 5.48125 7.6209 5.53262 7.7502 5.53262Z" fill="black"/>
<path d="M11.2277 5.53262H13.4047C13.534 5.53262 13.658 5.48125 13.7494 5.38983C13.8408 5.29841 13.8922 5.17441 13.8922 5.04512C13.8922 4.91582 13.8408 4.79183 13.7494 4.7004C13.658 4.60898 13.534 4.55762 13.4047 4.55762H11.2277C11.0984 4.55762 10.9744 4.60898 10.883 4.7004C10.7916 4.79183 10.7402 4.91582 10.7402 5.04512C10.7402 5.17441 10.7916 5.29841 10.883 5.38983C10.9744 5.48125 11.0984 5.53262 11.2277 5.53262Z" fill="black"/>
<path d="M15.5813 5.53262H17.7582C17.8875 5.53262 18.0115 5.48125 18.1029 5.38983C18.1943 5.29841 18.2457 5.17441 18.2457 5.04512C18.2457 4.91582 18.1943 4.79183 18.1029 4.7004C18.0115 4.60898 17.8875 4.55762 17.7582 4.55762H15.5813C15.452 4.55762 15.328 4.60898 15.2365 4.7004C15.1451 4.79183 15.0938 4.91582 15.0938 5.04512C15.0938 5.17441 15.1451 5.29841 15.2365 5.38983C15.328 5.48125 15.452 5.53262 15.5813 5.53262Z" fill="black"/>
<path d="M21.2328 4.55762H19.9328C19.8035 4.55762 19.6795 4.60898 19.5881 4.7004C19.4967 4.79183 19.4453 4.91582 19.4453 5.04512C19.4453 5.17441 19.4967 5.29841 19.5881 5.38983C19.6795 5.48126 19.8035 5.53262 19.9328 5.53262H20.7453V6.34512C20.7453 6.47441 20.7967 6.59841 20.8881 6.68983C20.9795 6.78126 21.1035 6.83262 21.2328 6.83262C21.3621 6.83262 21.4861 6.78126 21.5775 6.68983C21.669 6.59841 21.7203 6.47441 21.7203 6.34512V5.04512C21.7203 4.91582 21.669 4.79183 21.5775 4.7004C21.4861 4.60898 21.3621 4.55762 21.2328 4.55762V4.55762Z" fill="black"/>
<path d="M20.0805 19.4497C19.9885 19.3616 19.8655 19.313 19.738 19.3144C19.6105 19.3158 19.4887 19.3671 19.3986 19.4573C19.3085 19.5475 19.2573 19.6694 19.256 19.7968C19.2546 19.9243 19.3033 20.0472 19.3915 20.1393L19.9652 20.7129H5.47396V6.22221L6.04759 6.79638C6.13903 6.88782 6.26304 6.93919 6.39236 6.93919C6.52167 6.93919 6.64569 6.88782 6.73713 6.79638C6.82857 6.70494 6.87994 6.58092 6.87994 6.45161C6.87994 6.3223 6.82857 6.19828 6.73713 6.10684L5.3315 4.69851C5.28623 4.65322 5.23248 4.6173 5.17333 4.59279C5.11417 4.56828 5.05077 4.55566 4.98673 4.55566C4.9227 4.55566 4.8593 4.56828 4.80014 4.59279C4.74098 4.6173 4.68723 4.65322 4.64196 4.69851L3.23363 6.10684C3.18835 6.15212 3.15244 6.20587 3.12794 6.26502C3.10343 6.32418 3.09082 6.38758 3.09082 6.45161C3.09082 6.58092 3.14219 6.70494 3.23363 6.79638C3.32507 6.88782 3.44909 6.93919 3.5784 6.93919C3.70771 6.93919 3.83173 6.88782 3.92317 6.79638L4.4968 6.22221V21.2004C4.4968 21.3297 4.54816 21.4537 4.63958 21.5451C4.73101 21.6365 4.855 21.6879 4.9843 21.6879H19.9646L19.3915 22.2626C19.3447 22.3075 19.3073 22.3613 19.2815 22.4209C19.2558 22.4804 19.2421 22.5446 19.2415 22.6095C19.2408 22.6743 19.2531 22.7387 19.2776 22.7988C19.3022 22.8589 19.3384 22.9135 19.3844 22.9593C19.4303 23.0052 19.4849 23.0414 19.545 23.0659C19.6051 23.0904 19.6695 23.1027 19.7344 23.102C19.7992 23.1012 19.8633 23.0876 19.9229 23.0617C19.9824 23.0359 20.0362 22.9985 20.0811 22.9516L21.4867 21.546C21.532 21.5007 21.5679 21.4469 21.5924 21.3878C21.6169 21.3286 21.6296 21.2652 21.6296 21.2012C21.6296 21.1372 21.6169 21.0738 21.5924 21.0146C21.5679 20.9554 21.532 20.9017 21.4867 20.8564L20.0805 19.4497Z" fill="black"/>
<path d="M8.68013 10.4799C8.97303 10.4799 9.25935 10.393 9.50289 10.2303C9.74642 10.0676 9.93623 9.83631 10.0483 9.56571C10.1604 9.2951 10.1897 8.99734 10.1326 8.71007C10.0755 8.4228 9.93441 8.15893 9.7273 7.95182C9.52019 7.74471 9.25632 7.60366 8.96905 7.54652C8.68178 7.48938 8.38401 7.51871 8.11341 7.6308C7.84281 7.74288 7.61152 7.93269 7.4488 8.17623C7.28607 8.41977 7.19922 8.70609 7.19922 8.99898C7.19922 9.39175 7.35524 9.76842 7.63297 10.0461C7.91069 10.3239 8.28737 10.4799 8.68013 10.4799V10.4799Z" fill="black"/>
<path d="M11.7148 8.99898C11.7147 9.29201 11.8015 9.57849 11.9643 9.82219C12.127 10.0659 12.3583 10.2558 12.629 10.3681C12.8997 10.4803 13.1976 10.5097 13.485 10.4526C13.7724 10.3955 14.0364 10.2544 14.2437 10.0473C14.4509 9.8401 14.592 9.57613 14.6493 9.28874C14.7065 9.00135 14.6772 8.70345 14.565 8.43272C14.4529 8.16199 14.263 7.93058 14.0194 7.76777C13.7758 7.60497 13.4893 7.51807 13.1963 7.51807C12.8035 7.51807 12.4268 7.67407 12.1489 7.95178C11.8711 8.22949 11.715 8.60617 11.7148 8.99898V8.99898Z" fill="black"/>
<path d="M16.2324 8.99898C16.2324 9.2919 16.3193 9.57824 16.482 9.82179C16.6448 10.0653 16.8761 10.2552 17.1467 10.3672C17.4174 10.4793 17.7152 10.5086 18.0025 10.4514C18.2897 10.3942 18.5536 10.2531 18.7607 10.046C18.9678 9.83879 19.1088 9.57487 19.1659 9.28756C19.2229 9.00026 19.1935 8.70248 19.0814 8.43188C18.9692 8.16129 18.7793 7.93004 18.5357 7.76738C18.2921 7.60472 18.0057 7.51796 17.7128 7.51807C17.3201 7.51821 16.9436 7.6743 16.666 7.95201C16.3884 8.22972 16.2324 8.60631 16.2324 8.99898Z" fill="black"/>
<path d="M8.68013 14.5816C8.97316 14.5817 9.25964 14.4949 9.50334 14.3322C9.74703 14.1694 9.937 13.9381 10.0492 13.6674C10.1614 13.3967 10.1908 13.0988 10.1337 12.8114C10.0766 12.524 9.93558 12.26 9.72842 12.0528C9.52125 11.8455 9.25728 11.7044 8.96989 11.6472C8.6825 11.59 8.3846 11.6193 8.11387 11.7314C7.84314 11.8435 7.61174 12.0334 7.44893 12.277C7.28612 12.5206 7.19922 12.8071 7.19922 13.1001C7.19915 13.2946 7.2374 13.4873 7.31179 13.667C7.38618 13.8467 7.49525 14.0101 7.63278 14.1476C7.7703 14.2852 7.93358 14.3943 8.11329 14.4688C8.293 14.5432 8.48561 14.5816 8.68013 14.5816V14.5816Z" fill="black"/>
<path d="M13.1962 11.6191C12.9032 11.6194 12.6169 11.7064 12.3734 11.8694C12.1299 12.0323 11.9402 12.2638 11.8282 12.5345C11.7163 12.8053 11.6871 13.1032 11.7445 13.3905C11.8018 13.6778 11.943 13.9417 12.1503 14.1487C12.3576 14.3558 12.6216 14.4967 12.909 14.5537C13.1964 14.6108 13.4942 14.5813 13.7648 14.469C14.0355 14.3568 14.2667 14.1668 14.4294 13.9231C14.5921 13.6795 14.6788 13.393 14.6787 13.1001C14.6787 12.9055 14.6403 12.7128 14.5657 12.533C14.4912 12.3533 14.3819 12.19 14.2443 12.0525C14.1066 11.915 13.9432 11.8059 13.7633 11.7315C13.5835 11.6572 13.3908 11.619 13.1962 11.6191V11.6191Z" fill="black"/>
<path d="M17.7125 11.6191C17.4194 11.619 17.1329 11.7058 16.8892 11.8686C16.6455 12.0313 16.4555 12.2627 16.3433 12.5334C16.2311 12.8041 16.2018 13.1021 16.2589 13.3895C16.3161 13.6769 16.4572 13.9409 16.6644 14.1482C16.8716 14.3554 17.1356 14.4965 17.423 14.5536C17.7105 14.6108 18.0084 14.5814 18.2791 14.4692C18.5498 14.357 18.7812 14.167 18.9439 13.9233C19.1067 13.6796 19.1935 13.3931 19.1934 13.1001C19.1934 12.7073 19.0374 12.3306 18.7596 12.0529C18.4819 11.7752 18.1052 11.6191 17.7125 11.6191V11.6191Z" fill="black"/>
<path d="M8.68013 18.6826C8.97319 18.6827 9.25968 18.5959 9.50339 18.4332C9.7471 18.2705 9.93707 18.0391 10.0493 17.7684C10.1615 17.4976 10.1908 17.1997 10.1337 16.9123C10.0765 16.6249 9.93544 16.3609 9.72822 16.1536C9.52101 15.9464 9.25699 15.8053 8.96956 15.7482C8.68214 15.691 8.38422 15.7204 8.1135 15.8326C7.84277 15.9448 7.61141 16.1348 7.44866 16.3785C7.28592 16.6222 7.19911 16.9087 7.19922 17.2017C7.19922 17.5945 7.35524 17.9712 7.63297 18.2489C7.91069 18.5266 8.28737 18.6826 8.68013 18.6826V18.6826Z" fill="black"/>
<path d="M13.1962 15.7202C12.9032 15.7204 12.6169 15.8075 12.3734 15.9704C12.13 16.1333 11.9402 16.3648 11.8283 16.6355C11.7163 16.9062 11.6871 17.2041 11.7444 17.4914C11.8017 17.7787 11.9429 18.0425 12.1501 18.2496C12.3573 18.4567 12.6213 18.5977 12.9087 18.6547C13.196 18.7118 13.4938 18.6824 13.7645 18.5703C14.0351 18.4581 14.2664 18.2682 14.4291 18.0246C14.5919 17.781 14.6787 17.4946 14.6787 17.2017C14.6787 17.0071 14.6403 16.8144 14.5657 16.6346C14.4912 16.4548 14.382 16.2915 14.2443 16.1539C14.1066 16.0163 13.9432 15.9072 13.7634 15.8328C13.5835 15.7584 13.3908 15.7201 13.1962 15.7202V15.7202Z" fill="black"/>
<path d="M17.7125 15.7202C17.4194 15.7201 17.133 15.8069 16.8893 15.9696C16.6456 16.1323 16.4556 16.3637 16.3434 16.6344C16.2312 16.9051 16.2018 17.203 16.2589 17.4904C16.316 17.7778 16.457 18.0418 16.6642 18.249C16.8714 18.4563 17.1353 18.5974 17.4227 18.6546C17.7101 18.7118 18.008 18.6825 18.2787 18.5704C18.5495 18.4583 18.7809 18.2684 18.9437 18.0248C19.1065 17.7811 19.1934 17.4947 19.1934 17.2017C19.1934 16.8089 19.0374 16.4321 18.7597 16.1543C18.482 15.8765 18.1053 15.7204 17.7125 15.7202Z" fill="black"/>
</svg>
