<svg width="26" height="26" viewBox="0 0 26 26" fill="none" xmlns="http://www.w3.org/2000/svg">
<path fill-rule="evenodd" clip-rule="evenodd" d="M18.2163 7.96283C16.2163 6.93366 14.7569 6.50033 13.5677 6.50033C12.8109 6.50033 11.7839 6.93366 10.8109 7.58366H7.2974L7.62173 6.50033L1.67578 5.41699V15.7087H4.91902L5.18929 14.7337L10.7569 19.8253C11.2974 20.3128 12.0001 20.5837 12.6488 20.5837C13.4596 20.5837 13.8379 20.2587 14.0542 20.0962C14.1623 20.1503 14.4866 20.2045 14.7028 20.2045C15.4055 20.2045 16.0001 19.7712 16.2704 19.1212C17.0812 19.4462 18.2163 18.9587 18.3244 18.0378C18.7569 18.0378 19.1893 17.9295 19.5136 17.6587C19.892 17.2795 20.1082 16.8462 20.1082 16.3587V16.0878L20.865 15.5462L21.1352 16.2503H24.3785V6.50033L17.892 7.04199L18.2163 7.96283ZM13.6758 9.75033C12.0001 10.8878 10.919 11.3753 10.0001 11.3753C9.51362 11.3753 9.24335 11.1587 9.24335 10.8337C9.24335 9.47949 12.6488 7.58366 13.5677 7.58366C14.3244 7.58366 16.0001 8.01699 18.7569 9.42533L20.5406 14.5712L19.5677 15.2753L13.6758 9.75033ZM14.865 13.542L14.1082 14.2462L17.5136 17.6587C17.4596 18.1462 16.865 18.417 16.4866 18.2003L13.2974 15.0045L12.5406 15.7087L15.4596 18.5795C15.4055 19.0128 14.865 19.2837 14.3785 19.1212L11.6758 16.4128L10.9731 17.0628L13.2433 19.392C13.0812 19.4462 12.865 19.5003 12.5947 19.5003C12.2704 19.5003 11.8379 19.3378 11.4055 18.9587L5.51362 13.7045L6.97308 8.66699H9.45956C8.70281 9.42533 8.16227 10.2378 8.16227 10.8878C8.16227 11.7545 8.86497 12.4587 9.78389 12.4587C11.1893 12.4587 12.6488 11.5378 13.5136 10.9962L18.9731 16.0337C19.4055 16.467 18.7569 17.1712 18.2163 17.0087L14.865 13.542Z" fill="black"/>
</svg>
