<svg width="26" height="26" viewBox="0 0 26 26" fill="none" xmlns="http://www.w3.org/2000/svg">
<path d="M20.2744 13.0594H22.0944L12.9999 3.97021L3.90527 13.0594H5.72527V20.9406H20.2744V13.0594ZM19.0611 19.7273L6.93319 19.7381V11.8515L12.9999 5.7848L19.0611 11.846V19.7273Z" fill="black"/>
<path fill-rule="evenodd" clip-rule="evenodd" d="M12.2198 18.9689C13.4981 18.9689 14.549 17.9235 14.549 16.6398C14.549 15.3398 13.7744 13.7906 12.2198 11.9814C10.6652 13.7852 9.89062 15.3398 9.89062 16.6398C9.89062 17.9235 10.936 18.9689 12.2198 18.9689ZM12.2198 18.1944C11.326 18.1944 10.649 17.5173 10.6652 16.6398C10.6652 16.4827 10.8006 16.3473 10.9577 16.3473C11.1148 16.3473 11.2502 16.4827 11.2502 16.6398C11.2502 17.1814 11.6781 17.6094 12.2198 17.6094C12.3769 17.6094 12.5123 17.7448 12.5123 17.9019C12.5123 18.0589 12.3715 18.1944 12.2198 18.1944Z" fill="black"/>
<path fill-rule="evenodd" clip-rule="evenodd" d="M15.8545 10.6924C14.9987 11.6836 14.5762 12.5395 14.5762 13.2545C14.5762 13.9586 15.1503 14.5328 15.8545 14.5328C16.5587 14.5328 17.1328 13.9586 17.1328 13.2545C17.1328 12.5395 16.7103 11.6836 15.8545 10.6924Z" fill="black"/>
<path fill-rule="evenodd" clip-rule="evenodd" d="M10.0206 10.1074C9.4302 10.7953 9.1377 11.3858 9.1377 11.8787C9.1377 12.3662 9.53853 12.7616 10.0206 12.7616C10.5081 12.7616 10.9035 12.3608 10.9035 11.8787C10.9089 11.3803 10.611 10.7899 10.0206 10.1074Z" fill="black"/>
</svg>
