<svg width="26" height="26" viewBox="0 0 26 26" fill="none" xmlns="http://www.w3.org/2000/svg">
<path fill-rule="evenodd" clip-rule="evenodd" d="M22.75 6.50033V5.95866C22.75 5.63366 22.5333 5.41699 22.2083 5.41699C21.8833 5.41699 21.6667 5.63366 21.6667 5.95866V6.50033H18.9583C18.6333 6.50033 18.4167 6.71699 18.4167 7.04199C18.4167 7.36699 18.6333 7.58366 18.9583 7.58366H21.6667V8.66699H21.125V9.75033H17.875L14.625 7.04199H11.375L8.125 9.75033H4.875V8.66699H4.33333V7.58366H7.04167C7.36667 7.58366 7.58333 7.36699 7.58333 7.04199C7.58333 6.71699 7.36667 6.50033 7.04167 6.50033H4.33333V5.95866C4.33333 5.63366 4.11667 5.41699 3.79167 5.41699C3.46667 5.41699 3.25 5.63366 3.25 5.95866V6.50033H0.541667C0.216667 6.50033 0 6.71699 0 7.04199C0 7.36699 0.216667 7.58366 0.541667 7.58366H3.25V8.66699H2.70833V11.917H4.875V10.8337H8.125L9.9125 13.217C7.90833 14.3545 6.5 16.467 6.5 18.9587H7.58333C7.58333 16.8462 8.82917 15.0045 10.5625 14.1378L11.375 15.167H12.4583V16.2503H10.2917V20.5837H15.7083V16.2503H13.5417V15.167H14.625L15.4375 14.1378C17.1708 15.0045 18.4167 16.8462 18.4167 18.9587H19.5C19.5 16.467 18.0917 14.3545 16.0875 13.217L17.875 10.8337H21.125V11.917H23.2917V8.66699H22.75V7.58366H25.4583C25.7833 7.58366 26 7.36699 26 7.04199C26 6.71699 25.7833 6.50033 25.4583 6.50033H22.75ZM14.0833 18.417C14.0833 18.9587 13.5958 19.5003 13 19.5003C12.4042 19.5003 11.9167 19.0128 11.9167 18.417C11.9167 17.8212 12.4042 17.3337 13 17.3337C13.5958 17.3337 14.0833 17.8212 14.0833 18.417Z" fill="black"/>
</svg>
