<svg width="26" height="26" viewBox="0 0 26 26" fill="none" xmlns="http://www.w3.org/2000/svg">
<path fill-rule="evenodd" clip-rule="evenodd" d="M19.4997 6.5V4.33333C19.4997 3.7375 19.0122 3.25 18.4163 3.25H7.58301C6.98717 3.25 6.49967 3.7375 6.49967 4.33333V6.5H3.79134C3.19551 6.5 2.70801 6.9875 2.70801 7.58333V18.4167C2.70801 19.0125 3.19551 19.5 3.79134 19.5H6.49967V21.6667C6.49967 22.2625 6.98717 22.75 7.58301 22.75H18.4163C19.0122 22.75 19.4997 22.2625 19.4997 21.6667V19.5H22.208C22.8038 19.5 23.2913 19.0125 23.2913 18.4167V7.58333C23.2913 6.9875 22.8038 6.5 22.208 6.5H19.4997ZM18.4163 4.33333V6.5H7.58301V4.33333H18.4163ZM19.4997 18.4167V14.625H20.583V13.5417H5.41634V14.625H6.49967V18.4167H3.79134V7.58333H22.208V18.4167H19.4997ZM19.9872 11.375C20.3122 11.375 20.5288 11.1583 20.5288 10.8333C20.5288 10.5083 20.3122 10.2917 19.9872 10.2917H17.3872C17.0622 10.2917 16.8455 10.5083 16.8455 10.8333C16.8455 11.1583 17.0622 11.375 17.3872 11.375H19.9872ZM7.58301 21.6667V14.625H18.4163V21.6667H7.58301ZM9.20801 16.25V17.3333H16.7913V16.25H9.20801ZM9.20801 18.9583V20.0417H16.7913V18.9583H9.20801Z" fill="black"/>
</svg>
