<svg width="26" height="26" viewBox="0 0 26 26" fill="none" xmlns="http://www.w3.org/2000/svg">
<path fill-rule="evenodd" clip-rule="evenodd" d="M20.8 18.1462C19.5542 18.6878 18.3083 18.9587 17.0625 18.9587C15.4917 18.9587 14.0833 18.5253 12.6208 18.0378C12.5667 16.3045 12.2417 14.0295 11.1042 12.3503C12.5125 10.3462 12.025 7.36699 10.5625 5.95866C9.1 4.49616 6.0125 3.79199 2.97917 3.79199C2.65417 3.79199 2.4375 4.00866 2.4375 4.33366C2.4375 7.36699 3.14167 10.4545 4.60417 11.917C5.79583 13.1628 8.125 13.5962 10.0208 12.892C11.05 14.3003 11.4292 16.0878 11.5375 17.6587C10.1292 17.1712 8.775 16.792 7.3125 16.792C5.90417 16.792 4.55 17.1712 3.14167 17.6045C2.7625 17.767 2.6 18.092 2.70833 18.417C2.81667 18.742 3.14167 18.9045 3.52083 18.742C4.76667 18.2545 6.06667 17.8753 7.3125 17.8753C10.725 17.8753 13.65 20.042 17.0625 20.042C18.4708 20.042 19.8792 19.7712 21.2875 19.2295C21.7208 19.067 21.8292 18.7962 21.6667 18.417C21.5042 18.092 21.1792 17.9837 20.8 18.1462ZM15.9792 8.12533C17.1708 8.12533 18.1458 7.15033 18.1458 5.95866C18.1458 4.76699 17.1708 3.79199 15.9792 3.79199C14.7875 3.79199 13.8125 4.76699 13.8125 5.95866C13.8125 7.15033 14.7875 8.12533 15.9792 8.12533ZM15.9792 4.87533C16.575 4.87533 17.0625 5.36283 17.0625 5.95866C17.0625 6.55449 16.575 7.04199 15.9792 7.04199C15.3833 7.04199 14.8958 6.55449 14.8958 5.95866C14.8958 5.36283 15.3833 4.87533 15.9792 4.87533ZM21.3958 7.58366C20.2042 7.58366 19.2292 8.55866 19.2292 9.75033C19.2292 10.942 20.2042 11.917 21.3958 11.917C22.5875 11.917 23.5625 10.942 23.5625 9.75033C23.5625 8.55866 22.5875 7.58366 21.3958 7.58366ZM21.3958 10.8337C20.8 10.8337 20.3125 10.3462 20.3125 9.75033C20.3125 9.15449 20.8 8.66699 21.3958 8.66699C21.9917 8.66699 22.4792 9.15449 22.4792 9.75033C22.4792 10.3462 21.9917 10.8337 21.3958 10.8337ZM15.9792 15.7087C17.1708 15.7087 18.1458 14.7337 18.1458 13.542C18.1458 12.3503 17.1708 11.3753 15.9792 11.3753C14.7875 11.3753 13.8125 12.3503 13.8125 13.542C13.8125 14.7337 14.7875 15.7087 15.9792 15.7087ZM15.9792 12.4587C16.575 12.4587 17.0625 12.9462 17.0625 13.542C17.0625 14.1378 16.575 14.6253 15.9792 14.6253C15.3833 14.6253 14.8958 14.1378 14.8958 13.542C14.8958 12.9462 15.3833 12.4587 15.9792 12.4587ZM20.8 20.3128C19.5542 20.8545 18.3083 21.1253 17.0625 21.1253C13.65 21.1253 10.725 18.9587 7.3125 18.9587C5.90417 18.9587 4.60417 19.2837 3.19583 19.7712C2.81667 19.8795 2.6 20.2587 2.70833 20.5837C2.81667 20.9087 3.19583 21.017 3.575 20.9087C4.82083 20.4212 6.06667 20.042 7.3125 20.042C10.725 20.042 13.65 22.2087 17.0625 22.2087C18.4708 22.2087 19.8792 21.9378 21.2875 21.3962C21.7208 21.2337 21.8292 20.9628 21.6667 20.5837C21.5042 20.2587 21.1792 20.1503 20.8 20.3128Z" fill="black"/>
</svg>
