<svg width="26" height="26" viewBox="0 0 26 26" fill="none" xmlns="http://www.w3.org/2000/svg">
<path fill-rule="evenodd" clip-rule="evenodd" d="M24.0498 3.60234C23.1831 2.62734 21.7748 2.62734 20.7998 3.60234L18.0915 6.31068L17.0081 5.22734L15.3831 6.85234L16.4665 7.93568L12.2415 12.1607C10.6165 11.3482 8.99147 10.644 7.25814 10.644C5.84981 10.644 4.49564 11.0232 3.0873 11.4565C2.70814 11.619 2.54564 11.944 2.65397 12.269C2.7623 12.594 3.0873 12.7565 3.46647 12.594C4.7123 12.1065 6.01231 11.7273 7.25814 11.7273C8.72064 11.7273 10.129 12.269 11.4831 12.919L10.779 13.6232C9.64147 13.1357 8.50397 12.8107 7.25814 12.8107C5.84981 12.8107 4.5498 13.1357 3.14147 13.6232C2.7623 13.7315 2.54564 14.1107 2.65397 14.4357C2.7623 14.7607 3.14147 14.869 3.52064 14.7607C4.76647 14.2732 6.01231 13.894 7.25814 13.894C8.17897 13.894 9.09981 14.1107 9.96647 14.4357L7.79981 16.6023C6.87897 17.5232 6.87897 18.9315 7.79981 19.8523C8.66647 20.8273 10.0748 20.8273 11.0498 19.8523L14.4081 16.494C15.7623 17.1982 17.1706 17.6857 18.6331 17.6857C20.0415 17.6857 21.4498 17.4148 22.8581 16.8732C23.2915 16.7107 23.3998 16.4398 23.2373 16.0607C23.0748 15.7357 22.7498 15.6273 22.3706 15.7898C21.1248 16.3315 19.879 16.6023 18.6331 16.6023C17.4415 16.6023 16.304 16.2232 15.1665 15.7357L15.9248 14.9773C16.7915 15.3023 17.7123 15.519 18.6331 15.519C20.0415 15.519 21.4498 15.2482 22.8581 14.7065C23.2915 14.544 23.3998 14.2732 23.2373 13.894C23.0748 13.569 22.7498 13.4607 22.3706 13.6232C21.1248 14.1648 19.879 14.4357 18.6331 14.4357C17.9831 14.4357 17.3331 14.3273 16.7373 14.1648L19.7165 11.1857L20.7998 12.269L22.4248 10.644L21.3415 9.56068L24.0498 6.85234C24.9706 5.93151 24.9706 4.52318 24.0498 3.60234ZM9.42481 9.01901C10.6165 9.01901 11.5915 8.04401 11.5915 6.85234C11.5915 5.66068 10.6165 4.68568 9.42481 4.68568C8.23314 4.68568 7.25814 5.66068 7.25814 6.85234C7.25814 8.04401 8.23314 9.01901 9.42481 9.01901ZM9.42481 5.76901C10.0206 5.76901 10.5081 6.25651 10.5081 6.85234C10.5081 7.44818 10.0206 7.93568 9.42481 7.93568C8.82897 7.93568 8.34147 7.44818 8.34147 6.85234C8.34147 6.25651 8.82897 5.76901 9.42481 5.76901ZM10.129 18.9857C9.69564 19.419 9.04564 19.3648 8.66647 18.9857C8.28731 18.6065 8.23314 17.9565 8.66647 17.5232L17.3873 8.80234L18.8498 10.2648L10.129 18.9857ZM3.46647 16.6023C2.2748 16.6023 1.2998 17.5773 1.2998 18.769C1.2998 19.9607 2.2748 20.9357 3.46647 20.9357C4.65814 20.9357 5.63314 19.9607 5.63314 18.769C5.63314 17.5773 4.65814 16.6023 3.46647 16.6023ZM3.46647 19.8523C2.87064 19.8523 2.38314 19.3648 2.38314 18.769C2.38314 18.1732 2.87064 17.6857 3.46647 17.6857C4.0623 17.6857 4.5498 18.1732 4.5498 18.769C4.5498 19.3648 4.0623 19.8523 3.46647 19.8523ZM15.9248 18.769C14.7331 18.769 13.7581 19.744 13.7581 20.9357C13.7581 22.1273 14.7331 23.1023 15.9248 23.1023C17.1165 23.1023 18.0915 22.1273 18.0915 20.9357C18.0915 19.744 17.1165 18.769 15.9248 18.769ZM15.9248 22.019C15.329 22.019 14.8415 21.5315 14.8415 20.9357C14.8415 20.3398 15.329 19.8523 15.9248 19.8523C16.5206 19.8523 17.0081 20.3398 17.0081 20.9357C17.0081 21.5315 16.5206 22.019 15.9248 22.019Z" fill="black"/>
</svg>
