<svg width="26" height="26" viewBox="0 0 26 26" fill="none" xmlns="http://www.w3.org/2000/svg">
<path fill-rule="evenodd" clip-rule="evenodd" d="M21.1592 10.8231H19.0245C18.9491 9.83223 18.5319 8.89827 17.8441 8.18097C17.1564 7.46366 16.2408 7.00755 15.2539 6.89063V3.26904H10.7451V6.89063C9.75824 7.00755 8.84264 7.46366 8.15488 8.18097C7.46711 8.89827 7.04989 9.83223 6.97455 10.8231H4.83984V13.3088H21.1592V10.8231Z" fill="black"/>
<path fill-rule="evenodd" clip-rule="evenodd" d="M6.69282 14.877C5.97277 15.7133 5.61292 16.433 5.61328 17.036C5.61328 17.3224 5.72702 17.5969 5.92947 17.7994C6.13193 18.0018 6.40651 18.1156 6.69282 18.1156C6.97914 18.1156 7.25372 18.0018 7.45617 17.7994C7.65863 17.5969 7.77236 17.3224 7.77236 17.036C7.77236 16.4333 7.41252 15.7136 6.69282 14.877Z" fill="black"/>
<path fill-rule="evenodd" clip-rule="evenodd" d="M10.8979 14.877C10.1778 15.7133 9.818 16.433 9.81836 17.036C9.82468 17.3181 9.94116 17.5865 10.1429 17.7837C10.3446 17.981 10.6155 18.0914 10.8976 18.0914C11.1798 18.0914 11.4507 17.981 11.6524 17.7837C11.8541 17.5865 11.9706 17.3181 11.9769 17.036C11.9769 16.4333 11.6172 15.7136 10.8979 14.877Z" fill="black"/>
<path fill-rule="evenodd" clip-rule="evenodd" d="M15.1024 14.877C14.3831 15.7133 14.0234 16.433 14.0234 17.036C14.0298 17.3181 14.1462 17.5865 14.348 17.7837C14.5497 17.981 14.8206 18.0914 15.1027 18.0914C15.3848 18.0914 15.6558 17.981 15.8575 17.7837C16.0592 17.5865 16.1757 17.3181 16.182 17.036C16.182 16.4333 15.8221 15.7136 15.1024 14.877Z" fill="black"/>
<path fill-rule="evenodd" clip-rule="evenodd" d="M19.3071 14.877C18.5877 15.7133 18.2279 16.433 18.2275 17.036C18.2275 17.3224 18.3413 17.5969 18.5437 17.7994C18.7462 18.0018 19.0208 18.1156 19.3071 18.1156C19.5934 18.1156 19.868 18.0018 20.0704 17.7994C20.2729 17.5969 20.3866 17.3224 20.3866 17.036C20.3866 16.4333 20.0268 15.7136 19.3071 14.877Z" fill="black"/>
<path fill-rule="evenodd" clip-rule="evenodd" d="M7.69141 21.6288C7.69141 21.9151 7.80514 22.1897 8.0076 22.3922C8.21005 22.5946 8.48464 22.7083 8.77095 22.7083C9.05726 22.7083 9.33185 22.5946 9.5343 22.3922C9.73675 22.1897 9.85049 21.9151 9.85049 21.6288C9.85049 21.0261 9.49064 20.3064 8.77095 19.4697C8.05125 20.3061 7.69141 21.0258 7.69141 21.6288Z" fill="black"/>
<path fill-rule="evenodd" clip-rule="evenodd" d="M11.8965 21.6288C11.8965 21.9151 12.0102 22.1897 12.2127 22.3922C12.4151 22.5946 12.6897 22.7083 12.976 22.7083C13.2623 22.7083 13.5369 22.5946 13.7394 22.3922C13.9418 22.1897 14.0556 21.9151 14.0556 21.6288C14.0556 21.0261 13.6957 20.3064 12.976 19.4697C12.256 20.3061 11.8961 21.0258 11.8965 21.6288Z" fill="black"/>
<path fill-rule="evenodd" clip-rule="evenodd" d="M3.53543 21.6288C3.53221 21.7726 3.55774 21.9155 3.61053 22.0493C3.66332 22.1831 3.74231 22.3049 3.84285 22.4077C3.94338 22.5106 4.06345 22.5923 4.196 22.648C4.32854 22.7038 4.4709 22.7325 4.6147 22.7325C4.7585 22.7325 4.90085 22.7038 5.0334 22.648C5.16595 22.5923 5.28601 22.5106 5.38655 22.4077C5.48709 22.3049 5.56607 22.1831 5.61886 22.0493C5.67166 21.9155 5.69719 21.7726 5.69397 21.6288C5.69397 21.0261 5.33412 20.3064 4.61443 19.4697C3.89509 20.3061 3.53543 21.0258 3.53543 21.6288Z" fill="black"/>
<path fill-rule="evenodd" clip-rule="evenodd" d="M16.1009 21.6288C16.0976 21.7726 16.1232 21.9155 16.176 22.0493C16.2288 22.1831 16.3077 22.3049 16.4083 22.4077C16.5088 22.5106 16.6289 22.5923 16.7614 22.648C16.894 22.7038 17.0363 22.7325 17.1801 22.7325C17.3239 22.7325 17.4663 22.7038 17.5988 22.648C17.7314 22.5923 17.8514 22.5106 17.952 22.4077C18.0525 22.3049 18.1315 22.1831 18.1843 22.0493C18.2371 21.9155 18.2626 21.7726 18.2594 21.6288C18.2594 21.0261 17.8997 20.3064 17.1804 19.4697C16.4607 20.3061 16.1009 21.0258 16.1009 21.6288Z" fill="black"/>
<path fill-rule="evenodd" clip-rule="evenodd" d="M21.3849 19.4697C20.6656 20.3061 20.3059 21.0258 20.3059 21.6288C20.3027 21.7726 20.3282 21.9155 20.381 22.0493C20.4338 22.1831 20.5128 22.3049 20.6134 22.4077C20.7139 22.5106 20.834 22.5923 20.9665 22.648C21.0991 22.7038 21.2414 22.7325 21.3852 22.7325C21.529 22.7325 21.6714 22.7038 21.8039 22.648C21.9365 22.5923 22.0565 22.5106 22.1571 22.4077C22.2576 22.3049 22.3366 22.1831 22.3894 22.0493C22.4422 21.9155 22.4677 21.7726 22.4645 21.6288C22.4645 21.0261 22.1046 20.3064 21.3849 19.4697Z" fill="black"/>
</svg>
