<svg width="26" height="26" viewBox="0 0 26 26" fill="none" xmlns="http://www.w3.org/2000/svg">
<path d="M6.97389 6.46212V15.1667H14.1022V6.46212H6.97389ZM5.57964 17.9243V4.89941H15.5349V10.5571C17.0608 10.7413 17.9253 11.765 17.9253 13.4355V14.8775C17.9253 15.0951 18.0118 15.3038 18.1657 15.4577C18.3196 15.6116 18.5283 15.6981 18.7459 15.6981C18.9636 15.6981 19.1723 15.6116 19.3262 15.4577C19.4801 15.3038 19.5666 15.0951 19.5666 14.8775V10.0864C19.4339 10.0864 19.3025 10.0603 19.18 10.0095C19.0574 9.95875 18.946 9.88434 18.8522 9.79053C18.7584 9.69672 18.684 9.58536 18.6332 9.46279C18.5825 9.34023 18.5563 9.20887 18.5563 9.0762V7.9777C18.5565 7.91957 18.5797 7.86385 18.6208 7.82274C18.6619 7.78163 18.7176 7.75847 18.7757 7.75833H19.1116V6.70479C19.1117 6.65798 19.1218 6.61173 19.1412 6.56914C19.1607 6.52656 19.189 6.48861 19.2242 6.45784C19.2595 6.42707 19.301 6.40419 19.3458 6.39073C19.3906 6.37727 19.4378 6.37354 19.4842 6.37979C19.5646 6.39193 19.638 6.4327 19.6907 6.4946C19.7435 6.55651 19.7721 6.63538 19.7713 6.71671V7.75833H20.6921V6.70479C20.6923 6.65795 20.7025 6.6117 20.722 6.56911C20.7415 6.52652 20.7699 6.48858 20.8052 6.45782C20.8405 6.42707 20.882 6.40419 20.9269 6.39074C20.9717 6.37728 21.0189 6.37355 21.0653 6.37979C21.1458 6.39232 21.2189 6.43348 21.2714 6.49569C21.3238 6.5579 21.352 6.63697 21.3508 6.71833V7.75995H21.7051C21.7632 7.7601 21.819 7.78324 21.8602 7.82433C21.9014 7.86543 21.9247 7.92114 21.925 7.97933V9.07783C21.925 9.21047 21.899 9.34182 21.8483 9.46438C21.7976 9.58694 21.7232 9.69831 21.6294 9.79212C21.5357 9.88593 21.4243 9.96035 21.3018 10.0111C21.1793 10.0619 21.0479 10.088 20.9153 10.088H20.8839V14.8791C20.8884 15.1626 20.8365 15.4442 20.7311 15.7074C20.6257 15.9707 20.469 16.2103 20.2701 16.4124C20.0712 16.6145 19.8341 16.775 19.5726 16.8845C19.311 16.9941 19.0303 17.0505 18.7467 17.0505C18.4632 17.0505 18.1825 16.9941 17.9209 16.8845C17.6594 16.775 17.4223 16.6145 17.2234 16.4124C17.0245 16.2103 16.8678 15.9707 16.7624 15.7074C16.657 15.4442 16.6051 15.1626 16.6096 14.8791V13.4334C16.6096 12.5093 16.348 11.9319 15.536 11.9259V17.9222L5.57964 17.9243ZM21.4228 20.7594V18.6875H4.36035L4.41452 20.7594H21.4228ZM13.1765 9.9667L9.69631 14.6613C9.68908 14.6709 9.67974 14.6786 9.66904 14.684C9.65833 14.6893 9.64653 14.6921 9.63456 14.6922C9.62434 14.6921 9.61423 14.6901 9.60477 14.6862C9.58884 14.6795 9.57563 14.6677 9.56728 14.6525C9.55892 14.6374 9.55591 14.6199 9.55873 14.6028L10.1112 11.1188H8.32048C8.30635 11.1186 8.29255 11.1145 8.28055 11.1071C8.26856 11.0996 8.25881 11.089 8.25236 11.0765C8.24591 11.0639 8.24299 11.0498 8.24392 11.0357C8.24485 11.0216 8.2496 11.008 8.25764 10.9964L11.1203 7.02979C11.1307 7.01574 11.1454 7.00559 11.1622 7.00097C11.179 6.99635 11.1969 6.99753 11.213 7.00433C11.2288 7.01102 11.2419 7.02281 11.2503 7.03783C11.2586 7.05285 11.2617 7.07023 11.259 7.0872L10.8094 9.84266H13.1131C13.1273 9.84281 13.1411 9.84686 13.1531 9.85436C13.1651 9.86186 13.1748 9.87252 13.1811 9.88518C13.1875 9.89783 13.1902 9.91198 13.189 9.92608C13.1878 9.94018 13.1827 9.95367 13.1743 9.96508" fill="black"/>
</svg>
