<svg width="26" height="26" viewBox="0 0 26 26" fill="none" xmlns="http://www.w3.org/2000/svg">
<path d="M16.5536 6.03962H15.3565C15.1615 4.82087 14.1215 3.88379 12.8703 3.88379H11.0232V4.84796H8.9378C8.78983 4.84796 8.64792 4.90674 8.54329 5.01137C8.43866 5.116 8.37988 5.2579 8.37988 5.40587C8.37988 5.55384 8.43866 5.69575 8.54329 5.80038C8.64792 5.90501 8.78983 5.96379 8.9378 5.96379H11.0232V6.94962H8.9378C8.86453 6.94962 8.79198 6.96405 8.72429 6.99209C8.6566 7.02013 8.5951 7.06123 8.54329 7.11303C8.49149 7.16484 8.45039 7.22634 8.42235 7.29403C8.39431 7.36172 8.37988 7.43427 8.37988 7.50754C8.37988 7.58081 8.39431 7.65336 8.42235 7.72104C8.45039 7.78873 8.49149 7.85024 8.54329 7.90205C8.5951 7.95385 8.6566 7.99495 8.72429 8.02299C8.79198 8.05103 8.86453 8.06546 8.9378 8.06546H11.0232V9.02962H12.8703C14.1215 9.02962 15.1615 8.09796 15.3565 6.87379H16.5536C19.5924 6.87379 22.0678 9.43587 22.0678 12.5884C22.0678 14.8146 20.8328 16.7484 19.0345 17.6909V18.6225C21.3095 17.6259 22.9074 15.2967 22.9074 12.5884C22.9074 8.97546 20.0582 6.03962 16.5536 6.03962Z" fill="black"/>
<path d="M19.6519 14.6252H17.7832L15.909 10.8877H7.51858L5.61733 14.6306H3.74316V16.5048H4.68025V21.6506C4.68025 21.9323 4.86441 22.1164 5.14608 22.1164H7.02025C7.30191 22.1164 7.48608 21.9323 7.48608 21.6506V20.2477H15.909V21.6506C15.909 21.9323 16.0932 22.1164 16.3748 22.1164H18.249C18.5307 22.1164 18.7148 21.9323 18.7148 21.6506V16.4994H19.6519V14.6252ZM8.889 17.4364H7.01483C6.73316 17.4364 6.549 17.2523 6.549 16.9706C6.549 16.6889 6.73316 16.5048 7.01483 16.5048H8.889C9.17066 16.5048 9.35483 16.6889 9.35483 16.9706C9.35483 17.2523 9.17066 17.4364 8.889 17.4364ZM16.3748 17.4364H14.5061C14.2244 17.4364 14.0402 17.2523 14.0402 16.9706C14.0402 16.6889 14.2244 16.5048 14.5061 16.5048H16.3802C16.6619 16.5048 16.8461 16.6889 16.8461 16.9706C16.8461 17.2523 16.6565 17.4364 16.3748 17.4364V17.4364ZM6.08316 15.5677L7.95733 11.8248H15.4432L17.3173 15.5677H6.08316Z" fill="black"/>
</svg>
