<svg width="26" height="26" viewBox="0 0 26 26" fill="none" xmlns="http://www.w3.org/2000/svg">
<path fill-rule="evenodd" clip-rule="evenodd" d="M22.2087 11.3748H19.8795C19.6628 10.6165 19.392 9.91234 19.0128 9.31651L20.6378 7.63734L18.3628 5.36234L16.6837 6.98734C16.0878 6.60817 15.3837 6.33734 14.6253 6.12067V3.7915H11.3753V6.12067C10.617 6.28317 9.91283 6.60817 9.26283 6.98734L7.63783 5.36234L5.36283 7.63734L6.98783 9.26234C6.60866 9.91234 6.28366 10.6165 6.12116 11.3748H3.79199V14.6248H6.12116C6.28366 15.3832 6.60866 16.0873 6.98783 16.7373L5.36283 18.3623L7.63783 20.6373L9.26283 19.0123C9.91283 19.3915 10.617 19.7165 11.3753 19.879V22.2082H14.6253V19.879C15.3837 19.7165 16.0878 19.3915 16.7378 19.0123L18.3628 20.6373L20.6378 18.3623L19.0128 16.7373C19.392 16.0873 19.717 15.3832 19.8795 14.6248H22.2087V11.3748ZM13.0003 15.1665C11.8087 15.1665 10.8337 14.1915 10.8337 12.9998C10.8337 11.8082 11.8087 10.8332 13.0003 10.8332C14.192 10.8332 15.167 11.8082 15.167 12.9998C15.167 14.1915 14.192 15.1665 13.0003 15.1665Z" fill="black"/>
</svg>
