<svg width="26" height="26" viewBox="0 0 26 26" fill="none" xmlns="http://www.w3.org/2000/svg">
<path fill-rule="evenodd" clip-rule="evenodd" d="M17.875 8.125C17.875 9.31667 15.7625 10.4 14.625 11.9167C14.2458 9.75 12.4583 8.775 12.4583 6.5C12.4583 5.41667 12.9458 4.225 13.5417 3.25C10.6708 4.65833 8.66667 8.125 8.66667 11.9167C8.66667 12.4583 8.66667 12.9458 8.66667 13.5417C8.01667 12.6208 7.25833 11.7542 6.87917 10.6167C6.87917 13.2167 4.875 15.925 4.875 18.9583C4.875 21.6667 5.95833 23.2917 9.20833 23.2917C8.45 22.2625 8.125 21.5042 8.125 20.5833C8.125 18.85 9.47917 17.9292 9.75 16.25C10.3458 17.2792 11.1583 18.2542 12.4583 18.9583C12.4583 17.9292 13.4333 16.25 14.0833 14.625C14.7333 17.1167 17.7125 18.0375 16.7917 22.2083C18.7958 22.2083 20.5833 19.3375 20.5833 16.25C20.5833 12.5125 18.3083 11.9167 17.875 8.125Z" fill="black"/>
</svg>
