<svg width="26" height="26" viewBox="0 0 26 26" fill="none" xmlns="http://www.w3.org/2000/svg">
<path d="M24.5402 15.8657C24.0132 13.8474 22.0659 13.4233 20.9706 13.6476C20.8796 13.6665 17.6383 14.3376 14.2902 12.4559C10.9861 10.5974 8.86815 7.40322 8.45215 6.74076C8.43157 6.70447 8.40936 6.66817 8.38444 6.63242L8.37686 6.61942L8.38228 6.62809C7.61582 5.48572 7.09203 5.40447 7.09203 5.40447C7.09203 5.40447 5.07974 4.61092 4.20603 2.82396C4.0029 2.40851 3.2554 2.27526 2.98619 3.07476C2.82749 3.54817 2.73324 4.08876 2.63953 4.62555C2.32157 6.45313 2.56153 8.64526 2.59186 8.86084C2.62219 9.07642 3.82686 14.7006 7.79186 19.0621C9.55275 20.987 11.7462 22.4656 14.1911 23.3759C14.3861 23.4481 14.5759 23.5149 14.7604 23.5763C16.3312 24.0979 17.3674 24.2014 17.6117 24.2231C18.72 24.3206 20.7187 23.6012 20.8536 21.5196C20.9013 20.7851 20.7182 20.1838 20.4127 19.7066C21.4727 19.6433 22.1265 19.4965 22.3123 19.4526C23.3994 19.1958 25.0678 17.8839 24.5402 15.8657ZM15.8367 14.2948C16.3299 14.1588 16.856 14.21 17.3138 14.4385C17.7715 14.667 18.1286 15.0568 18.3163 15.5327C18.504 16.0087 18.509 16.5372 18.3305 17.0167C18.1519 17.4961 17.8023 17.8926 17.349 18.1298C16.3121 17.8651 15.3213 17.445 14.4099 16.884L14.3986 16.8483C14.3251 16.586 14.3041 16.3119 14.3366 16.0415C14.3691 15.7711 14.4546 15.5098 14.5881 15.2725C14.7217 15.0352 14.9007 14.8265 15.1149 14.6584C15.3292 14.4902 15.5744 14.366 15.8367 14.2927V14.2948ZM13.4669 13.6503C13.5697 14.018 13.569 14.4069 13.4648 14.7742C13.3607 15.1415 13.1571 15.4729 12.8765 15.7319C12.6479 15.5233 12.422 15.2986 12.201 15.0559C11.4897 14.2627 10.8674 13.3939 10.3453 12.4651C10.6183 12.2889 10.9289 12.1793 11.252 12.1452C11.5752 12.1111 11.9018 12.1535 12.2056 12.2688C12.5094 12.3841 12.7818 12.5692 13.0009 12.8092C13.22 13.0492 13.3796 13.3373 13.4669 13.6503ZM9.6254 10.0931C9.71937 10.4268 9.72757 10.7787 9.64924 11.1163C9.32057 10.4064 9.03355 9.67786 8.78961 8.93451C9.19698 9.20822 9.49334 9.61828 9.6254 10.091V10.0931ZM22.1731 18.5366C21.7784 18.6469 21.3598 18.6376 20.9703 18.5101C20.5808 18.3825 20.2379 18.1423 19.9848 17.8199C19.7318 17.4975 19.58 17.1073 19.5486 16.6986C19.5173 16.29 19.6078 15.8812 19.8087 15.5239C20.0096 15.1667 20.3119 14.877 20.6774 14.6916C21.0429 14.5061 21.4551 14.4331 21.8621 14.4818C22.269 14.5306 22.6524 14.6989 22.9637 14.9654C23.2751 15.232 23.5004 15.5848 23.6112 15.9794C23.6849 16.2418 23.7062 16.5161 23.6738 16.7866C23.6414 17.0572 23.5559 17.3187 23.4224 17.5562C23.2888 17.7937 23.1097 18.0026 22.8953 18.1708C22.681 18.339 22.4356 18.4633 22.1731 18.5366Z" fill="black"/>
</svg>
