<svg width="26" height="26" viewBox="0 0 26 26" fill="none" xmlns="http://www.w3.org/2000/svg">
<path fill-rule="evenodd" clip-rule="evenodd" d="M6.52658 13.7148C6.11065 13.7148 5.70406 13.8382 5.35824 14.0693C5.01242 14.3004 4.74291 14.6289 4.58379 15.0132C4.42467 15.3974 4.38309 15.8203 4.46431 16.2282C4.54554 16.6361 4.74591 17.0108 5.04009 17.3048C5.33428 17.5989 5.70905 17.7991 6.11702 17.8801C6.52498 17.9611 6.94781 17.9193 7.33202 17.76C7.71623 17.6007 8.04456 17.331 8.27548 16.985C8.5064 16.6391 8.62954 16.2324 8.62933 15.8165C8.62904 15.259 8.40738 14.7245 8.01307 14.3303C7.61875 13.9362 7.08408 13.7148 6.52658 13.7148V13.7148ZM6.52658 16.5218C6.38731 16.5218 6.25116 16.4805 6.13537 16.4031C6.01957 16.3257 5.92931 16.2157 5.87601 16.0871C5.82272 15.9584 5.80877 15.8168 5.83594 15.6802C5.86311 15.5436 5.93018 15.4182 6.02866 15.3197C6.12714 15.2212 6.25261 15.1541 6.3892 15.127C6.5258 15.0998 6.66738 15.1137 6.79605 15.167C6.92472 15.2203 7.0347 15.3106 7.11207 15.4264C7.18945 15.5422 7.23075 15.6783 7.23075 15.8176C7.23046 16.0042 7.15614 16.183 7.02412 16.3148C6.89209 16.4466 6.71315 16.5207 6.52658 16.5207V16.5218Z" fill="black"/>
<path fill-rule="evenodd" clip-rule="evenodd" d="M15.5891 13.1191C15.1143 13.1191 14.6502 13.2599 14.2554 13.5237C13.8606 13.7875 13.5529 14.1624 13.3712 14.6011C13.1895 15.0398 13.142 15.5225 13.2346 15.9882C13.3272 16.4538 13.5559 16.8816 13.8916 17.2173C14.2274 17.5531 14.6551 17.7817 15.1208 17.8743C15.5865 17.967 16.0692 17.9194 16.5078 17.7377C16.9465 17.556 17.3214 17.2483 17.5852 16.8535C17.849 16.4588 17.9898 15.9946 17.9898 15.5198C17.9898 14.8831 17.7369 14.2725 17.2867 13.8223C16.8365 13.3721 16.2258 13.1191 15.5891 13.1191V13.1191ZM15.5891 16.6909C15.3574 16.691 15.1308 16.6224 14.938 16.4937C14.7453 16.365 14.595 16.182 14.5063 15.9679C14.4175 15.7538 14.3943 15.5181 14.4395 15.2908C14.4847 15.0635 14.5963 14.8547 14.7601 14.6908C14.924 14.5269 15.1328 14.4153 15.3602 14.3701C15.5875 14.3249 15.8231 14.3482 16.0372 14.4369C16.2513 14.5257 16.4343 14.6759 16.563 14.8687C16.6917 15.0614 16.7603 15.288 16.7602 15.5198C16.7602 15.8304 16.6368 16.1283 16.4172 16.3479C16.1976 16.5675 15.8997 16.6909 15.5891 16.6909V16.6909Z" fill="black"/>
<path fill-rule="evenodd" clip-rule="evenodd" d="M10.9851 7.84424V8.99149L9.9056 7.8464H3.27885L1.5791 8.96874L2.21285 9.95945L3.57027 9.05865H9.45548L10.7517 10.4296H4.78035L2.66406 11.6874V14.8789L4.00848 15.4373H4.02635C4.11764 14.8394 4.42011 14.2939 4.87895 13.8998C5.33779 13.5057 5.92264 13.289 6.5275 13.289C7.13236 13.289 7.7172 13.5057 8.17605 13.8998C8.63489 14.2939 8.93736 14.8394 9.02864 15.4373H12.4774C12.4944 14.7457 12.7423 14.0797 13.1816 13.5453V11.1457H13.1892V9.48603H16.3812L15.67 12.404C15.9725 12.4115 16.2723 12.4629 16.56 12.5567L17.3086 9.4844H18.4618V7.84424H10.9851Z" fill="black"/>
<path fill-rule="evenodd" clip-rule="evenodd" d="M22.9826 16.4196L23.8087 15.9429V14.0601L22.1783 13.1187L20.5479 14.0601V15.5188L22.9826 16.4196Z" fill="black"/>
<path fill-rule="evenodd" clip-rule="evenodd" d="M24.4205 17.2985L18.6869 15.1768C18.6993 15.2906 18.7056 15.4051 18.7059 15.5196C18.7067 16.3125 18.4042 17.0757 17.8604 17.6527H24.4205V17.2985Z" fill="black"/>
</svg>
