<svg width="26" height="26" viewBox="0 0 26 26" fill="none" xmlns="http://www.w3.org/2000/svg">
<path fill-rule="evenodd" clip-rule="evenodd" d="M7.85384 16.5207C11.6455 16.5207 14.6247 13.5415 14.6247 9.69567C14.6247 5.95817 11.6455 2.979 7.85384 2.979C4.06217 2.979 1.08301 5.95817 1.08301 9.69567C1.08301 13.5415 4.06217 16.5207 7.85384 16.5207ZM7.85384 15.4373C4.65801 15.4373 2.16634 12.8915 2.16634 9.69567C2.16634 6.554 4.65801 4.06234 7.85384 4.06234C11.0497 4.06234 13.5413 6.554 13.5413 9.69567C13.5413 12.8915 11.0497 15.4373 7.85384 15.4373ZM4.54967 12.6207L3.73717 11.2665L4.33301 10.2373V9.37067L3.73717 8.3415L4.54967 6.98734H5.79551L6.39134 6.7165L7.04134 5.68734H8.66634L9.31634 6.7165L9.91217 6.98734H11.158L11.9705 8.3415L11.3747 9.37067V10.2373L11.9705 11.2665L11.158 12.6207H9.91217L9.31634 12.8915L8.66634 13.9207H7.04134L6.39134 12.8915L5.79551 12.6207H4.54967ZM22.7497 18.1457V18.6873H24.9163V14.354H22.7497V14.8957H21.6663C21.3413 14.8957 21.1247 14.679 21.1247 14.354V13.2707H21.6663V11.104H17.333V13.2707H17.8747V14.354C17.8747 14.679 17.658 14.8957 17.333 14.8957H16.2497V14.354H14.083V18.6873H16.2497V18.1457H17.333C17.658 18.1457 17.8747 18.3623 17.8747 18.6873V19.7707H17.333V21.9373H21.6663V19.7707H21.1247V18.6873C21.1247 18.3623 21.3413 18.1457 21.6663 18.1457H22.7497ZM1.62467 18.6873L1.35384 18.0373L1.73301 17.1165L2.16634 17.0623L2.70801 16.5207L4.33301 17.0623L4.87467 18.1457L11.3747 20.3123L12.458 19.7707L14.083 20.3123V21.1248L14.6247 21.9373L14.083 22.479H13.5413L12.9997 23.0207L11.3747 22.479L10.833 21.3957L4.33301 19.229L3.24967 19.8248L1.62467 19.229V18.6873Z" fill="black"/>
</svg>
