<svg width="26" height="26" viewBox="0 0 26 26" fill="none" xmlns="http://www.w3.org/2000/svg">
<path fill-rule="evenodd" clip-rule="evenodd" d="M18.432 6.77067C18.432 3.73734 16.0536 1.354 13.0265 1.354C9.99952 1.354 7.62115 3.73734 7.62115 6.77067V9.479H5.45898V17.0623C5.45898 21.2873 8.81033 24.6457 13.0265 24.6457C17.2428 24.6457 20.5941 21.2873 20.5941 17.0623V9.479H18.432V6.77067ZM9.24277 6.77067C9.24277 4.65817 10.9184 2.979 13.0265 2.979C15.1347 2.979 16.8103 4.65817 16.8103 6.77067V9.479H9.24277V6.77067ZM13.5671 18.6873H12.486V16.5748C11.8374 16.3582 11.4049 15.7623 11.4049 15.0582C11.4049 14.1373 12.1076 13.4332 13.0265 13.4332C13.9455 13.4332 14.6482 14.1373 14.6482 15.0582C14.6482 15.7623 14.2157 16.3582 13.5671 16.5748V18.6873Z" fill="black"/>
</svg>
