<svg width="26" height="26" viewBox="0 0 26 26" fill="none" xmlns="http://www.w3.org/2000/svg">
<path d="M19.2694 4.50879H6.72978C6.44243 4.50879 6.1579 4.5654 5.89243 4.67538C5.62696 4.78536 5.38575 4.94656 5.18259 5.14977C4.97943 5.35298 4.81829 5.59423 4.70837 5.85972C4.59846 6.12522 4.54192 6.40977 4.54199 6.69712V16.2987C4.54192 16.5861 4.59846 16.8706 4.70837 17.1361C4.81829 17.4016 4.97943 17.6428 5.18259 17.8461C5.38575 18.0493 5.62696 18.2105 5.89243 18.3205C6.1579 18.4304 6.44243 18.487 6.72978 18.487H9.26912V19.9333C9.26869 20.2032 9.16124 20.4619 8.97035 20.6527C8.77945 20.8435 8.52068 20.9508 8.25078 20.9511H6.68808C6.54442 20.9511 6.40664 21.0082 6.30506 21.1097C6.20348 21.2113 6.14641 21.3491 6.14641 21.4927C6.14641 21.6364 6.20348 21.7742 6.30506 21.8758C6.40664 21.9773 6.54442 22.0344 6.68808 22.0344H8.25078C8.80791 22.0338 9.34206 21.8123 9.73606 21.4184C10.1301 21.0245 10.3517 20.4904 10.3525 19.9333V19.0287H11.7879V19.2676C11.7845 19.4288 11.8133 19.5891 11.8726 19.7391C11.932 19.8891 12.0207 20.0257 12.1335 20.1409C12.2463 20.2561 12.381 20.3477 12.5297 20.4102C12.6784 20.4727 12.838 20.5049 12.9993 20.5049C13.1606 20.5049 13.3202 20.4727 13.4689 20.4102C13.6176 20.3477 13.7523 20.2561 13.8651 20.1409C13.978 20.0257 14.0666 19.8891 14.126 19.7391C14.1853 19.5891 14.2142 19.4288 14.2107 19.2676V19.0287H15.6028V19.9333C15.6034 20.4904 15.825 21.0245 16.2189 21.4184C16.6128 21.8123 17.1469 22.0338 17.704 22.0344H19.3111C19.4547 22.0344 19.5925 21.9773 19.6941 21.8758C19.7957 21.7742 19.8527 21.6364 19.8527 21.4927C19.8527 21.3491 19.7957 21.2113 19.6941 21.1097C19.5925 21.0082 19.4547 20.9511 19.3111 20.9511H17.704C17.4341 20.9508 17.1754 20.8435 16.9846 20.6527C16.7938 20.4619 16.6864 20.2031 16.6862 19.9333V18.487H19.2694C19.5567 18.487 19.8413 18.4304 20.1067 18.3205C20.3722 18.2105 20.6134 18.0493 20.8166 17.8461C21.0197 17.6428 21.1809 17.4016 21.2908 17.1361C21.4007 16.8706 21.4572 16.5861 21.4572 16.2987V6.69712C21.4572 6.40977 21.4007 6.12522 21.2908 5.85972C21.1809 5.59423 21.0197 5.35298 20.8166 5.14977C20.6134 4.94656 20.3722 4.78536 20.1067 4.67538C19.8413 4.5654 19.5567 4.50879 19.2694 4.50879V4.50879ZM8.50374 16.7315H6.34249V14.5708H8.50374V16.7315ZM8.50374 13.963H6.34249V11.8012H8.50374V13.963ZM8.50374 11.1946H6.34249V9.03279H8.50374V11.1946ZM8.50374 8.42558H6.34249V6.26433H8.50374V8.42558ZM11.2922 16.7315H9.13099V14.5708H11.2922V16.7315ZM11.2922 13.963H9.13099V11.8012H11.2922V13.963ZM11.2922 11.1946H9.13099V9.03279H11.2922V11.1946ZM11.2922 8.42558H9.13099V6.26433H11.2922V8.42558ZM14.0829 16.7315H11.9217V14.5708H14.0829V16.7315ZM14.0829 13.963H11.9217V11.8012H14.0829V13.963ZM14.0829 11.1946H11.9217V9.03279H14.0829V11.1946ZM14.0829 8.42558H11.9217V6.26433H14.0829V8.42558ZM16.8714 16.7315H14.7102V14.5708H16.8714V16.7315ZM16.8714 13.963H14.7102V11.8012H16.8714V13.963ZM16.8714 11.1946H14.7102V9.03279H16.8714V11.1946ZM16.8714 8.42558H14.7102V6.26433H16.8714V8.42558ZM19.6599 16.7315H17.4954V14.5708H19.6572L19.6599 16.7315ZM19.6599 13.963H17.4954V11.8012H19.6572L19.6599 13.963ZM19.6599 11.1946H17.4954V9.03279H19.6572L19.6599 11.1946ZM19.6599 8.42558H17.4954V6.26433H19.6572L19.6599 8.42558Z" fill="black"/>
</svg>
