<svg width="26" height="26" viewBox="0 0 26 26" fill="none" xmlns="http://www.w3.org/2000/svg">
<path fill-rule="evenodd" clip-rule="evenodd" d="M26 9.20817L20.5833 3.7915L18.4167 5.95817C16.0875 5.95817 14.1375 7.3665 13.325 9.42484C12.2958 7.3665 10.1292 5.95817 7.58333 5.95817L5.41667 3.7915L0 9.20817L3.79167 12.9998L9.20833 7.58317C9.69583 8.07067 9.75 9.9665 9.75 11.9165H8.125V22.7498C8.125 23.3998 8.6125 23.8332 9.20833 23.8332H16.7917C17.3875 23.8332 17.875 23.3998 17.875 22.7498V11.9165H16.25C16.25 9.9665 16.3042 8.07067 16.7917 7.58317L22.2083 12.9998L26 9.20817ZM10.2917 7.58317C11.1583 7.96234 12.7833 9.53317 13 11.9165H10.8333C10.8333 9.6415 10.7792 8.07067 10.2917 7.58317ZM16.7917 17.3332C16.25 17.7123 15.275 17.9832 14.625 17.9832C13.4875 17.9832 12.5125 17.3332 11.375 17.3332C10.8333 17.3332 9.85833 17.5498 9.20833 17.8748V12.9998H16.7917V17.3332Z" fill="black"/>
</svg>
