<svg width="26" height="26" viewBox="0 0 26 26" fill="none" xmlns="http://www.w3.org/2000/svg">
<path fill-rule="evenodd" clip-rule="evenodd" d="M21.667 5.9585H4.33366C4.00866 5.9585 3.79199 6.17516 3.79199 6.50016V20.0418H15.7087V12.4585H18.417V20.0418H22.2087V6.50016C22.2087 6.17516 21.992 5.9585 21.667 5.9585ZM19.5003 18.9585V11.9168C19.5003 11.5918 19.2837 11.3752 18.9587 11.3752H15.167C14.842 11.3752 14.6253 11.5918 14.6253 11.9168V18.9585H4.87533V9.2085H21.1253V18.9585H19.5003ZM13.0003 16.7918C13.3253 16.7918 13.542 16.5752 13.542 16.2502V11.9168C13.542 11.5918 13.3253 11.3752 13.0003 11.3752H6.50033C6.17533 11.3752 5.95866 11.5918 5.95866 11.9168V16.2502C5.95866 16.5752 6.17533 16.7918 6.50033 16.7918H13.0003ZM9.20866 12.4585V15.7085H7.04199V12.4585H9.20866ZM10.292 15.7085V12.4585H12.4587V15.7085H10.292Z" fill="black"/>
</svg>
