<svg width="26" height="26" viewBox="0 0 26 26" fill="none" xmlns="http://www.w3.org/2000/svg">
<path fill-rule="evenodd" clip-rule="evenodd" d="M13.0274 18.3628L18.7149 22.1544C19.0941 22.4253 19.4191 22.2086 19.3108 21.7753L17.9024 15.6544L22.615 11.3753C22.94 11.0503 22.8316 10.7794 22.3983 10.7253L15.7358 10.2378L13.4066 4.00859C13.2441 3.57526 12.8108 3.57526 12.6483 4.00859L10.3191 10.2378L3.65661 10.7253C3.22328 10.7794 3.11495 11.0503 3.43995 11.3753L8.15245 15.6544L6.74411 21.7753C6.63578 22.2086 6.96078 22.4253 7.33995 22.1544L13.0274 18.3628ZM9.50661 15.1669L5.49828 11.7544L11.0774 11.4836L13.0274 6.17526L14.9233 11.4294L20.5566 11.7544L16.5483 15.1669L17.9024 20.1503L13.0274 16.9544L8.15245 20.1503L9.50661 15.1669Z" fill="black"/>
</svg>
