<svg width="26" height="26" viewBox="0 0 26 26" fill="none" xmlns="http://www.w3.org/2000/svg">
<path fill-rule="evenodd" clip-rule="evenodd" d="M18.416 5.4165C18.091 5.4165 17.8743 5.63317 17.8743 5.95817V12.9998C17.8743 13.3248 18.091 13.5415 18.416 13.5415H23.8327C24.1577 13.5415 24.3743 13.3248 24.3743 12.9998V5.95817C24.3743 5.63317 24.1577 5.4165 23.8327 5.4165H18.416ZM20.5827 6.49984V12.4582H18.9577V6.49984H20.5827ZM21.666 12.4582V6.49984H23.291V12.4582H21.666ZM18.9577 18.4165V16.7915C18.9577 16.4665 18.741 16.2498 18.416 16.2498H16.791V14.6248C16.791 14.2998 16.5743 14.0832 16.2493 14.0832H14.6243V12.4582C14.6243 12.1332 14.4077 11.9165 14.0827 11.9165H12.4577V10.2915C12.4577 9.96651 12.241 9.74984 11.916 9.74984H10.291V8.12484C10.291 7.79984 10.0743 7.58317 9.74935 7.58317H2.16602V20.5832H3.79102V11.3748C3.79102 11.0498 4.00768 10.8332 4.33268 10.8332H8.66601C8.99101 10.8332 9.20768 11.0498 9.20768 11.3748V20.5832H21.1243V18.9582C21.1243 18.6332 20.9077 18.4165 20.5827 18.4165H18.9577ZM7.58268 16.2498C7.90768 16.2498 8.12435 16.0332 8.12435 15.7082C8.12435 15.3832 7.90768 15.1665 7.58268 15.1665H7.04101C6.71601 15.1665 6.49935 15.3832 6.49935 15.7082C6.49935 16.0332 6.71601 16.2498 7.04101 16.2498H7.58268Z" fill="black"/>
</svg>
