<svg width="26" height="26" viewBox="0 0 26 26" fill="none" xmlns="http://www.w3.org/2000/svg">
<path fill-rule="evenodd" clip-rule="evenodd" d="M20.0413 4.875H5.41634L2.70801 8.66667C2.70801 9.80417 3.35801 10.725 4.33301 11.1583V21.125H21.1247V11.1583C22.0997 10.725 22.7497 9.80417 22.7497 8.66667L20.0413 4.875ZM18.958 20.0417V13C18.958 12.675 18.7413 12.4583 18.4163 12.4583H14.083C13.758 12.4583 13.5413 12.675 13.5413 13V20.0417H5.41634V11.375C6.49967 11.375 7.42051 10.7792 7.85384 9.85833C8.28717 10.7792 9.20801 11.375 10.2913 11.375C11.3747 11.375 12.2955 10.7792 12.7288 9.85833C13.1622 10.7792 14.083 11.375 15.1663 11.375C16.2497 11.375 17.1705 10.7792 17.6038 9.85833C18.0372 10.7792 18.958 11.375 20.0413 11.375V20.0417H18.958ZM7.04134 12.4583C6.71634 12.4583 6.49967 12.675 6.49967 13V17.875C6.49967 18.2 6.71634 18.4167 7.04134 18.4167H11.9163C12.2413 18.4167 12.458 18.2 12.458 17.875V13C12.458 12.675 12.2413 12.4583 11.9163 12.4583H7.04134ZM7.58301 17.3333V13.5417H11.3747V17.3333H7.58301ZM14.6247 13.5417H17.8747V20.0417H14.6247V13.5417Z" fill="black"/>
</svg>
