<svg width="26" height="26" viewBox="0 0 26 26" fill="none" xmlns="http://www.w3.org/2000/svg">
<path fill-rule="evenodd" clip-rule="evenodd" d="M10.5083 6.5C11.05 6.5 11.375 6.175 11.375 5.6875C11.375 5.2 11.05 4.875 10.5083 4.875H5.74167C5.2 4.875 4.875 5.2 4.875 5.74167V10.5083C4.875 11.05 5.2 11.375 5.6875 11.375C6.175 11.375 6.5 11.05 6.5 10.5083V7.58333L10.2375 11.3208C10.6167 11.7 11.05 11.7 11.375 11.375C11.7 11.05 11.7 10.6167 11.3208 10.2375L7.58333 6.5H10.5083ZM20.2583 4.875H15.4917C14.95 4.875 14.625 5.2 14.625 5.6875C14.625 6.22917 14.95 6.5 15.4917 6.5H18.4167L14.6792 10.2375C14.3 10.6167 14.3 11.05 14.625 11.375C15.0042 11.7 15.3833 11.7 15.7625 11.3208L19.5 7.58333V10.5083C19.5 11.05 19.825 11.375 20.3125 11.375C20.8 11.375 21.125 11.05 21.125 10.5083V5.74167C21.125 5.2 20.8 4.875 20.2583 4.875ZM11.375 14.625C11.05 14.2458 10.6167 14.3 10.2375 14.6792L6.5 18.4167V15.4917C6.5 14.95 6.175 14.625 5.6875 14.625C5.2 14.625 4.875 14.95 4.875 15.4917V20.2583C4.875 20.8 5.2 21.125 5.74167 21.125H10.5083C11.05 21.125 11.375 20.8 11.375 20.3125C11.375 19.7708 11.05 19.5 10.5083 19.5H7.58333L11.3208 15.7625C11.7 15.3833 11.7 14.95 11.375 14.625ZM20.3125 14.625C19.825 14.625 19.5 14.95 19.5 15.4917V18.4167L15.7625 14.6792C15.3292 14.2458 14.95 14.3 14.625 14.625C14.3 14.95 14.3 15.3833 14.6792 15.7625L18.4167 19.5H15.4917C14.95 19.5 14.625 19.825 14.625 20.3125C14.625 20.8 14.95 21.125 15.4917 21.125H20.2583C20.8 21.125 21.125 20.8 21.125 20.2583V15.4917C21.125 14.95 20.8 14.625 20.3125 14.625Z" fill="black"/>
</svg>
