<svg width="26" height="26" viewBox="0 0 26 26" fill="none" xmlns="http://www.w3.org/2000/svg">
<path fill-rule="evenodd" clip-rule="evenodd" d="M22.9124 5.79557C23.2916 5.36224 23.6166 4.82057 23.6708 4.27891H22.5874C22.6416 3.89974 22.6416 3.52057 22.4791 3.19557L23.4541 2.70807C23.3458 2.49141 23.1833 2.22057 22.9124 1.94974C22.6416 1.67891 22.4249 1.51641 22.1541 1.40807L21.6666 2.38307C21.3416 2.22057 20.9624 2.16641 20.5833 2.27474V1.19141C20.0416 1.24557 19.4999 1.57057 19.0666 1.94974L19.8249 2.70807L19.0666 3.46641L18.3624 2.76224L17.5499 3.52057L18.3083 4.22474L17.5499 5.03724L16.7916 4.27891L16.0333 5.03724L16.7916 5.79557L16.0333 6.55391L15.2749 5.79557L14.5166 6.55391L15.2208 7.31224L14.4624 8.07057L13.7583 7.36641L12.9999 8.12474L13.7041 8.82891L12.9458 9.58724L12.1874 8.88307L11.4291 9.64141L15.2749 13.4872L16.0333 12.7289L15.2749 11.9164L16.0333 11.1581L16.7916 11.9164L17.5499 11.1581L16.7916 10.3997L17.5499 9.64141L18.3624 10.3997L19.1208 9.64141L18.3083 8.82891L19.0666 8.07057L19.8791 8.88307L20.6374 8.12474L19.8249 7.31224L20.6374 6.55391L21.3958 7.36641L22.2083 6.55391L21.3958 5.79557L22.1541 5.03724L22.9124 5.79557ZM5.79577 7.90807C5.63327 7.74557 5.47077 7.69141 5.2541 7.69141C5.03744 7.69141 4.82077 7.74557 4.65827 7.90807C4.49577 8.07057 4.4416 8.28724 4.4416 8.50391C4.4416 8.72057 4.49577 8.93724 4.65827 9.09974L7.5291 11.9706L3.68327 15.7622C3.1416 16.3039 2.87077 16.7914 2.87077 17.3331C2.87077 17.8206 3.08744 18.2539 3.4666 18.6331C2.59993 20.7456 2.3291 21.8831 2.3291 22.6414C2.3291 23.9414 3.19577 24.8081 4.49577 24.8081C5.03744 24.8081 5.63327 24.6456 6.0666 24.2122L7.74577 22.6956L15.3291 15.0581L9.91244 9.64141L8.72077 10.8331L5.79577 7.90807ZM11.5374 13.4331C12.1333 13.4331 12.6208 13.9206 12.6208 14.5164C12.6208 15.1122 12.1333 15.5997 11.5374 15.5997C10.9416 15.5997 10.4541 15.1122 10.4541 14.5164C10.4541 13.9206 10.9416 13.4331 11.5374 13.4331ZM10.4541 17.2247C10.4541 17.8206 9.9666 18.3081 9.37077 18.3081C8.77494 18.3081 8.28744 17.8206 8.28744 17.2247C8.28744 16.6289 8.77494 16.1414 9.37077 16.1414C9.9666 16.1414 10.4541 16.6289 10.4541 17.2247ZM5.30827 23.5081C5.0916 23.7247 4.7666 23.7247 4.49577 23.7247C3.7916 23.7247 3.41244 23.2914 3.41244 22.6414C3.41244 22.3164 3.68327 21.2331 4.33327 19.4456L6.93327 21.9372L5.30827 23.5081Z" fill="black"/>
</svg>
