<svg width="26" height="26" viewBox="0 0 26 26" fill="none" xmlns="http://www.w3.org/2000/svg">
<path fill-rule="evenodd" clip-rule="evenodd" d="M21.6667 5.41683C18.0375 5.41683 14.6792 7.15016 12.5667 9.696C11.3208 8.8835 9.85833 8.50433 8.66667 8.12516C5.79583 7.2585 3.79167 6.66266 3.79167 4.3335H2.70833C2.00417 5.6335 1.625 7.63766 1.625 9.2085C1.625 14.6252 4.225 18.9585 9.20833 18.9585C10.1292 18.9585 10.5625 18.8502 11.05 18.7418C11.9167 20.2043 13.4333 21.1252 15.1667 21.1252C18.5792 21.1252 21.0708 18.5252 21.6667 14.1377L22.2083 10.2918C22.4792 8.50433 23.075 7.69183 24.9167 7.04183V5.9585C23.8333 5.57933 22.8583 5.41683 21.6667 5.41683ZM20.5833 14.0293C20.0417 17.821 18.0375 20.0418 15.1667 20.0418C14.625 20.0418 14.1375 19.9335 13.7042 19.7168C15.0583 18.4168 15.4375 16.9543 15.8167 15.546C16.3042 13.7585 16.7375 12.2418 18.9042 11.1585C19.6083 10.7793 19.1208 9.80433 18.3625 10.1835C15.8167 11.5377 15.275 13.4877 14.7875 15.2752C14.4083 16.6835 14.0292 17.9835 12.7292 19.121C11.9167 18.3627 11.375 17.2252 11.375 15.7085C11.375 10.996 16.1417 6.50016 22.2083 6.50016H23.2917C22.0458 7.2585 21.3958 8.5585 21.125 10.2918L20.5833 14.0293ZM5.41667 11.9168C5.0375 11.1585 6.175 10.671 6.5 11.3752C7.42083 13.271 8.775 14.1377 10.2917 14.6252V15.7085C8.6125 15.221 6.55417 14.3002 5.41667 11.9168Z" fill="black"/>
</svg>
