<svg width="26" height="26" viewBox="0 0 26 26" fill="none" xmlns="http://www.w3.org/2000/svg">
<path fill-rule="evenodd" clip-rule="evenodd" d="M22.208 4.60433C22.208 4.0085 21.7205 3.521 21.1247 3.521H4.87467C4.27884 3.521 3.79134 4.0085 3.79134 4.60433V8.39599C3.19551 8.39599 2.70801 8.88349 2.70801 9.47933V21.396C2.70801 21.9918 3.19551 22.4793 3.79134 22.4793H22.208C22.8038 22.4793 23.2913 21.9918 23.2913 21.396V9.47933C23.2913 8.88349 22.8038 8.39599 22.208 8.39599V4.60433ZM21.1247 10.2377L12.9997 15.9793L4.87467 10.2377V4.60433H21.1247V10.2377ZM9.20801 6.771V7.85433H16.7913V6.771H9.20801ZM9.20801 8.93766V10.021H16.7913V8.93766H9.20801ZM3.79134 21.396V11.1043H4.00801L11.8622 16.7918C12.5122 17.2793 13.4872 17.2793 14.1372 16.7918L21.9913 11.1043H22.208V21.396H3.79134ZM9.20801 11.1043V12.1877H14.6247V11.1043H9.20801Z" fill="black"/>
</svg>
