<svg width="26" height="26" viewBox="0 0 26 26" fill="none" xmlns="http://www.w3.org/2000/svg">
<path fill-rule="evenodd" clip-rule="evenodd" d="M16.9377 11.4363C16.9377 10.3394 16.3896 9.51715 15.1102 8.24044C13.8313 9.51932 13.2831 10.3416 13.2831 11.4363C13.2831 12.0754 13.4657 12.6236 13.879 13.2178L11.5498 10.8886C12.7832 9.65473 13.2858 8.83032 13.2858 7.78165C13.2858 6.68531 12.7377 5.86306 11.4582 4.58581C10.1794 5.86469 9.63066 6.68694 9.63066 7.78165C9.63066 8.39969 9.81754 8.9484 10.2043 9.54315L9.01262 8.35148C8.96983 6.99731 8.76345 6.15719 8.11779 5.51152C7.34266 4.7364 6.37308 4.54248 4.56445 4.54248C4.56445 6.35165 4.75837 7.32069 5.53349 8.09582C6.17537 8.73932 7.0155 8.94569 8.36912 8.99173L9.56079 10.1834C8.96495 9.79665 8.41787 9.61032 7.79983 9.61032C6.7035 9.61032 5.88124 10.1585 4.60399 11.4379C5.88341 12.7168 6.70566 13.2649 7.79983 13.2649C8.85066 13.2649 9.67291 12.7623 10.9063 11.5289L13.2355 13.8581C12.6396 13.4469 12.0936 13.2622 11.4539 13.2622C10.3576 13.2622 9.53533 13.8104 8.25808 15.0898C9.5375 16.3687 10.3597 16.9169 11.4539 16.9169C12.5047 16.9169 13.327 16.4147 14.5604 15.1808L16.8895 17.51C16.2937 17.0989 15.7477 16.9142 15.108 16.9142C14.0117 16.9142 13.1894 17.4623 11.9122 18.7417C13.1916 20.0206 14.0138 20.5688 15.108 20.5688C16.1588 20.5688 16.9811 20.0667 18.2145 18.8354L21.4103 22.0313L22.0543 21.3959L18.8585 18.2001C20.0919 16.9667 20.5945 16.1444 20.5945 15.0936C20.5945 13.9973 20.0464 13.1745 18.767 11.8978C17.4881 13.1766 16.9399 13.9994 16.9399 15.0936C16.9399 15.7328 17.1225 16.2815 17.5357 16.8752L15.2066 14.546C16.4351 13.3088 16.9377 12.4866 16.9377 11.4363Z" fill="black"/>
</svg>
