<svg width="26" height="26" viewBox="0 0 26 26" fill="none" xmlns="http://www.w3.org/2000/svg">
<path fill-rule="evenodd" clip-rule="evenodd" d="M13.0003 3.7915C7.85449 3.7915 3.79199 7.85401 3.79199 12.9998C3.79199 18.1457 7.85449 22.2082 13.0003 22.2082C18.1462 22.2082 22.2087 18.1457 22.2087 12.9998C22.2087 7.85401 18.1462 3.7915 13.0003 3.7915ZM13.2712 18.9582C9.91283 18.9582 7.31283 16.3582 7.31283 12.9998C7.31283 9.64151 9.91283 7.0415 13.2712 7.0415C14.6795 7.0415 15.9795 7.529 17.0087 8.34151L15.6545 10.0207C15.0045 9.53317 14.192 9.20817 13.2712 9.20817C11.1587 9.20817 9.47949 10.8873 9.47949 12.9998C9.47949 15.1123 11.1587 16.7915 13.2712 16.7915C15.2753 16.7915 16.3045 15.7082 16.3587 14.0832H13.2712V11.9165H18.5795C18.6337 12.2957 18.6878 12.6207 18.6878 12.9998C18.6878 16.3582 16.8462 18.9582 13.2712 18.9582Z" fill="black"/>
</svg>
