<svg width="26" height="26" viewBox="0 0 26 26" fill="none" xmlns="http://www.w3.org/2000/svg">
<path fill-rule="evenodd" clip-rule="evenodd" d="M19.9878 11.9165C19.5003 8.82901 17.117 6.49984 14.0837 6.01234V3.7915H11.917V6.01234C8.82949 6.49984 6.50033 8.82901 6.01283 11.9165H3.79199V14.0832H6.01283C6.50033 17.1707 8.82949 19.4998 11.917 19.9873V22.2082H14.0837V19.9873C17.1712 19.4998 19.5003 17.1707 19.9878 14.0832H22.2087V11.9165H19.9878ZM13.0003 17.8748C10.3462 17.8748 8.12533 15.654 8.12533 12.9998C8.12533 10.2915 10.3462 8.12484 13.0003 8.12484C15.7087 8.12484 17.8753 10.2915 17.8753 12.9998C17.8753 15.654 15.7087 17.8748 13.0003 17.8748ZM13.0003 10.8332C11.8087 10.8332 10.8337 11.8082 10.8337 12.9998C10.8337 14.1915 11.8087 15.1665 13.0003 15.1665C14.192 15.1665 15.167 14.1915 15.167 12.9998C15.167 11.8082 14.192 10.8332 13.0003 10.8332Z" fill="black"/>
</svg>
