<svg width="26" height="26" viewBox="0 0 26 26" fill="none" xmlns="http://www.w3.org/2000/svg">
<path d="M10.978 15.4816C11.1372 15.786 11.2817 16.0984 11.4113 16.4187C11.563 15.0939 11.8125 13.7822 12.1577 12.4943C12.2722 12.0765 12.3957 11.674 12.5282 11.2869C11.765 7.69674 10.4737 4.61573 8.47656 2.65869C9.77115 6.24073 10.5999 10.5129 10.7906 15.1392C10.8545 15.2524 10.9173 15.3662 10.978 15.4816Z" fill="black"/>
<path d="M14.1305 14.4084C14.1668 14.3234 14.2053 14.2394 14.2437 14.156C14.5595 11.3356 15.2187 8.7269 16.1455 6.46436C14.5444 7.84777 13.4491 9.94294 12.7455 12.4043C12.2797 14.0331 11.9872 15.8211 11.8301 17.6682C12.0893 18.6277 12.2206 19.6172 12.2206 20.6111C12.2206 20.7573 12.2174 20.9101 12.2114 21.065H12.9156C12.9091 20.8781 12.9058 20.6934 12.9058 20.5168C12.905 19.3226 13.0375 18.1321 13.3007 16.9673C13.4979 16.0906 13.7757 15.234 14.1305 14.4084V14.4084Z" fill="black"/>
<path d="M17.7407 10.3755C16.5328 11.3559 15.5133 12.7047 14.7713 14.2993C14.6456 14.5702 14.5291 14.8475 14.4197 15.1319C14.2962 15.4529 14.1835 15.7824 14.0817 16.1204C13.6567 17.546 13.4426 19.0262 13.4463 20.5139C13.4463 20.6973 13.4496 20.88 13.4561 21.062H16.2007C16.1285 20.3228 16.0924 19.5668 16.0924 18.7941C16.0929 15.6584 16.7028 12.7539 17.7407 10.3755Z" fill="black"/>
<path d="M11.2815 17.7125C11.1581 17.2741 11.0057 16.8443 10.8254 16.426C10.0758 14.6851 8.87543 13.2226 7.38477 12.2222C8.42206 14.19 9.03197 16.5934 9.03197 19.188C9.03202 19.815 8.99585 20.4415 8.92364 21.0643H11.6683C11.6748 20.9138 11.678 20.7624 11.678 20.6104C11.6781 19.938 11.6152 19.267 11.4901 18.6063C11.4332 18.2997 11.3633 18.0018 11.2815 17.7125Z" fill="black"/>
</svg>
