<svg width="26" height="26" viewBox="0 0 26 26" fill="none" xmlns="http://www.w3.org/2000/svg">
<path fill-rule="evenodd" clip-rule="evenodd" d="M14.8417 13.704C16.3583 13.054 17.3333 11.5915 17.3333 9.74984V8.6665H17.875C18.1458 8.6665 18.4167 8.44984 18.4167 8.12484C18.4167 7.854 18.1458 7.58317 17.875 7.58317H17.3333V7.0415C17.3333 5.52484 16.9 4.00817 15.1667 3.24984V6.33734H14.0833V2.1665H11.9167V6.33734H10.8333V3.24984C9.1 4.00817 8.66667 5.52484 8.66667 7.0415V7.58317H8.125C7.85417 7.58317 7.58333 7.854 7.58333 8.12484C7.58333 8.44984 7.85417 8.6665 8.125 8.6665H8.66667V9.74984C8.66667 11.5915 9.64167 13.054 11.1583 13.704C6.60833 14.5707 3.25 18.4707 3.25 23.2915H4.33333C4.33333 19.9873 6.06667 17.2248 8.66667 15.7623V18.1998L7.04167 19.4998V23.2915H18.9583V19.4998L17.3333 18.1998V15.7623C19.9333 17.2248 21.6667 19.9873 21.6667 23.2915H22.75C22.75 18.4707 19.3917 14.5707 14.8417 13.704ZM9.75 8.6665H16.25V9.74984C16.25 11.5915 14.8417 12.9998 13 12.9998C11.1583 12.9998 9.75 11.5915 9.75 9.74984V8.6665ZM10.8333 17.3332V14.8957C11.5375 14.7332 12.2417 14.6248 13 14.6248C13.7583 14.6248 14.4625 14.7332 15.1667 14.8957V17.3332H10.8333Z" fill="black"/>
</svg>
