<svg width="26" height="26" viewBox="0 0 26 26" fill="none" xmlns="http://www.w3.org/2000/svg">
<path fill-rule="evenodd" clip-rule="evenodd" d="M15.7083 8.66667C17.225 8.66667 18.4167 7.475 18.4167 5.95833C18.4167 4.44167 17.225 3.25 15.7083 3.25C14.1917 3.25 13 4.44167 13 5.95833C13 7.475 14.1917 8.66667 15.7083 8.66667ZM15.7083 4.33333C16.6292 4.33333 17.3333 5.0375 17.3333 5.95833C17.3333 6.87917 16.6292 7.58333 15.7083 7.58333C14.7875 7.58333 14.0833 6.87917 14.0833 5.95833C14.0833 5.0375 14.7875 4.33333 15.7083 4.33333ZM21.6667 19.4458C22.9667 19.0667 23.8333 17.4417 23.8333 15.1667C23.8333 11.4292 22.75 7.58333 21.125 7.58333C19.5 7.58333 18.4167 11.4292 18.4167 15.1667C18.4167 17.4417 19.2833 19.0667 20.5833 19.4458V21.125H16.25V15.1667H17.875L9.75 7.04167L1.625 15.1667H3.25V21.125H2.16667V22.2083H23.8333V21.125H21.6667V19.4458ZM14.0833 15.7083H10.8333V21.125H4.33333V14.0833L9.75 8.66667L15.1667 14.0833V21.125H14.0833V15.7083ZM5.41667 15.1667V20.0417H9.75V15.1667H5.41667ZM8.66667 18.9583H6.5V16.25H8.66667V18.9583Z" fill="black"/>
</svg>
