<svg width="26" height="26" viewBox="0 0 26 26" fill="none" xmlns="http://www.w3.org/2000/svg">
<path d="M20.2744 13.0623H22.0944L12.9999 3.97314L3.90527 13.0623H5.72527V20.9436H20.2744V13.0623ZM19.0611 19.7302L6.93319 19.7356V11.8544L12.9999 5.78773L19.0611 11.849V19.7302Z" fill="black"/>
<path d="M14.371 18.3977C14.4803 18.3977 14.5871 18.3645 14.677 18.3024C15.3644 17.8306 16.4369 16.3919 15.5746 14.3265C14.8287 12.539 15.8004 11.6946 15.8422 11.6594L15.8481 11.655C15.957 11.5622 16.0247 11.4301 16.0365 11.2875C16.0483 11.1449 16.0032 11.0035 15.9111 10.894C15.8189 10.7845 15.6872 10.716 15.5447 10.7033C15.4022 10.6906 15.2605 10.7348 15.1505 10.8263C14.828 11.1148 14.5798 11.4768 14.4268 11.8815C14.1949 12.4702 14.0319 13.4447 14.5747 14.7442C14.8845 15.4857 14.8959 16.1525 14.6082 16.7315C14.4786 16.9947 14.2928 17.2262 14.0639 17.4097C13.9686 17.4752 13.8968 17.5695 13.859 17.6787C13.8211 17.7879 13.8192 17.9064 13.8535 18.0168C13.8878 18.1272 13.9566 18.2237 14.0497 18.2923C14.1428 18.3608 14.2554 18.3978 14.371 18.3977Z" fill="black"/>
<path d="M12.1681 11.8815C11.9363 12.4702 11.7733 13.4447 12.316 14.7442C12.6258 15.4857 12.6372 16.1525 12.3496 16.7315C12.22 16.9947 12.0341 17.2262 11.8052 17.4097C11.7446 17.4491 11.6924 17.5002 11.6519 17.5601C11.6113 17.6199 11.5831 17.6873 11.569 17.7582C11.5549 17.8292 11.5551 17.9022 11.5697 17.973C11.5842 18.0438 11.6128 18.111 11.6538 18.1706C11.6947 18.2303 11.7472 18.2811 11.8081 18.3201C11.869 18.3591 11.937 18.3855 12.0083 18.3978C12.0796 18.41 12.1526 18.4079 12.223 18.3915C12.2934 18.3752 12.3599 18.3448 12.4184 18.3024C13.1058 17.8306 14.1783 16.3919 13.3159 14.3265C12.5701 12.539 13.5418 11.6946 13.5835 11.6594L13.5895 11.655C13.6983 11.5622 13.7661 11.4301 13.7779 11.2875C13.7897 11.1449 13.7446 11.0035 13.6524 10.894C13.5603 10.7845 13.4286 10.716 13.2861 10.7033C13.1436 10.6906 13.0018 10.7348 12.8918 10.8263C12.5694 11.1148 12.3212 11.4768 12.1681 11.8815V11.8815Z" fill="black"/>
<path d="M11.3208 11.6594L11.3268 11.655C11.4356 11.5622 11.5034 11.4301 11.5152 11.2875C11.527 11.1449 11.4819 11.0035 11.3897 10.894C11.2976 10.7845 11.1659 10.716 11.0234 10.7033C10.8809 10.6906 10.7391 10.7348 10.6291 10.8263C10.3067 11.1148 10.0585 11.4768 9.90544 11.8815C9.6736 12.4702 9.51056 13.4447 10.0533 14.7442C10.3631 15.4857 10.3745 16.1525 10.0869 16.7315C9.95726 16.9947 9.77143 17.2262 9.54252 17.4097C9.48188 17.4491 9.42974 17.5002 9.38917 17.5601C9.3486 17.6199 9.32043 17.6873 9.30632 17.7582C9.2922 17.8292 9.29243 17.9022 9.30699 17.973C9.32155 18.0438 9.35014 18.111 9.39108 18.1706C9.43202 18.2303 9.48449 18.2811 9.54537 18.3201C9.60626 18.3591 9.67434 18.3855 9.74561 18.3978C9.81687 18.41 9.88986 18.4079 9.96029 18.3915C10.0307 18.3752 10.0972 18.3448 10.1557 18.3024C10.8431 17.8306 11.9156 16.3919 11.0532 14.3265C10.3057 12.5417 11.2775 11.6946 11.3208 11.6594Z" fill="black"/>
</svg>
