<svg width="26" height="26" viewBox="0 0 26 26" fill="none" xmlns="http://www.w3.org/2000/svg">
<path fill-rule="evenodd" clip-rule="evenodd" d="M19.5432 12.1226H19.1641C19.7599 11.256 20.0849 10.2268 20.0849 9.08929C20.0849 6.11012 17.6474 3.67262 14.6682 3.67262C11.6349 3.67262 9.25156 6.11012 9.25156 9.08929C9.25156 10.2268 9.57656 11.256 10.1724 12.1226H9.79323C8.98073 12.1226 8.16823 12.2851 7.46406 12.6643L6.54323 10.2268C7.5724 9.52262 8.0599 8.22262 7.5724 6.97679L6.16406 3.45596C6.05573 3.13096 5.7849 3.02262 5.4599 3.13096C5.18906 3.23929 5.08073 3.51012 5.18906 3.83512L6.54323 7.35596C6.81406 8.06012 6.5974 8.76429 6.1099 9.19762L4.1599 4.21429C4.05156 3.94346 3.78073 3.78096 3.45573 3.94346C3.1849 4.05179 3.07656 4.32262 3.1849 4.64762L5.08073 9.57679C4.43073 9.63096 3.78073 9.25179 3.5099 8.54762L2.15573 5.02679C2.0474 4.70179 1.77656 4.59346 1.45156 4.70179C1.12656 4.81012 1.01823 5.08096 1.12656 5.40596L2.5349 8.92679C3.0224 10.1726 4.26823 10.8768 5.51406 10.6601L6.48906 13.206C5.18906 14.2351 4.37656 15.806 4.37656 17.5393C4.37656 20.5185 6.7599 22.956 9.79323 22.956C11.9057 22.956 13.8016 21.7101 14.6682 19.9226C15.5349 21.7101 17.3766 22.956 19.5432 22.956C22.5224 22.956 24.9599 20.5185 24.9599 17.5393C24.9599 14.5601 22.5224 12.1226 19.5432 12.1226ZM14.6682 4.75596C17.0516 4.75596 19.0016 6.70596 19.0016 9.08929C19.0016 11.4726 17.0516 13.4226 14.6682 13.4226C12.2307 13.4226 10.3349 11.4726 10.3349 9.08929C10.3349 6.70596 12.2307 4.75596 14.6682 4.75596ZM14.6682 12.3393C16.4557 12.3393 17.9182 10.8768 17.9182 9.08929C17.9182 7.30179 16.4557 5.83929 14.6682 5.83929C12.8266 5.83929 11.4182 7.30179 11.4182 9.08929C11.4182 10.8768 12.8266 12.3393 14.6682 12.3393ZM14.6682 6.92262C15.8599 6.92262 16.8349 7.89762 16.8349 9.08929C16.8349 10.281 15.8599 11.256 14.6682 11.256C13.4224 11.256 12.5016 10.281 12.5016 9.08929C12.5016 7.89762 13.4224 6.92262 14.6682 6.92262ZM14.6682 10.1726C15.2641 10.1726 15.7516 9.68512 15.7516 9.08929C15.7516 8.49346 15.2641 8.00596 14.6682 8.00596C14.0724 8.00596 13.5849 8.49346 13.5849 9.08929C13.5849 9.68512 14.0724 10.1726 14.6682 10.1726ZM9.79323 21.8726C7.35573 21.8726 5.4599 19.9226 5.4599 17.5393C5.4599 15.156 7.35573 13.206 9.79323 13.206C12.1766 13.206 14.1266 15.156 14.1266 17.5393C14.1266 19.9226 12.1766 21.8726 9.79323 21.8726ZM19.5432 21.8726C17.1057 21.8726 15.2099 19.9226 15.2099 17.5393C15.2099 15.156 17.1057 13.206 19.5432 13.206C21.9266 13.206 23.8766 15.156 23.8766 17.5393C23.8766 19.9226 21.9266 21.8726 19.5432 21.8726ZM9.79323 14.2893C7.95156 14.2893 6.54323 15.7518 6.54323 17.5393C6.54323 19.3268 7.95156 20.7893 9.79323 20.7893C11.5807 20.7893 13.0432 19.3268 13.0432 17.5393C13.0432 15.7518 11.5807 14.2893 9.79323 14.2893ZM19.5432 14.2893C17.7016 14.2893 16.2932 15.7518 16.2932 17.5393C16.2932 19.3268 17.7016 20.7893 19.5432 20.7893C21.3307 20.7893 22.7932 19.3268 22.7932 17.5393C22.7932 15.7518 21.3307 14.2893 19.5432 14.2893ZM9.79323 19.706C8.5474 19.706 7.62656 18.731 7.62656 17.5393C7.62656 16.3476 8.5474 15.3726 9.79323 15.3726C10.9849 15.3726 11.9599 16.3476 11.9599 17.5393C11.9599 18.731 10.9849 19.706 9.79323 19.706ZM19.5432 19.706C18.2974 19.706 17.3766 18.731 17.3766 17.5393C17.3766 16.3476 18.2974 15.3726 19.5432 15.3726C20.7349 15.3726 21.7099 16.3476 21.7099 17.5393C21.7099 18.731 20.7349 19.706 19.5432 19.706ZM9.79323 16.456C9.1974 16.456 8.7099 16.9435 8.7099 17.5393C8.7099 18.1351 9.1974 18.6226 9.79323 18.6226C10.3891 18.6226 10.8766 18.1351 10.8766 17.5393C10.8766 16.9435 10.3891 16.456 9.79323 16.456ZM19.5432 16.456C18.9474 16.456 18.4599 16.9435 18.4599 17.5393C18.4599 18.1351 18.9474 18.6226 19.5432 18.6226C20.1391 18.6226 20.6266 18.1351 20.6266 17.5393C20.6266 16.9435 20.1391 16.456 19.5432 16.456Z" fill="black"/>
</svg>
