<svg width="26" height="26" viewBox="0 0 26 26" fill="none" xmlns="http://www.w3.org/2000/svg">
<path fill-rule="evenodd" clip-rule="evenodd" d="M11.2264 14.6528C11.8591 14.0201 12.0173 13.2293 12.0173 11.7533C10.5412 11.7533 9.7504 11.9114 9.11773 12.5441C8.74831 12.913 8.53761 13.3349 8.43198 13.9151V11.2257C9.85548 11.2257 10.6203 11.0415 11.2264 10.4348C11.8591 9.80218 12.0173 9.01134 12.0173 7.53476C10.5412 7.53476 9.7504 7.69347 9.11773 8.32614C8.76077 8.68255 8.55169 9.10668 8.43198 9.67326V8.29634C9.19031 7.49034 9.55431 6.88801 9.55431 6.14051C9.55431 5.24622 9.1069 4.57509 8.06311 3.53076C7.01931 4.57509 6.5719 5.24622 6.5719 6.14051C6.5719 6.88584 6.93806 7.49034 7.69423 8.29634V9.67326C7.57452 9.10668 7.3649 8.68255 7.00848 8.32614C6.37581 7.69184 5.58498 7.53476 4.1084 7.53476C4.1084 9.01134 4.26657 9.80218 4.89923 10.4348C5.5059 11.0415 6.27019 11.2257 7.69423 11.2257V13.9151C7.58861 13.3349 7.37736 12.913 7.00848 12.5441C6.37581 11.9114 5.58498 11.7543 4.1084 11.7543C4.1084 13.2304 4.26657 14.0212 4.89923 14.6539C5.5059 15.2606 6.27019 15.4453 7.69423 15.4453V18.1341C7.58861 17.554 7.37736 17.132 7.00848 16.7631C6.37581 16.1305 5.58498 15.9723 4.1084 15.9723C4.1084 17.4483 4.26657 18.2397 4.89923 18.8724C5.5059 19.4785 6.27019 19.6632 7.69423 19.6632V23.3541H8.43198V19.6627C9.85548 19.6627 10.6203 19.478 11.2264 18.8718C11.8591 18.2392 12.0173 17.4478 12.0173 15.9718C10.5412 15.9718 9.7504 16.1299 9.11773 16.7626C8.74831 17.1315 8.53761 17.5534 8.43198 18.1336V15.4442C9.85548 15.4442 10.6203 15.2595 11.2264 14.6528Z" fill="black"/>
<path d="M17.5088 2.6001V23.6238H22.2245V2.6001H17.5088ZM21.6829 3.14176V5.26889H18.0505V3.14176H21.6829Z" fill="black"/>
<path fill-rule="evenodd" clip-rule="evenodd" d="M13.6592 7.22928V3.30762L16.7039 5.26845L13.6592 7.22928Z" fill="black"/>
</svg>
