<svg width="26" height="26" viewBox="0 0 26 26" fill="none" xmlns="http://www.w3.org/2000/svg">
<path fill-rule="evenodd" clip-rule="evenodd" d="M8.80048 23.7901C11.9568 23.7901 14.5422 21.2075 14.5422 18.0512C14.5422 14.8467 12.6283 11.0207 8.80048 6.57324C4.97487 11.021 3.06188 14.847 3.06152 18.0512C3.06152 21.2075 5.64419 23.7901 8.80048 23.7901ZM8.80048 21.877C6.60023 21.877 4.92648 20.2032 4.97469 18.0512C4.97469 17.861 5.05025 17.6785 5.18474 17.544C5.31924 17.4096 5.50165 17.334 5.69186 17.334C5.88206 17.334 6.06448 17.4096 6.19897 17.544C6.33347 17.6785 6.40902 17.861 6.40902 18.0512C6.40598 18.366 6.46577 18.6783 6.58488 18.9698C6.70399 19.2613 6.88004 19.5261 7.10272 19.7488C7.32541 19.9714 7.59025 20.1474 7.88177 20.2664C8.17328 20.3855 8.48561 20.4452 8.80048 20.4421C8.98735 20.4472 9.16483 20.5251 9.29519 20.659C9.42554 20.793 9.49848 20.9726 9.49848 21.1595C9.49848 21.3465 9.42554 21.526 9.29519 21.66C9.16483 21.794 8.98735 21.8718 8.80048 21.877Z" fill="black"/>
<path d="M17.6709 2.3291V23.3528H22.3866V2.3291H17.6709ZM21.845 2.87077V4.99789H18.2126V2.87077H21.845Z" fill="black"/>
<path fill-rule="evenodd" clip-rule="evenodd" d="M13.8232 6.95877V3.03711L16.8674 4.99794L13.8232 6.95877Z" fill="black"/>
</svg>
