<svg width="26" height="26" viewBox="0 0 26 26" fill="none" xmlns="http://www.w3.org/2000/svg">
<path d="M19.043 7.66553H7.00173C5.45173 7.6804 3.97027 8.30657 2.87948 9.40789C1.78868 10.5092 1.17676 11.9966 1.17676 13.5467C1.17676 15.0967 1.78868 16.5841 2.87948 17.6855C3.97027 18.7868 5.45173 19.4129 7.00173 19.4278H19.043C20.5928 19.4129 22.0742 18.7868 23.1649 17.6856C24.2555 16.5844 24.8674 15.0971 24.8674 13.5472C24.8674 11.9973 24.2555 10.51 23.1649 9.40881C22.0742 8.3076 20.5928 7.68148 19.043 7.66661V7.66553ZM19.5733 18.3082C19.3935 18.3297 19.2127 18.3411 19.0316 18.3423H18.9986C17.7349 18.3289 16.5276 17.8175 15.6388 16.9192C14.75 16.0209 14.2515 14.8082 14.2515 13.5445C14.2515 12.2808 14.75 11.0681 15.6388 10.1698C16.5276 9.27152 17.7349 8.76012 18.9986 8.74669H19.0316C20.2513 8.75511 21.4219 9.22775 22.3056 10.0685C23.1892 10.9093 23.7194 12.055 23.7884 13.2727C23.8574 14.4905 23.46 15.6888 22.677 16.624C21.894 17.5591 20.7842 18.161 19.5733 18.3071V18.3082Z" fill="black"/>
<path d="M23.0974 12.9396C23.0974 12.9396 23.0974 12.9348 23.0974 12.9326C23.0882 12.8692 23.0774 12.8064 23.0649 12.7436C23.0649 12.7381 23.0649 12.7327 23.0622 12.7278C23.0276 12.554 22.982 12.3825 22.9257 12.2143C22.7524 11.6995 22.4794 11.2239 22.1221 10.8147C21.7649 10.4055 21.3305 10.0708 20.8437 9.82959C20.357 9.58841 19.8275 9.44555 19.2855 9.40918C18.7435 9.3728 18.1997 9.44363 17.6851 9.6176L17.8752 10.1831C18.7645 9.88386 19.7362 9.94963 20.577 10.366C21.4179 10.7823 22.0592 11.5153 22.3602 12.4039C22.4122 12.5583 22.4533 12.7161 22.4832 12.8763C22.4902 12.9136 22.4967 12.9505 22.5027 12.9873L22.5124 13.0528C22.5173 13.0897 22.5217 13.126 22.526 13.1612C22.526 13.1845 22.5309 13.2078 22.5325 13.2316C22.5357 13.2652 22.5379 13.2982 22.5395 13.3318C22.5412 13.3654 22.5428 13.386 22.5439 13.4131V13.4992C22.5439 13.5311 22.5439 13.5631 22.5439 13.5951C22.5439 13.6183 22.5439 13.6411 22.5439 13.6638C22.5439 13.7012 22.5439 13.7381 22.5384 13.7754C22.5384 13.7928 22.5357 13.8101 22.5341 13.8296C22.5309 13.8713 22.5265 13.9136 22.5217 13.9553L22.5168 13.9921C22.5108 14.0381 22.5043 14.0842 22.4962 14.1297C22.4962 14.1378 22.4929 14.1465 22.4919 14.1551C22.4827 14.2033 22.4734 14.2521 22.4626 14.2998C22.4615 14.3062 22.46 14.3125 22.4583 14.3187C22.4469 14.368 22.435 14.4173 22.4214 14.4661L22.4166 14.4839C22.403 14.5321 22.3884 14.5803 22.3727 14.628C22.3727 14.6356 22.3678 14.6426 22.3657 14.6497C22.3505 14.6952 22.3342 14.7407 22.3169 14.7862L22.3055 14.816C22.2893 14.8577 22.2725 14.8988 22.2546 14.94C22.2487 14.9541 22.2422 14.9682 22.2357 14.9823C22.2194 15.018 22.2032 15.0538 22.1858 15.0906L22.1566 15.148C22.1414 15.1773 22.1262 15.2071 22.11 15.2363C22.0937 15.2656 22.0824 15.2851 22.0683 15.3094L22.0282 15.3782C22.0103 15.4075 21.9914 15.4367 21.974 15.466C21.9632 15.4828 21.9524 15.4996 21.941 15.5163C21.9182 15.5499 21.8949 15.5835 21.8711 15.6166L21.8457 15.6507C21.8186 15.6875 21.7915 15.7238 21.7617 15.759L21.7438 15.7818C21.7124 15.8197 21.6804 15.8571 21.6474 15.8939L21.6344 15.9091C21.6003 15.947 21.5651 15.9838 21.5293 16.0206L21.5185 16.032C21.4822 16.0683 21.4454 16.1035 21.4102 16.1403L21.3966 16.1523C21.3603 16.1858 21.3229 16.2183 21.285 16.2503L21.2655 16.2666C21.2294 16.2965 21.1933 16.3252 21.1572 16.3527L21.1274 16.376C21.0938 16.4009 21.0597 16.4253 21.0256 16.4491L20.9812 16.4794C20.9508 16.4995 20.9199 16.5195 20.8891 16.5385C20.869 16.5515 20.849 16.5639 20.8284 16.5758C20.8078 16.5878 20.7742 16.6073 20.7482 16.6224C20.7222 16.6376 20.6941 16.6517 20.6697 16.6658C20.6453 16.6798 20.6242 16.6896 20.6009 16.701C20.5776 16.7123 20.5381 16.7324 20.5061 16.747L20.4465 16.7741C20.4104 16.79 20.3743 16.8052 20.3382 16.8196L20.284 16.8413C20.2472 16.8553 20.2098 16.8694 20.1719 16.8824L20.1091 16.9036L20.011 16.9339L19.9249 16.9577L19.8518 16.9767C19.8112 16.9864 19.7711 16.9956 19.7299 17.0043L19.6887 17.013C19.6524 17.02 19.6167 17.0254 19.5804 17.0314L19.5311 17.0401H19.5219C19.3618 17.0628 19.2004 17.075 19.0387 17.0763C18.3957 17.0812 17.7635 16.9107 17.21 16.5832C16.6566 16.2558 16.2028 15.7837 15.8975 15.2178C15.5921 14.6519 15.4467 14.0134 15.4769 13.3711C15.5071 12.7287 15.7117 12.1067 16.0688 11.5719L15.5732 11.241C15.2466 11.7293 15.028 12.2816 14.9318 12.8611C14.8356 13.4406 14.864 14.034 15.0152 14.6016C15.1664 15.1693 15.4369 15.6982 15.8087 16.153C16.1804 16.6078 16.6449 16.9782 17.1711 17.2394V17.2394C17.5859 17.4456 18.0325 17.5806 18.4922 17.6386C18.6618 17.6604 18.8326 17.6715 19.0035 17.6716H19.0339C19.2151 17.6705 19.3961 17.6571 19.5755 17.6316C19.6546 17.6202 19.7337 17.6066 19.8122 17.5915H19.816H19.822C19.8875 17.5779 19.9536 17.5633 20.0186 17.5471L20.0457 17.5395C20.0961 17.5265 20.1464 17.5124 20.1963 17.4978L20.2764 17.4723L20.3306 17.4555L20.3669 17.4425L20.4855 17.3992L20.5619 17.3694L20.6702 17.3244L20.7629 17.2822L20.8419 17.2443C20.8831 17.2242 20.9232 17.2031 20.9638 17.182L21.0055 17.1592C21.0597 17.13 21.1106 17.1002 21.1626 17.0688C21.855 16.6466 22.4079 16.0302 22.7528 15.2962C23.0977 14.5623 23.2192 13.7432 23.1023 12.9407L23.0974 12.9396Z" fill="black"/>
<path d="M16.2318 14.1456C16.2318 14.1564 16.2372 14.1678 16.2399 14.1786C16.2475 14.2133 16.2556 14.2474 16.2648 14.281C16.2675 14.2924 16.2713 14.3032 16.274 14.3141C16.2838 14.3482 16.2935 14.3823 16.3044 14.4159C16.3076 14.4267 16.3114 14.437 16.3152 14.4479C16.3266 14.4814 16.3374 14.5145 16.3499 14.5475L16.3629 14.5795C16.3753 14.612 16.3883 14.6445 16.4019 14.6764L16.4165 14.7079C16.4306 14.7393 16.4446 14.7712 16.4598 14.8021C16.4658 14.8129 16.4717 14.8238 16.4771 14.8351C16.4923 14.8649 16.5075 14.8947 16.5237 14.924C16.5302 14.9359 16.5378 14.9473 16.5443 14.9586C16.5606 14.9868 16.5768 15.0128 16.5936 15.0431C16.6012 15.0545 16.6093 15.0659 16.6164 15.0778C16.6337 15.1049 16.651 15.132 16.6705 15.158C16.6786 15.1699 16.6879 15.1818 16.6965 15.1937C16.7144 15.2192 16.7323 15.2446 16.7507 15.269L16.7805 15.3059C16.7989 15.3291 16.8179 15.353 16.8374 15.3763C16.8476 15.3887 16.859 15.4006 16.8699 15.4131C16.8894 15.4353 16.9089 15.4575 16.9289 15.4792L16.9646 15.5149C16.9847 15.5361 17.0053 15.5572 17.0264 15.5778C17.0383 15.5897 17.0513 15.6011 17.0638 15.6124L17.1282 15.672L17.1678 15.7045C17.19 15.7235 17.2122 15.743 17.2355 15.7614L17.2745 15.7906C17.2989 15.8091 17.3227 15.828 17.3476 15.8448L17.385 15.8697C17.4099 15.8876 17.4354 15.9055 17.4614 15.9239L17.4662 15.9277C17.921 16.2224 18.4513 16.3793 18.9932 16.3794H19.0322C19.2142 16.3768 19.3956 16.3568 19.5739 16.3199L19.5982 16.315C20.3314 16.1551 20.9713 15.711 21.3775 15.08C21.7836 14.449 21.923 13.6826 21.7649 12.9491L21.1826 13.0753C21.3033 13.6368 21.2036 14.2233 20.9041 14.7134C20.6046 15.2035 20.1281 15.5597 19.5733 15.7083C19.5397 15.717 19.5056 15.7256 19.4715 15.7327C19.1847 15.7956 18.8883 15.8011 18.5995 15.7487C18.3106 15.6964 18.035 15.5873 17.7885 15.4277C17.7755 15.4196 17.7636 15.4104 17.7506 15.4023L17.6921 15.3622L17.6645 15.3411C17.6428 15.3254 17.6217 15.3096 17.6011 15.2929L17.5849 15.2793C17.5607 15.2598 17.5368 15.2398 17.5134 15.2192H17.5106C17.4857 15.197 17.4614 15.1742 17.4381 15.1509L17.4337 15.1466C17.4007 15.1146 17.3698 15.0816 17.3395 15.048L17.3097 15.0144C17.2842 14.9852 17.2593 14.9549 17.2355 14.9245C17.2219 14.9066 17.2084 14.8888 17.1954 14.8704C17.1824 14.8519 17.1721 14.8384 17.1613 14.8221C17.1364 14.7859 17.112 14.7496 17.0898 14.7138C17.0838 14.7046 17.0784 14.6954 17.073 14.6862C16.9968 14.5566 16.934 14.4196 16.8856 14.2772C16.8829 14.2702 16.8807 14.2626 16.878 14.2556C16.8623 14.2068 16.8476 14.1581 16.8352 14.1082C16.8325 14.0985 16.8298 14.0882 16.8276 14.0779C16.7578 13.7913 16.7455 13.4937 16.7914 13.2022C16.8373 12.9108 16.9405 12.6314 17.0951 12.3802C17.2497 12.1289 17.4526 11.9108 17.692 11.7385C17.9314 11.5661 18.2027 11.4429 18.49 11.3761L18.5301 11.3669C18.6949 11.3315 18.8631 11.3148 19.0316 11.317C19.4512 11.3229 19.8605 11.4472 20.2125 11.6756L20.5375 11.1751C20.2437 10.9851 19.9171 10.8514 19.5744 10.7808C19.2174 10.7073 18.8495 10.7035 18.4911 10.7694C18.119 10.8371 17.7642 10.9788 17.4478 11.186C17.1314 11.3932 16.8598 11.6617 16.649 11.9758C16.4382 12.2898 16.2925 12.6429 16.2206 13.0142C16.1486 13.3855 16.1519 13.7675 16.2301 14.1375L16.2318 14.1456Z" fill="black"/>
<path d="M19.5728 14.2761C19.4182 14.3987 19.2283 14.4684 19.0311 14.4749H18.9981V15.0707H19.0311C19.4308 15.0632 19.8115 14.8992 20.0915 14.6139C20.3714 14.3286 20.5283 13.9448 20.5283 13.5451C20.5283 13.1454 20.3714 12.7617 20.0915 12.4764C19.8115 12.1911 19.4308 12.0271 19.0311 12.0195H18.9981C18.5934 12.0195 18.2052 12.1803 17.9189 12.4664C17.6327 12.7526 17.4718 13.1407 17.4717 13.5454H18.0675C18.0682 13.2989 18.1665 13.0626 18.3409 12.8884C18.5153 12.7141 18.7516 12.6159 18.9981 12.6154H19.0311C19.2215 12.6217 19.4054 12.6865 19.5577 12.801C19.71 12.9154 19.8234 13.0739 19.8826 13.255C19.9417 13.4361 19.9437 13.631 19.8883 13.8133C19.8329 13.9956 19.7227 14.1564 19.5728 14.2739V14.2761Z" fill="black"/>
</svg>
