<svg width="26" height="26" viewBox="0 0 26 26" fill="none" xmlns="http://www.w3.org/2000/svg">
<path d="M9.31668 12.4422H7.13376V10.4326H6.03418V15.5839H7.13376V13.4443H9.31668V15.5839H10.4163V10.4326H9.31668V12.4422Z" fill="black"/>
<path d="M14.5163 10.4326L13.2271 13.9805L11.9379 10.4326H10.7842L12.7288 15.5839H13.7038L15.6483 10.4326H14.5163Z" fill="black"/>
<path d="M17.9458 10.3516C16.5646 10.3516 15.5625 11.4674 15.5625 13.0057C15.5625 14.5441 16.5646 15.6599 17.9458 15.6599C19.3325 15.6599 20.34 14.5441 20.34 13.0057C20.3346 11.4674 19.3325 10.3516 17.9458 10.3516ZM19.2296 13.0057C19.2296 13.9916 18.7096 14.6524 17.9404 14.6524C17.1767 14.6524 16.6621 13.9916 16.6621 13.0057C16.6621 12.0199 17.1767 11.3591 17.9404 11.3591C18.715 11.3645 19.2296 12.0253 19.2296 13.0057Z" fill="black"/>
<path d="M17.2412 20.7895C13.7474 22.8478 9.30034 22.2845 6.42951 19.4136C3.082 16.0661 2.96825 10.682 6.09367 7.19364L6.03951 9.33322L7.12284 9.36031L7.22034 5.40072L3.25534 5.30322L3.22825 6.38656L5.31367 6.43531C1.77659 10.3516 1.89575 16.4128 5.66034 20.1828C8.87784 23.4003 13.8666 24.0341 17.7828 21.7211L18.2487 21.4449L17.6962 20.5132L17.2412 20.7895Z" fill="black"/>
<path d="M20.334 5.81784C17.1111 2.60034 12.1277 1.972 8.20607 4.2795L7.74023 4.55575L8.29273 5.48742L8.75857 5.21117C12.2523 3.15284 16.6994 3.71617 19.5702 6.587C22.9177 9.9345 23.0315 15.3133 19.9115 18.807L19.9602 16.6728L18.8769 16.6458L18.7902 20.6053L22.7498 20.7028L22.7769 19.6195L20.6915 19.5653C24.2177 15.6491 24.0986 9.58784 20.334 5.81784Z" fill="black"/>
</svg>
