<svg width="26" height="26" viewBox="0 0 26 26" fill="none" xmlns="http://www.w3.org/2000/svg">
<path d="M18.4427 7.07373C18.5972 7.07373 18.7503 7.10418 18.8931 7.16333C19.0359 7.22248 19.1657 7.30918 19.275 7.41848C19.3843 7.52778 19.471 7.65753 19.5301 7.80034C19.5893 7.94314 19.6197 8.0962 19.6197 8.25077V8.55411H17.2656V8.25077C17.2656 7.9386 17.3896 7.63922 17.6104 7.41848C17.8311 7.19774 18.1305 7.07373 18.4427 7.07373Z" fill="black"/>
<path d="M13.8869 11.1646H12.1855V15.8093H13.8869V11.1646Z" fill="black"/>
<path d="M22.5778 10.0459H14.3076V16.9272H22.5778V10.0459Z" fill="black"/>
<path d="M11.3208 12.0532C10.376 12.0544 9.47032 12.4302 8.80235 13.0983C8.13437 13.7664 7.75867 14.6721 7.75767 15.6168V17.0571C7.75767 17.3976 7.62242 17.7241 7.38167 17.9649C7.14092 18.2056 6.81439 18.3409 6.47392 18.3409C6.13345 18.3409 5.80692 18.2056 5.56617 17.9649C5.32542 17.7241 5.19017 17.3976 5.19017 17.0571V12.3771L3.97142 13.0813L3.75475 13.2059L3.53809 13.0813L2.31934 12.3771V17.0571C2.33182 18.1499 2.77466 19.1936 3.55178 19.9619C4.32889 20.7302 5.37761 21.1611 6.4704 21.1611C7.56319 21.1611 8.6119 20.7302 9.38902 19.9619C10.1661 19.1936 10.609 18.1499 10.6215 17.0571V15.6168C10.6215 15.5252 10.6397 15.4344 10.6749 15.3497C10.7101 15.2651 10.7616 15.1882 10.8266 15.1235C10.8916 15.0588 10.9686 15.0075 11.0534 14.9727C11.1382 14.9378 11.2291 14.92 11.3208 14.9203H11.7655V12.0532H11.3208Z" fill="black"/>
<path fill-rule="evenodd" clip-rule="evenodd" d="M3.75679 7.01074L1.29004 8.43533V11.2834L3.75679 12.708L6.22354 11.2834V8.43533L3.75679 7.01074ZM3.75679 11.1816C3.49572 11.1816 3.2405 11.1042 3.02339 10.9592C2.80628 10.8142 2.63702 10.6081 2.53699 10.367C2.43696 10.1258 2.41065 9.86045 2.46139 9.60435C2.51212 9.34826 2.63763 9.11295 2.82204 8.92816C3.00646 8.74336 3.24151 8.61737 3.4975 8.56611C3.75349 8.51485 4.01893 8.54062 4.26028 8.64016C4.50163 8.73969 4.70807 8.90853 4.8535 9.12535C4.99893 9.34216 5.07684 9.59721 5.07737 9.85828C5.07759 10.0318 5.04358 10.2037 4.97731 10.3641C4.91103 10.5244 4.81378 10.6702 4.69112 10.7929C4.56847 10.9157 4.42281 11.0131 4.26249 11.0795C4.10217 11.1459 3.93032 11.18 3.75679 11.1799V11.1816Z" fill="black"/>
<path d="M23.0096 15.8091H24.7109V11.1643H23.0096V15.8091Z" fill="black"/>
<path d="M20.4918 8.9528H16.9953C16.5803 8.9535 16.1703 8.86237 15.7947 8.68594C15.4191 8.5095 15.0871 8.25214 14.8227 7.9323C14.4909 7.53144 14.0746 7.20887 13.6036 6.98769C13.1326 6.76651 12.6185 6.65218 12.0981 6.65289H11.5786C11.4968 6.47259 11.3556 6.32576 11.1787 6.23684C11.0018 6.14791 10.7997 6.12226 10.6062 6.16414C10.4127 6.20602 10.2393 6.31291 10.115 6.46703C9.99066 6.62114 9.92285 6.81318 9.92285 7.0112C9.92285 7.20921 9.99066 7.40126 10.115 7.55537C10.2393 7.70949 10.4127 7.81638 10.6062 7.85826C10.7997 7.90014 11.0018 7.87448 11.1787 7.78556C11.3556 7.69664 11.4968 7.54981 11.5786 7.36951H12.0981C12.5131 7.36907 12.923 7.46033 13.2986 7.63674C13.6742 7.81316 14.0061 8.07038 14.2707 8.39001C14.6024 8.79103 15.0187 9.11374 15.4897 9.33502C15.9608 9.5563 16.4749 9.67069 16.9953 9.66997H20.4918C20.5869 9.66997 20.6781 9.63219 20.7453 9.56494C20.8126 9.4977 20.8504 9.40649 20.8504 9.31139C20.8504 9.21628 20.8126 9.12508 20.7453 9.05783C20.6781 8.99058 20.5869 8.9528 20.4918 8.9528V8.9528Z" fill="black"/>
</svg>
