<svg width="26" height="26" viewBox="0 0 26 26" fill="none" xmlns="http://www.w3.org/2000/svg">
<path d="M7.87615 7.29066C7.58961 7.00412 7.23102 6.93207 6.56152 6.93207C6.56152 7.60158 6.63357 7.96124 6.92011 8.2467C7.01583 8.3437 7.12978 8.42083 7.2554 8.47366H9.45348C9.5791 8.42083 9.69305 8.3437 9.78877 8.2467C10.0753 7.96016 10.1474 7.60158 10.1474 6.93207C9.47786 6.93207 9.11819 7.00412 8.83273 7.29066C8.6648 7.4588 8.55574 7.67674 8.52181 7.91195V6.6932C9.16694 6.6932 9.51361 6.60924 9.78877 6.33462C10.0753 6.04753 10.1474 5.68949 10.1474 5.01999C9.47786 5.01999 9.11819 5.09149 8.83273 5.37857C8.66934 5.54565 8.56086 5.75863 8.52181 5.98903V5.36503C8.86469 4.99941 9.03044 4.72587 9.03044 4.39003C9.03044 3.98432 8.82786 3.68045 8.35444 3.20703C7.88102 3.67828 7.67844 3.98216 7.67844 4.38732C7.67844 4.72532 7.84419 4.99887 8.18706 5.36232V5.98632C8.14802 5.75592 8.03954 5.54294 7.87615 5.37587C7.58961 5.08878 7.23102 5.01728 6.56152 5.01728C6.56152 5.68678 6.63357 6.04645 6.92011 6.33191C7.19527 6.60653 7.54194 6.69049 8.18706 6.69049V7.90924C8.15259 7.675 8.04356 7.45809 7.87615 7.29066V7.29066Z" fill="black"/>
<path d="M19.7454 18.4165H6.75953C6.30811 18.4166 5.87522 18.5961 5.55606 18.9153C5.23691 19.2346 5.05762 19.6675 5.05762 20.119V20.119C5.05762 20.5703 5.23693 21.0032 5.5561 21.3224C5.87527 21.6416 6.30816 21.8209 6.75953 21.8209H19.7454C19.9691 21.8212 20.1905 21.7774 20.3972 21.6921C20.6039 21.6067 20.7918 21.4815 20.9501 21.3236C21.1084 21.1656 21.234 20.9781 21.3198 20.7716C21.4056 20.565 21.4499 20.3437 21.4501 20.12V20.12C21.4502 19.8962 21.4062 19.6745 21.3206 19.4677C21.235 19.2609 21.1094 19.073 20.9511 18.9148C20.7927 18.7565 20.6047 18.6311 20.3979 18.5456C20.191 18.4601 19.9693 18.4162 19.7454 18.4165V18.4165ZM6.75899 21.2603C6.53327 21.2603 6.31261 21.1933 6.12492 21.0679C5.93724 20.9425 5.79096 20.7643 5.70458 20.5557C5.61819 20.3472 5.59559 20.1177 5.63963 19.8963C5.68367 19.6749 5.79236 19.4716 5.95198 19.3119C6.11159 19.1523 6.31495 19.0436 6.53634 18.9996C6.75773 18.9556 6.9872 18.9782 7.19575 19.0645C7.40429 19.1509 7.58253 19.2972 7.70794 19.4849C7.83335 19.6726 7.90028 19.8932 7.90028 20.119C7.90043 20.2689 7.87101 20.4175 7.81372 20.556C7.75643 20.6946 7.67238 20.8206 7.56639 20.9267C7.4604 21.0328 7.33453 21.1169 7.196 21.1744C7.05746 21.2318 6.90896 21.2613 6.75899 21.2613V21.2603ZM10.0057 21.2603C9.78002 21.2603 9.55936 21.1933 9.37167 21.0679C9.18399 20.9425 9.03771 20.7643 8.95133 20.5557C8.86494 20.3472 8.84234 20.1177 8.88638 19.8963C8.93042 19.6749 9.03911 19.4716 9.19873 19.3119C9.35834 19.1523 9.5617 19.0436 9.78309 18.9996C10.0045 18.9556 10.234 18.9782 10.4425 19.0645C10.651 19.1509 10.8293 19.2972 10.9547 19.4849C11.0801 19.6726 11.147 19.8932 11.147 20.119C11.1472 20.2689 11.1178 20.4175 11.0605 20.556C11.0032 20.6946 10.9191 20.8206 10.8131 20.9267C10.7071 21.0328 10.5813 21.1169 10.4427 21.1744C10.3042 21.2318 10.1557 21.2613 10.0057 21.2613V21.2603ZM13.2525 21.2603C13.0268 21.2603 12.8061 21.1933 12.6184 21.0679C12.4307 20.9425 12.2845 20.7643 12.1981 20.5557C12.1117 20.3472 12.0891 20.1177 12.1331 19.8963C12.1772 19.6749 12.2859 19.4716 12.4455 19.3119C12.6051 19.1523 12.8084 19.0436 13.0298 18.9996C13.2512 18.9556 13.4807 18.9782 13.6892 19.0645C13.8978 19.1509 14.076 19.2972 14.2014 19.4849C14.3268 19.6726 14.3938 19.8932 14.3938 20.119C14.3939 20.2689 14.3645 20.4175 14.3072 20.556C14.2499 20.6946 14.1659 20.8206 14.0599 20.9267C13.9539 21.0328 13.828 21.1169 13.6895 21.1744C13.551 21.2318 13.4025 21.2613 13.2525 21.2613V21.2603ZM16.4992 21.2603C16.2735 21.2603 16.0529 21.1933 15.8652 21.0679C15.6775 20.9425 15.5312 20.7643 15.4448 20.5557C15.3584 20.3472 15.3358 20.1177 15.3799 19.8963C15.4239 19.6749 15.5326 19.4716 15.6922 19.3119C15.8518 19.1523 16.0552 19.0436 16.2766 18.9996C16.498 18.9556 16.7275 18.9782 16.936 19.0645C17.1445 19.1509 17.3228 19.2972 17.4482 19.4849C17.5736 19.6726 17.6405 19.8932 17.6405 20.119C17.6407 20.2689 17.6113 20.4175 17.554 20.556C17.4967 20.6946 17.4126 20.8206 17.3066 20.9267C17.2006 21.0328 17.0748 21.1169 16.9362 21.1744C16.7977 21.2318 16.6492 21.2613 16.4992 21.2613V21.2603ZM19.746 21.2603C19.5203 21.2601 19.2997 21.1931 19.1121 21.0676C18.9245 20.9422 18.7783 20.7639 18.692 20.5553C18.6057 20.3468 18.5831 20.1173 18.6272 19.896C18.6713 19.6746 18.7801 19.4713 18.9397 19.3118C19.0993 19.1522 19.3027 19.0436 19.5241 18.9996C19.7455 18.9556 19.9749 18.9782 20.1834 19.0646C20.3919 19.151 20.5701 19.2973 20.6955 19.485C20.8209 19.6726 20.8878 19.8933 20.8878 20.119C20.888 20.269 20.8585 20.4175 20.8012 20.5562C20.7439 20.6948 20.6598 20.8208 20.5537 20.9269C20.4477 21.033 20.3218 21.1171 20.1832 21.1745C20.0446 21.2319 19.896 21.2614 19.746 21.2613V21.2603Z" fill="black"/>
<path d="M9.98497 14.3809H6.83301V15.696H9.98497V14.3809Z" fill="black"/>
<path d="M9.98568 13.8586L12.7915 8.96143H10.1471H9.2046H8.52264H8.18789H7.50593H6.56343H4.02734L6.83318 13.8586H9.98568Z" fill="black"/>
<path d="M7.40332 17.4384C7.40332 17.6322 7.4608 17.8217 7.5685 17.9828C7.67619 18.144 7.82926 18.2696 8.00834 18.3437C8.18742 18.4179 8.38447 18.4372 8.57456 18.3994C8.76465 18.3615 8.93925 18.2681 9.07626 18.1311C9.21328 17.994 9.30656 17.8193 9.34431 17.6292C9.38206 17.4391 9.36257 17.2421 9.28833 17.063C9.21408 16.884 9.0884 16.731 8.92719 16.6234C8.76598 16.5158 8.57648 16.4584 8.38265 16.4585C8.25398 16.4584 8.12656 16.4837 8.00767 16.533C7.88878 16.5822 7.78077 16.6544 7.68981 16.7454C7.59885 16.8364 7.52673 16.9444 7.47757 17.0633C7.42841 17.1823 7.40318 17.3097 7.40332 17.4384V17.4384Z" fill="black"/>
<path d="M10.6504 17.4384C10.6504 17.6322 10.7079 17.8217 10.8156 17.9828C10.9233 18.144 11.0763 18.2696 11.2554 18.3437C11.4345 18.4179 11.6315 18.4372 11.8216 18.3994C12.0117 18.3615 12.1863 18.2681 12.3233 18.1311C12.4604 17.994 12.5536 17.8193 12.5914 17.6292C12.6291 17.4391 12.6096 17.2421 12.5354 17.063C12.4612 16.884 12.3355 16.731 12.1743 16.6234C12.0131 16.5158 11.8235 16.4584 11.6297 16.4585C11.5011 16.4584 11.3736 16.4837 11.2547 16.533C11.1359 16.5822 11.0278 16.6544 10.9369 16.7454C10.8459 16.8364 10.7738 16.9444 10.7246 17.0633C10.6755 17.1823 10.6502 17.3097 10.6504 17.4384V17.4384Z" fill="black"/>
<path d="M14.8758 18.4168C15.0697 18.4169 15.2592 18.3595 15.4204 18.2519C15.5816 18.1442 15.7073 17.9912 15.7815 17.8121C15.8558 17.6331 15.8752 17.436 15.8374 17.2459C15.7996 17.0557 15.7063 16.8811 15.5692 16.744C15.4322 16.607 15.2575 16.5136 15.0674 16.4758C14.8773 16.438 14.6802 16.4575 14.5011 16.5317C14.3221 16.606 14.169 16.7316 14.0614 16.8929C13.9538 17.0541 13.8964 17.2436 13.8965 17.4374C13.8965 17.6972 13.9997 17.9463 14.1833 18.1299C14.367 18.3136 14.6161 18.4168 14.8758 18.4168Z" fill="black"/>
<path d="M18.1229 18.4168C18.3167 18.4169 18.5063 18.3595 18.6675 18.2519C18.8287 18.1442 18.9544 17.9912 19.0286 17.8121C19.1028 17.6331 19.1223 17.436 19.0845 17.2459C19.0467 17.0557 18.9534 16.8811 18.8163 16.744C18.6792 16.607 18.5046 16.5136 18.3145 16.4758C18.1243 16.438 17.9273 16.4575 17.7482 16.5317C17.5691 16.606 17.4161 16.7316 17.3085 16.8929C17.2008 17.0541 17.1434 17.2436 17.1436 17.4374C17.1436 17.6972 17.2467 17.9463 17.4304 18.1299C17.6141 18.3136 17.8632 18.4168 18.1229 18.4168Z" fill="black"/>
</svg>
