<svg width="26" height="26" viewBox="0 0 26 26" fill="none" xmlns="http://www.w3.org/2000/svg">
<path fill-rule="evenodd" clip-rule="evenodd" d="M19.5 21.125C20.4208 21.125 21.125 20.4208 21.125 19.5V6.5C21.125 5.57917 20.4208 4.875 19.5 4.875H6.5C5.57917 4.875 4.875 5.57917 4.875 6.5V19.5C4.875 20.4208 5.57917 21.125 6.5 21.125H19.5ZM16.7917 7.04167H18.9583V9.20833H16.7917V7.04167ZM13 16.5208C11.05 16.5208 9.47917 14.95 9.47917 13C9.47917 11.05 11.05 9.47917 13 9.47917C14.95 9.47917 16.5208 11.05 16.5208 13C16.5208 14.95 14.95 16.5208 13 16.5208ZM6.55417 20.0417C6.22917 20.0417 5.95833 19.825 5.95833 19.5V11.9167H8.125V13C8.125 15.7083 10.2917 17.875 13 17.875C15.7083 17.875 17.875 15.7083 17.875 13V11.9167H20.0417V19.5C20.0417 19.825 19.825 20.0417 19.5 20.0417H6.55417Z" fill="black"/>
</svg>
