<svg width="26" height="26" viewBox="0 0 26 26" fill="none" xmlns="http://www.w3.org/2000/svg">
<path fill-rule="evenodd" clip-rule="evenodd" d="M23.9033 2.42142C23.8491 2.04226 23.5783 1.93392 23.2533 2.04226H23.1991C22.8741 2.15059 22.7658 2.36726 22.8199 2.74642C23.1449 4.42559 22.2783 5.94226 20.6533 6.48392C21.2491 5.40059 21.6283 3.93809 21.6824 3.01726C21.7366 2.69226 21.4658 2.47559 21.1408 2.52976H21.0866C20.7616 2.58392 20.6533 2.74642 20.5991 3.07142C20.5449 3.82976 20.2741 4.91309 19.8408 5.77976L19.5699 3.55892C19.5158 3.17976 19.2991 3.01726 18.9741 3.07142C18.6491 3.12559 18.4324 3.28809 18.4866 3.66726L18.8658 7.07976C18.1074 9.30059 16.1574 11.1423 14.4241 11.4131C14.0991 10.5464 14.2616 9.35476 14.4783 8.27142C14.5324 7.89226 14.3699 7.67559 14.0449 7.62142C13.7199 7.56726 13.4491 7.67559 13.3949 8.05476C13.1241 9.19226 13.0158 10.7631 13.4491 11.9006C12.9616 12.3881 12.5283 12.6589 11.6074 12.9298C11.1199 13.0923 10.1449 13.1464 9.38659 13.1464L12.2033 7.56726L12.5283 7.24226C15.0741 7.18809 16.4824 6.26726 17.4033 3.93809C17.5658 3.55892 17.4033 3.34226 17.1324 3.23392C16.8074 3.12559 16.5908 3.23392 16.4283 3.55892C15.7783 5.18392 14.9658 5.88809 13.3408 6.10476C13.9366 5.18392 14.4241 4.04642 14.8033 3.01726C14.9116 2.63809 14.7491 2.42142 14.4241 2.31309C14.0991 2.20476 13.8283 2.31309 13.7199 2.69226C13.2866 3.99226 12.5283 5.50892 11.8783 6.37559C11.5533 5.56309 11.6074 4.47976 11.9324 3.39642C12.0408 3.07142 11.8783 2.80059 11.6074 2.69226C11.3366 2.58392 11.0116 2.63809 10.9033 3.01726C10.3616 4.64226 10.4699 6.21309 11.1199 7.29642L9.11576 11.3048C8.14076 10.6548 7.70742 9.35476 7.92409 7.94642C7.97826 7.56726 7.86992 7.35059 7.54492 7.24226H7.49076C7.16576 7.13392 6.89492 7.29642 6.84076 7.62142C6.51576 9.57142 7.21992 11.4131 8.62826 12.2798L8.24909 13.0923C5.81159 11.8464 4.72826 11.0881 4.56576 9.57142C4.51159 9.19226 4.29492 9.02976 3.96992 9.02976C3.64492 9.02976 3.42826 9.24642 3.48242 9.57142C3.69909 11.7923 5.21576 12.7131 7.92409 14.0673L6.35326 15.3131L2.18242 17.4798C1.96576 17.5881 1.96576 17.8589 2.07409 18.0756L2.72409 19.1589C2.94076 19.5381 3.37409 19.7006 3.80742 19.7006L6.78659 19.6464C7.43659 19.6464 7.81576 20.0256 7.81576 20.6214C7.81576 21.5964 7.32826 22.8964 6.89492 23.9798C9.00742 23.7089 11.4449 23.0589 13.2866 21.8131C13.2866 21.1089 13.2324 20.4048 13.1241 19.7006C12.9616 18.6173 12.5824 17.4798 12.3116 16.4506L13.1783 16.2881C14.1533 16.1256 14.9116 15.2048 14.9116 14.5548C14.9116 14.2839 14.6408 14.2298 14.2074 14.2298C13.6116 14.2298 12.6908 14.5006 12.0949 14.7173L11.6074 14.3923C12.5283 14.0673 13.6116 13.3089 14.3699 12.4964C16.4824 12.3339 18.7574 10.3298 19.7866 7.78392C22.6033 7.56726 24.4449 5.18392 23.9033 2.42142Z" fill="black"/>
</svg>
