<svg width="26" height="26" viewBox="0 0 26 26" fill="none" xmlns="http://www.w3.org/2000/svg">
<path fill-rule="evenodd" clip-rule="evenodd" d="M9.28668 12.7436C9.89893 12.7436 10.4974 12.5621 11.0065 12.2219C11.5156 11.8818 11.9124 11.3983 12.1467 10.8326C12.381 10.267 12.4423 9.64457 12.3228 9.04408C12.2034 8.44359 11.9085 7.892 11.4756 7.45907C11.0427 7.02614 10.4911 6.73131 9.8906 6.61186C9.29011 6.49242 8.66768 6.55372 8.10203 6.78802C7.53638 7.02232 7.05291 7.41909 6.71276 7.92817C6.37261 8.43724 6.19105 9.03575 6.19105 9.648C6.187 10.0557 6.2643 10.46 6.41843 10.8374C6.57257 11.2148 6.80044 11.5577 7.0887 11.846C7.37697 12.1342 7.71984 12.3621 8.09725 12.5162C8.47466 12.6704 8.87903 12.7477 9.28668 12.7436V12.7436ZM9.28668 11.8152C8.85815 11.8152 8.43925 11.6881 8.08294 11.4501C7.72663 11.212 7.44893 10.8736 7.28494 10.4777C7.12095 10.0818 7.07804 9.64614 7.16164 9.22585C7.24524 8.80556 7.4516 8.4195 7.75461 8.11648C8.05762 7.81347 8.44369 7.60711 8.86398 7.52351C9.28427 7.43991 9.71992 7.48282 10.1158 7.64681C10.5117 7.8108 10.8501 8.0885 11.0882 8.44481C11.3263 8.80112 11.4533 9.22002 11.4533 9.64855C11.455 9.93354 11.4001 10.216 11.2918 10.4796C11.1835 10.7433 11.024 10.9828 10.8224 11.1843C10.6209 11.3858 10.3814 11.5454 10.1178 11.6537C9.85416 11.762 9.57167 11.8169 9.28668 11.8152ZM2.78667 9.49363C2.78667 9.80292 2.97247 9.95784 3.28176 9.95784H5.26263V9.02942H3.28122C2.97192 9.02942 2.78613 9.21467 2.78613 9.49363H2.78667ZM13.3113 9.33871V10.2671H15.2921C15.602 10.2671 15.7878 10.0819 15.7878 9.80292C15.7878 9.52396 15.602 9.33871 15.2921 9.33871H13.3113ZM12.0725 6.554L12.6916 7.17313L14.2083 5.65646C14.4249 5.4398 14.4249 5.19225 14.2391 5.00646C14.0533 4.82067 13.8058 4.82067 13.5891 5.03734L12.0725 6.554ZM6.4998 6.554L4.98313 5.03734C4.76647 4.82067 4.51893 4.82067 4.33313 5.00646C4.14734 5.19225 4.14734 5.4398 4.36401 5.65646L5.88068 7.17313L6.4998 6.554ZM6.4998 12.7447L5.88068 12.1256L4.36401 13.6423C4.14734 13.8589 4.14734 14.107 4.33313 14.2923C4.51893 14.4775 4.76647 14.4775 4.98313 14.2608L6.4998 12.7447ZM9.44159 3.14746C9.13176 3.14746 8.97684 3.33325 8.97684 3.64309V5.62396H9.9058V3.64309C9.9058 3.33325 9.72001 3.14746 9.44159 3.14746ZM9.59597 13.6726H8.66647V15.654C8.66647 15.9638 8.85226 16.1491 9.13068 16.1491C9.40909 16.1491 9.59488 15.9638 9.59488 15.654L9.59597 13.6726Z" fill="black"/>
<path d="M21.9076 18.0771C21.8751 17.9563 21.796 17.8533 21.6876 17.7907C21.5792 17.7282 21.4505 17.7112 21.3296 17.7435L19.7897 18.1567L17.5255 16.8567L19.7897 15.5459L21.3285 15.9587C21.3885 15.9748 21.451 15.9789 21.5125 15.9708C21.574 15.9627 21.6333 15.9425 21.687 15.9114C21.7407 15.8803 21.7878 15.8388 21.8254 15.7895C21.8631 15.7402 21.8906 15.6839 21.9065 15.6239V15.6239C21.9386 15.5033 21.9214 15.3749 21.8589 15.2669C21.7963 15.159 21.6934 15.0803 21.5728 15.0481L20.9456 14.8797L21.6086 14.4962C21.7166 14.4337 21.7955 14.331 21.8279 14.2104C21.8603 14.0899 21.8436 13.9614 21.7814 13.8532V13.8532C21.7504 13.7994 21.7091 13.7522 21.6599 13.7144C21.6106 13.6765 21.5544 13.6488 21.4944 13.6328C21.4344 13.6167 21.3719 13.6126 21.3103 13.6208C21.2487 13.629 21.1894 13.6493 21.1357 13.6804L20.4689 14.0672L20.6374 13.4388C20.6696 13.3182 20.6528 13.1898 20.5904 13.0816C20.528 12.9734 20.4253 12.8944 20.3048 12.862C20.245 12.8458 20.1825 12.8416 20.1211 12.8496C20.0597 12.8577 20.0004 12.8777 19.9467 12.9087C19.893 12.9396 19.846 12.9808 19.8082 13.03C19.7705 13.0791 19.7428 13.1352 19.7268 13.1951L19.3114 14.7334L17.0564 16.0334V13.4242L18.1842 12.2959C18.2722 12.2075 18.3216 12.0878 18.3216 11.9631C18.3216 11.8383 18.2722 11.7186 18.1842 11.6302C18.1404 11.5862 18.0883 11.5513 18.031 11.5275C17.9737 11.5037 17.9123 11.4915 17.8502 11.4915C17.7882 11.4915 17.7267 11.5037 17.6694 11.5275C17.6121 11.5513 17.5601 11.5862 17.5163 11.6302L17.0564 12.0901V11.3209C17.0565 11.259 17.0443 11.1976 17.0207 11.1404C16.997 11.0832 16.9623 11.0312 16.9186 10.9873C16.8748 10.9435 16.8228 10.9088 16.7656 10.885C16.7084 10.8613 16.6471 10.8491 16.5852 10.8491C16.4601 10.8493 16.3403 10.899 16.2519 10.9875C16.1635 11.076 16.1139 11.1959 16.1139 11.3209V12.0955L15.6529 11.6362C15.6092 11.5925 15.5573 11.5578 15.5002 11.5341C15.4431 11.5105 15.3819 11.4983 15.3201 11.4983C15.2583 11.4983 15.1971 11.5105 15.1399 11.5341C15.0828 11.5578 15.0309 11.5925 14.9872 11.6362V11.6362C14.9434 11.6799 14.9087 11.7319 14.885 11.7891C14.8612 11.8463 14.849 11.9076 14.849 11.9696C14.849 12.0315 14.8612 12.0928 14.885 12.15C14.9087 12.2072 14.9434 12.2592 14.9872 12.303L16.1139 13.4296V16.0372L13.853 14.7372L13.4337 13.1951C13.4011 13.0744 13.3219 12.9715 13.2136 12.9092C13.1052 12.8468 12.9765 12.83 12.8558 12.8625C12.7959 12.8786 12.7398 12.9063 12.6907 12.9441C12.6415 12.9819 12.6004 13.029 12.5695 13.0827C12.5386 13.1365 12.5186 13.1958 12.5106 13.2573C12.5027 13.3187 12.507 13.3812 12.5232 13.441L12.6922 14.0666L12.0281 13.6875C11.9198 13.6252 11.7913 13.6084 11.6706 13.6408C11.55 13.6732 11.4472 13.7521 11.3846 13.8602V13.8602C11.3536 13.9139 11.3334 13.9732 11.3253 14.0347C11.3173 14.0962 11.3214 14.1586 11.3375 14.2185C11.3536 14.2784 11.3814 14.3345 11.4192 14.3836C11.457 14.4328 11.5042 14.474 11.5579 14.5048L12.2274 14.891L11.6007 15.0584C11.5409 15.0744 11.4848 15.102 11.4356 15.1397C11.3864 15.1773 11.3452 15.2243 11.3142 15.278C11.2832 15.3316 11.2631 15.3908 11.255 15.4522C11.2469 15.5136 11.251 15.576 11.2671 15.6358V15.6358C11.2996 15.7565 11.3786 15.8594 11.4869 15.9218C11.5951 15.9843 11.7237 16.0012 11.8445 15.969L13.385 15.5557L15.6367 16.8557L13.385 18.1557L11.8461 17.7429C11.7863 17.7267 11.7238 17.7224 11.6623 17.7303C11.6008 17.7383 11.5414 17.7583 11.4876 17.7891C11.4338 17.82 11.3867 17.8612 11.3488 17.9104C11.311 17.9595 11.2832 18.0156 11.2671 18.0755V18.0755C11.2351 18.1961 11.2523 18.3244 11.3149 18.4324C11.3774 18.5403 11.4802 18.619 11.6007 18.6513L12.2285 18.8197L11.559 19.2065C11.4511 19.269 11.3723 19.3718 11.3399 19.4923C11.3075 19.6128 11.3242 19.7412 11.3862 19.8495V19.8522C11.4171 19.9059 11.4583 19.9531 11.5074 19.9909C11.5566 20.0288 11.6127 20.0565 11.6725 20.0726C11.7324 20.0887 11.7949 20.0928 11.8564 20.0848C11.9179 20.0767 11.9771 20.0565 12.0308 20.0255L12.6922 19.6436L12.5237 20.2692C12.4915 20.39 12.5084 20.5186 12.5709 20.6269C12.6333 20.7351 12.7362 20.8142 12.8569 20.8467C12.9167 20.8628 12.9791 20.867 13.0405 20.859C13.102 20.851 13.1612 20.8309 13.2149 20.8C13.2686 20.769 13.3157 20.7278 13.3534 20.6786C13.3911 20.6295 13.4188 20.5734 13.4348 20.5135L13.8481 18.973L16.109 17.6682V20.2725L14.9824 21.3992C14.9385 21.4429 14.9038 21.4949 14.8801 21.5521C14.8564 21.6093 14.8442 21.6706 14.8442 21.7326C14.8442 21.7945 14.8564 21.8558 14.8801 21.913C14.9038 21.9702 14.9385 22.0222 14.9824 22.066V22.066C15.0707 22.1541 15.1904 22.2036 15.3152 22.2036C15.44 22.2036 15.5597 22.1541 15.6481 22.066L16.109 21.6066V22.3796C16.109 22.5046 16.1587 22.6244 16.2471 22.7128C16.3354 22.8012 16.4553 22.8508 16.5803 22.8508C16.6422 22.8509 16.7035 22.8388 16.7607 22.8151C16.8179 22.7914 16.8699 22.7567 16.9137 22.713C16.9574 22.6692 16.9921 22.6172 17.0158 22.56C17.0395 22.5028 17.0516 22.4415 17.0515 22.3796V21.6126L17.5114 22.0725C17.5552 22.1164 17.6072 22.1513 17.6645 22.1751C17.7218 22.1989 17.7833 22.2112 17.8453 22.2112C17.9074 22.2112 17.9688 22.1989 18.0261 22.1751C18.0835 22.1513 18.1355 22.1164 18.1793 22.0725V22.0725C18.2673 21.984 18.3167 21.8644 18.3167 21.7396C18.3167 21.6148 18.2673 21.4952 18.1793 21.4067L17.0515 20.279V17.6714L19.3065 18.9714L19.7198 20.5108C19.7357 20.5707 19.7634 20.6269 19.8011 20.6761C19.8388 20.7253 19.8858 20.7666 19.9395 20.7976C19.9932 20.8286 20.0525 20.8487 20.114 20.8567C20.1754 20.8648 20.2379 20.8606 20.2977 20.8445C20.3577 20.8284 20.414 20.8007 20.4632 20.7628C20.5125 20.725 20.5538 20.6778 20.5848 20.6239C20.6158 20.5701 20.6359 20.5107 20.6439 20.4491C20.6519 20.3875 20.6476 20.3249 20.6314 20.2649L20.4624 19.6409L21.1314 20.0266C21.1851 20.0575 21.2445 20.0776 21.306 20.0856C21.3675 20.0936 21.43 20.0894 21.4899 20.0733C21.5499 20.0572 21.606 20.0294 21.6552 19.9915C21.7043 19.9537 21.7456 19.9065 21.7765 19.8527V19.8527C21.8389 19.7441 21.8556 19.6151 21.823 19.4942C21.7904 19.3732 21.7111 19.2702 21.6026 19.2076L20.9391 18.8284L21.5679 18.6589C21.6287 18.6434 21.6858 18.6161 21.7359 18.5784C21.786 18.5406 21.8281 18.4933 21.8597 18.4392C21.8913 18.385 21.9118 18.3251 21.92 18.263C21.9283 18.2008 21.924 18.1376 21.9076 18.0771Z" fill="black"/>
</svg>
