<svg width="26" height="26" viewBox="0 0 26 26" fill="none" xmlns="http://www.w3.org/2000/svg">
<path fill-rule="evenodd" clip-rule="evenodd" d="M18.6875 6.12109V3.68359H17.0625V6.12109H8.9375V3.68359H7.3125V6.12109H4.33333C3.7375 6.12109 3.25 6.60859 3.25 7.20443V21.2878C3.25 21.8836 3.7375 22.3711 4.33333 22.3711H21.6667C22.2625 22.3711 22.75 21.8836 22.75 21.2878V7.20443C22.75 6.60859 22.2625 6.12109 21.6667 6.12109H18.6875ZM4.33333 21.2878V10.4544H21.6667V21.2878H4.33333ZM13 18.5794C12.2417 18.5794 11.6458 17.9836 11.6458 17.2253H10.5083C10.5083 18.5794 11.5917 19.6628 13 19.6628C14.3542 19.6628 15.4375 18.5794 15.4375 17.2253C15.4375 16.4128 15.0583 15.7086 14.4625 15.2753C14.8958 14.8961 15.1667 14.3003 15.1667 13.7044C15.1667 12.5128 14.1917 11.5378 13 11.5378C11.7542 11.5378 10.7792 12.5128 10.7792 13.7044H11.9167C11.9167 13.1086 12.4042 12.6211 13 12.6211C13.5958 12.6211 14.0833 13.1086 14.0833 13.7044C14.0833 14.3003 13.5958 14.7878 13 14.7878H12.4583V15.8711H13C13.7042 15.8711 14.3542 16.4669 14.3542 17.2253C14.3542 17.9836 13.7583 18.5794 13 18.5794Z" fill="black"/>
</svg>
