<svg width="26" height="26" viewBox="0 0 26 26" fill="none" xmlns="http://www.w3.org/2000/svg">
<path fill-rule="evenodd" clip-rule="evenodd" d="M20.8591 8.04764H17.1801L16.6384 6.64689C16.4543 6.1751 15.9451 5.8501 15.3531 5.8501H10.6102C10.0306 5.8501 9.50902 6.1686 9.32431 6.64581L8.78264 8.04656H5.1421C4.7217 8.04656 4.31852 8.21352 4.0212 8.51073C3.72389 8.80795 3.55678 9.21108 3.55664 9.63147V18.5641C3.55657 18.7724 3.59753 18.9786 3.67717 19.171C3.75682 19.3634 3.87359 19.5383 4.02082 19.6855C4.16805 19.8328 4.34285 19.9497 4.53525 20.0294C4.72764 20.1091 4.93385 20.1501 5.1421 20.1501H20.8591C21.2795 20.1501 21.6827 19.9831 21.98 19.6859C22.2773 19.3887 22.4444 18.9856 22.4446 18.5652V9.63256C22.4444 9.21216 22.2773 8.80903 21.98 8.51182C21.6827 8.2146 21.2795 8.04764 20.8591 8.04764V8.04764ZM20.8656 19.0603H5.14643C5.01488 19.0601 4.88877 19.0078 4.79575 18.9148C4.70273 18.8218 4.65041 18.6956 4.65027 18.5641V9.63256C4.65041 9.50096 4.70271 9.37478 4.79571 9.28168C4.88872 9.18858 5.01484 9.13613 5.14643 9.13585H9.53393L10.3421 7.03526C10.3551 7.00331 10.4504 6.93993 10.6097 6.93993H15.3525C15.4011 6.9373 15.4498 6.94438 15.4956 6.96074C15.5415 6.97711 15.5836 7.00244 15.6196 7.03526L16.4321 9.13585H20.8564C20.9881 9.13599 21.1143 9.18837 21.2075 9.28149C21.3006 9.37461 21.353 9.50087 21.3531 9.63256L21.3596 18.5641C21.3595 18.6953 21.3074 18.8211 21.2149 18.914C21.1223 19.007 20.9968 19.0596 20.8656 19.0603V19.0603Z" fill="black"/>
<path fill-rule="evenodd" clip-rule="evenodd" d="M13.022 9.01514C12.1078 9.01503 11.2141 9.28603 10.4539 9.79387C9.69375 10.3017 9.10125 11.0236 8.75135 11.8681C8.40145 12.7127 8.30988 13.6421 8.4882 14.5388C8.66653 15.4354 9.10674 16.259 9.75318 16.9055C10.3996 17.5519 11.2232 17.9921 12.1199 18.1704C13.0165 18.3488 13.9459 18.2572 14.7905 17.9073C15.6351 17.5574 16.3569 16.9649 16.8648 16.2047C17.3726 15.4445 17.6436 14.5508 17.6435 13.6366C17.6375 11.0903 15.5619 9.01514 13.022 9.01514ZM13.022 17.1699C12.3232 17.1699 11.6401 16.9627 11.059 16.5745C10.478 16.1862 10.0251 15.6344 9.75766 14.9888C9.49024 14.3431 9.42027 13.6327 9.5566 12.9473C9.69293 12.2619 10.0294 11.6324 10.5236 11.1382C11.0177 10.6441 11.6473 10.3076 12.3327 10.1712C13.0181 10.0349 13.7285 10.1049 14.3741 10.3723C15.0198 10.6397 15.5716 11.0926 15.9598 11.6736C16.3481 12.2547 16.5553 12.9378 16.5553 13.6366C16.5546 14.5736 16.1821 15.472 15.5197 16.1346C14.8573 16.7973 13.959 17.17 13.022 17.171V17.1699Z" fill="black"/>
<path d="M7.64339 9.96973H6.18522C5.84777 9.96973 5.57422 10.2433 5.57422 10.5807V10.7145C5.57422 11.052 5.84777 11.3255 6.18522 11.3255H7.64339C7.98083 11.3255 8.25439 11.052 8.25439 10.7145V10.5807C8.25439 10.2433 7.98083 9.96973 7.64339 9.96973Z" fill="black"/>
</svg>
