<svg width="26" height="26" viewBox="0 0 26 26" fill="none" xmlns="http://www.w3.org/2000/svg">
<path fill-rule="evenodd" clip-rule="evenodd" d="M19.5 16.7915C19.7708 16.4665 19.9875 16.0873 20.2042 15.7082H24.375C24.3208 13.8665 22.9125 12.4582 21.125 12.4582V11.9165C22.3167 11.9165 23.2917 10.9415 23.2917 9.74984C23.2917 8.55817 22.3167 7.58317 21.125 7.58317C20.8 7.58317 20.4208 7.6915 20.0958 7.854C18.6875 5.4165 16.0875 3.7915 13 3.7915C9.9125 3.7915 7.3125 5.4165 5.90417 7.854C5.57917 7.6915 5.2 7.58317 4.875 7.58317C3.68333 7.58317 2.70833 8.55817 2.70833 9.74984C2.70833 10.9415 3.68333 11.9165 4.875 11.9165V12.4582C3.0875 12.4582 1.67917 13.8665 1.625 15.7082H5.79583C7.15 18.3082 9.80417 20.0415 13 20.0415C14.5708 20.0415 16.0333 19.6082 17.225 18.8498L20.5833 22.2082C21.1792 22.804 22.1542 22.804 22.75 22.2082C23.4 21.5582 23.3458 20.6373 22.75 20.0415L19.5 16.7915ZM5.95833 11.9165C5.95833 7.96234 9.04583 4.87484 13 4.87484C16.9542 4.87484 20.0417 7.96234 20.0417 11.9165C20.0417 15.8707 16.9542 18.9582 13 18.9582C9.04583 18.9582 5.95833 15.8707 5.95833 11.9165ZM13 11.9165C14.5167 11.9165 15.7083 10.7248 15.7083 9.20817C15.7083 7.6915 14.5167 6.49984 13 6.49984C11.4833 6.49984 10.2917 7.6915 10.2917 9.20817C10.2917 10.7248 11.4833 11.9165 13 11.9165ZM13 12.4582C10.6167 12.4582 8.72083 14.354 8.66667 16.7915H17.3333C17.3333 14.354 15.4375 12.4582 13 12.4582Z" fill="black"/>
</svg>
