<svg width="26" height="26" viewBox="0 0 26 26" fill="none" xmlns="http://www.w3.org/2000/svg">
<path d="M13.0004 3.95703C8.15514 3.95703 4.21289 7.89874 4.21289 12.7439C4.21289 17.5892 8.15514 21.5314 13.0004 21.5314C17.8456 21.5314 21.7873 17.5892 21.7873 12.7439C21.7873 7.89874 17.8456 3.95703 13.0004 3.95703ZM13.0004 20.4481C11.1444 20.4498 9.35079 19.7786 7.95202 18.5587L8.96872 17.542L8.20227 16.7761L7.18556 17.7928C5.96596 16.3937 5.29474 14.6 5.29622 12.7439C5.29622 8.4962 8.7526 5.04036 13.0004 5.04036C14.8563 5.03862 16.6499 5.70988 18.0487 6.9297L16.7043 8.27411L17.4707 9.04003L18.8151 7.69561C20.0346 9.09459 20.7056 10.8881 20.7039 12.7439C20.7039 16.9917 17.2481 20.4481 13.0004 20.4481Z" fill="black"/>
<path d="M16.1318 8.88354V8.87163C16.1307 8.59096 16.0183 8.3222 15.8193 8.12429C15.6202 7.92638 15.3508 7.81549 15.0702 7.81592H13.8119C13.5387 7.81567 13.2761 7.92097 13.0787 8.10983C12.8814 8.29868 12.7647 8.55649 12.7529 8.82938H12.0986V8.48867C12.0986 8.15338 11.8597 7.88309 11.5656 7.88309H10.3279C10.0338 7.88309 9.79488 8.15392 9.79488 8.48867V8.909C9.56768 8.99642 9.37228 9.15059 9.2344 9.35122C9.09652 9.55185 9.02263 9.78953 9.02246 10.033V16.4024C9.02289 16.7214 9.14996 17.0272 9.37575 17.2526C9.60153 17.478 9.90756 17.6045 10.2266 17.6044H15.7722C15.9303 17.6045 16.0868 17.5734 16.2329 17.5129C16.379 17.4525 16.5118 17.3638 16.6236 17.2521C16.7354 17.1403 16.8241 17.0076 16.8846 16.8615C16.9451 16.7155 16.9763 16.5589 16.9763 16.4008V10.0319C16.976 9.77554 16.8939 9.526 16.742 9.31949C16.5902 9.11298 16.3764 8.96027 16.1318 8.88354V8.88354ZM13.8119 8.48109H15.0696C15.1664 8.48054 15.26 8.51563 15.3325 8.57967C15.405 8.64371 15.4514 8.73222 15.4629 8.82829H13.4192C13.4306 8.73231 13.4769 8.64388 13.5494 8.57986C13.6218 8.51583 13.7152 8.48067 13.8119 8.48109Z" fill="black"/>
</svg>
