<svg width="26" height="26" viewBox="0 0 26 26" fill="none" xmlns="http://www.w3.org/2000/svg">
<path d="M21.5718 10.0273H4.32129V11.8928H21.5718V10.0273Z" fill="black"/>
<path d="M5.40462 19.1049H6.59629C6.59629 18.4741 6.84688 17.8691 7.29292 17.4231C7.73897 16.9771 8.34394 16.7265 8.97475 16.7265C9.60555 16.7265 10.2105 16.9771 10.6566 17.4231C11.1026 17.8691 11.3532 18.4741 11.3532 19.1049H14.5393C14.5393 18.4741 14.7899 17.8691 15.2359 17.4231C15.682 16.9771 16.2869 16.7265 16.9178 16.7265C17.5486 16.7265 18.1535 16.9771 18.5996 17.4231C19.0456 17.8691 19.2962 18.4741 19.2962 19.1049H20.4879L21.5712 12.6699H4.32129L5.40462 19.1049Z" fill="black"/>
<path d="M15.8257 9.2495H20.204L17.4269 6.47238C17.2006 6.2462 16.8937 6.11914 16.5737 6.11914C16.2538 6.11914 15.9469 6.2462 15.7206 6.47238L14.3838 7.80975L15.4021 8.82809L15.8257 9.2495Z" fill="black"/>
<path d="M12.5237 9.24948H14.9829L13.964 8.23331L13.7533 8.0226L13.541 7.80973L11.3586 5.62735C11.0634 5.33227 10.6631 5.1665 10.2457 5.1665C9.82834 5.1665 9.42805 5.33227 9.13287 5.62735L5.51074 9.24948H12.5237V9.24948Z" fill="black"/>
<path d="M8.97455 17.3765C8.6327 17.3765 8.29852 17.4778 8.01427 17.6678C7.73003 17.8577 7.50849 18.1276 7.37767 18.4435C7.24684 18.7593 7.21261 19.1068 7.27931 19.4421C7.346 19.7774 7.51062 20.0854 7.75235 20.3271C7.99408 20.5689 8.30206 20.7335 8.63735 20.8002C8.97263 20.8669 9.32017 20.8326 9.636 20.7018C9.95184 20.571 10.2218 20.3494 10.4117 20.0652C10.6016 19.781 10.703 19.4468 10.703 19.1049C10.7017 18.6469 10.5192 18.208 10.1953 17.8841C9.87147 17.5603 9.43257 17.3778 8.97455 17.3765Z" fill="black"/>
<path d="M16.9169 17.3765C16.5751 17.3765 16.2409 17.4778 15.9567 17.6678C15.6724 17.8577 15.4509 18.1276 15.32 18.4435C15.1892 18.7593 15.155 19.1068 15.2217 19.4421C15.2884 19.7774 15.453 20.0854 15.6947 20.3271C15.9365 20.5689 16.2444 20.7335 16.5797 20.8002C16.915 20.8669 17.2626 20.8326 17.5784 20.7018C17.8942 20.571 18.1642 20.3494 18.3541 20.0652C18.544 19.781 18.6454 19.4468 18.6454 19.1049C18.6448 18.6467 18.4625 18.2074 18.1385 17.8834C17.8145 17.5593 17.3752 17.377 16.9169 17.3765Z" fill="black"/>
</svg>
