<svg width="26" height="26" viewBox="0 0 26 26" fill="none" xmlns="http://www.w3.org/2000/svg">
<path fill-rule="evenodd" clip-rule="evenodd" d="M13.0003 3.7915C7.85449 3.7915 3.79199 7.854 3.79199 12.9998C3.79199 18.1457 7.85449 22.2082 13.0003 22.2082C18.1462 22.2082 22.2087 18.1457 22.2087 12.9998C22.2087 7.854 18.1462 3.7915 13.0003 3.7915ZM13.542 18.9582H12.4587V21.1248C8.34199 20.854 5.14616 17.6582 4.87533 13.5415H7.04199V12.4582H4.87533C5.14616 8.3415 8.34199 5.14567 12.4587 4.87484V7.0415H13.542V4.87484C17.6587 5.14567 20.8545 8.3415 21.1253 12.4582H18.9587V13.5415H21.1253C20.8545 17.6582 17.6587 20.854 13.542 21.1248V18.9582ZM8.23366 17.6582L8.34199 17.7665L14.6253 14.6248L17.7128 8.44984L17.5503 8.28734L11.3753 11.3748L8.23366 17.6582ZM11.917 12.9998L13.0003 14.0832L10.292 15.7082L11.917 12.9998Z" fill="black"/>
</svg>
