<svg width="26" height="26" viewBox="0 0 26 26" fill="none" xmlns="http://www.w3.org/2000/svg">
<path fill-rule="evenodd" clip-rule="evenodd" d="M4.49544 20.8542V5.14583H14.7871V7.3125H15.8704V5.14583C15.8704 4.44167 15.4913 4.0625 14.7871 4.0625H4.49544C3.79128 4.0625 3.41211 4.44167 3.41211 5.14583V20.8542C3.41211 21.5583 3.79128 21.9375 4.49544 21.9375H14.7871C15.4913 21.9375 15.8704 21.5583 15.8704 20.8542V18.6875H14.7871V20.8542H4.49544ZM18.0371 8.125L16.9538 9.20833L19.9329 12.1875H12.0788V13.8125H19.9329L16.9538 16.7917L18.0371 17.875L22.3704 13.5417C22.6413 13.2708 22.6413 12.7292 22.3704 12.4583L18.0371 8.125Z" fill="black"/>
</svg>
