<svg width="26" height="26" viewBox="0 0 26 26" fill="none" xmlns="http://www.w3.org/2000/svg">
<path fill-rule="evenodd" clip-rule="evenodd" d="M19.8542 7.70453C19.8542 6.9072 19.4555 6.3092 18.5255 5.37916C17.5949 6.3092 17.1962 6.9072 17.1962 7.70453C17.1962 8.16982 17.3295 8.56849 17.6296 9.0002L15.9352 7.30587C16.8322 6.40887 17.1973 5.81086 17.1973 5.04657C17.1973 4.24924 16.7986 3.65124 15.8686 2.7212C14.9386 3.65124 14.5399 4.24924 14.5399 5.04657C14.5399 5.49616 14.6753 5.89537 14.9564 6.32762L14.0898 5.46095C14.0583 4.47674 13.9078 3.8652 13.4398 3.39557C12.8759 2.8317 12.1712 2.69141 10.8555 2.69141C10.8555 4.00711 10.9963 4.71182 11.5596 5.2757C12.0293 5.74478 12.643 5.89536 13.625 5.9257L14.4917 6.79237C14.0583 6.51124 13.6602 6.37582 13.2106 6.37582C12.4133 6.37582 11.8153 6.77449 10.8853 7.70453C11.8153 8.63457 12.4133 9.03324 13.2106 9.03324C13.9749 9.03324 14.5729 8.66816 15.4699 7.77116L17.1643 9.46549C16.7309 9.16649 16.3339 9.03216 15.8686 9.03216C15.0713 9.03216 14.4733 9.43082 13.5432 10.3614C14.4733 11.2914 15.0713 11.6901 15.8686 11.6901C16.6329 11.6901 17.2309 11.3245 18.1279 10.4275L19.8222 12.1218C19.3889 11.8228 18.9913 11.6885 18.5266 11.6885C17.7292 11.6885 17.1312 12.0872 16.2006 13.0172C17.1312 13.9478 17.7292 14.3464 18.5266 14.3464C19.2903 14.3464 19.8883 13.9808 20.7853 13.0838L23.1112 15.4097L23.5765 14.9444L21.2495 12.6207C22.1465 11.7237 22.5121 11.1257 22.5121 10.3619C22.5121 9.56462 22.1135 8.96661 21.1829 8.03603C20.2528 8.96661 19.8542 9.56462 19.8542 10.3619C19.8542 10.8267 19.9869 11.2254 20.2875 11.6576L18.5916 9.96653C19.4886 9.06682 19.8542 8.46882 19.8542 7.70453Z" fill="black"/>
<path d="M11.0431 11.9917L10.8221 11.2783L11.3459 10.0438L10.7533 9.32612L9.44629 9.60779L8.80116 9.25733L8.30066 8.00337L7.32295 7.90479L6.55758 9.03633L5.84475 9.25733L4.60975 8.73354L3.89204 9.32612L4.1737 10.6337L3.82324 11.2783L2.56929 11.7788L2.4707 12.757L3.60225 13.5219L3.82324 14.2352L3.29945 15.4697L3.89204 16.1874L5.19962 15.9057L5.84475 16.2562L6.3447 17.5102L7.32295 17.6087L8.08833 16.4772L8.80116 16.2562L10.0356 16.78L10.7533 16.1874L10.4717 14.8798L10.8221 14.2352L12.0788 13.7347L12.1774 12.757L11.0431 11.9917ZM7.32295 13.9254C7.09172 13.9255 6.86565 13.857 6.67333 13.7286C6.48102 13.6002 6.33112 13.4177 6.24258 13.2041C6.15404 12.9905 6.13084 12.7554 6.17593 12.5286C6.22102 12.3018 6.33235 12.0935 6.49586 11.9299C6.65937 11.7664 6.8677 11.6551 7.0945 11.61C7.3213 11.5649 7.55637 11.5881 7.76999 11.6767C7.9836 11.7652 8.16616 11.9151 8.29456 12.1074C8.42296 12.2997 8.49144 12.5258 8.49133 12.757C8.49119 13.0669 8.36804 13.364 8.14896 13.583C7.92988 13.8021 7.63278 13.9253 7.32295 13.9254V13.9254Z" fill="black"/>
<path d="M18.3927 17.7743L18.1712 17.0625L18.6955 15.8275L18.1029 15.1098L16.7954 15.3915L16.1502 15.0416L15.6503 13.7871L14.672 13.6885L13.9066 14.82L13.1938 15.0416L11.9594 14.5167L11.2411 15.1093L11.5233 16.4168L11.1729 17.0625L9.9189 17.5625L9.82031 18.5407L10.9519 19.3061L11.1729 20.0189L10.6491 21.2534L11.2411 21.9716L12.5487 21.6894L13.1938 22.0399L13.6943 23.2917L14.672 23.3903L15.4374 22.2625L16.1502 22.0415L17.3874 22.5626L18.1056 21.9706L17.8207 20.663L18.1706 20.0178L19.4251 19.5174L19.5237 18.5396L18.3927 17.7743ZM14.672 19.708C14.4408 19.708 14.2148 19.6394 14.0225 19.511C13.8303 19.3825 13.6805 19.1999 13.592 18.9863C13.5036 18.7727 13.4805 18.5376 13.5256 18.3109C13.5708 18.0841 13.6821 17.8758 13.8457 17.7124C14.0092 17.5489 14.2175 17.4376 14.4443 17.3926C14.6711 17.3475 14.9061 17.3708 15.1197 17.4593C15.3333 17.5479 15.5158 17.6978 15.6442 17.8901C15.7726 18.0824 15.841 18.3084 15.8409 18.5396C15.8409 18.6931 15.8107 18.8451 15.7519 18.9869C15.6932 19.1287 15.6071 19.2575 15.4985 19.366C15.39 19.4745 15.2611 19.5606 15.1193 19.6192C14.9775 19.6779 14.8255 19.7081 14.672 19.708V19.708Z" fill="black"/>
</svg>
