<svg width="26" height="26" viewBox="0 0 26 26" fill="none" xmlns="http://www.w3.org/2000/svg">
<path fill-rule="evenodd" clip-rule="evenodd" d="M15.0069 16.6995C15.0069 15.9553 14.6348 15.3968 13.766 14.528C12.8993 15.3946 12.525 15.9553 12.525 16.6995C12.525 17.1329 12.6496 17.5061 12.9285 17.9096L11.3463 16.3274C12.1838 15.4894 12.525 14.9315 12.525 14.2176C12.525 13.4734 12.1529 12.9149 11.284 12.0461C10.4174 12.9127 10.0431 13.4734 10.0431 14.2176C10.0431 14.6374 10.1698 15.0101 10.4325 15.4136L9.62005 14.6011C9.59026 13.6803 9.45051 13.111 9.01176 12.6728C8.48526 12.1463 7.82713 12.0146 6.59863 12.0146C6.59863 13.2431 6.73026 13.9013 7.25676 14.4278C7.69551 14.866 8.26642 15.0063 9.18563 15.0355L9.99813 15.848C9.59459 15.5853 9.22192 15.4586 8.80213 15.4586C8.05788 15.4586 7.50213 15.8307 6.63059 16.6995C7.49726 17.5662 8.05788 17.9405 8.80267 17.9405C9.51605 17.9405 10.0745 17.5992 10.9119 16.7618L12.4941 18.344C12.0911 18.0645 11.7185 17.9405 11.284 17.9405C10.5398 17.9405 9.98134 18.3126 9.11251 19.1814C9.97917 20.0481 10.5398 20.4224 11.284 20.4224C11.998 20.4224 12.5564 20.0811 13.3938 19.2437L14.976 20.8259C14.573 20.5464 14.2004 20.4224 13.766 20.4224C13.0217 20.4224 12.4633 20.7945 11.5944 21.6634C12.4611 22.53 13.0217 22.9043 13.766 22.9043C14.4799 22.9043 15.0383 22.5631 15.8785 21.7256L18.05 23.8972L18.4833 23.4639L16.3118 21.2923C17.1492 20.4544 17.4905 19.8959 17.4905 19.1825C17.4905 18.4383 17.1183 17.8798 16.2495 17.011C15.3828 17.8776 15.0085 18.4383 15.0085 19.1825C15.0085 19.6159 15.1331 19.9891 15.4121 20.3926L13.8283 18.8093C14.6657 17.9714 15.0069 17.4129 15.0069 16.6995Z" fill="black"/>
<path d="M14.8964 13.6344C15.0113 13.6343 15.1234 13.5993 15.2181 13.5342C15.9402 13.0386 17.0668 11.5273 16.1612 9.35743C15.3774 7.47947 16.3984 6.59493 16.4423 6.55539L16.4482 6.55105C16.5637 6.45387 16.6358 6.31481 16.6487 6.16447C16.6616 6.01412 16.6142 5.86482 16.517 5.74939C16.4689 5.69223 16.41 5.64511 16.3437 5.61072C16.2773 5.57634 16.2049 5.55535 16.1304 5.54896C15.9801 5.53606 15.8308 5.58341 15.7154 5.68059C15.3772 5.98368 15.1171 6.36384 14.957 6.78884C14.7133 7.40743 14.5421 8.43118 15.112 9.79618C15.437 10.5751 15.4494 11.2755 15.1472 11.8843C15.0099 12.1611 14.8133 12.4043 14.5714 12.5966C14.471 12.6654 14.3953 12.7647 14.3555 12.8797C14.3157 12.9947 14.3138 13.1195 14.3502 13.2357C14.3866 13.3518 14.4593 13.4532 14.5576 13.525C14.6559 13.5968 14.7746 13.6352 14.8964 13.6344Z" fill="black"/>
<path d="M11.7127 4.29665C11.469 4.91524 11.2978 5.93899 11.8677 7.30399C12.1927 8.0829 12.2051 8.78328 11.9034 9.39157C11.7673 9.66808 11.572 9.91126 11.3314 10.1039C11.2687 10.1445 11.2147 10.1972 11.1724 10.2588C11.13 10.3203 11.1003 10.3896 11.0847 10.4627C11.0692 10.5358 11.0682 10.6112 11.0818 10.6847C11.0954 10.7582 11.1233 10.8282 11.164 10.8909C11.2047 10.9536 11.2573 11.0076 11.3189 11.0499C11.3805 11.0923 11.4498 11.1221 11.5229 11.1376C11.596 11.1531 11.6714 11.1541 11.7449 11.1405C11.8183 11.1269 11.8884 11.099 11.9511 11.0583L11.9754 11.042C12.6975 10.5464 13.8241 9.03515 12.9185 6.86524C12.1331 4.98728 13.1557 4.10003 13.1996 4.06211L13.2056 4.05778C13.3173 3.95949 13.3861 3.82135 13.3973 3.67294C13.4084 3.52454 13.361 3.37768 13.2652 3.2638C13.1694 3.14993 13.0328 3.0781 12.8846 3.06371C12.7365 3.04931 12.5886 3.09349 12.4727 3.18678C12.1339 3.49029 11.8732 3.871 11.7127 4.29665V4.29665Z" fill="black"/>
<path d="M9.8448 4.06211L9.8513 4.05778C9.96304 3.95949 10.0319 3.82135 10.043 3.67294C10.0541 3.52454 10.0067 3.37768 9.9109 3.2638C9.81509 3.14993 9.67849 3.0781 9.53037 3.06371C9.38225 3.04931 9.23438 3.09349 9.11843 3.18678C8.78038 3.4902 8.52028 3.8705 8.36009 4.29557C8.11688 4.91415 7.94518 5.9379 8.51555 7.3029C8.84055 8.08182 8.85301 8.78219 8.55076 9.39049C8.41482 9.66711 8.21951 9.91032 7.97876 10.1028C7.85626 10.1868 7.77145 10.3153 7.74243 10.461C7.7134 10.6067 7.74245 10.7579 7.82338 10.8825C7.90432 11.007 8.03072 11.095 8.17562 11.1276C8.32052 11.1603 8.47245 11.135 8.59897 11.0572L8.62334 11.0409C9.34539 10.5453 10.4721 9.03407 9.56584 6.86415C8.7788 4.98999 9.7993 4.10003 9.8448 4.06211Z" fill="black"/>
</svg>
