<svg width="26" height="26" viewBox="0 0 26 26" fill="none" xmlns="http://www.w3.org/2000/svg">
<path d="M20.4392 10.8112C20.7479 10.6921 20.8021 10.6541 20.7967 10.4104L20.71 7.52873C20.7046 7.4204 20.7046 7.40415 20.6396 7.31748C20.0004 6.46707 19.3287 5.63832 18.6787 4.79332C18.5596 4.63623 18.5325 4.63623 18.3754 4.74998L18.1371 4.92873C17.9908 5.03707 17.9746 5.07498 18.0937 5.23207C18.5704 5.85498 19.0579 6.46707 19.54 7.08998C19.6537 7.23623 19.6375 7.26332 19.5237 7.37707C19.3071 7.58832 19.0904 7.79415 18.8792 8.01082C18.7871 8.10832 18.7762 8.15165 18.7817 8.27623L18.8683 10.3779C18.8737 10.6 18.9171 10.6162 19.1825 10.7516C19.4479 10.8871 19.4587 10.9033 19.4967 11.4071C19.5292 11.7916 20.4717 17.9775 18.9983 17.9829C18.0829 17.9883 18.1154 16.7804 17.9475 13.8446C17.8879 12.81 17.7796 9.99873 16.6042 9.79832V9.15915H16.16V6.80832H6.71875V19.1421H16.1654V11.9325H16.6096V10.6216C17.1892 10.6758 17.2758 13.2866 17.3083 13.8879C17.5033 17.2571 17.4708 18.6437 19.0037 18.6383C21.3167 18.6275 20.2279 12.4633 20.1467 11.3691C20.1142 10.9629 20.125 10.9418 20.4392 10.8112ZM15.1362 13.0321H7.74792V7.9729H15.1362V13.0321ZM19.8379 10.21C19.605 10.2046 19.5942 10.1883 19.5887 9.93915L19.5292 8.50373C19.5237 8.3954 19.5725 8.3629 19.6375 8.29248C19.9733 7.95665 19.995 7.9729 20.0112 8.43873L20.0546 9.98248C20.06 10.1991 20.0437 10.2208 19.8379 10.21V10.21Z" fill="black"/>
<path d="M16.1654 19.792H6.71875V21.3303H16.1654V19.792Z" fill="black"/>
</svg>
