<svg width="26" height="26" viewBox="0 0 26 26" fill="none" xmlns="http://www.w3.org/2000/svg">
<path d="M20.4401 10.8112C20.7489 10.6921 20.8031 10.6541 20.7977 10.4104L20.711 7.52873C20.7056 7.4204 20.7056 7.40415 20.6406 7.31748C20.0014 6.46707 19.3297 5.63832 18.6797 4.79332C18.5606 4.63623 18.5335 4.63623 18.3764 4.74998L18.1381 4.92873C17.9918 5.03707 17.9756 5.07498 18.0947 5.23207C18.5714 5.85498 19.0589 6.46707 19.541 7.08998C19.6547 7.23623 19.6385 7.26332 19.5247 7.37707C19.3081 7.58832 19.0914 7.79415 18.8801 8.01082C18.7881 8.10832 18.7772 8.15165 18.7826 8.27623L18.8693 10.3779C18.8747 10.6 18.9181 10.6162 19.1835 10.7516C19.4489 10.8871 19.4597 10.9033 19.4976 11.4071C19.5301 11.7916 20.4726 17.9775 18.9993 17.9829C18.0839 17.9883 18.1164 16.7804 17.9485 13.8446C17.8889 12.81 17.7806 9.99873 16.6051 9.79832V9.15915H16.161V6.80832H6.71973V19.1421H16.1664V11.9325H16.6106V10.6216C17.1901 10.6758 17.2768 13.2866 17.3093 13.8879C17.5043 17.2571 17.4718 18.6437 19.0047 18.6383C21.3176 18.6275 20.2289 12.4633 20.1476 11.3691C20.1151 10.9629 20.126 10.9418 20.4401 10.8112ZM15.1372 13.0321H7.74889V7.9729H15.1372V13.0321ZM19.8389 10.21C19.606 10.2046 19.5951 10.1883 19.5897 9.93915L19.5301 8.50373C19.5247 8.3954 19.5735 8.3629 19.6385 8.29248C19.9743 7.95665 19.996 7.9729 20.0122 8.43873L20.0556 9.98248C20.061 10.1991 20.0447 10.2208 19.8389 10.21V10.21Z" fill="black"/>
<path d="M16.1664 19.792H6.71973V21.3303H16.1664V19.792Z" fill="black"/>
</svg>
