<svg width="26" height="26" viewBox="0 0 26 26" fill="none" xmlns="http://www.w3.org/2000/svg">
<path fill-rule="evenodd" clip-rule="evenodd" d="M12.458 5.4165H3.79134V9.20817H2.16634V12.4582H6.49967V9.20817H4.87467V6.49984H6.49967V7.0415L11.0497 7.854L12.9997 10.1832V13.5415H1.08301V18.9582H2.16634C2.16634 17.4415 3.35801 16.2498 4.87467 16.2498C5.47051 16.2498 6.06634 16.4665 6.49967 16.7915H7.58301C8.01634 16.4665 8.61217 16.2498 9.20801 16.2498C9.80384 16.2498 10.3997 16.4665 10.833 16.7915H16.7913V13.5415H15.708V9.20817L12.458 5.4165ZM17.8747 8.6665V16.7915C18.308 16.4665 18.9038 16.2498 19.4997 16.2498C21.0163 16.2498 22.208 17.4415 22.208 18.9582H24.9163V13.5415L23.2913 8.6665H17.8747ZM20.0413 9.74984H22.7497L23.833 13.5415H20.0413V9.74984ZM4.87467 17.3332C3.95384 17.3332 3.24967 18.0373 3.24967 18.9582C3.24967 19.879 3.95384 20.5832 4.87467 20.5832C5.79551 20.5832 6.49967 19.879 6.49967 18.9582C6.49967 18.0373 5.79551 17.3332 4.87467 17.3332ZM9.20801 17.3332C8.28717 17.3332 7.58301 18.0373 7.58301 18.9582C7.58301 19.879 8.28717 20.5832 9.20801 20.5832C10.1288 20.5832 10.833 19.879 10.833 18.9582C10.833 18.0373 10.1288 17.3332 9.20801 17.3332ZM19.4997 17.3332C18.5788 17.3332 17.8747 18.0373 17.8747 18.9582C17.8747 19.879 18.5788 20.5832 19.4997 20.5832C20.4205 20.5832 21.1247 19.879 21.1247 18.9582C21.1247 18.0373 20.4205 17.3332 19.4997 17.3332ZM16.7913 20.0415V17.8748H11.9163V20.0415H16.7913Z" fill="black"/>
</svg>
