<svg width="26" height="26" viewBox="0 0 26 26" fill="none" xmlns="http://www.w3.org/2000/svg">
<path d="M8.03198 13.65C8.03739 13.3466 8.04877 13.0541 8.06448 12.7714C8.07488 12.3119 8.11651 11.8537 8.18906 11.3999C8.40573 9.69256 8.81306 8.43643 9.19981 7.56651C8.86359 7.45517 8.51182 7.39794 8.15764 7.39697C5.57227 7.39697 3.47656 10.3843 3.47656 14.0687C3.47656 17.7531 5.57227 20.7404 8.15764 20.7404C8.50452 20.7393 8.84914 20.6845 9.17923 20.5779C8.6446 19.2833 7.97727 16.9834 8.03198 13.65Z" fill="black"/>
<path d="M17.0797 13.6254C17.0315 10.7216 16.42 8.83873 15.9162 7.77111C15.2251 7.10161 14.4191 6.65527 13.5486 6.50848C13.4544 5.51127 13.4879 4.5769 13.9121 4.30011C14.0475 4.21182 14.3102 4.09373 14.6791 4.01844C15.0718 3.93827 15.0777 3.37819 14.6856 3.29532C14.1098 3.17344 13.6049 3.25198 13.1765 3.53148C12.4777 3.98702 11.6788 5.24532 11.5515 6.70673C10.9532 6.93839 10.4079 7.28844 9.94815 7.7359C9.4417 8.79702 8.81661 10.6896 8.7684 13.6254C8.71424 17.0379 9.4639 19.301 9.95736 20.4125C10.804 21.2153 11.8196 21.6849 12.9127 21.6849C14.0204 21.6849 15.0485 21.2023 15.9022 20.38C16.3989 19.2571 17.1355 17.0022 17.0797 13.6254Z" fill="black"/>
<path d="M17.6744 7.39844C17.326 7.39907 16.9799 7.45389 16.6484 7.56094C17.1901 8.77481 17.7708 10.7454 17.8206 13.6498C17.8748 16.9865 17.2058 19.2896 16.6712 20.5831C16.9962 20.6861 17.335 20.7389 17.676 20.7397C20.2608 20.7397 22.3565 17.7529 22.3565 14.068C22.3565 10.383 20.2581 7.39844 17.6744 7.39844Z" fill="black"/>
</svg>
