<svg width="26" height="26" viewBox="0 0 26 26" fill="none" xmlns="http://www.w3.org/2000/svg">
<path fill-rule="evenodd" clip-rule="evenodd" d="M18.416 13.5417H17.3327V7.58333H16.2493V15.1667H14.6243L12.4577 6.5H6.49935C5.90352 6.5 5.41602 6.9875 5.41602 7.58333V13.5417L3.79102 14.0833V18.9583C3.79102 19.5542 4.27852 20.0417 4.87435 20.0417H5.25352C5.57852 20.3667 6.01185 20.5833 6.49935 20.5833C6.98685 20.5833 7.42018 20.3667 7.74518 20.0417H10.8327V18.9583C10.8327 17.4417 12.0243 16.25 13.541 16.25C15.0577 16.25 16.2493 17.4417 16.2493 18.9583V19.5H24.916V18.4167H18.416V13.5417ZM7.58268 13.5417V8.125H11.916L13.541 15.1667H11.4285L7.58268 13.5417ZM13.541 17.3333C12.6202 17.3333 11.916 18.0375 11.916 18.9583C11.916 19.8792 12.6202 20.5833 13.541 20.5833C14.4618 20.5833 15.166 19.8792 15.166 18.9583C15.166 18.0375 14.4618 17.3333 13.541 17.3333Z" fill="black"/>
</svg>
