<svg width="26" height="26" viewBox="0 0 26 26" fill="none" xmlns="http://www.w3.org/2000/svg">
<path fill-rule="evenodd" clip-rule="evenodd" d="M13.1629 16.4122V12.7289C16.0337 12.1872 19.6629 9.69557 19.6629 6.17474C19.6629 4.98307 18.8504 4.17057 17.6587 4.17057C15.1129 4.17057 13.5421 6.49974 12.7296 8.93724C11.7546 4.65807 9.26289 2.00391 6.82539 2.00391C4.87539 2.00391 3.41289 3.46641 3.41289 5.41641C3.41289 8.28724 7.20456 12.2414 12.0796 12.7831V16.0872C10.9421 15.5997 9.69622 15.3289 8.34206 15.3289H3.08789V16.4122H8.28789C12.5129 16.4122 15.8712 19.7706 15.8712 23.9956H22.9671V22.9122H16.9004L16.7379 21.8289H22.9671V20.7456H16.4129C16.3046 20.3664 16.1421 19.9872 15.9796 19.6622H22.9671V18.5789H15.2754C15.0046 18.1997 14.6796 17.8206 14.3004 17.4956H22.9671V16.4122H13.1629ZM8.34206 17.4956H3.08789V18.5789H8.28789C11.3212 18.5789 13.7046 20.9622 13.7046 23.9956H14.7879C14.7879 20.3664 11.9712 17.5497 8.34206 17.4956ZM8.34206 19.6622H3.08789V20.7456H8.28789C10.1296 20.7456 11.5379 22.1539 11.5379 23.9956H12.6212C12.6212 21.5581 10.7796 19.7164 8.34206 19.6622ZM8.34206 21.8289H3.08789V22.9122H8.28789C8.88372 22.9122 9.37122 23.3997 9.37122 23.9956H10.4546C10.4546 22.8039 9.53372 21.8831 8.34206 21.8289Z" fill="black"/>
</svg>
