<svg width="26" height="26" viewBox="0 0 26 26" fill="none" xmlns="http://www.w3.org/2000/svg">
<path d="M10.351 5.6543C6.32755 5.6543 3.05371 8.92813 3.05371 12.9522C3.05371 16.9762 6.32755 20.2495 10.351 20.2495C14.3745 20.2495 17.6489 16.9762 17.6489 12.9522C17.6489 8.92813 14.3751 5.6543 10.351 5.6543ZM9.50659 18.8363C8.23631 18.6513 7.05974 18.061 6.15205 17.1533C5.24435 16.2456 4.65407 15.0691 4.46909 13.7988H7.90325C8.03201 14.1704 8.24339 14.508 8.52149 14.7861C8.79958 15.0642 9.13714 15.2755 9.50875 15.4043L9.50659 18.8363ZM7.90109 12.1077H4.46692C4.67027 10.692 5.37718 9.39711 6.458 8.46044C7.53883 7.52378 8.9211 7.00816 10.3513 7.00816C11.7815 7.00816 13.1638 7.52378 14.2446 8.46044C15.3255 9.39711 16.0324 10.692 16.2357 12.1077H12.8015C12.6259 11.5975 12.2954 11.1549 11.8562 10.8416C11.417 10.5282 10.8909 10.3598 10.3513 10.3598C9.81177 10.3598 9.28567 10.5282 8.84643 10.8416C8.40718 11.1549 8.0767 11.5975 7.90109 12.1077V12.1077ZM11.196 18.8363V15.4021C11.5677 15.2734 11.9052 15.062 12.1833 14.7839C12.4614 14.5058 12.6728 14.1682 12.8015 13.7966H16.2357C16.051 15.0676 15.4606 16.2449 14.5525 17.1531C13.6443 18.0612 12.467 18.6516 11.196 18.8363V18.8363Z" fill="black"/>
<path d="M22.0404 10.8844C21.7331 10.7973 21.4055 10.8154 21.1097 10.9358C20.8138 11.0561 20.5667 11.2719 20.4075 11.5489C20.2484 11.8258 20.1863 12.148 20.2312 12.4642C20.2761 12.7804 20.4254 13.0726 20.6553 13.2943L20.1001 15.2562H19.1598C18.7327 16.8872 17.8609 18.3676 16.6416 19.5321H22.2208V15.2562H21.5047L21.9559 13.6626C22.2679 13.5942 22.548 13.4236 22.7519 13.1778C22.9558 12.9319 23.0717 12.625 23.0812 12.3058C23.0908 11.9866 22.9933 11.6733 22.8045 11.4158C22.6156 11.1583 22.3461 10.9712 22.0388 10.8844H22.0404Z" fill="black"/>
</svg>
