<svg width="26" height="26" viewBox="0 0 26 26" fill="none" xmlns="http://www.w3.org/2000/svg">
<path d="M8.33564 10.2924C10.2712 10.2924 11.8402 8.72331 11.8402 6.78779C11.8402 4.85226 10.2712 3.2832 8.33564 3.2832C6.40011 3.2832 4.83105 4.85226 4.83105 6.78779C4.83105 8.72331 6.40011 10.2924 8.33564 10.2924Z" fill="black"/>
<path d="M11.6228 12.7246C10.661 12.047 9.51137 11.6871 8.33487 11.6955C5.25387 11.6938 2.79741 14.147 2.72754 17.3012H10.4782C10.3125 15.6887 10.7176 14.0692 11.6228 12.7246V12.7246Z" fill="black"/>
<path d="M17.3689 10.7466C16.2132 10.7466 15.0834 11.0893 14.1224 11.7314C13.1615 12.3735 12.4125 13.2861 11.9702 14.3539C11.5279 15.4216 11.4122 16.5966 11.6377 17.7301C11.8631 18.8636 12.4197 19.9048 13.2369 20.7221C14.0541 21.5393 15.0954 22.0958 16.2289 22.3213C17.3624 22.5468 18.5373 22.4311 19.6051 21.9888C20.6729 21.5465 21.5855 20.7975 22.2276 19.8366C22.8697 18.8756 23.2124 17.7458 23.2124 16.5901C23.2123 15.0403 22.5966 13.5541 21.5007 12.4583C20.4049 11.3624 18.9186 10.7467 17.3689 10.7466V10.7466ZM17.3689 11.8299C18.5139 11.8311 19.6202 12.2444 20.4855 12.9943C21.3508 13.7441 21.9173 14.7804 22.0814 15.9135H19.3308C19.1901 15.5051 18.9254 15.1508 18.5737 14.9C18.222 14.6493 17.8009 14.5145 17.3689 14.5145C16.9369 14.5145 16.5157 14.6493 16.1641 14.9C15.8124 15.1508 15.5477 15.5051 15.407 15.9135H12.6569C12.821 14.7804 13.3875 13.7441 14.2528 12.9943C15.1181 12.2444 16.2244 11.8311 17.3694 11.8299H17.3689ZM16.6924 21.302C15.6805 21.1551 14.7427 20.687 14.0171 19.9667C13.2915 19.2464 12.8166 18.312 12.6624 17.3013C12.6624 17.2899 12.6586 17.278 12.6569 17.2666H15.407C15.5099 17.5642 15.6791 17.8345 15.9018 18.0572C16.1244 18.2799 16.3948 18.4491 16.6924 18.552V21.302ZM18.0465 21.302V18.552C18.3442 18.4491 18.6146 18.28 18.8374 18.0573C19.0602 17.8346 19.2294 17.5643 19.3324 17.2666H22.0825C21.9345 18.2847 21.4614 19.2276 20.7338 19.9548C20.0062 20.682 19.063 21.1546 18.0449 21.302H18.0465Z" fill="black"/>
</svg>
