<svg width="26" height="26" viewBox="0 0 26 26" fill="none" xmlns="http://www.w3.org/2000/svg">
<path fill-rule="evenodd" clip-rule="evenodd" d="M13.5413 5.4165V4.33317C13.5413 4.00817 13.3247 3.7915 12.9997 3.7915C12.6747 3.7915 12.458 4.00817 12.458 4.33317V5.4165H6.49967C6.17467 5.4165 5.95801 5.63317 5.95801 5.95817C5.95801 6.28317 6.17467 6.49984 6.49967 6.49984H19.4997C19.8247 6.49984 20.0413 6.28317 20.0413 5.95817C20.0413 5.63317 19.8247 5.4165 19.4997 5.4165H13.5413ZM7.09551 7.58317C6.77051 7.58317 6.49967 7.854 6.55384 8.179L8.07051 21.7207C8.12467 22.0998 8.28717 22.2082 8.61217 22.2082H17.3872C17.7122 22.2082 17.8747 22.0998 17.9288 21.7207L19.4455 8.179C19.4997 7.854 19.2288 7.58317 18.9038 7.58317H7.09551ZM9.09967 21.1248L7.85384 8.6665H18.1997L16.8997 21.1248H9.09967ZM12.9997 20.0415C13.3247 20.0415 13.5413 19.8248 13.5413 19.4998V10.2915C13.5413 9.9665 13.3247 9.74984 12.9997 9.74984C12.6747 9.74984 12.458 9.9665 12.458 10.2915V19.4998C12.458 19.8248 12.6747 20.0415 12.9997 20.0415ZM10.833 19.4998C11.158 19.4998 11.3747 19.2832 11.3747 18.9582L10.833 10.8332C10.833 10.5082 10.6163 10.2915 10.2913 10.2915C9.96634 10.2915 9.74967 10.5082 9.74967 10.8332L10.2913 18.9582C10.2913 19.2832 10.508 19.4998 10.833 19.4998ZM15.1663 19.4998C15.4913 19.4998 15.708 19.2832 15.708 18.9582L16.2497 10.8332C16.2497 10.5082 16.033 10.2915 15.708 10.2915C15.383 10.2915 15.1663 10.5082 15.1663 10.8332L14.6247 18.9582C14.6247 19.2832 14.8413 19.4998 15.1663 19.4998Z" fill="black"/>
</svg>
