<svg width="26" height="26" viewBox="0 0 26 26" fill="none" xmlns="http://www.w3.org/2000/svg">
<path d="M14.8927 12.6542L14.0332 13.5137L14.8927 14.3732L15.7522 13.5137L14.8927 12.6542Z" fill="black"/>
<path d="M15.4776 12.0703L15.249 12.2994L15.4386 12.4885C15.4232 12.4134 15.4232 12.336 15.4386 12.261L15.4776 12.0703Z" fill="black"/>
<path d="M13.6632 11.4247L12.8037 12.2842L13.6632 13.1437L14.5227 12.2842L13.6632 11.4247Z" fill="black"/>
<path d="M14.8782 11.9292L15.6696 11.1378L15.6928 11.0246L14.8782 10.21L14.0186 11.0696L14.8782 11.9292Z" fill="black"/>
<path d="M12.4327 10.1952L11.5732 11.0547L12.4327 11.9142L13.2922 11.0547L12.4327 10.1952Z" fill="black"/>
<path d="M13.6485 8.98036L12.7891 9.83984L13.6485 10.6993L14.508 9.83984L13.6485 8.98036Z" fill="black"/>
<path d="M13.7832 15.4841L14.5459 14.7209L13.6862 13.8618L12.8271 14.7209L13.2968 15.1911L13.7832 15.4841Z" fill="black"/>
<path d="M12.4562 12.6317L11.5967 13.4912L12.4562 14.3507L13.3157 13.4912L12.4562 12.6317Z" fill="black"/>
<path d="M11.5074 14.1132L11.2409 13.8467L11.1748 13.9128L11.5074 14.1132Z" fill="black"/>
<path d="M11.2267 11.4017L10.3672 12.2612L11.2267 13.1207L12.0862 12.2612L11.2267 11.4017Z" fill="black"/>
<path d="M10.5453 13.6187C10.5983 13.6207 10.6508 13.6298 10.7013 13.6458L10.8708 13.4763L10.0118 12.6172L9.1543 13.4763L9.2583 13.5803L10.5453 13.6187Z" fill="black"/>
<path d="M11.2032 8.96473L10.3438 9.82422L11.2032 10.6837L12.0627 9.82422L11.2032 8.96473Z" fill="black"/>
<path d="M12.4181 7.74989L11.5586 8.60938L12.4181 9.46886L13.2776 8.60938L12.4181 7.74989Z" fill="black"/>
<path d="M9.97374 7.73524L9.11426 8.59473L9.97374 9.45421L10.8332 8.59473L9.97374 7.73524Z" fill="black"/>
<path d="M11.1886 6.5204L10.3291 7.37988L11.1886 8.23937L12.0481 7.37988L11.1886 6.5204Z" fill="black"/>
<path d="M9.99621 10.1718L9.13672 11.0312L9.99621 11.8907L10.8557 11.0312L9.99621 10.1718Z" fill="black"/>
<path d="M8.78136 11.3866L7.92188 12.2461L8.78136 13.1056L9.64085 12.2461L8.78136 11.3866Z" fill="black"/>
<path d="M17.8619 17.0649L17.7227 17.2041L18.1939 17.6754L17.8619 17.0649Z" fill="black"/>
<path d="M16.4932 15.9739L17.3528 16.8335L17.6014 16.5849L16.9964 15.4712L16.4932 15.9739Z" fill="black"/>
<path d="M16.1223 13.8848L15.2627 14.7444L16.1223 15.604L16.7349 14.9914L16.1472 13.9102L16.1223 13.8848Z" fill="black"/>
<path d="M17.6227 17.7983L17.3757 17.5513L17.3145 17.6125L17.6227 17.7983Z" fill="black"/>
<path d="M15.7793 16.6879L16.8518 17.3342L17.0046 17.1809L16.1449 16.3218L15.7793 16.6879Z" fill="black"/>
<path d="M15.7759 15.9509L14.9162 15.0913L14.2451 15.7624L15.3176 16.4086L15.7759 15.9509Z" fill="black"/>
<path d="M8.76672 8.94178L7.90723 9.80127L8.76672 10.6608L9.6262 9.80127L8.76672 8.94178Z" fill="black"/>
<path d="M7.55187 10.1566L6.69238 11.0161L7.55187 11.8756L8.41136 11.0161L7.55187 10.1566Z" fill="black"/>
<path d="M8.74328 6.50575L7.88379 7.36523L8.74328 8.22472L9.60276 7.36523L8.74328 6.50575Z" fill="black"/>
<path d="M9.95812 5.2909L9.09863 6.15039L9.95812 7.00988L10.8176 6.15039L9.95812 5.2909Z" fill="black"/>
<path d="M7.53625 7.71229L6.67676 8.57178L7.53625 9.43127L8.39574 8.57178L7.53625 7.71229Z" fill="black"/>
<path d="M6.3214 8.92762L5.46191 9.78711L6.3214 10.6466L7.18089 9.78711L6.3214 8.92762Z" fill="black"/>
<path d="M7.51379 5.27577L6.6543 6.13525L7.51378 6.99474L8.37327 6.13525L7.51379 5.27577Z" fill="black"/>
<path d="M8.72863 4.06092L7.86914 4.92041L8.72863 5.7799L9.58812 4.92041L8.72863 4.06092Z" fill="black"/>
<path d="M6.86242 3.46668L6.00293 4.32617L6.86242 5.18566L7.72191 4.32617L6.86242 3.46668Z" fill="black"/>
<path d="M6.30675 6.4828L5.44727 7.34229L6.30675 8.20177L7.16624 7.34229L6.30675 6.4828Z" fill="black"/>
<path d="M5.09191 7.69715L4.23242 8.55664L5.09191 9.41613L5.9514 8.55664L5.09191 7.69715Z" fill="black"/>
<path d="M5.65636 4.67372L4.79688 5.5332L5.65636 6.39269L6.51585 5.5332L5.65636 4.67372Z" fill="black"/>
<path d="M4.44054 5.88856L3.58105 6.74805L4.44054 7.60754L5.30003 6.74805L4.44054 5.88856Z" fill="black"/>
<path d="M5.03332 2.83631L4.17383 3.6958L5.03332 4.55529L5.8928 3.6958L5.03332 2.83631Z" fill="black"/>
<path d="M3.81847 4.05116L2.95898 4.91064L3.81847 5.77013L4.67796 4.91064L3.81847 4.05116Z" fill="black"/>
<path d="M22.8348 20.2259L22.2173 17.4168L17.8688 11.5484L17.6484 11.251L16.714 12.0467L16.077 12.5884L16.2395 12.8884L16.2882 12.9773L16.5488 13.4572L16.7189 13.7703L17.5655 15.3292L18.0205 16.1666L18.2816 16.6465L18.8866 17.7602L19.1477 18.2401L19.6119 19.0943L20.0707 19.9393L19.2934 19.4708L18.4349 18.9535L17.9723 18.6745L16.8998 18.0267L16.4377 17.7483L15.3652 17.1021L13.1785 15.7842L12.2956 15.2523L11.833 14.9733L10.7605 14.3271L10.5281 14.1868L10.1706 14.1765L9.84185 14.1668L5.27344 14.0292C5.27344 14.0438 9.2054 15.372 9.2054 15.372L15.5456 20.9219L20.5127 22.6384L20.8648 22.9986L23.2373 20.6283L22.8348 20.2259Z" fill="black"/>
<path d="M17.5383 11.0706L18.054 10.8529L18.7316 10.5674L20.628 10.9569L18.9131 9.49219L17.4598 9.54906L16.3981 10.4174L16.1744 11.5061L16.111 11.8132L15.9951 12.376L16.5633 11.8956L17.5383 11.0706Z" fill="black"/>
</svg>
