<svg width="26" height="26" viewBox="0 0 26 26" fill="none" xmlns="http://www.w3.org/2000/svg">
<path fill-rule="evenodd" clip-rule="evenodd" d="M13.0003 22.2082C18.1462 22.2082 22.2087 18.1457 22.2087 12.9998C22.2087 7.854 18.1462 3.7915 13.0003 3.7915C7.85449 3.7915 3.79199 7.854 3.79199 12.9998C3.79199 18.1457 7.85449 22.2082 13.0003 22.2082ZM13.0003 21.1248C8.45033 21.1248 4.87533 17.5498 4.87533 12.9998C4.87533 8.44984 8.45033 4.87484 13.0003 4.87484C17.5503 4.87484 21.1253 8.44984 21.1253 12.9998C21.1253 17.5498 17.5503 21.1248 13.0003 21.1248ZM8.66699 17.8748H17.3337C17.3337 15.4373 15.4378 13.5415 13.0003 13.5415C10.617 13.5415 8.72116 15.4373 8.66699 17.8748ZM13.0003 12.4582C14.517 12.4582 15.7087 11.2665 15.7087 9.74984C15.7087 8.23317 14.517 7.0415 13.0003 7.0415C11.4837 7.0415 10.292 8.23317 10.292 9.74984C10.292 11.2665 11.4837 12.4582 13.0003 12.4582Z" fill="black"/>
</svg>
