<svg width="26" height="26" viewBox="0 0 26 26" fill="none" xmlns="http://www.w3.org/2000/svg">
<path d="M17.569 15.9566V18.6335C17.568 19.4303 17.251 20.1942 16.6875 20.7575C16.124 21.3209 15.3601 21.6378 14.5633 21.6386H11.0062C10.2093 21.6378 9.44534 21.3209 8.88178 20.7576C8.31821 20.1942 8.00108 19.4303 7.99993 18.6335V18.4926H11.1654V17.5718H7.99993V15.6478H9.53935V14.727H7.99993V12.8024H10.6622L10.5306 12.6464C10.3446 12.427 10.2176 12.1638 10.1617 11.8816H7.99993V9.9576H9.53935V9.03676H7.99993V7.11276H11.1654V6.19193H7.99993V4.62109H7.0791V18.6335C7.08039 19.6745 7.49459 20.6725 8.23081 21.4085C8.96703 22.1446 9.96515 22.5585 11.0062 22.5595H14.5633C15.6043 22.5585 16.6024 22.1445 17.3385 21.4085C18.0746 20.6725 18.4887 19.6745 18.4898 18.6335V14.4913L17.569 15.9566Z" fill="black"/>
<path d="M18.4902 8.08435V4.62256H17.5693V9.54902L18.4902 8.08435Z" fill="black"/>
<path d="M11.0503 12.2059L14.7759 16.6129C14.8719 16.7263 14.9915 16.8174 15.1263 16.8799C15.2611 16.9423 15.4079 16.9747 15.5564 16.9747C15.5808 16.9747 15.6047 16.9747 15.6285 16.9747C15.7891 16.9636 15.9447 16.9145 16.0828 16.8317C16.2208 16.7489 16.3372 16.6345 16.4226 16.498L22.1962 7.31246C22.2677 7.19864 22.3161 7.07187 22.3386 6.93936C22.361 6.80685 22.3572 6.67121 22.3273 6.54019C22.2974 6.40916 22.2419 6.28531 22.1641 6.17571C22.0863 6.06611 21.9877 5.9729 21.8739 5.90141C21.7601 5.82993 21.6333 5.78156 21.5008 5.75906C21.3683 5.73657 21.2327 5.7404 21.1016 5.77032C20.9706 5.80025 20.8468 5.85569 20.7372 5.93349C20.6276 6.01128 20.5344 6.10989 20.4629 6.22371L15.4378 14.223L12.6152 10.8842C12.5284 10.7815 12.4222 10.6968 12.3027 10.6351C12.1832 10.5734 12.0528 10.5358 11.9187 10.5245C11.7847 10.5132 11.6498 10.5284 11.5217 10.5693C11.3935 10.6101 11.2747 10.6758 11.1719 10.7626C11.0692 10.8494 10.9845 10.9556 10.9228 11.0751C10.8611 11.1945 10.8235 11.325 10.8122 11.4591C10.8009 11.5931 10.8161 11.728 10.857 11.8561C10.8978 11.9843 10.9635 12.1031 11.0503 12.2059V12.2059Z" fill="black"/>
</svg>
