<svg width="26" height="26" viewBox="0 0 26 26" fill="none" xmlns="http://www.w3.org/2000/svg">
<path fill-rule="evenodd" clip-rule="evenodd" d="M2.70801 18.9585C2.70801 19.6627 3.08717 20.0418 3.79134 20.0418H22.208C22.9122 20.0418 23.2913 19.6627 23.2913 18.9585C23.2913 18.2543 22.9122 17.8752 22.208 17.8752H3.79134C3.08717 17.8752 2.70801 18.2543 2.70801 18.9585ZM2.70801 7.04183C2.70801 7.746 3.08717 8.12516 3.79134 8.12516H22.208C22.9122 8.12516 23.2913 7.746 23.2913 7.04183C23.2913 6.33766 22.9122 5.9585 22.208 5.9585H3.79134C3.08717 5.9585 2.70801 6.33766 2.70801 7.04183ZM2.70801 13.0002C2.70801 13.7043 3.08717 14.0835 3.79134 14.0835H22.208C22.9122 14.0835 23.2913 13.7043 23.2913 13.0002C23.2913 12.296 22.9122 11.9168 22.208 11.9168H3.79134C3.08717 11.9168 2.70801 12.296 2.70801 13.0002Z" fill="black"/>
</svg>
