<svg width="26" height="26" viewBox="0 0 26 26" fill="none" xmlns="http://www.w3.org/2000/svg">
<path d="M18.3281 2.87109L4.0752 17.1261L8.76061 21.8116L23.0135 7.55814L18.3281 2.87109ZM8.76061 20.5094L5.37736 17.1261L7.50395 14.9996L9.74211 17.2383L10.3921 16.5883L8.15395 14.3496L9.51407 12.9894L10.6028 14.0776L11.2528 13.4276L10.1641 12.3394L11.5253 10.9782L13.7656 13.2169L14.4156 12.5669L12.1774 10.3288L13.5414 8.9643L14.6301 10.0531L15.2801 9.40305L14.1914 8.31322L15.5515 6.95309L17.7902 9.19126L18.4402 8.54126L16.202 6.30255L18.3281 4.17651L21.7113 7.55922L8.76061 20.5094Z" fill="black"/>
</svg>
