<svg width="26" height="26" viewBox="0 0 26 26" fill="none" xmlns="http://www.w3.org/2000/svg">
<path fill-rule="evenodd" clip-rule="evenodd" d="M16.25 16.7918L15.1667 11.3752H13.5417V9.2085L11.375 8.12516V4.87516L14.6792 4.3335H19.5L22.2083 4.87516C22.8583 4.9835 23.2917 5.471 23.2917 6.50016V7.5835C23.2917 8.2335 22.9125 9.046 22.2083 9.2085L19.5 9.75016V16.7918L21.125 18.4168H11.9167L16.25 16.7918ZM10.2917 8.12516V4.87516H8.17917L6.5 5.41683V5.9585H4.875V7.04183H6.5V7.5835L8.17917 8.12516H10.2917ZM5.95833 18.9585C8.34167 18.9585 10.2917 17.0085 10.2917 14.6252C10.2917 12.2418 8.34167 10.2918 5.95833 10.2918C3.575 10.2918 1.625 12.2418 1.625 14.6252C1.625 17.0085 3.575 18.9585 5.95833 18.9585ZM5.95833 17.8752C4.17083 17.8752 2.70833 16.4127 2.70833 14.6252C2.70833 12.8377 4.17083 11.3752 5.95833 11.3752C7.74583 11.3752 9.20833 12.8377 9.20833 14.6252C9.20833 16.4127 7.74583 17.8752 5.95833 17.8752ZM7.58333 15.1668V14.0835H6.5V12.4585H5.41667V14.6252C5.41667 14.9502 5.63333 15.1668 5.95833 15.1668H7.58333ZM21.125 22.2085C21.125 22.7502 20.6917 23.2918 20.0958 23.2918H13C12.4042 23.2918 11.9167 22.7502 11.9167 22.2085V19.5002H21.125V22.2085Z" fill="black"/>
</svg>
