<svg width="26" height="26" viewBox="0 0 26 26" fill="none" xmlns="http://www.w3.org/2000/svg">
<path fill-rule="evenodd" clip-rule="evenodd" d="M18.6875 6.10821V3.67578H17.0625V6.10821H8.9375V3.67578H7.3125V6.10821H4.33333C3.7375 6.10821 3.25 6.5947 3.25 7.18929V21.2433C3.25 21.8379 3.7375 22.3244 4.33333 22.3244H21.6667C22.2625 22.3244 22.75 21.8379 22.75 21.2433V7.18929C22.75 6.5947 22.2625 6.10821 21.6667 6.10821H18.6875ZM4.33333 21.2433V10.4325H21.6667V21.2433H4.33333ZM16.25 15.8379C16.25 13.7298 14.5708 12.0542 12.4583 12.0542H11.4292C12.7292 12.4866 13.5417 13.892 13.5417 15.2974C13.5417 17.0812 12.0792 18.5406 10.2917 18.5406H9.75C10.4542 19.2433 11.4292 19.6217 12.4583 19.6217C14.5708 19.6217 16.25 17.946 16.25 15.8379Z" fill="black"/>
</svg>
