<svg width="26" height="26" viewBox="0 0 26 26" fill="none" xmlns="http://www.w3.org/2000/svg">
<path fill-rule="evenodd" clip-rule="evenodd" d="M14.7875 14.7873C16.3583 14.1373 17.3333 12.6748 17.3333 10.8332V8.12484C17.3333 5.63317 15.4917 3.7915 13 3.7915C10.5083 3.7915 8.66667 5.63317 8.66667 8.12484V10.8332C8.66667 12.6748 9.64167 14.1373 11.2125 14.7873C7.58333 15.5457 4.44167 18.3623 3.79167 21.6665H4.875C5.30833 19.7707 6.77083 18.0373 8.66667 16.8998V19.2832L7.04167 20.5832V21.6665H18.9583V20.5832L17.3333 19.2832V16.8998C19.2292 18.0373 20.6917 19.7707 21.125 21.6665H22.2083C21.5583 18.3623 18.4167 15.5457 14.7875 14.7873ZM5.95833 15.7082C6.60833 14.9498 7.52917 14.4082 8.66667 14.0832L6.3375 11.754C6.44583 11.4832 6.5 11.1582 6.5 10.8332C6.5 9.04567 5.0375 7.58317 3.25 7.58317V8.6665L4.33333 9.74984L3.79167 11.3748L2.16667 11.9165L1.08333 10.8332H0C0 12.6207 1.4625 14.0832 3.25 14.0832C3.575 14.0832 3.9 14.029 4.17083 13.9207L5.95833 15.7082ZM23.2917 8.12484L22.75 9.74984L20.5833 11.9165L19.5 10.8332L17.875 12.4582V13.5415L17.3333 14.0832C18.3625 14.5165 19.2833 15.0582 20.0417 15.7082H21.125L22.75 14.0832L21.6667 12.9998L23.8333 10.8332L25.4583 10.2915L26 8.12484L25.4583 7.58317L23.2917 8.12484ZM9.75 9.20817H16.25V10.8332C16.25 12.6748 14.8417 14.0832 13 14.0832C11.1583 14.0832 9.75 12.6748 9.75 10.8332V9.20817ZM10.8333 18.4165V16.0332C11.5375 15.8165 12.2417 15.7082 13 15.7082C13.7583 15.7082 14.4625 15.8165 15.1667 16.0332V18.4165H10.8333Z" fill="black"/>
</svg>
