<svg width="26" height="26" viewBox="0 0 26 26" fill="none" xmlns="http://www.w3.org/2000/svg">
<path fill-rule="evenodd" clip-rule="evenodd" d="M23.292 10.8333C23.617 10.8333 23.8337 11.05 23.8337 11.375V17.875C23.8337 18.2 23.617 18.4167 23.292 18.4167H22.2087C21.8837 18.4167 21.667 18.2 21.667 17.875V15.7083H20.042V19.5H7.58366L6.50033 17.875H4.87533V15.1667H3.25033V17.3333C3.25033 17.6583 3.03366 17.875 2.70866 17.875C2.38366 17.875 2.16699 17.6583 2.16699 17.3333V11.9167C2.16699 11.5917 2.38366 11.375 2.70866 11.375C3.03366 11.375 3.25033 11.5917 3.25033 11.9167V14.0833H4.87533V10.4542H6.50033V9.20833C6.50033 8.88333 6.71699 8.66667 7.04199 8.66667H10.292V7.58333H7.04199C6.71699 7.58333 6.50033 7.36667 6.50033 7.04167C6.50033 6.71667 6.71699 6.5 7.04199 6.5H14.6253C14.9503 6.5 15.167 6.71667 15.167 7.04167C15.167 7.36667 14.9503 7.58333 14.6253 7.58333H11.3753V8.66667H14.6253C14.9503 8.66667 15.167 8.88333 15.167 9.20833V10.2917H18.417L19.9878 13.5417H21.667V11.375C21.667 11.05 21.8837 10.8333 22.2087 10.8333H23.292Z" fill="black"/>
</svg>
