<svg width="26" height="26" viewBox="0 0 26 26" fill="none" xmlns="http://www.w3.org/2000/svg">
<path d="M20.2044 12.8006C19.8893 12.8006 19.5754 12.839 19.2695 12.9149L18.9445 12.2649C19.8299 12.0135 20.7702 12.0323 21.6447 12.3191L21.8387 12.0255L19.094 7.03564L18.3465 7.29131L18.775 9.99964C18.5305 9.73827 18.2349 9.5299 17.9065 9.38743C17.5782 9.24497 17.2241 9.17145 16.8662 9.17144H13.9211L12.3205 11.2124H9.68853L8.30241 10.2071H3.66899L4.48691 12.4772C5.171 12.1777 5.91767 12.0489 6.66258 12.102C7.4075 12.1551 8.12834 12.3885 8.76303 12.7821C9.39772 13.1756 9.92723 13.7176 10.306 14.3612C10.6847 15.0049 10.9013 15.7309 10.9371 16.4769C10.9371 16.4991 10.9371 16.5213 10.9398 16.5435L10.221 16.446C10.1585 15.4841 9.74125 14.5795 9.05009 13.9076C8.35892 13.2356 7.443 12.844 6.47968 12.8086C5.51635 12.7732 4.57417 13.0966 3.83556 13.716C3.09695 14.3354 2.61446 15.2069 2.48153 16.1617C2.3486 17.1164 2.57469 18.0865 3.116 18.8842C3.65732 19.6818 4.47535 20.2502 5.41171 20.4793C6.34806 20.7084 7.33612 20.5819 8.18455 20.1243C9.03298 19.6667 9.68143 18.9105 10.0043 18.0022L15.0895 18.7849L15.6339 16.0056L15.649 15.9964C15.7446 15.3771 15.9656 14.7839 16.2985 14.253C16.6314 13.7221 17.0691 13.2647 17.5849 12.9089L17.9072 13.5551C17.1608 14.1031 16.6343 14.8993 16.4222 15.8006C16.2101 16.7019 16.3264 17.6494 16.7501 18.4727C17.1738 19.296 17.8773 19.9412 18.734 20.2924C19.5908 20.6437 20.5447 20.6779 21.4244 20.3889C22.3041 20.1 23.052 19.5068 23.5336 18.716C24.0152 17.9251 24.199 16.9885 24.0521 16.0743C23.9051 15.1601 23.4369 14.3282 22.7317 13.7282C22.0265 13.1282 21.1304 12.7993 20.2044 12.8006ZM6.33778 19.5059C5.79881 19.506 5.27116 19.3512 4.81769 19.0599C4.36422 18.7686 4.00404 18.3531 3.78007 17.8629C3.5561 17.3726 3.47777 16.8284 3.55442 16.2949C3.63106 15.7614 3.85946 15.2611 4.21238 14.8538C4.56531 14.4464 5.02789 14.1491 5.54503 13.9973C6.06217 13.8454 6.61206 13.8454 7.1292 13.9973C7.64633 14.1492 8.10891 14.4465 8.46183 14.8538C8.81476 15.2612 9.04314 15.7614 9.11978 16.2949L6.43474 15.9309C6.33679 15.9173 6.23713 15.9232 6.14147 15.9483C6.04581 15.9733 5.95605 16.017 5.87733 16.0769C5.79861 16.1367 5.73249 16.2115 5.68277 16.297C5.63304 16.3825 5.60069 16.4769 5.58757 16.5749V16.5749C5.56105 16.772 5.61372 16.9715 5.73403 17.1298C5.85434 17.2881 6.03249 17.3922 6.22945 17.4194L8.9042 17.8311C8.68375 18.3282 8.32411 18.7509 7.8687 19.048C7.41329 19.3452 6.88158 19.5043 6.33778 19.5059V19.5059ZM20.2044 19.5059C19.6271 19.5062 19.0637 19.3287 18.5908 18.9975C18.1179 18.6662 17.7586 18.1973 17.5617 17.6546C17.3647 17.1119 17.3398 16.5217 17.4902 15.9643C17.6406 15.4069 17.9591 14.9093 18.4023 14.5394L19.6086 16.9541C19.6976 17.1322 19.8537 17.2677 20.0426 17.3308C20.2315 17.3938 20.4377 17.3792 20.6158 17.2902C20.794 17.2012 20.9295 17.0451 20.9925 16.8562C21.0555 16.6673 21.0409 16.4611 20.9519 16.283L19.7711 13.9175C19.9145 13.8953 20.0594 13.8841 20.2044 13.8839C20.9432 13.8942 21.6482 14.1949 22.167 14.7209C22.6858 15.2469 22.9767 15.9561 22.9767 16.6949C22.9767 17.4337 22.6858 18.1429 22.167 18.6689C21.6482 19.195 20.9432 19.4956 20.2044 19.5059V19.5059Z" fill="black"/>
</svg>
