<svg width="26" height="26" viewBox="0 0 26 26" fill="none" xmlns="http://www.w3.org/2000/svg">
<path d="M10.2708 11.5429C8.51205 10.4179 5.85409 10.9417 5.74143 10.9634C5.67049 10.9778 5.60316 11.0063 5.54342 11.0471C5.48367 11.088 5.43273 11.1404 5.3936 11.2013C5.35446 11.2622 5.32793 11.3304 5.31557 11.4017C5.30321 11.473 5.30527 11.5461 5.32163 11.6166C5.34763 11.7282 5.97651 14.3683 7.7353 15.4987C8.11113 15.7391 8.54799 15.8668 8.99414 15.8665C9.48736 15.8662 9.96825 15.7123 10.37 15.4261C10.9349 16.0761 11.4284 16.8827 11.4284 17.7342H12.5117C12.5117 17.1297 12.7636 16.4883 13.1395 15.8622C13.8082 16.3051 14.6094 16.5036 15.4075 16.424C16.2056 16.3445 16.9518 15.9918 17.52 15.4256C19.8275 13.1289 19.9033 8.8541 19.9033 8.67318C19.9042 8.60114 19.8907 8.52965 19.8636 8.46289C19.8364 8.39614 19.7963 8.33546 19.7455 8.28441C19.6946 8.23336 19.6341 8.19297 19.5674 8.1656C19.5008 8.13823 19.4294 8.12444 19.3573 8.12502C19.1769 8.12502 14.9075 8.20843 12.606 10.5084C12.0057 11.1097 11.6463 11.9099 11.5954 12.7581C11.5445 13.6062 11.8057 14.4437 12.3297 15.1125C12.1919 15.327 12.0653 15.5484 11.9506 15.7761C11.7066 15.3543 11.4172 14.9606 11.0877 14.6017C11.3551 14.0814 11.4196 13.4802 11.2686 12.9149C11.1177 12.3497 10.7621 11.8607 10.2708 11.5429V11.5429ZM12.6693 12.9675C12.6691 12.653 12.7312 12.3416 12.8521 12.0512C12.9729 11.7608 13.1502 11.4973 13.3735 11.2759C14.9021 9.74731 17.605 9.34756 18.7902 9.2441C18.6878 10.4293 18.2902 13.1338 16.7584 14.6608C16.3708 15.0473 15.8625 15.2895 15.3181 15.3469C14.7737 15.4044 14.226 15.2737 13.7662 14.9766C14.446 14.1369 15.2219 13.3799 16.0781 12.7211C16.1835 12.632 16.251 12.5061 16.2668 12.3689C16.2825 12.2318 16.2453 12.0938 16.1628 11.9832C16.0802 11.8726 15.9585 11.7976 15.8226 11.7737C15.6866 11.7497 15.5467 11.7786 15.4313 11.8544C14.5389 12.5407 13.7258 13.3243 13.0068 14.1906C12.7855 13.8211 12.6688 13.3983 12.6693 12.9675V12.9675ZM8.3203 14.5866C7.36534 13.9729 6.80364 12.688 6.54905 11.9416C7.41572 11.8598 8.78451 11.8788 9.68476 12.454C9.89968 12.5933 10.0676 12.7941 10.1668 13.0302C10.2659 13.2664 10.2916 13.5269 10.2405 13.7779C9.70123 13.31 9.1199 12.893 8.50393 12.532C8.37897 12.465 8.2327 12.4496 8.09653 12.4892C7.96036 12.5288 7.84515 12.6202 7.77565 12.7438C7.70615 12.8675 7.6879 13.0134 7.72482 13.1503C7.76173 13.2872 7.85087 13.4042 7.97309 13.4761C8.54364 13.8151 9.08227 14.205 9.58239 14.6413C9.3856 14.7433 9.1655 14.7919 8.94404 14.7823C8.72259 14.7727 8.50752 14.7052 8.3203 14.5866V14.5866Z" fill="black"/>
<path d="M17.2428 20.7887C15.5435 21.7894 13.56 22.1975 11.6036 21.9489C9.64723 21.7003 7.82883 20.809 6.43386 19.415C3.08474 16.0659 2.97261 10.6839 6.09532 7.19282L6.04115 9.33024L7.12448 9.35678L7.22144 5.39774L3.25861 5.30078L3.23207 6.38411L5.31965 6.43503C1.78365 10.3497 1.89957 16.4125 5.66849 20.1814C7.23312 21.7454 9.273 22.7453 11.4676 23.0239C13.6623 23.3026 15.8873 22.8442 17.7931 21.7209L18.2595 21.4457L17.7092 20.5129L17.2428 20.7887Z" fill="black"/>
<path d="M20.3328 5.81846C18.7679 4.25477 16.7279 3.25512 14.5333 2.97649C12.3386 2.69786 10.1136 3.15603 8.20759 4.27905L7.74121 4.55421L8.29154 5.48696L8.75792 5.2118C10.4572 4.21103 12.4408 3.80293 14.3971 4.05155C16.3535 4.30018 18.1719 5.19146 19.5669 6.58546C22.9149 9.93351 23.0281 15.3133 19.9081 18.8038L19.9563 16.6691L18.873 16.6448L18.7836 20.6027L22.7416 20.6997L22.7681 19.6163L20.6805 19.5649C24.2171 15.6503 24.1012 9.58738 20.3328 5.81846Z" fill="black"/>
</svg>
