<svg width="26" height="26" viewBox="0 0 26 26" fill="none" xmlns="http://www.w3.org/2000/svg">
<path d="M14.306 13.0382C14.306 12.632 14.0894 12.3232 13.7535 12.3232C13.3852 12.3232 13.1414 12.7078 13.1035 13.2278H14.0623C14.2519 13.2278 14.306 13.1682 14.306 13.0382Z" fill="black"/>
<path d="M3.65137 8.21729V17.7831H22.3443V8.21729H3.65137ZM11.6301 10.6873L11.3755 10.7631C11.0668 10.8552 11.0072 10.9256 10.9909 11.1802C10.9693 11.5106 10.953 12.2473 10.953 13.114V15.6381H10.1947L7.03137 11.4944V12.8973C7.03137 13.764 7.04762 14.5006 7.06928 14.831C7.08553 15.0856 7.14512 15.156 7.45387 15.2481L7.70845 15.324V15.6381C7.45387 15.6327 7.10178 15.6219 6.76595 15.6219C6.43012 15.6219 6.02928 15.6273 5.7747 15.6381V15.324L6.01845 15.2481C6.31637 15.156 6.3922 15.0856 6.40845 14.831C6.43012 14.5006 6.4572 13.764 6.4572 12.8973V11.1802C6.4572 10.9365 6.38137 10.8552 6.05637 10.7631L5.80178 10.6873V10.3731C6.05637 10.3785 6.37053 10.3894 6.62512 10.3894C6.84178 10.3894 7.41595 10.384 7.56762 10.3731L10.3789 14.0944V13.114C10.3789 12.2473 10.3572 11.5106 10.3301 11.1802C10.3139 10.9256 10.238 10.8498 9.94012 10.7631L9.69637 10.6873V10.3731C9.95095 10.3785 10.3464 10.3894 10.6876 10.3894C11.0289 10.3894 11.3864 10.384 11.6301 10.3731V10.6873V10.6873ZM14.2247 15.0477C14.6309 15.0477 14.9559 14.9069 15.1618 14.7119L15.3784 14.934C15.1943 15.2427 14.7284 15.7302 13.7534 15.7302C12.643 15.7302 11.9118 15.0477 11.9118 13.9427C11.9118 12.686 12.7351 11.9169 13.8293 11.9169C14.9018 11.9169 15.3784 12.5452 15.3784 13.2277C15.3784 13.3523 15.373 13.4985 15.3568 13.5906H13.0872C13.0818 13.661 13.0818 13.7369 13.0818 13.7802C13.0709 14.5765 13.5097 15.0477 14.2247 15.0477ZM20.0584 15.5406C19.5926 15.5948 19.143 15.6652 18.7151 15.7573L18.5689 15.6652C18.5364 15.4973 18.5147 15.2969 18.5147 15.129H18.4984C18.2764 15.4377 17.8701 15.7356 17.3014 15.7356C16.4889 15.7356 16.1747 15.2752 16.1747 14.4627V12.8377C16.1747 12.556 16.088 12.5073 15.8497 12.4369L15.7197 12.399V12.1065C16.1964 12.0577 16.7109 11.9765 17.1389 11.9006L17.3014 11.9873C17.2851 12.1173 17.2797 12.3556 17.2797 12.556V14.3381C17.2797 14.7769 17.4151 15.0694 17.8484 15.0694C18.0922 15.0694 18.3251 14.9231 18.4984 14.739V12.8431C18.4984 12.5615 18.4118 12.5127 18.1734 12.4423L18.0434 12.4044V12.1119C18.5093 12.0631 19.0401 11.9819 19.4626 11.906L19.6305 11.9927C19.6143 12.1227 19.598 12.3556 19.598 12.5615V14.8256C19.598 15.1019 19.6847 15.156 19.923 15.2265L20.053 15.2644V15.5406H20.0584Z" fill="black"/>
</svg>
