<svg width="26" height="26" viewBox="0 0 26 26" fill="none" xmlns="http://www.w3.org/2000/svg">
<path fill-rule="evenodd" clip-rule="evenodd" d="M5.41667 5.14551V6.77051H3.25V19.2288C3.25 20.1497 3.95417 20.8538 4.875 20.8538H19.5C21.3417 20.8538 22.75 19.4455 22.75 17.6038V5.14551H5.41667ZM21.6667 17.6038C21.6667 18.7955 20.6917 19.7705 19.5 19.7705H6.39167C6.44583 19.608 6.5 19.4455 6.5 19.2288V6.22884H21.6667V17.6038ZM9.75 10.5622V9.47884H8.66667V7.31217H7.58333V10.5622H9.75ZM12.4583 9.47884V10.5622H13.5417V7.31217H12.4583V8.39551H11.375V7.31217H10.2917V10.5622H11.375V9.47884H12.4583ZM4.33333 7.85384H5.41667V19.2288C5.41667 19.5538 5.2 19.7705 4.875 19.7705C4.55 19.7705 4.33333 19.5538 4.33333 19.2288V7.85384ZM20.5833 16.5205V15.4372H8.125V16.5205H20.5833ZM19.5 18.6872V17.6038H8.125V18.6872H19.5Z" fill="black"/>
</svg>
