<svg width="26" height="26" viewBox="0 0 26 26" fill="none" xmlns="http://www.w3.org/2000/svg">
<path d="M8.03735 15.5097C6.96431 15.5097 6.18864 14.7351 6.18864 13.6621C6.18864 12.6178 6.96431 11.8426 8.00756 11.8426C8.99177 11.8724 9.76635 12.6205 9.85844 13.6621C9.88823 14.7054 9.11364 15.5401 8.04006 15.5097H8.03735ZM8.01027 8.95068L3.92285 11.3064V16.0471L8.00756 18.4304L12.0923 16.0752V11.2766L8.01027 8.95068Z" fill="currentColor"/>
<path d="M22.0769 9.23388C22.104 6.50821 20.1107 4.21209 17.3894 4.01059L17.326 6.55426L16.4826 6.51905L16.4799 3.98242C13.7689 4.22184 11.6975 6.42913 11.7219 9.12555L14.7953 9.16076L14.7872 10.0529L15.591 9.83621L15.6149 10.783L14.7715 10.9889L14.7569 12.9524L15.6002 12.7466L15.5834 13.6826L14.7552 13.9144V15.9034L15.584 15.6721L15.5926 16.593L14.726 16.8134V18.8024L15.5694 18.5971L15.5645 19.492L14.7206 19.6983L14.9963 20.6046L18.6834 20.6327L18.9954 19.7352L19.0051 18.6665L18.1358 18.8864L18.152 17.9515L18.9959 17.7451L19.0068 15.7155L18.1369 15.9359L18.1536 15.0005L19.023 14.7795L18.9976 12.8051L18.1536 13.0104L18.1591 12.1155L19.0257 11.8951L19.0664 9.91692L18.1715 10.152V9.19055L22.0769 9.23388Z" fill="currentColor"/>
</svg>
