<svg width="26" height="26" viewBox="0 0 26 26" fill="none" xmlns="http://www.w3.org/2000/svg">
<path d="M2.86036 15.5621L2.13453 15.1775L1.98828 14.3379L2.2212 13.8992L2.0912 13.2817L2.6762 13L3.88411 14.0238L3.96536 14.5167C3.96536 14.5167 4.51786 13.8884 4.5287 13.8288C4.5287 13.8179 4.53411 13.2979 4.53411 13.2979L5.10828 13.2221L6.27828 14.2025L7.44286 13.715L8.0062 13.2654L9.38745 13.2329L9.79911 12.8321L10.3949 13.0163L10.7633 13.1679L11.462 13.3521L12.0904 14.0075L12.2962 13.0867L11.9062 12.6371L11.7491 11.895L11.4566 11.1313L13.3958 9.96128L13.5529 9.10544L14.5712 8.42836L15.4541 9.05128L16.9979 9.13253L17.2579 8.36336L17.8158 8.39044L17.9458 7.33961L19.132 7.19336L20.7462 8.26044L21.927 8.50961L22.3116 8.29836L23.4058 8.76961L23.2595 10.0642L24.0124 11.6675L23.8933 12.9784L22.4416 12.8213L22.1004 13.2113L22.6258 13.2709L22.6095 14.0834L22.2304 14.4084L22.2845 15.9954L21.6399 15.9629L20.8112 16.7321L20.2479 17.2467C20.2479 17.2467 19.3595 17.6529 19.3433 17.6584C19.327 17.6692 18.2058 17.5771 18.2058 17.5771L17.5612 17.8263L16.5862 18.7959L15.1345 18.2921L13.0383 17.8154L12.7024 17.9292L12.242 17.7234L11.527 17.6584L10.2324 17.2954L9.42536 15.9142L9.70161 15.6271L9.51203 15.6163L8.27703 16.0604L6.58703 16.0117L6.16995 16.7971L5.41703 16.705L5.02703 16.3529L4.58286 16.0009L4.31745 15.7463L3.8462 16.2338L3.4887 16.3475L2.86036 15.5621Z" fill="black"/>
</svg>
