<svg width="26" height="26" viewBox="0 0 26 26" fill="none" xmlns="http://www.w3.org/2000/svg">
<path d="M20.7726 21.395H5.16016V23.6261H20.7726V21.395Z" fill="black"/>
<path d="M6.66504 2.37402V20.6699H19.2664V2.37402H6.66504ZM7.86212 3.64261H18.0698V13.8503H7.86212V3.64261ZM18.0698 19.5335H7.86212V18.7751H18.0698V19.5335ZM18.0698 17.6376H7.86212V16.8793H18.0698V17.6376ZM18.0698 15.7418H7.86212V14.9835H18.0698V15.7418Z" fill="black"/>
<path fill-rule="evenodd" clip-rule="evenodd" d="M14.7359 6.54438C14.7359 7.06654 14.0095 7.54104 13.6179 8.20513C13.4873 7.25613 12.8726 6.82929 12.8726 5.83263C12.8726 5.35813 13.0405 4.8365 13.2452 4.40967C12.2578 5.02608 11.5661 6.54438 11.5661 8.20513V8.91688C11.3423 8.51333 11.0818 8.13417 10.9513 7.63583C10.9513 8.77333 10.2617 9.96067 10.2617 11.2894C10.2617 12.4751 10.6344 13.1852 11.7524 13.1852C11.4913 12.7345 11.3797 12.4025 11.3797 11.999C11.3797 11.2406 11.8456 10.8365 11.9387 10.1031C12.144 10.5538 12.4262 10.9806 12.8704 11.2894C12.8704 10.8382 13.2057 10.1031 13.4294 9.39354C13.6531 10.4845 14.6752 10.888 14.3611 12.7145C15.0506 12.7145 15.6654 11.4573 15.6654 10.1053C15.6676 8.46621 14.8848 8.20513 14.7359 6.54438Z" fill="black"/>
</svg>
