<svg width="26" height="26" viewBox="0 0 26 26" fill="none" xmlns="http://www.w3.org/2000/svg">
<path d="M13.0789 4.84097C13.0265 4.83231 12.9731 4.83231 12.9207 4.84097C8.45579 4.88377 4.83691 8.5281 4.83691 13.0028C4.83691 17.5041 8.49858 21.1657 12.9998 21.1657C17.5011 21.1657 21.1627 17.5041 21.1627 13.0028C21.1627 8.5281 17.5439 4.88377 13.0789 4.84097ZM19.359 16.112H17.3548C17.548 15.2688 17.6599 14.409 17.689 13.5445H20.0577C19.9906 14.437 19.7534 15.3085 19.359 16.112V16.112ZM5.94083 13.5445H8.30954C8.33868 14.409 8.4506 15.2688 8.64375 16.112H6.63958C6.24514 15.3085 6.00796 14.437 5.94083 13.5445V13.5445ZM6.645 9.88822H8.64483C8.45102 10.7332 8.33874 11.5947 8.30954 12.4611H5.94083C6.00863 11.5665 6.2471 10.6932 6.64337 9.88822H6.645ZM13.5431 8.80489V6.0061C14.491 6.2986 15.3306 7.34239 15.8929 8.80489H13.5431ZM16.2368 9.88822C16.4509 10.7304 16.5756 11.5928 16.609 12.4611H13.5415V9.88822H16.2368ZM12.4582 6.0061V8.80489H10.1084C10.6707 7.34239 11.5102 6.2986 12.4582 6.0061ZM12.4582 9.88822V12.4611H9.39233C9.42566 11.5928 9.55039 10.7304 9.76446 9.88822H12.4582ZM9.39233 13.5445H12.4582V16.112H9.76283C9.54988 15.2715 9.4257 14.4109 9.39233 13.5445V13.5445ZM12.4582 17.1953V19.9995C11.5092 19.7065 10.6707 18.6605 10.1068 17.1953H12.4582ZM13.5415 19.9995V17.1953H15.8929C15.329 18.6605 14.4905 19.7065 13.5415 19.9995ZM13.5415 16.112V13.5445H16.6073C16.574 14.4109 16.4498 15.2715 16.2368 16.112H13.5415ZM17.6901 12.4611C17.6609 11.5947 17.5486 10.7332 17.3548 9.88822H19.359C19.7558 10.693 19.9949 11.5664 20.0632 12.4611H17.6901ZM18.6971 8.80489H17.0455C16.8778 8.30427 16.6674 7.81897 16.4167 7.35431C16.2646 7.07415 16.094 6.80452 15.9059 6.54722C17.0136 7.04944 17.9744 7.82662 18.6971 8.80489V8.80489ZM10.0938 6.54722C9.90566 6.80452 9.73501 7.07415 9.583 7.35431C9.33229 7.81897 9.12189 8.30427 8.95412 8.80489H7.30258C8.02523 7.82662 8.98608 7.04944 10.0938 6.54722V6.54722ZM7.29879 17.1953H8.95196C9.12012 17.6979 9.33124 18.185 9.583 18.6513C9.73501 18.9315 9.90566 19.2011 10.0938 19.4584C8.98395 18.9554 8.02164 18.1762 7.29879 17.1953V17.1953ZM15.9059 19.4584C16.094 19.2011 16.2646 18.9315 16.4167 18.6513C16.6684 18.185 16.8795 17.6979 17.0477 17.1953H18.7009C17.978 18.1762 17.0157 18.9554 15.9059 19.4584V19.4584Z" fill="black"/>
</svg>
