<svg width="26" height="26" viewBox="0 0 26 26" fill="none" xmlns="http://www.w3.org/2000/svg">
<path fill-rule="evenodd" clip-rule="evenodd" d="M23.2913 11.646L12.9997 3.521L2.70801 11.646V12.1877H4.87467V13.8127H2.70801V18.146H7.20384L10.2913 21.396V21.9377C10.2913 22.2627 10.508 22.4793 10.833 22.4793H17.333C17.658 22.4793 17.8747 22.2627 17.8747 21.9377V20.8543C17.8747 20.096 18.6872 19.0668 19.1747 18.146H23.2913V13.8127H21.1247V12.1877H23.2913V11.646ZM22.208 17.0627H19.4997V14.896C19.4997 13.9752 18.7955 13.271 17.8747 13.271C17.6038 13.271 17.333 13.3252 17.0622 13.4877C16.7913 13.0002 16.3038 12.7293 15.708 12.7293C15.2747 12.7293 14.8955 12.8918 14.6247 13.1085C14.3538 12.8918 13.9747 12.7293 13.5413 12.7293C13.3247 12.7293 13.1622 12.7835 12.9997 12.8377V10.5627C12.9997 9.64183 12.2955 8.93766 11.3747 8.93766C10.4538 8.93766 9.74967 9.64183 9.74967 10.5627V15.7085L8.77467 14.6793C8.50384 14.4085 7.96217 14.1918 7.58301 14.1918C6.60801 14.1918 5.79551 15.0043 5.79551 15.9793C5.79551 16.2502 5.95801 16.6835 6.22884 17.0627H3.79134V14.896H5.95801V11.1043H4.87467L12.9997 4.821L21.1247 11.1043H20.0413V14.896H22.208V17.0627ZM16.7913 21.396H11.3747V20.8543L7.20384 16.6293C7.04134 16.4668 6.87884 16.2502 6.87884 16.0335C6.87884 15.6543 7.20384 15.2752 7.63717 15.2752C7.79967 15.2752 7.96217 15.3835 8.12467 15.546L9.85801 17.3877L9.91217 17.4418C10.0205 17.5502 10.1288 17.6043 10.2913 17.6043C10.6163 17.6043 10.833 17.3877 10.833 17.0627V10.5627C10.833 10.2377 11.0497 10.021 11.3747 10.021C11.6997 10.021 11.9163 10.2377 11.9163 10.5627V15.4377C11.9163 15.7627 12.133 15.9793 12.458 15.9793C12.783 15.9793 12.9997 15.7627 12.9997 15.4377V14.3543C12.9997 14.0293 13.2163 13.8127 13.5413 13.8127C13.8663 13.8127 14.083 14.0293 14.083 14.3543V15.4377C14.083 15.7627 14.2997 15.9793 14.6247 15.9793C14.9497 15.9793 15.1663 15.7627 15.1663 15.4377V14.3543C15.1663 14.0293 15.383 13.8127 15.708 13.8127C16.033 13.8127 16.2497 14.0293 16.2497 14.3543V15.4377C16.2497 15.7627 16.4663 15.9793 16.7913 15.9793C17.1163 15.9793 17.333 15.7627 17.333 15.4377V14.896C17.333 14.571 17.5497 14.3543 17.8747 14.3543C18.1997 14.3543 18.4163 14.571 18.4163 14.896V17.0627C18.4163 18.146 16.7913 19.771 16.7913 20.8543V21.396Z" fill="black"/>
</svg>
