<svg width="26" height="26" viewBox="0 0 26 26" fill="none" xmlns="http://www.w3.org/2000/svg">
<path d="M3.35449 18.8444V19.0606V19.9792H6.67924V19.0606H11.3284V19.9792H14.6531V19.0606H19.3218V19.9792H22.646V19.0606V18.8444V17.9258H3.35449V18.8444Z" fill="black"/>
<path d="M8.57562 7.63477H6.24862L3.35449 17.3913H6.67924L8.57562 7.63477Z" fill="black"/>
<path d="M10.6705 17.3913L11.3692 7.63477H9.04166L7.3457 17.3913H10.6705Z" fill="black"/>
<path d="M14.6626 17.3913L14.1638 7.63477H11.8368L11.3379 17.3913H14.6626Z" fill="black"/>
<path d="M18.6544 17.3913L16.9584 7.63477H14.6309L15.3296 17.3913H18.6544Z" fill="black"/>
<path d="M22.6454 17.3913L19.7518 7.63477H17.4248L19.3212 17.3913H22.6454Z" fill="black"/>
</svg>
