<svg width="26" height="26" viewBox="0 0 26 26" fill="none" xmlns="http://www.w3.org/2000/svg">
<path d="M18.597 7.37968C17.0262 7.37968 15.8378 8.14776 15.8378 9.16718V13.9468H13.8851V9.92551C13.8851 9.0751 13.0531 8.40018 11.8625 8.20247L12.6257 7.43872C13.3461 6.71668 13.0504 5.33652 11.9383 4.22502C10.8263 3.11352 9.44667 2.81668 8.72625 3.53547L4.54188 7.71931C3.82146 8.43918 4.11721 9.82097 5.22925 10.9336C5.93342 11.6377 6.74321 12.0131 7.42679 12.0131C7.76886 12.0226 8.10283 11.9082 8.36713 11.6908V15.8438C8.36746 15.887 8.36999 15.9302 8.37471 15.9732H5.95183C4.93296 15.9732 4.16433 17.1595 4.16433 18.7325C4.16433 20.3055 4.93242 21.4912 5.95183 21.4912H11.8701C12.7216 21.4885 13.397 20.657 13.5942 19.4643H17.9779C18.9935 19.461 19.7589 18.2796 19.7611 16.7121C20.7193 16.438 21.3558 15.827 21.3558 15.0811V9.16664C21.3558 8.14776 20.1695 7.37968 18.597 7.37968ZM13.6392 18.3809C13.6093 17.8982 13.4841 17.4262 13.2708 16.9921C13.1881 16.8286 13.0871 16.6751 12.9697 16.5344C12.8512 16.3919 12.7105 16.2693 12.5531 16.1715C12.3463 16.0427 12.1077 15.9741 11.8641 15.9732H11.4367C11.4807 15.7739 11.5524 15.5817 11.6496 15.4023C11.7769 15.1759 11.9367 15.0296 12.0575 15.0296H16.5328C16.489 15.1213 16.45 15.2151 16.4157 15.3108C16.3323 15.5451 16.2724 15.7871 16.237 16.0333C16.204 16.2559 16.1875 16.4806 16.1877 16.7056C16.1877 17.3463 16.315 17.9227 16.5349 18.3809H13.6392ZM12.487 19.4643C12.4655 19.5548 12.4391 19.6441 12.408 19.7318C12.2525 20.1652 12.0196 20.4078 11.8663 20.4078C11.713 20.4078 11.4795 20.1641 11.3246 19.7318C11.2567 19.539 11.2105 19.3391 11.187 19.136C11.1531 18.8565 11.1546 18.5739 11.1914 18.2948C11.2159 18.1038 11.2606 17.9158 11.3246 17.7342C11.3383 17.6981 11.3524 17.662 11.3669 17.6258C11.3899 17.5704 11.4158 17.5162 11.4443 17.4633C11.5846 17.2023 11.7488 17.0593 11.8663 17.0593C11.9838 17.0593 12.1534 17.2071 12.2947 17.4763C12.3384 17.5601 12.3763 17.6468 12.408 17.7358C12.4815 17.946 12.5297 18.1642 12.5515 18.3858C12.5634 18.5026 12.5694 18.6199 12.5694 18.7373C12.5694 18.8023 12.5678 18.8657 12.5645 18.9275C12.5545 19.1083 12.5286 19.288 12.487 19.4643V19.4643ZM5.95183 20.4078C5.83104 20.4078 5.67071 20.2616 5.54342 20.0352C5.356 19.701 5.24821 19.2259 5.24821 18.7325C5.24821 18.239 5.35654 17.764 5.54342 17.4298C5.67071 17.2028 5.83104 17.0566 5.95183 17.0566H10.4271C10.3865 17.1416 10.3491 17.231 10.315 17.3236C10.2884 17.3946 10.264 17.4682 10.2418 17.5435C10.1315 17.9301 10.0768 18.3304 10.0793 18.7325C10.0793 19.3733 10.2072 19.9496 10.4271 20.4078H5.95183ZM7.12563 10.8799C6.75621 10.7759 6.34454 10.5165 5.99517 10.1676C5.64579 9.81881 5.38688 9.4066 5.28288 9.03718C5.213 8.78747 5.22275 8.57026 5.30779 8.48522L8.47221 5.32081C8.64121 5.80018 8.95971 6.29581 9.41146 6.75135C9.84479 7.18468 10.3491 7.50968 10.8458 7.68681L10.3177 8.21493C9.16446 8.42835 8.36767 9.0946 8.36767 9.92931V10.1655L7.67758 10.855C7.59254 10.9417 7.37533 10.9498 7.12563 10.8799V10.8799ZM10.3518 4.39835C10.9629 4.70451 11.4585 5.2003 11.7645 5.81156C11.9605 6.22702 11.9687 6.56393 11.8598 6.67281C11.7747 6.75839 11.5575 6.76814 11.3073 6.69772C11.2024 6.66728 11.1002 6.62815 11.0018 6.58072C10.6958 6.42931 10.4172 6.22794 10.1774 5.98489C9.9352 5.74716 9.73567 5.46957 9.5875 5.16427C9.39142 4.74881 9.38383 4.41135 9.49217 4.30302C9.53713 4.25806 9.62108 4.23314 9.73375 4.23314C9.94911 4.244 10.1597 4.3003 10.3518 4.39835V4.39835ZM11.1264 9.22568C11.4663 9.22233 11.8044 9.2773 12.1258 9.38818C12.5591 9.54364 12.8017 9.77656 12.8017 9.92985C12.8017 10.0837 12.558 10.3161 12.1258 10.4715C11.477 10.6875 10.7758 10.6875 10.127 10.4715C10.0007 10.4271 9.87944 10.3695 9.76517 10.2998C9.5615 10.1725 9.45046 10.0333 9.45046 9.92985C9.45284 9.88531 9.46766 9.84233 9.49325 9.80581C9.54501 9.73079 9.60998 9.66581 9.685 9.61406C9.82093 9.51828 9.96974 9.44223 10.127 9.38818C10.3525 9.30912 10.5871 9.25925 10.8252 9.23976C10.9216 9.23056 11.0218 9.22568 11.1264 9.22568V9.22568ZM9.45046 15.8438V11.3685C9.90871 11.5884 10.4856 11.7163 11.1264 11.7163C11.7672 11.7163 12.3435 11.5884 12.8017 11.3685V13.9463H12.0597C11.2065 13.9463 10.5295 14.7788 10.3318 15.9732H9.49596C9.46884 15.9352 9.45306 15.8904 9.45046 15.8438V15.8438ZM17.5977 8.62497C18.2464 8.40903 18.9477 8.40903 19.5964 8.62497C20.0298 8.77989 20.2724 9.01281 20.2724 9.16664C20.2724 9.31993 20.0287 9.55285 19.5964 9.70831C18.9476 9.92355 18.2465 9.92355 17.5977 9.70831C17.1643 9.55285 16.9211 9.31993 16.9211 9.16664C16.9211 9.01281 17.1649 8.77989 17.5977 8.62497ZM17.9741 18.3809C17.8208 18.3809 17.5879 18.1372 17.4325 17.7049C17.3217 17.3835 17.2667 17.0455 17.27 16.7056C17.27 16.6909 17.27 16.6768 17.27 16.6622C17.2713 16.4739 17.2894 16.2861 17.3241 16.1011C17.3499 15.9668 17.3861 15.8348 17.4325 15.7062C17.4482 15.6618 17.465 15.6201 17.4823 15.58C17.6345 15.2268 17.8365 15.0296 17.9741 15.0296C18.128 15.0296 18.3609 15.2734 18.5158 15.7062C18.525 15.7311 18.5337 15.7571 18.5423 15.7836C18.5979 15.9601 18.6362 16.1415 18.6566 16.3253C18.6708 16.4512 18.6778 16.5778 18.6778 16.7045C18.6778 16.7586 18.6778 16.8128 18.6734 16.867C18.6627 17.1527 18.6096 17.4353 18.5158 17.7055C18.3625 18.1372 18.128 18.3809 17.9741 18.3809V18.3809ZM20.2724 15.0811C20.2724 15.2019 20.1262 15.3617 19.8998 15.489C19.8117 15.5376 19.7201 15.5795 19.6257 15.6141C19.3624 14.6147 18.739 13.9463 17.9741 13.9463H16.9211V10.6058C17.3794 10.8258 17.9563 10.9531 18.597 10.9531C19.2378 10.9531 19.8142 10.8258 20.2724 10.6058V15.0811Z" fill="black"/>
</svg>
