<svg width="26" height="26" viewBox="0 0 26 26" fill="none" xmlns="http://www.w3.org/2000/svg">
<path fill-rule="evenodd" clip-rule="evenodd" d="M23.292 5.7417C20.2587 5.7417 16.6837 6.93337 15.167 8.45003C13.3253 10.2375 12.7837 13.0542 13.7587 15.0042C13.1087 15.4375 12.5128 16.1417 12.0795 16.8459C11.8087 15.4375 11.3753 13.975 10.8337 12.7834C12.242 10.7792 11.7545 7.6917 10.292 6.28337C8.82949 4.82087 5.74199 4.1167 2.70866 4.1167C2.38366 4.1167 2.16699 4.33337 2.16699 4.65837C2.16699 7.6917 2.87116 10.7792 4.33366 12.2417C5.52533 13.4875 7.85449 14.0292 9.75033 13.325C10.5628 15.1667 11.267 17.6584 11.267 19.5V21.9375H12.3503V19.5C12.3503 18.1459 13.2712 16.5209 14.517 15.7625C16.467 16.8459 19.3378 16.25 21.1253 14.4084C22.642 12.8917 23.8337 9.3167 23.8337 6.28337C23.8337 5.95837 23.617 5.7417 23.292 5.7417ZM20.367 13.65C18.9587 15.0584 17.0628 15.5459 15.5462 14.95C17.2253 13.65 18.2003 12.1334 19.7712 10.6709C19.9878 10.4542 20.042 10.1834 19.8253 9.91253C19.6087 9.6417 19.3378 9.6417 19.067 9.91253C17.4962 11.375 16.467 12.8917 14.7337 14.2459C13.9753 12.7292 14.4628 10.6709 15.9253 9.20837C17.2795 7.8542 20.3128 6.82503 22.7503 6.82503C22.7503 9.26253 21.7212 12.2959 20.367 13.65Z" fill="black"/>
</svg>
