<svg width="26" height="26" viewBox="0 0 26 26" fill="none" xmlns="http://www.w3.org/2000/svg">
<path d="M24.3744 8.81392C24.2769 8.49975 24.0006 8.35892 23.6377 8.47267L21.0811 9.27434L21.4061 10.3198L23.9627 9.51809C24.3246 9.40434 24.4708 9.12809 24.3744 8.81392Z" fill="black"/>
<path d="M23.3775 14.4042L21.1837 13.2559L20.6475 14.285L22.8358 15.4334C23.177 15.6121 23.4912 15.5146 23.6537 15.2059C23.8335 14.8646 23.7187 14.5829 23.3775 14.4042Z" fill="black"/>
<path d="M20.3006 4.50234C19.9593 4.32359 19.6777 4.43734 19.4989 4.77859L18.3506 6.97234L19.3798 7.514L20.5292 5.32026C20.7068 4.97901 20.6093 4.66484 20.3006 4.50234Z" fill="black"/>
<path d="M14.5536 6.7232L15.5991 6.3982L14.7974 3.84153C14.6836 3.47861 14.4074 3.33236 14.0932 3.42986C13.7791 3.52736 13.6382 3.80361 13.752 4.16653L14.5536 6.7232Z" fill="black"/>
<path d="M9.53283 8.47274L11.7266 9.62107L12.2683 8.59191L10.0745 7.44358C9.73325 7.26483 9.41908 7.36233 9.25658 7.67108C9.09408 7.97983 9.1905 8.29399 9.53283 8.47274Z" fill="black"/>
<path d="M17.2645 11.4773C17.2224 11.3809 17.1531 11.2988 17.0651 11.241C16.9771 11.1833 16.8742 11.1525 16.7689 11.1523H5.36684C5.26158 11.1525 5.15865 11.1833 5.07063 11.241C4.98261 11.2988 4.91331 11.3809 4.87121 11.4773C4.32954 12.7069 3.78914 13.9367 3.25 15.1666C2.71447 16.3865 2.17877 17.6061 1.64288 18.8256C1.60693 18.908 1.59204 18.998 1.59955 19.0875C1.60706 19.1771 1.63674 19.2634 1.68591 19.3386C1.73507 19.4138 1.80219 19.4756 1.8812 19.5185C1.96021 19.5613 2.04863 19.5838 2.1385 19.5839H9.33725V20.6456H8.125C7.98134 20.6456 7.84357 20.7027 7.74199 20.8042C7.6404 20.9058 7.58334 21.0436 7.58334 21.1873C7.58334 21.3309 7.6404 21.4687 7.74199 21.5703C7.84357 21.6719 7.98134 21.7289 8.125 21.7289H14.0183C14.162 21.7289 14.2998 21.6719 14.4014 21.5703C14.5029 21.4687 14.56 21.3309 14.56 21.1873C14.56 21.0436 14.5029 20.9058 14.4014 20.8042C14.2998 20.7027 14.162 20.6456 14.0183 20.6456H12.805V19.5839H19.9983C20.0883 19.5839 20.1767 19.5615 20.2558 19.5187C20.3349 19.4759 20.4021 19.4141 20.4513 19.3388C20.5006 19.2636 20.5303 19.1773 20.5378 19.0877C20.5454 18.9981 20.5305 18.908 20.4945 18.8256C19.4632 16.478 18.3771 14.0042 17.2645 11.4773ZM17.3518 14.3661H13.9875C13.8827 13.6568 13.778 12.9472 13.6733 12.2373H16.4152C16.7301 12.9523 17.0423 13.6619 17.3518 14.3661V14.3661ZM13.052 15.4494C13.2019 16.467 13.3521 17.4853 13.5027 18.5044H8.75984C8.90428 17.4853 9.04872 16.467 9.19317 15.4494H13.052ZM9.34538 14.3661C9.44613 13.6568 9.54652 12.9472 9.64654 12.2373H12.5786L12.8922 14.3661H9.34538ZM5.72 12.2373H8.55238C8.45235 12.9476 8.35196 13.6572 8.25121 14.3661H4.78454C5.09763 13.6565 5.40945 12.9469 5.72 12.2373V12.2373ZM4.24179 15.6038C4.26454 15.5523 4.28729 15.5008 4.3095 15.4494H8.09792C7.95347 16.467 7.80903 17.4853 7.66459 18.5044H2.96834C3.39372 17.5381 3.81821 16.5712 4.24179 15.6038ZM11.7206 20.6494H10.4206V19.5877H11.7206V20.6494ZM14.5974 18.5044C14.4475 17.4853 14.2975 16.467 14.1473 15.4494H17.8279C18.2829 16.4843 18.7298 17.5027 19.1685 18.5044H14.5974Z" fill="black"/>
<path d="M13.8762 10.4715C13.9119 10.4359 13.9428 10.3958 13.9683 10.3523C14.3016 9.71592 14.874 9.23798 15.5597 9.02364C16.2454 8.8093 16.9881 8.87613 17.6245 9.20942C18.261 9.5427 18.7389 10.1152 18.9532 10.8008C19.1676 11.4865 19.1008 12.2293 18.7675 12.8657C18.7613 12.8806 18.7541 12.8951 18.7458 12.909C18.5075 13.4994 19.2983 13.9815 19.7208 13.5048C19.7495 13.4732 19.7749 13.4387 19.7966 13.4019C20.8041 11.4898 20.0837 9.19317 18.1662 8.18567C16.2487 7.17817 13.952 7.89858 12.9445 9.81608C12.944 9.82019 12.9421 9.82399 12.9391 9.82691C12.652 10.4119 13.4104 10.9319 13.8762 10.4715Z" fill="black"/>
</svg>
