<svg width="26" height="26" viewBox="0 0 26 26" fill="none" xmlns="http://www.w3.org/2000/svg">
<path fill-rule="evenodd" clip-rule="evenodd" d="M24.7321 16.304L18.0783 15.1123L14.8223 12.3498L7.38905 12.3379L3.83247 15.0305L1.05859 15.9275V19.4657H2.54547C2.47662 19.219 2.44486 18.9634 2.45122 18.7074C2.46949 18.0669 2.73819 17.4592 3.19961 17.0147C3.66103 16.5702 4.27837 16.3243 4.91905 16.33C6.28568 16.3451 7.3273 17.3965 7.3273 18.7675C7.32759 19.0028 7.29552 19.237 7.23197 19.4635H18.8415C18.7727 19.2168 18.7409 18.9612 18.7473 18.7052C18.7655 18.0647 19.0342 17.457 19.4956 17.0125C19.9571 16.568 20.5744 16.3222 21.2151 16.3278C22.5823 16.343 23.6233 17.3944 23.6233 18.7653C23.6236 19.0006 23.5916 19.2348 23.528 19.4614H24.9407L24.7321 16.304ZM5.04689 15.089L7.63984 13.0708H10.8194L10.9137 15.089H5.04689ZM11.5734 15.089L11.4743 13.0708H14.4307L16.8455 15.089H11.5734Z" fill="black"/>
<path d="M4.88743 20.3574C5.76425 20.3574 6.47505 19.6466 6.47505 18.7698C6.47505 17.8929 5.76425 17.1821 4.88743 17.1821C4.01061 17.1821 3.2998 17.8929 3.2998 18.7698C3.2998 19.6466 4.01061 20.3574 4.88743 20.3574Z" fill="black"/>
<path d="M21.1853 20.3574C22.0621 20.3574 22.7729 19.6466 22.7729 18.7698C22.7729 17.8929 22.0621 17.1821 21.1853 17.1821C20.3085 17.1821 19.5977 17.8929 19.5977 18.7698C19.5977 19.6466 20.3085 20.3574 21.1853 20.3574Z" fill="black"/>
</svg>
