<svg width="26" height="26" viewBox="0 0 26 26" fill="none" xmlns="http://www.w3.org/2000/svg">
<g clip-path="url(#clip0_71_532)">
<path fill-rule="evenodd" clip-rule="evenodd" d="M24.3753 19.5002V8.66683C24.3753 8.071 23.8878 7.5835 23.292 7.5835H20.042L23.292 4.3335L21.667 2.7085L16.792 7.5835H9.20866C8.61283 7.5835 8.12533 8.071 8.12533 8.66683V19.5002H7.58366C6.98783 19.5002 6.50033 19.9877 6.50033 20.5835C6.50033 21.1793 6.98783 21.6668 7.58366 21.6668H24.917C25.5128 21.6668 26.0003 21.1793 26.0003 20.5835C26.0003 19.9877 25.5128 19.5002 24.917 19.5002H24.3753ZM7.04199 8.66683C7.04199 8.071 6.55449 7.5835 5.95866 7.5835H1.62533C1.02949 7.5835 0.541992 8.071 0.541992 8.66683V17.3335C0.541992 17.9293 1.02949 18.4168 1.62533 18.4168H5.95866C6.55449 18.4168 7.04199 17.9293 7.04199 17.3335V8.66683ZM3.79199 17.3335V16.2502H2.70866V17.3335H1.62533V8.66683H5.95866V17.3335H3.79199ZM15.7087 8.66683L14.6253 9.75016L14.0837 11.9168L16.2503 11.3752L18.9587 8.66683H23.292V19.5002H9.20866V8.66683H15.7087ZM4.87533 10.8335V9.75016H2.70866V11.9168H3.79199V10.8335H4.87533ZM11.3753 9.75016V11.9168H12.4587V10.8335H13.542V9.75016H11.3753ZM18.9587 10.8335H20.042V11.9168H21.1253V9.75016H18.9587V10.8335ZM2.70866 13.0002V15.1668H3.79199V13.0002H2.70866ZM11.3753 13.0002V15.1668H13.542V14.0835H12.4587V13.0002H11.3753ZM21.1253 15.1668V13.0002H20.042V15.1668H21.1253ZM14.6253 14.0835V15.1668H16.792V14.0835H14.6253ZM15.7087 16.2502V18.4168H17.8753V17.3335H16.792V16.2502H15.7087ZM18.9587 17.3335V18.4168H21.1253V16.2502H20.042V17.3335H18.9587Z" fill="black"/>
</g>
<defs>
<clipPath id="clip0_71_532">
<rect width="26" height="26" fill="white"/>
</clipPath>
</defs>
</svg>
