<svg width="26" height="26" viewBox="0 0 26 26" fill="none" xmlns="http://www.w3.org/2000/svg">
<path fill-rule="evenodd" clip-rule="evenodd" d="M17.3337 11.8918H14.3545L13.0003 6.48638H14.3545V4.32422H5.68783V12.3783C4.06283 13.135 2.97949 14.8107 2.97949 16.7566C2.97949 19.5134 5.09199 21.6215 7.85449 21.6215C10.0212 21.6215 11.8087 20.3242 12.4587 18.3783H16.5753C16.792 16.4864 18.3628 15.135 20.3128 15.135C21.017 15.135 21.667 15.2972 22.2087 15.6215L23.0212 14.0539V11.8918H20.042H17.3337ZM11.917 6.48638L13.2712 11.8918H7.85449V6.48638H11.917ZM7.85449 19.4594C6.33783 19.4594 5.14616 18.2702 5.14616 16.7026C5.14616 15.1891 6.33783 14.0539 7.85449 14.0539C9.37116 14.0539 10.5628 15.1891 10.5628 16.7026C10.5628 18.2702 9.37116 19.4594 7.85449 19.4594ZM20.3128 16.2161C18.7962 16.2161 17.6045 17.4053 17.6045 18.9188C17.6045 20.4323 18.7962 21.6215 20.3128 21.6215C21.8295 21.6215 23.0212 20.4323 23.0212 18.9188C23.0212 17.4053 21.8295 16.2161 20.3128 16.2161ZM20.3128 20.5404C19.392 20.5404 18.6878 19.8377 18.6878 18.9188C18.6878 17.9999 19.392 17.2972 20.3128 17.2972C21.2337 17.2972 21.9378 17.9999 21.9378 18.9188C21.9378 19.8377 21.2337 20.5404 20.3128 20.5404Z" fill="black"/>
<path d="M23.9037 9.67579H22.8204C22.8204 8.71363 22.4467 7.81092 21.7642 7.12984C20.3612 5.72984 18.07 5.72984 16.6671 7.12984L15.9033 6.36768C17.7287 4.54606 20.7025 4.54606 22.5333 6.36768C23.4162 7.25417 23.9037 8.42714 23.9037 9.67579Z" fill="black"/>
<path d="M22.0623 9.67573H20.979C20.979 9.20546 20.7948 8.76222 20.4644 8.43249C20.134 8.10276 19.6898 7.91897 19.2186 7.91897C18.7473 7.91897 18.3031 8.10276 17.9727 8.43249L17.209 7.67032C17.7452 7.13519 18.4602 6.83789 19.2186 6.83789C19.9769 6.83789 20.6919 7.13519 21.2281 7.67032C21.7644 8.20546 22.0623 8.91897 22.0623 9.67573Z" fill="black"/>
<path d="M18.5689 9.0273C18.2114 9.38405 18.2114 9.96784 18.5689 10.33C18.9264 10.6922 19.5114 10.6868 19.8689 10.33C20.0477 10.1516 20.1397 9.91378 20.1397 9.68135C20.1397 9.44351 20.0477 9.21108 19.8689 9.0327C19.5114 8.66514 18.9264 8.66514 18.5689 9.0273Z" fill="black"/>
</svg>
