<svg width="26" height="26" viewBox="0 0 26 26" fill="none" xmlns="http://www.w3.org/2000/svg">
<path fill-rule="evenodd" clip-rule="evenodd" d="M10.8337 4.33301V14.083H6.50033C4.98366 14.083 3.79199 15.2747 3.79199 16.7913V21.6663H13.542V20.583H18.417C20.5295 20.583 22.2087 18.9038 22.2087 16.7913V4.33301H10.8337ZM18.417 19.4997C17.4962 19.4997 16.7378 19.0663 16.2503 18.4163H18.9587V17.333H15.7628C15.7087 17.1705 15.7087 16.9538 15.7087 16.7913V16.2497H20.042V15.1663H15.6003C15.3837 14.5163 14.7878 14.083 14.0837 14.083H19.5003V12.9997H13.0003V14.083H11.917V5.41634H21.1253V16.7913C21.1253 18.308 19.9337 19.4997 18.417 19.4997ZM13.0003 6.49967V7.58301H16.2503V6.49967H13.0003ZM20.042 9.74967V8.66634H13.0003V9.74967H20.042ZM17.8753 11.9163V10.833H13.0003V11.9163H17.8753ZM4.87533 16.7913C4.87533 15.8705 5.57949 15.1663 6.50033 15.1663H12.567C12.5128 15.3288 12.4587 15.4913 12.4587 15.708V20.583H4.87533V16.7913ZM5.95866 17.333H11.3753V16.2497H5.95866V17.333ZM10.292 19.4997V18.4163H5.95866V19.4997H10.292Z" fill="black"/>
</svg>
