<svg width="26" height="26" viewBox="0 0 26 26" fill="none" xmlns="http://www.w3.org/2000/svg">
<path fill-rule="evenodd" clip-rule="evenodd" d="M8.77474 12.5663L7.69141 13.6497L11.3747 17.333L18.4164 10.2913L17.3331 9.20801L11.3747 15.1663L8.77474 12.5663Z" fill="black"/>
<path d="M11.0172 22.9664C10.9252 22.9664 10.8277 22.9556 10.7356 22.9339C10.1722 22.8039 9.82016 22.3327 9.51141 21.9156C9.33807 21.6827 9.14307 21.4173 8.98599 21.3414C8.81807 21.2602 8.49849 21.271 8.18974 21.2818C7.67516 21.2981 7.09557 21.3198 6.65141 20.9623C6.20182 20.6048 6.09349 20.0306 5.99599 19.5268C5.94182 19.2398 5.87682 18.9093 5.76307 18.7685C5.64932 18.6277 5.34599 18.4977 5.08057 18.3785C4.60932 18.1727 4.07307 17.9343 3.82391 17.4198C3.58016 16.9106 3.72641 16.3473 3.85641 15.8543C3.93766 15.551 4.01891 15.2423 3.97557 15.0581C3.93766 14.8902 3.72641 14.641 3.53682 14.4243C3.19557 14.0289 2.81641 13.5793 2.81641 12.9943C2.81641 12.4093 3.20099 11.9598 3.53682 11.5643C3.72641 11.3477 3.93766 11.0985 3.97557 10.9306C4.01891 10.7464 3.93766 10.4377 3.85641 10.1343C3.72641 9.64143 3.58016 9.07809 3.82391 8.56893C4.07307 8.04893 4.60932 7.81601 5.08057 7.61018C5.34599 7.49101 5.64932 7.36101 5.76307 7.22018C5.87682 7.07934 5.94182 6.74893 5.99599 6.46184C6.09349 5.95809 6.20182 5.38393 6.65141 5.02643C7.09557 4.66893 7.68057 4.69059 8.18974 4.70684C8.49849 4.71768 8.81807 4.72851 8.98599 4.64726C9.14307 4.57143 9.33807 4.30601 9.51141 4.07309C9.82016 3.65601 10.1722 3.18476 10.7356 3.05476C11.2827 2.93018 11.7918 3.19559 12.2414 3.43393C12.5177 3.58018 12.8047 3.73184 12.9997 3.73184C13.1893 3.73184 13.4818 3.58018 13.7581 3.43393C14.2077 3.19559 14.7168 2.93018 15.2639 3.05476C15.8272 3.18476 16.1793 3.65601 16.4881 4.07309C16.6614 4.30601 16.8564 4.57143 17.0135 4.64726C17.1814 4.72851 17.501 4.71768 17.8097 4.70684C18.3243 4.69059 18.9039 4.66893 19.3481 5.02643C19.7977 5.38393 19.906 5.95809 20.0035 6.46184C20.0577 6.74893 20.1227 7.07934 20.2364 7.22018C20.3502 7.36101 20.6535 7.49101 20.9189 7.61018C21.3902 7.81601 21.9264 8.05434 22.1756 8.56893C22.4193 9.07809 22.2731 9.64143 22.1431 10.1343C22.0618 10.4377 21.9806 10.7464 22.0239 10.9306C22.0618 11.0985 22.2731 11.3477 22.4627 11.5643C22.8039 11.9598 23.1831 12.4093 23.1831 12.9943C23.1831 13.5793 22.7985 14.0289 22.4627 14.4243C22.2731 14.641 22.0618 14.8902 22.0239 15.0581C21.9806 15.2423 22.0618 15.551 22.1431 15.8543C22.2731 16.3473 22.4193 16.9106 22.1756 17.4198C21.9264 17.9398 21.3902 18.1727 20.9189 18.3785C20.6535 18.4977 20.3502 18.6277 20.2364 18.7685C20.1227 18.9093 20.0577 19.2398 20.0035 19.5268C19.906 20.0306 19.7977 20.6048 19.3481 20.9623C18.9039 21.3198 18.3189 21.2981 17.8097 21.2818C17.501 21.271 17.1814 21.2602 17.0135 21.3414C16.8564 21.4173 16.6614 21.6827 16.4881 21.9156C16.1793 22.3327 15.8272 22.8039 15.2639 22.9339C14.7168 23.0585 14.2077 22.7931 13.7581 22.5548C13.4818 22.4085 13.1947 22.2568 12.9997 22.2568C12.8102 22.2568 12.5177 22.4085 12.2414 22.5548C11.8677 22.7498 11.456 22.9664 11.0172 22.9664ZM12.9997 21.1735C13.4602 21.1735 13.8827 21.3956 14.2618 21.596C14.5327 21.7368 14.8685 21.9156 15.0256 21.8777C15.1989 21.8398 15.421 21.5364 15.6214 21.271C15.8814 20.9189 16.1468 20.5614 16.5477 20.3664C16.9539 20.1714 17.4306 20.1877 17.8477 20.1985C18.1564 20.2093 18.541 20.2202 18.6764 20.1173C18.8118 20.0089 18.8822 19.6298 18.9418 19.321C19.0231 18.9093 19.1097 18.4435 19.3914 18.0914C19.6677 17.7448 20.101 17.5552 20.4856 17.3873C20.7889 17.2573 21.1302 17.1056 21.206 16.9485C21.2764 16.7968 21.1789 16.4285 21.1031 16.1306C20.9947 15.7243 20.8756 15.2639 20.9731 14.8198C21.0706 14.3918 21.3631 14.0506 21.6447 13.7202C21.8614 13.4656 22.1052 13.1785 22.1052 12.9943C22.1052 12.8102 21.8614 12.5231 21.6447 12.2685C21.3631 11.9381 21.0706 11.6023 20.9731 11.1689C20.8702 10.7248 20.9947 10.2643 21.1031 9.85809C21.1843 9.56018 21.2818 9.19184 21.206 9.04018C21.1302 8.88309 20.7889 8.73143 20.4856 8.60143C20.101 8.43351 19.6731 8.24393 19.3914 7.89726C19.1097 7.54518 19.0231 7.07934 18.9418 6.66768C18.8822 6.36434 18.8118 5.97976 18.6764 5.87143C18.541 5.76309 18.1564 5.77934 17.8477 5.79018C17.4252 5.80643 16.9539 5.81726 16.5477 5.62226C16.1468 5.42726 15.8814 5.06976 15.6214 4.71768C15.4264 4.45226 15.1989 4.14893 15.0256 4.11101C14.8685 4.07309 14.5327 4.25184 14.2618 4.39268C13.8881 4.58768 13.4602 4.81518 12.9997 4.81518C12.5393 4.81518 12.1168 4.59309 11.7377 4.39268C11.4668 4.25184 11.131 4.07309 10.9739 4.11101C10.8006 4.14893 10.5785 4.45226 10.3781 4.71768C10.1181 5.06976 9.85266 5.42726 9.45182 5.62226C9.04557 5.81726 8.56891 5.80101 8.15182 5.79018C7.84307 5.77934 7.45849 5.76851 7.32307 5.87143C7.18766 5.97976 7.11724 6.35893 7.05766 6.66768C6.97641 7.07934 6.88974 7.54518 6.60807 7.89726C6.33182 8.24393 5.89849 8.43351 5.51391 8.60143C5.21057 8.73143 4.86932 8.88309 4.79349 9.04018C4.72307 9.19184 4.82057 9.56018 4.89641 9.85809C5.00474 10.2643 5.12391 10.7248 5.02641 11.1689C4.92891 11.5968 4.63641 11.9381 4.35474 12.2685C4.13807 12.5231 3.89432 12.8102 3.89432 12.9943C3.89432 13.1785 4.13807 13.4656 4.35474 13.7202C4.63641 14.0506 4.92891 14.3864 5.02641 14.8198C5.12932 15.2639 5.00474 15.7243 4.89641 16.1306C4.81516 16.4285 4.71766 16.7968 4.79349 16.9485C4.86932 17.1056 5.21057 17.2573 5.51391 17.3873C5.89849 17.5552 6.32641 17.7448 6.60807 18.0914C6.88974 18.4435 6.97641 18.9093 7.05766 19.321C7.11724 19.6243 7.18766 20.0089 7.32307 20.1173C7.45849 20.2256 7.84307 20.2093 8.15182 20.1985C8.56891 20.1823 9.04557 20.1714 9.45182 20.3664C9.85266 20.5614 10.1181 20.9189 10.3781 21.271C10.5731 21.5364 10.8006 21.8398 10.9739 21.8777C11.131 21.9156 11.4668 21.7368 11.7377 21.596C12.1168 21.3956 12.5393 21.1735 12.9997 21.1735Z" fill="black"/>
</svg>
