<svg width="26" height="26" viewBox="0 0 26 26" fill="none" xmlns="http://www.w3.org/2000/svg">
<path fill-rule="evenodd" clip-rule="evenodd" d="M18.959 4.33366H15.1673C15.1673 3.14199 14.1923 2.16699 13.0007 2.16699C11.809 2.16699 10.834 3.14199 10.834 4.33366H7.04232C6.44648 4.33366 5.95898 4.82116 5.95898 5.41699V22.2087C5.95898 22.8045 6.44648 23.292 7.04232 23.292H18.959C19.5548 23.292 20.0423 22.8045 20.0423 22.2087V5.41699C20.0423 4.82116 19.5548 4.33366 18.959 4.33366ZM7.04232 22.2087V5.41699H8.66732V5.95866C8.66732 6.55449 9.15482 7.04199 9.75065 7.04199H16.2507C16.8465 7.04199 17.334 6.55449 17.334 5.95866V5.41699H18.959V22.2087H7.04232ZM9.20898 9.75033L8.66732 10.292L9.75065 11.3753L11.9173 9.20866L11.3757 8.66699L9.75065 10.292L9.20898 9.75033ZM13.0007 9.20866V10.292H16.7923V9.20866H13.0007ZM9.20898 13.542L8.66732 14.0837L9.75065 15.167L11.9173 13.0003L11.3757 12.4587L9.75065 14.0837L9.20898 13.542ZM13.0007 13.0003V14.0837H16.2507V13.0003H13.0007ZM9.20898 17.3337L8.66732 17.8753L9.75065 18.9587L11.9173 16.792L11.3757 16.2503L9.75065 17.8753L9.20898 17.3337ZM17.334 17.8753V16.792H13.0007V17.8753H17.334Z" fill="black"/>
</svg>
