<svg width="26" height="26" viewBox="0 0 26 26" fill="none" xmlns="http://www.w3.org/2000/svg">
<path fill-rule="evenodd" clip-rule="evenodd" d="M20.583 17.9833L8.66634 14.625L2.70801 6.5L4.87467 4.33333L4.33301 3.25L1.08301 6.5L8.12468 16.25H9.20801C11.3205 16.25 12.9997 17.9292 12.9997 20.0417C12.9997 21.0708 12.5663 22.0458 11.9163 22.75H20.0413C19.7163 22.3167 19.4997 21.7208 19.4997 21.125C19.4997 20.2042 19.933 19.4458 20.583 18.9583V17.9833ZM15.1663 13L12.9997 14.625L20.583 16.7917L19.4997 14.0833L15.1663 13ZM9.20801 17.3333C7.69134 17.3333 6.49967 18.525 6.49967 20.0417C6.49967 21.5583 7.69134 22.75 9.20801 22.75C10.7247 22.75 11.9163 21.5583 11.9163 20.0417C11.9163 18.525 10.7247 17.3333 9.20801 17.3333ZM9.20801 21.6667C8.28718 21.6667 7.58301 20.9625 7.58301 20.0417C7.58301 19.1208 8.28718 18.4167 9.20801 18.4167C10.1288 18.4167 10.833 19.1208 10.833 20.0417C10.833 20.9625 10.1288 21.6667 9.20801 21.6667ZM22.208 19.5C21.2872 19.5 20.583 20.2042 20.583 21.125C20.583 22.0458 21.2872 22.75 22.208 22.75C23.1288 22.75 23.833 22.0458 23.833 21.125C23.833 20.2042 23.1288 19.5 22.208 19.5Z" fill="black"/>
</svg>
