<svg width="26" height="26" viewBox="0 0 26 26" fill="none" xmlns="http://www.w3.org/2000/svg">
<path fill-rule="evenodd" clip-rule="evenodd" d="M9.75 17.8747H16.25C16.25 15.5997 18.0375 13.7038 18.6875 12.2955C19.2292 11.3747 19.5 10.0747 19.5 9.20801C19.5 5.57884 16.575 2.70801 13 2.70801C9.425 2.70801 6.5 5.63301 6.5 9.20801C6.5 10.183 6.825 11.483 7.3125 12.2955C7.9625 13.8663 9.75 15.3288 9.75 17.8747ZM11.375 23.2913H14.625C14.95 23.2913 15.1667 23.0747 15.1667 22.7497V22.208H15.7083C16.0333 22.208 16.25 21.9913 16.25 21.6663V18.958H9.75V21.6663C9.75 21.9913 9.96667 22.208 10.2917 22.208H10.8333V22.7497C10.8333 23.0747 11.05 23.2913 11.375 23.2913ZM10.8333 16.7913C10.8333 15.383 9.1 13.7038 8.125 11.5913C7.8 10.8872 7.58333 10.0747 7.58333 9.20801C7.58333 6.22884 10.0208 3.79134 13 3.79134C15.9792 3.79134 18.4167 6.22884 18.4167 9.20801C18.4167 10.0747 18.2 10.8872 17.875 11.5913C16.9 13.7038 15.1667 15.383 15.1667 16.7913H10.8333ZM8.66667 9.20801H9.75C9.75 7.58301 11.375 5.95801 13 5.95801V4.87467C10.8333 4.87467 8.66667 7.04134 8.66667 9.20801Z" fill="black"/>
</svg>
