<svg width="26" height="26" viewBox="0 0 26 26" fill="none" xmlns="http://www.w3.org/2000/svg">
<path fill-rule="evenodd" clip-rule="evenodd" d="M17.8753 21.6663C18.5795 21.6663 18.9587 21.2872 18.9587 20.583V5.41634C18.9587 4.71217 18.5795 4.33301 17.8753 4.33301H8.12533C7.42116 4.33301 7.04199 4.71217 7.04199 5.41634V20.583C7.04199 21.2872 7.42116 21.6663 8.12533 21.6663H17.8753ZM8.66699 8.12467H17.3337V10.2913H8.66699V8.12467ZM9.75033 13.5413C9.15449 13.5413 8.66699 13.0538 8.66699 12.458C8.66699 11.8622 9.15449 11.3747 9.75033 11.3747C10.3462 11.3747 10.8337 11.8622 10.8337 12.458C10.8337 13.0538 10.3462 13.5413 9.75033 13.5413ZM13.0003 13.5413C12.4045 13.5413 11.917 13.0538 11.917 12.458C11.917 11.8622 12.4045 11.3747 13.0003 11.3747C13.5962 11.3747 14.0837 11.8622 14.0837 12.458C14.0837 13.0538 13.5962 13.5413 13.0003 13.5413ZM16.2503 13.5413C15.6545 13.5413 15.167 13.0538 15.167 12.458C15.167 11.8622 15.6545 11.3747 16.2503 11.3747C16.8462 11.3747 17.3337 11.8622 17.3337 12.458C17.3337 13.0538 16.8462 13.5413 16.2503 13.5413ZM9.75033 16.7913C9.15449 16.7913 8.66699 16.3038 8.66699 15.708C8.66699 15.1122 9.15449 14.6247 9.75033 14.6247C10.3462 14.6247 10.8337 15.1122 10.8337 15.708C10.8337 16.3038 10.3462 16.7913 9.75033 16.7913ZM13.0003 16.7913C12.4045 16.7913 11.917 16.3038 11.917 15.708C11.917 15.1122 12.4045 14.6247 13.0003 14.6247C13.5962 14.6247 14.0837 15.1122 14.0837 15.708C14.0837 16.3038 13.5962 16.7913 13.0003 16.7913ZM16.2503 16.7913C15.6545 16.7913 15.167 16.3038 15.167 15.708C15.167 15.1122 15.6545 14.6247 16.2503 14.6247C16.8462 14.6247 17.3337 15.1122 17.3337 15.708C17.3337 16.3038 16.8462 16.7913 16.2503 16.7913ZM9.75033 20.0413C9.15449 20.0413 8.66699 19.5538 8.66699 18.958C8.66699 18.3622 9.15449 17.8747 9.75033 17.8747H13.0003C13.5962 17.8747 14.0837 18.3622 14.0837 18.958C14.0837 19.5538 13.5962 20.0413 13.0003 20.0413H9.75033ZM16.2503 20.0413C15.6545 20.0413 15.167 19.5538 15.167 18.958C15.167 18.3622 15.6545 17.8747 16.2503 17.8747C16.8462 17.8747 17.3337 18.3622 17.3337 18.958C17.3337 19.5538 16.8462 20.0413 16.2503 20.0413Z" fill="black"/>
</svg>
