<svg width="26" height="26" viewBox="0 0 26 26" fill="none" xmlns="http://www.w3.org/2000/svg">
<path d="M13.0001 5.22195L15.6868 9.87486L14.0726 9.44153L13.726 10.7469L17.561 11.7707L18.5847 7.9357L17.2793 7.58903L16.8514 9.19236L14.0184 4.29028C13.9158 4.11085 13.7675 3.96174 13.5887 3.85803C13.4099 3.75433 13.2068 3.69971 13.0001 3.69971C12.7934 3.69971 12.5903 3.75433 12.4115 3.85803C12.2327 3.96174 12.0844 4.11085 11.9818 4.29028L8.40137 10.4869L9.57137 11.1586L13.0001 5.22195Z" fill="black"/>
<path d="M7.83283 14.1808L8.26616 15.7949L9.57158 15.4483L8.54783 11.6133L4.71229 12.637L5.05895 13.9424L6.66229 13.5145L3.82991 18.4166C3.72693 18.5955 3.67277 18.7984 3.67285 19.0048C3.67294 19.2113 3.72727 19.414 3.8304 19.5929C3.93353 19.7717 4.08184 19.9203 4.26048 20.0238C4.43911 20.1273 4.6418 20.182 4.84824 20.1824H12.0037V18.8337H5.15158L7.83283 14.1808Z" fill="black"/>
<path d="M22.1708 18.4169L18.5904 12.2202L17.4204 12.8919L20.8491 18.8286H15.4812L16.662 17.6477L15.7082 16.6944L12.9023 19.4948L15.7082 22.3006L16.6615 21.3473L15.4861 20.1719H21.1465C21.3533 20.1725 21.5566 20.1182 21.7355 20.0144C21.9145 19.9107 22.0626 19.7613 22.1648 19.5815C22.2707 19.4059 22.3271 19.205 22.3282 19C22.3292 18.795 22.2748 18.5935 22.1708 18.4169Z" fill="black"/>
</svg>
