<svg width="26" height="26" viewBox="0 0 26 26" fill="none" xmlns="http://www.w3.org/2000/svg">
<path d="M12.9996 10.4894C13.7744 10.4894 14.4025 9.86132 14.4025 9.08651C14.4025 8.3117 13.7744 7.68359 12.9996 7.68359C12.2248 7.68359 11.5967 8.3117 11.5967 9.08651C11.5967 9.86132 12.2248 10.4894 12.9996 10.4894Z" fill="black"/>
<path d="M15.0245 17.7583C17.4133 14.478 18.6089 11.5875 18.6114 9.08676C18.6114 5.99926 16.0873 3.4751 12.9998 3.4751C9.91227 3.4751 7.3881 5.99926 7.3881 9.08676C7.3881 11.5882 8.58247 14.4789 10.9712 17.7588C8.3956 18.0118 6.15039 18.7653 6.15039 20.0934C6.15039 21.7645 9.69939 22.5255 12.9971 22.5255C16.2947 22.5255 19.8464 21.7645 19.8464 20.0961C19.8464 18.7647 17.6039 18.0113 15.0245 17.7583ZM8.79102 9.08676C8.79102 8.25435 9.03785 7.44063 9.50032 6.74851C9.96278 6.05638 10.6201 5.51694 11.3891 5.19839C12.1582 4.87984 13.0044 4.79649 13.8209 4.95888C14.6373 5.12128 15.3872 5.52212 15.9758 6.11073C16.5644 6.69933 16.9653 7.44926 17.1276 8.26568C17.29 9.08209 17.2067 9.92833 16.8881 10.6974C16.5696 11.4664 16.0302 12.1237 15.338 12.5862C14.6459 13.0487 13.8322 13.2955 12.9998 13.2955C12.4463 13.2982 11.8978 13.1911 11.386 12.9805C10.8742 12.77 10.4092 12.4601 10.0178 12.0687C9.62646 11.6774 9.31655 11.2123 9.10598 10.7005C8.89541 10.1887 8.78836 9.64021 8.79102 9.08676V9.08676ZM17.3028 20.9113C16.1609 21.2537 14.6329 21.4422 12.9998 21.4422C11.3666 21.4422 9.8386 21.2537 8.69677 20.9113C7.49643 20.5511 7.23427 20.1687 7.23427 20.0934C7.23427 20.0181 7.49427 19.6357 8.69677 19.2755C9.54068 19.0226 10.5953 18.8541 11.7469 18.7831C12.138 19.2822 12.5556 19.7894 12.9998 20.3047C13.4432 19.7883 13.8601 19.2809 14.2505 18.7826C15.4031 18.8536 16.4583 19.0226 17.3028 19.2755C18.5031 19.6357 18.7653 20.0181 18.7653 20.0934C18.7653 20.1687 18.5031 20.5511 17.3028 20.9113Z" fill="black"/>
</svg>
