<svg width="26" height="26" viewBox="0 0 26 26" fill="none" xmlns="http://www.w3.org/2000/svg">
<path d="M21.404 13C21.404 12.818 21.3975 12.6376 21.3861 12.4583H22.2441C22.1726 11.2008 21.8437 9.97127 21.2778 8.84595L20.5346 9.27495C20.3744 8.95111 20.1935 8.63792 19.993 8.33733L20.735 7.90833C20.0416 6.85735 19.1422 5.95793 18.0912 5.26445L17.6622 6.00708C17.3616 5.80659 17.0484 5.62566 16.7245 5.46541L17.1535 4.72225C16.0282 4.15627 14.7988 3.8272 13.5412 3.75537V4.61337C13.3619 4.602 13.1815 4.5955 12.9995 4.5955C12.8175 4.5955 12.6371 4.602 12.4578 4.61337V3.75537C11.2003 3.82703 9.97083 4.15592 8.84546 4.7217L9.27446 5.46487C8.95062 5.62511 8.63743 5.80604 8.33684 6.00654L7.90784 5.26445C6.85686 5.95793 5.95744 6.85735 5.26397 7.90833L6.00659 8.33733C5.8061 8.63792 5.62517 8.95111 5.46492 9.27495L4.72176 8.84595C4.15567 9.97123 3.82659 11.2007 3.75488 12.4583H4.61288C4.60151 12.6376 4.59501 12.818 4.59501 13C4.59501 13.182 4.60151 13.3624 4.61288 13.5417H3.75488C3.82654 14.7992 4.15543 16.0287 4.72122 17.154L5.46438 16.725C5.62463 17.0489 5.80556 17.3621 6.00605 17.6627L5.26397 18.0917C5.95744 19.1426 6.85686 20.0421 7.90784 20.7355L8.33684 19.9929C8.63743 20.1934 8.95062 20.3743 9.27446 20.5346L8.84546 21.2777C9.97086 21.8435 11.2003 22.1726 12.4578 22.2446V21.3866C12.6371 21.398 12.8175 21.4045 12.9995 21.4045C13.1815 21.4045 13.3619 21.398 13.5412 21.3866V22.2446C14.7987 22.1728 16.0281 21.8439 17.1535 21.2783L16.7245 20.5351C17.0484 20.3749 17.3616 20.1939 17.6622 19.9935L18.0912 20.7355C19.1422 20.0421 20.0416 19.1426 20.735 18.0917L19.9924 17.6627C20.1929 17.3621 20.3738 17.0489 20.5341 16.725L21.2773 17.154C21.8432 16.0287 22.1723 14.7992 22.2441 13.5417H21.3861C21.3953 13.3624 21.404 13.182 21.404 13ZM12.9995 17.6789C12.0741 17.6789 11.1695 17.4045 10.4 16.8904C9.6306 16.3762 9.03089 15.6455 8.67675 14.7905C8.32262 13.9356 8.22996 12.9948 8.41049 12.0872C8.59103 11.1796 9.03665 10.3459 9.69101 9.6915C10.3454 9.03714 11.1791 8.59152 12.0867 8.41098C12.9943 8.23045 13.9351 8.3231 14.79 8.67724C15.645 9.03138 16.3758 9.63108 16.8899 10.4005C17.404 11.17 17.6784 12.0746 17.6784 13C17.6784 14.2409 17.1855 15.431 16.308 16.3085C15.4305 17.186 14.2404 17.6789 12.9995 17.6789V17.6789Z" fill="black"/>
<path d="M13.0001 15.291C12.8453 15.2909 12.6938 15.3364 12.5646 15.4217C12.4354 15.507 12.3341 15.6284 12.2733 15.7709C12.2125 15.9133 12.195 16.0705 12.2228 16.2228C12.2507 16.3751 12.3227 16.5159 12.4299 16.6276C12.5372 16.7394 12.6749 16.8171 12.8259 16.8512C12.977 16.8852 13.1347 16.8741 13.2795 16.8193C13.4244 16.7644 13.5498 16.6682 13.6404 16.5425C13.7309 16.4169 13.7825 16.2675 13.7888 16.1127C13.7927 16.0065 13.7753 15.9007 13.7374 15.8014C13.6996 15.7021 13.6422 15.6114 13.5686 15.5347C13.495 15.4581 13.4068 15.397 13.3091 15.3551C13.2115 15.3133 13.1064 15.2915 13.0001 15.291V15.291Z" fill="black"/>
<path d="M15.1721 14.3823C15.0171 14.3824 14.8655 14.4281 14.7363 14.5137C14.6071 14.5994 14.506 14.7211 14.4455 14.8638C14.385 15.0065 14.3678 15.1639 14.3961 15.3163C14.4244 15.4687 14.4969 15.6094 14.6046 15.7208C14.7123 15.8323 14.8504 15.9096 15.0018 15.9431C15.1531 15.9767 15.311 15.9649 15.4557 15.9093C15.6004 15.8538 15.7255 15.7569 15.8155 15.6307C15.9055 15.5045 15.9564 15.3546 15.9618 15.1997C15.9652 15.0938 15.9473 14.9882 15.9092 14.8893C15.8711 14.7904 15.8135 14.7002 15.7398 14.624C15.6662 14.5478 15.578 14.4871 15.4805 14.4456C15.3829 14.4041 15.2781 14.3826 15.1721 14.3823Z" fill="black"/>
<path d="M10.8284 14.3823C10.672 14.3823 10.5192 14.4287 10.3893 14.5156C10.2593 14.6024 10.158 14.7259 10.0982 14.8703C10.0384 15.0148 10.0228 15.1737 10.0533 15.327C10.0838 15.4803 10.1592 15.6211 10.2697 15.7316C10.3803 15.8421 10.5212 15.9174 10.6745 15.9478C10.8279 15.9782 10.9868 15.9625 11.1312 15.9026C11.2756 15.8427 11.399 15.7413 11.4857 15.6113C11.5725 15.4813 11.6188 15.3284 11.6187 15.1721C11.6182 14.9627 11.5348 14.762 11.3867 14.6139C11.2386 14.4659 11.0378 14.3826 10.8284 14.3823V14.3823Z" fill="black"/>
<path d="M15.2905 13.0365C15.2976 13.1909 15.3499 13.3399 15.4409 13.4649C15.5319 13.5899 15.6576 13.6855 15.8023 13.7397C15.9471 13.794 16.1047 13.8045 16.2554 13.7701C16.4061 13.7356 16.5434 13.6577 16.6503 13.546C16.7571 13.4342 16.8288 13.2935 16.8565 13.1414C16.8841 12.9893 16.8665 12.8324 16.8058 12.6902C16.7451 12.548 16.644 12.4267 16.515 12.3414C16.3861 12.2562 16.2349 12.2106 16.0803 12.2104C15.9738 12.2115 15.8686 12.2339 15.7709 12.2763C15.6732 12.3186 15.5849 12.3801 15.5114 12.4571C15.4378 12.534 15.3803 12.625 15.3424 12.7245C15.3045 12.824 15.2868 12.9301 15.2905 13.0365V13.0365Z" fill="black"/>
<path d="M10.7094 12.9999C10.7092 12.8499 10.6664 12.703 10.5858 12.5765C10.5052 12.45 10.3903 12.349 10.2545 12.2854C10.1186 12.2218 9.96745 12.1982 9.81868 12.2174C9.66991 12.2366 9.52968 12.2977 9.41439 12.3937C9.29911 12.4897 9.21353 12.6165 9.16768 12.7593C9.12183 12.9021 9.1176 13.055 9.15549 13.2002C9.19338 13.3453 9.27181 13.4766 9.38162 13.5788C9.49143 13.681 9.62807 13.7498 9.77555 13.7772C9.88954 13.7979 10.0067 13.7934 10.1188 13.764C10.2308 13.7345 10.335 13.6809 10.4241 13.6067C10.5131 13.5326 10.5848 13.4399 10.6341 13.335C10.6834 13.2301 10.7091 13.1158 10.7094 12.9999V12.9999Z" fill="black"/>
<path d="M13 11.5776C12.2492 11.5776 11.5781 12.2498 11.5781 12.9995C11.5781 13.7492 12.2492 14.4219 13 14.4219C13.7507 14.4219 14.4213 13.7503 14.4213 12.9995C14.4213 12.2488 13.7502 11.5776 13 11.5776Z" fill="black"/>
<path d="M15.1726 11.6171C15.3288 11.6171 15.4815 11.5708 15.6114 11.484C15.7413 11.3972 15.8425 11.2738 15.9022 11.1294C15.962 10.9851 15.9776 10.8263 15.9471 10.6731C15.9166 10.5199 15.8413 10.3791 15.7308 10.2687C15.6203 10.1583 15.4795 10.0831 15.3263 10.0527C15.1731 10.0223 15.0143 10.038 14.87 10.0979C14.7257 10.1577 14.6024 10.259 14.5156 10.389C14.4289 10.5189 14.3827 10.6717 14.3828 10.8279C14.3835 11.0371 14.467 11.2375 14.6149 11.3853C14.7629 11.5332 14.9634 11.6165 15.1726 11.6171V11.6171Z" fill="black"/>
<path d="M10.8283 11.6171C10.9845 11.6172 11.1373 11.571 11.2672 11.4842C11.3972 11.3975 11.4985 11.2742 11.5583 11.1298C11.6182 10.9855 11.6339 10.8267 11.6034 10.6734C11.573 10.5202 11.4977 10.3794 11.3872 10.2689C11.2768 10.1584 11.136 10.0832 10.9828 10.0527C10.8295 10.0223 10.6707 10.038 10.5263 10.0978C10.382 10.1577 10.2587 10.259 10.1719 10.3889C10.0852 10.5189 10.039 10.6716 10.0391 10.8279C10.0398 11.037 10.1232 11.2373 10.271 11.3852C10.4189 11.533 10.6192 11.6164 10.8283 11.6171V11.6171Z" fill="black"/>
<path d="M13.0003 10.7094C13.1564 10.7093 13.309 10.6629 13.4388 10.5761C13.5686 10.4892 13.6697 10.3659 13.7294 10.2216C13.7892 10.0773 13.8047 9.91857 13.7743 9.76543C13.7438 9.61228 13.6686 9.47161 13.5581 9.3612C13.4477 9.25078 13.3071 9.17557 13.1539 9.14508C13.0008 9.11459 12.842 9.13019 12.6977 9.1899C12.5535 9.2496 12.4301 9.35074 12.3433 9.48053C12.2565 9.61033 12.2101 9.76294 12.21 9.91909C12.2104 10.1286 12.2938 10.3293 12.4419 10.4774C12.59 10.6256 12.7908 10.709 13.0003 10.7094V10.7094Z" fill="black"/>
</svg>
