<svg width="26" height="26" viewBox="0 0 26 26" fill="none" xmlns="http://www.w3.org/2000/svg">
<path d="M15.4596 16.4289L10.9312 12.4585L9.36042 14.2135C8.81875 14.8527 8.03875 15.2372 7.19917 15.2752C7.15583 15.2752 7.1125 15.2752 7.06917 15.2752C6.63583 15.2752 6.20792 15.1777 5.8125 14.9989L10.9908 20.9031C12.1175 22.2464 14.1217 22.4197 15.4596 21.2877C15.53 21.2281 15.595 21.1685 15.66 21.1035C16.9004 19.8631 16.9004 17.8589 15.66 16.6185C15.595 16.5535 15.53 16.4885 15.4596 16.4289ZM14.8258 20.2097C14.0188 21.0168 12.7025 21.0168 11.8954 20.2097C11.0883 19.4027 11.0883 18.0864 11.8954 17.2793C12.7025 16.4722 14.0188 16.4722 14.8258 17.2793C15.6329 18.0918 15.6329 19.4027 14.8258 20.2097Z" fill="black"/>
<path d="M20.2579 4.55525V3.38525H17.1216C16.905 3.38525 16.7046 3.50442 16.6016 3.69942L15.6591 5.49775H14.8683C14.7816 5.26484 14.6462 5.04817 14.4675 4.87484C13.8446 4.2465 12.8425 4.19775 12.1654 4.77192L5.66539 10.6057C4.73914 11.3803 4.61997 12.7615 5.39455 13.6823C6.16914 14.6032 7.55038 14.7278 8.47122 13.9532C8.56872 13.8719 8.6608 13.7798 8.74205 13.6823L8.75289 13.6715L14.5704 7.18234C14.7166 7.009 14.8304 6.80317 14.8954 6.58109H15.6591L16.6016 8.37942C16.7046 8.57442 16.905 8.69359 17.1216 8.69359H20.2633V7.52359H17.4791L16.6991 6.03942L17.4791 4.55525H20.2579ZM7.98372 13.0973C7.50164 13.5794 6.72705 13.5794 6.24497 13.0973C5.76289 12.6153 5.76289 11.8407 6.24497 11.3586C6.72705 10.8765 7.50164 10.8765 7.98372 11.3586C8.46039 11.8407 8.46039 12.6207 7.98372 13.0973ZM13.8987 6.63525C13.5683 6.96567 13.0321 6.96567 12.7071 6.63525C12.3766 6.30484 12.3766 5.76859 12.7071 5.44359C13.0375 5.11317 13.5737 5.11317 13.8987 5.44359C14.2291 5.774 14.2291 6.30484 13.8987 6.63525Z" fill="black"/>
</svg>
