<svg width="26" height="26" viewBox="0 0 26 26" fill="none" xmlns="http://www.w3.org/2000/svg">
<path fill-rule="evenodd" clip-rule="evenodd" d="M12.0503 12.1514H11.4756V13.0944H12.0503C12.3596 13.0944 12.437 12.9861 12.437 12.7434V12.4883C12.437 12.2478 12.345 12.1514 12.0503 12.1514Z" fill="black"/>
<path fill-rule="evenodd" clip-rule="evenodd" d="M6.33692 12.7751L6.49942 12.6126V12.2242L6.66733 12.3921V12.8612L6.90296 13.0963L5.70642 14.2918L6.18037 14.7657L7.37692 13.5703L8.58375 14.776L9.05554 14.3042L7.84871 13.0985L8.08379 12.8639V12.3921L8.25171 12.2242V12.6131L8.41421 12.7756L9.00408 12.1852L9.16225 12.3434C9.15652 12.0708 9.04571 11.8109 8.85296 11.6181C8.53879 11.312 8.22408 11.4908 8.11575 11.5991L7.54592 12.169L7.68837 12.3109L7.37421 12.6234L7.06058 12.3103L7.20196 12.169L6.63483 11.598C6.5265 11.4897 6.21179 11.311 5.89762 11.617C5.70559 11.8096 5.59653 12.0698 5.59375 12.3418L5.74812 12.1868L6.33692 12.7751Z" fill="black"/>
<path fill-rule="evenodd" clip-rule="evenodd" d="M13.0003 3.90625C7.85449 3.90625 3.79199 7.96875 3.79199 13.1146C3.79199 18.2604 7.85449 22.3229 13.0003 22.3229C18.1462 22.3229 22.2087 18.2604 22.2087 13.1146C22.2087 7.96875 18.1462 3.90625 13.0003 3.90625ZM9.62791 15.3625H5.13208V10.8667H9.62791V15.3625ZM12.6109 14.7163L11.9013 13.7202H11.4761V14.7163H10.7524V11.5123H12.0898C12.872 11.5123 13.1617 11.82 13.1617 12.4218V12.8161C13.1617 13.2153 13.0166 13.4845 12.6932 13.6194L13.4705 14.7163H12.6109ZM16.3061 14.7163L15.7645 12.5377L15.2212 14.7163H14.3003L13.5084 11.5123H14.2234L14.7662 13.802L15.3262 11.5123H16.2097L16.76 13.802L17.3017 11.5123H18.0162L17.2291 14.7163H16.3061ZM19.9418 14.0907H18.865L18.6911 14.7163H17.9376L18.918 11.5123H19.8838L20.8686 14.7163H20.1151L19.9418 14.0907Z" fill="black"/>
<path fill-rule="evenodd" clip-rule="evenodd" d="M19.0283 13.4892H19.7672L19.3999 12.1475L19.0283 13.4892Z" fill="black"/>
</svg>
