<svg width="26" height="26" viewBox="0 0 26 26" fill="none" xmlns="http://www.w3.org/2000/svg">
<path d="M5.28011 18.8298C6.04535 18.8298 6.6657 18.2094 6.6657 17.4442C6.6657 16.6789 6.04535 16.0586 5.28011 16.0586C4.51488 16.0586 3.89453 16.6789 3.89453 17.4442C3.89453 18.2094 4.51488 18.8298 5.28011 18.8298Z" fill="black"/>
<path d="M5.28011 14.5549C6.04535 14.5549 6.6657 13.9345 6.6657 13.1693C6.6657 12.404 6.04535 11.7837 5.28011 11.7837C4.51488 11.7837 3.89453 12.404 3.89453 13.1693C3.89453 13.9345 4.51488 14.5549 5.28011 14.5549Z" fill="black"/>
<path d="M5.28011 10.2785C6.04535 10.2785 6.6657 9.65814 6.6657 8.89291C6.6657 8.12767 6.04535 7.50732 5.28011 7.50732C4.51488 7.50732 3.89453 8.12767 3.89453 8.89291C3.89453 9.65814 4.51488 10.2785 5.28011 10.2785Z" fill="black"/>
<path d="M12.9266 20.2668C13.6918 20.2668 14.3122 19.6464 14.3122 18.8812C14.3122 18.116 13.6918 17.4956 12.9266 17.4956C12.1614 17.4956 11.541 18.116 11.541 18.8812C11.541 19.6464 12.1614 20.2668 12.9266 20.2668Z" fill="black"/>
<path d="M12.9266 14.5549C13.6918 14.5549 14.3122 13.9345 14.3122 13.1693C14.3122 12.404 13.6918 11.7837 12.9266 11.7837C12.1614 11.7837 11.541 12.404 11.541 13.1693C11.541 13.9345 12.1614 14.5549 12.9266 14.5549Z" fill="black"/>
<path d="M12.9266 8.84197C13.6918 8.84197 14.3122 8.22162 14.3122 7.45638C14.3122 6.69115 13.6918 6.0708 12.9266 6.0708C12.1614 6.0708 11.541 6.69115 11.541 7.45638C11.541 8.22162 12.1614 8.84197 12.9266 8.84197Z" fill="black"/>
<path d="M20.5721 21.7033C21.3373 21.7033 21.9577 21.0829 21.9577 20.3177C21.9577 19.5525 21.3373 18.9321 20.5721 18.9321C19.8069 18.9321 19.1865 19.5525 19.1865 20.3177C19.1865 21.0829 19.8069 21.7033 20.5721 21.7033Z" fill="black"/>
<path d="M20.5721 14.5549C21.3373 14.5549 21.9577 13.9345 21.9577 13.1693C21.9577 12.404 21.3373 11.7837 20.5721 11.7837C19.8069 11.7837 19.1865 12.404 19.1865 13.1693C19.1865 13.9345 19.8069 14.5549 20.5721 14.5549Z" fill="black"/>
<path d="M20.5721 7.40496C21.3373 7.40496 21.9577 6.78461 21.9577 6.01937C21.9577 5.25414 21.3373 4.63379 20.5721 4.63379C19.8069 4.63379 19.1865 5.25414 19.1865 6.01937C19.1865 6.78461 19.8069 7.40496 20.5721 7.40496Z" fill="black"/>
<path d="M9.10335 23.4321C9.04081 23.4321 8.98082 23.4073 8.93655 23.3632C8.89228 23.319 8.86733 23.2591 8.86719 23.1965V3.14185C8.87009 3.08124 8.89621 3.02408 8.94014 2.98221C8.98406 2.94035 9.04241 2.91699 9.10308 2.91699C9.16376 2.91699 9.22211 2.94035 9.26603 2.98221C9.30995 3.02408 9.33607 3.08124 9.33898 3.14185V23.1965C9.33898 23.259 9.31415 23.3189 9.26997 23.3631C9.22578 23.4073 9.16585 23.4321 9.10335 23.4321Z" fill="black"/>
<path d="M16.7493 23.4321C16.6868 23.4321 16.6269 23.4073 16.5827 23.3631C16.5385 23.3189 16.5137 23.259 16.5137 23.1965V3.14185C16.5166 3.08124 16.5427 3.02408 16.5866 2.98221C16.6305 2.94035 16.6889 2.91699 16.7496 2.91699C16.8102 2.91699 16.8686 2.94035 16.9125 2.98221C16.9564 3.02408 16.9826 3.08124 16.9855 3.14185V23.1965C16.9853 23.2591 16.9604 23.319 16.9161 23.3632C16.8718 23.4073 16.8118 23.4321 16.7493 23.4321V23.4321Z" fill="black"/>
</svg>
