<svg width="26" height="26" viewBox="0 0 26 26" fill="none" xmlns="http://www.w3.org/2000/svg">
<path fill-rule="evenodd" clip-rule="evenodd" d="M19.5543 18.796C21.0168 17.3335 21.6126 16.3585 21.6126 15.1126C21.6126 13.8126 20.9626 12.8376 19.446 11.321C17.9293 12.8376 17.2793 13.8126 17.2793 15.1126C17.2793 15.871 17.496 16.521 17.9835 17.2251L15.221 14.4626C16.6835 13.0001 17.2793 12.0251 17.2793 10.7793C17.2793 9.4793 16.6293 8.5043 15.1126 6.98763C13.596 8.5043 12.946 9.4793 12.946 10.7793C12.946 11.5376 13.1626 12.1876 13.6501 12.8918L10.8876 10.1293C12.3501 8.6668 12.946 7.6918 12.946 6.44596C12.946 5.14596 12.296 4.17096 10.7793 2.6543C9.26263 4.17096 8.61263 5.14596 8.61263 6.44596C8.61263 7.47513 9.04596 8.3418 9.9668 9.42513L9.42513 9.9668C8.3418 9.04596 7.47513 8.61263 6.44596 8.61263C5.14596 8.61263 4.17096 9.26263 2.6543 10.7793C4.17096 12.296 5.14596 12.946 6.44596 12.946C7.6918 12.946 8.6668 12.3501 10.1293 10.8876L12.8918 13.6501C12.1876 13.1626 11.5376 12.946 10.7793 12.946C9.4793 12.946 8.5043 13.596 6.98763 15.1126C8.5043 16.6293 9.4793 17.2793 10.7793 17.2793C12.0251 17.2793 13.0001 16.6835 14.4626 15.221L17.2251 17.9835C16.521 17.496 15.871 17.2793 15.1126 17.2793C13.8126 17.2793 12.8376 17.9293 11.321 19.446C12.8376 20.9626 13.8126 21.6126 15.1126 21.6126C16.3585 21.6126 17.3335 21.0168 18.796 19.5543L22.5876 23.346L23.346 22.5876L19.5543 18.796Z" fill="black"/>
</svg>
