<svg width="26" height="26" viewBox="0 0 26 26" fill="none" xmlns="http://www.w3.org/2000/svg">
<path d="M23.4028 8.45521C23.3358 8.34158 23.2458 8.24315 23.1387 8.16621C23.0315 8.08927 22.9095 8.0355 22.7804 8.00834C20.685 7.60439 18.5578 7.38849 16.424 7.36321V6.36763C16.4258 6.32106 16.4182 6.2746 16.4017 6.23103C16.3851 6.18746 16.3599 6.14768 16.3276 6.11408C16.2953 6.08048 16.2566 6.05375 16.2137 6.03549C16.1708 6.01722 16.1247 6.00781 16.0781 6.00781C16.0315 6.00781 15.9854 6.01722 15.9425 6.03549C15.8996 6.05375 15.8609 6.08048 15.8286 6.11408C15.7963 6.14768 15.7711 6.18746 15.7545 6.23103C15.738 6.2746 15.7304 6.32106 15.7322 6.36763V7.36321C13.5984 7.38849 11.4712 7.60439 9.37579 8.00834C9.24663 8.03568 9.12456 8.08958 9.01733 8.1666C8.91009 8.24362 8.82004 8.34209 8.75287 8.45575C8.66204 8.60696 8.60278 8.77501 8.57866 8.94975C8.55455 9.12449 8.56609 9.3023 8.61258 9.47246L8.72091 9.87438H9.36604L9.21329 9.30996C9.1894 9.22225 9.18322 9.13066 9.19512 9.04054C9.20703 8.95042 9.23677 8.86358 9.28262 8.78508C9.30532 8.74486 9.33577 8.70955 9.37222 8.68119C9.40867 8.65283 9.45039 8.63199 9.49496 8.61988C11.5645 8.22066 13.6658 8.00837 15.7734 7.98558C15.8025 8.04171 15.8465 8.08875 15.9005 8.12159C15.9545 8.15443 16.0165 8.1718 16.0797 8.1718C16.1429 8.1718 16.2049 8.15443 16.259 8.12159C16.313 8.08875 16.3569 8.04171 16.386 7.98558C18.4936 8.00833 20.5949 8.22062 22.6645 8.61988C22.709 8.63188 22.7507 8.65269 22.7871 8.68106C22.8235 8.70944 22.8538 8.74481 22.8763 8.78508C22.9222 8.86356 22.952 8.9504 22.9639 9.04053C22.9758 9.13066 22.9696 9.22226 22.9456 9.30996L21.2502 15.5814C21.196 15.7932 21.0476 15.9237 20.8938 15.8993C19.416 15.6602 17.9225 15.5304 16.4256 15.511V15.1123C16.4274 15.0657 16.4198 15.0193 16.4033 14.9757C16.3867 14.9321 16.3616 14.8923 16.3293 14.8587C16.297 14.8251 16.2582 14.7984 16.2153 14.7801C16.1725 14.7619 16.1263 14.7525 16.0797 14.7525C16.0331 14.7525 15.987 14.7619 15.9441 14.7801C15.9012 14.7984 15.8625 14.8251 15.8302 14.8587C15.7979 14.8923 15.7727 14.9321 15.7562 14.9757C15.7396 15.0193 15.732 15.0657 15.7339 15.1123V15.5093C15.5681 15.5093 15.4024 15.5142 15.2366 15.5191V16.1431C15.4024 16.1382 15.5681 16.135 15.7339 16.1322V16.5748C15.732 16.6214 15.7396 16.6678 15.7562 16.7114C15.7727 16.755 15.7979 16.7947 15.8302 16.8283C15.8625 16.8619 15.9012 16.8887 15.9441 16.9069C15.987 16.9252 16.0331 16.9346 16.0797 16.9346C16.1263 16.9346 16.1725 16.9252 16.2153 16.9069C16.2582 16.8887 16.297 16.8619 16.3293 16.8283C16.3616 16.7947 16.3867 16.755 16.4033 16.7114C16.4198 16.6678 16.4274 16.6214 16.4256 16.5748V16.1377C17.8893 16.1567 19.3496 16.2834 20.7947 16.5168C21.2665 16.5932 21.7106 16.2693 21.8515 15.7466L23.5469 9.47517C23.5932 9.30426 23.6043 9.12573 23.5795 8.9504C23.5547 8.77508 23.4946 8.60661 23.4028 8.45521V8.45521Z" fill="black"/>
<path d="M11.3144 6.21381C11.3599 6.21388 11.405 6.20497 11.447 6.1876C11.489 6.17023 11.5272 6.14474 11.5593 6.11259C11.5915 6.08043 11.617 6.04225 11.6344 6.00022C11.6517 5.9582 11.6606 5.91315 11.6606 5.86768C11.6608 5.6695 11.69 5.47241 11.7472 5.28268C11.7603 5.23904 11.7646 5.19326 11.76 5.14794C11.7553 5.10263 11.7418 5.05868 11.7202 5.01859C11.6986 4.9785 11.6692 4.94306 11.6339 4.91431C11.5986 4.88555 11.558 4.86402 11.5143 4.85097C11.4707 4.83792 11.4249 4.83359 11.3796 4.83823C11.3343 4.84287 11.2903 4.85639 11.2502 4.87802C11.2101 4.89965 11.1747 4.92896 11.1459 4.96428C11.1172 4.99961 11.0957 5.04025 11.0826 5.08389C11.0065 5.33819 10.9678 5.60223 10.9678 5.86768C10.9679 5.95953 11.0045 6.04757 11.0695 6.11246C11.1345 6.17736 11.2226 6.21381 11.3144 6.21381V6.21381Z" fill="black"/>
<path d="M12.2236 4.34278C12.3022 4.34294 12.3785 4.3166 12.4403 4.26803C12.7681 4.00814 13.1687 3.85669 13.5865 3.8347C13.6778 3.82911 13.7632 3.78766 13.8241 3.71937C13.8849 3.65109 13.9164 3.56151 13.9115 3.47016C13.9108 3.4243 13.9006 3.37908 13.8816 3.33736C13.8625 3.29564 13.835 3.25832 13.8008 3.22778C13.7666 3.19723 13.7264 3.17412 13.6828 3.15989C13.6392 3.14567 13.5931 3.14065 13.5475 3.14516C12.9868 3.17357 12.4489 3.37597 12.0086 3.7242C11.952 3.76895 11.9108 3.83023 11.8907 3.89952C11.8706 3.9688 11.8726 4.04263 11.8964 4.11072C11.9203 4.1788 11.9648 4.23775 12.0237 4.27935C12.0827 4.32095 12.1531 4.34312 12.2253 4.34278H12.2236Z" fill="black"/>
<path d="M14.7719 4.13997C15.1281 4.36039 15.4071 4.68592 15.5704 5.07164C15.597 5.13415 15.6413 5.18748 15.6979 5.22503C15.7545 5.26258 15.8209 5.28269 15.8889 5.28289H16.268C16.336 5.28269 16.4024 5.26258 16.459 5.22503C16.5156 5.18748 16.5599 5.13415 16.5865 5.07164C16.7499 4.68571 17.0289 4.35986 17.385 4.13889C17.4235 4.11477 17.4569 4.0833 17.4833 4.04627C17.5097 4.00924 17.5286 3.96737 17.5388 3.92306C17.549 3.87874 17.5504 3.83285 17.5428 3.788C17.5353 3.74316 17.519 3.70023 17.4949 3.66168C17.4708 3.62312 17.4393 3.5897 17.4023 3.56331C17.3653 3.53691 17.3234 3.51808 17.2791 3.50787C17.2348 3.49766 17.1889 3.49627 17.144 3.5038C17.0992 3.51132 17.0563 3.52761 17.0177 3.55172C16.6262 3.79483 16.303 4.13351 16.0784 4.53593C15.8541 4.13352 15.5311 3.79483 15.1397 3.55172C15.0617 3.50302 14.9676 3.4873 14.878 3.50802C14.7884 3.52875 14.7107 3.58421 14.662 3.66222C14.6133 3.74023 14.5976 3.83438 14.6183 3.92398C14.639 4.01358 14.6945 4.09127 14.7725 4.13997H14.7719Z" fill="black"/>
<path d="M20.4944 5.86768C20.4926 5.91425 20.5002 5.96071 20.5167 6.00428C20.5333 6.04785 20.5585 6.08763 20.5908 6.12123C20.6231 6.15483 20.6618 6.18156 20.7047 6.19982C20.7476 6.21808 20.7937 6.2275 20.8403 6.2275C20.8869 6.2275 20.933 6.21808 20.9759 6.19982C21.0188 6.18156 21.0575 6.15483 21.0898 6.12123C21.1221 6.08763 21.1473 6.04785 21.1639 6.00428C21.1804 5.96071 21.188 5.91425 21.1861 5.86768C21.1862 5.60218 21.1473 5.33812 21.0708 5.08389C21.0444 4.99575 20.9841 4.9217 20.9032 4.87802C20.8222 4.83434 20.7272 4.82461 20.6391 4.85097C20.5509 4.87733 20.4769 4.93763 20.4332 5.01859C20.3895 5.09955 20.3798 5.19455 20.4061 5.28268C20.4639 5.47235 20.4936 5.66943 20.4944 5.86768V5.86768Z" fill="black"/>
<path d="M15.7327 12.1997V13.6568C15.7308 13.7034 15.7384 13.7498 15.755 13.7934C15.7715 13.837 15.7967 13.8768 15.829 13.9104C15.8613 13.944 15.9001 13.9707 15.9429 13.989C15.9858 14.0072 16.0319 14.0166 16.0785 14.0166C16.1252 14.0166 16.1713 14.0072 16.2142 13.989C16.257 13.9707 16.2958 13.944 16.3281 13.9104C16.3604 13.8768 16.3856 13.837 16.4021 13.7934C16.4187 13.7498 16.4262 13.7034 16.4244 13.6568V12.1986C16.4209 12.1093 16.3829 12.0248 16.3184 11.9628C16.2539 11.9008 16.168 11.8662 16.0785 11.8662C15.9891 11.8662 15.9032 11.9008 15.8387 11.9628C15.7742 12.0248 15.7362 12.1093 15.7327 12.1986V12.1997Z" fill="black"/>
<path d="M18.5721 3.83578C18.9899 3.85806 19.3906 4.00946 19.7188 4.26912C19.7801 4.31843 19.8567 4.34485 19.9354 4.34387C20.0077 4.34435 20.0783 4.32224 20.1374 4.28061C20.1965 4.23899 20.2411 4.17994 20.265 4.11172C20.2888 4.0435 20.2908 3.96952 20.2706 3.90014C20.2503 3.83075 20.2089 3.76943 20.1521 3.72474C19.7108 3.37472 19.1714 3.17099 18.6089 3.14191C18.5632 3.13715 18.517 3.142 18.4733 3.15612C18.4296 3.17025 18.3893 3.19335 18.355 3.22395C18.3208 3.25454 18.2933 3.29196 18.2743 3.33379C18.2553 3.37563 18.2453 3.42097 18.2449 3.46691C18.2419 3.51267 18.248 3.55857 18.2628 3.60196C18.2777 3.64534 18.301 3.68534 18.3315 3.71965C18.3619 3.75396 18.3988 3.78189 18.4401 3.80183C18.4814 3.82176 18.5263 3.8333 18.5721 3.83578Z" fill="black"/>
<path d="M16.0788 11.0874C16.1243 11.0874 16.1693 11.0785 16.2113 11.061C16.2533 11.0436 16.2915 11.0181 16.3236 10.9858C16.3557 10.9536 16.3811 10.9154 16.3984 10.8734C16.4157 10.8313 16.4245 10.7863 16.4244 10.7408V9.28316C16.4262 9.23659 16.4187 9.19012 16.4021 9.14655C16.3856 9.10299 16.3604 9.06321 16.3281 9.02961C16.2958 8.99601 16.257 8.96927 16.2142 8.95101C16.1713 8.93275 16.1252 8.92334 16.0785 8.92334C16.0319 8.92334 15.9858 8.93275 15.9429 8.95101C15.9001 8.96927 15.8613 8.99601 15.829 9.02961C15.7967 9.06321 15.7715 9.10299 15.755 9.14655C15.7384 9.19012 15.7308 9.23659 15.7327 9.28316V10.7408C15.7325 10.7863 15.7414 10.8314 15.7587 10.8735C15.7761 10.9156 15.8016 10.9538 15.8337 10.986C15.8659 11.0183 15.9041 11.0438 15.9462 11.0612C15.9882 11.0786 16.0333 11.0875 16.0788 11.0874V11.0874Z" fill="black"/>
<path d="M16.0788 17.6953C15.987 17.6953 15.899 17.7318 15.8341 17.7967C15.7692 17.8616 15.7327 17.9496 15.7327 18.0414V18.7348C15.7308 18.7813 15.7384 18.8278 15.755 18.8714C15.7715 18.9149 15.7967 18.9547 15.829 18.9883C15.8613 19.0219 15.9001 19.0487 15.9429 19.0669C15.9858 19.0852 16.0319 19.0946 16.0785 19.0946C16.1252 19.0946 16.1713 19.0852 16.2142 19.0669C16.257 19.0487 16.2958 19.0219 16.3281 18.9883C16.3604 18.9547 16.3856 18.9149 16.4021 18.8714C16.4187 18.8278 16.4262 18.7813 16.4244 18.7348V18.0414C16.4244 17.9497 16.388 17.8618 16.3232 17.7969C16.2584 17.732 16.1705 17.6955 16.0788 17.6953V17.6953Z" fill="black"/>
<path d="M14.4536 11.2749C14.4567 11.2429 14.453 11.2106 14.4428 11.1801C14.4326 11.1496 14.4162 11.1215 14.3946 11.0977C13.8578 10.3838 13.2945 9.68941 12.749 8.97929C12.6488 8.84766 12.626 8.84766 12.4944 8.943L12.2956 9.09304C12.1727 9.18404 12.1591 9.21546 12.2588 9.34762C12.6591 9.87033 13.068 10.3838 13.4727 10.9065C13.568 11.0295 13.5545 11.0522 13.4591 11.1476C13.2771 11.3247 13.0957 11.4975 12.9175 11.6795C12.8856 11.7063 12.8613 11.7409 12.847 11.7799C12.8326 11.819 12.8287 11.8611 12.8357 11.9021L12.9088 13.6658C12.9131 13.8521 12.9494 13.8662 13.172 13.9794C13.3947 14.0926 13.4039 14.1067 13.4358 14.5297C13.4629 14.8547 14.2543 20.0434 13.0177 20.0482C12.2496 20.0526 12.2767 19.0391 12.1358 16.5751C12.086 15.7084 11.995 13.3478 11.0086 13.1794V12.6431H10.6354V10.6709H2.71191V21.0211H10.6397V14.9707H11.0124V13.8705C11.4999 13.916 11.5714 16.1071 11.599 16.6114C11.7615 19.4389 11.735 20.6029 13.0215 20.598C14.9628 20.5888 14.0506 15.4159 13.9807 14.4978C13.9537 14.1571 13.9629 14.1392 14.2261 14.0298C14.4856 13.9296 14.5305 13.8976 14.5262 13.6934L14.4536 11.2749ZM9.77579 15.8931H3.57479V11.6459H9.77579V15.8931ZM13.7218 13.525C13.5263 13.5206 13.5171 13.5071 13.5127 13.298L13.4624 12.0933C13.458 12.0023 13.4987 11.9747 13.5534 11.9157C13.835 11.634 13.8535 11.6475 13.867 12.0386L13.9033 13.3343C13.9082 13.5157 13.8946 13.5342 13.7218 13.525V13.525Z" fill="black"/>
<path d="M2.71191 22.1043V22.8572H10.6397V22.1043V21.5664H2.71191V22.1043Z" fill="black"/>
</svg>
