<svg width="26" height="26" viewBox="0 0 26 26" fill="none" xmlns="http://www.w3.org/2000/svg">
<path fill-rule="evenodd" clip-rule="evenodd" d="M13 22.75C16.575 22.75 19.5 19.825 19.5 16.25C19.5 12.6208 17.3333 8.2875 13 3.25C8.66667 8.2875 6.5 12.6208 6.5 16.25C6.5 19.825 9.425 22.75 13 22.75ZM13 20.5833C10.5083 20.5833 8.6125 18.6875 8.66667 16.25C8.66667 15.8167 9.04583 15.4375 9.47917 15.4375C9.9125 15.4375 10.2917 15.8167 10.2917 16.25C10.2917 17.7667 11.4833 18.9583 13 18.9583C13.4333 18.9583 13.8125 19.3375 13.8125 19.7708C13.8125 20.2042 13.4333 20.5833 13 20.5833Z" fill="black"/>
</svg>
