<svg width="26" height="26" viewBox="0 0 26 26" fill="none" xmlns="http://www.w3.org/2000/svg">
<path d="M14.8855 9.54972C13.813 9.54972 12.9463 8.67764 12.9463 7.61055C12.9463 6.54347 13.8184 5.67139 14.8855 5.67139C15.9525 5.67139 16.8246 6.54347 16.8246 7.61055C16.8246 8.67764 15.958 9.54972 14.8855 9.54972ZM14.8855 6.75472C14.4142 6.75472 14.0296 7.1393 14.0296 7.61055C14.0296 8.0818 14.4142 8.46639 14.8855 8.46639C15.3567 8.46639 15.7413 8.0818 15.7413 7.61055C15.7413 7.1393 15.3621 6.75472 14.8855 6.75472Z" fill="black"/>
<path d="M9.55492 13.5962C8.06534 13.5962 6.85742 12.3828 6.85742 10.8987C6.85742 9.4145 8.07075 8.20117 9.55492 8.20117C11.0391 8.20117 12.2524 9.4145 12.2524 10.8987C12.2524 12.3828 11.0445 13.5962 9.55492 13.5962ZM9.55492 9.27909C8.66117 9.27909 7.94076 10.0049 7.94076 10.8933C7.94076 11.787 8.66659 12.5074 9.55492 12.5074C10.4433 12.5074 11.1691 11.7816 11.1691 10.8933C11.1691 10.0049 10.4433 9.27909 9.55492 9.27909Z" fill="black"/>
<path d="M22.3384 6.08846L22.3113 5.70388L13 2.6543L3.68879 5.70388L3.66171 6.08846C3.39629 9.89096 4.02462 13.2872 5.53046 16.1851C7.07421 19.1535 9.49546 21.5151 12.7346 23.2051L13 23.346L13.2655 23.2051C16.5046 21.5151 18.9259 19.1535 20.4696 16.1851C21.9755 13.2872 22.6038 9.89096 22.3384 6.08846ZM19.4567 15.6597C18.0646 18.3355 15.8925 20.486 13 22.0514C10.3621 20.6214 8.33087 18.7093 6.93337 16.3585C7.43712 15.9955 8.05462 15.7843 8.72087 15.7843C9.35462 15.7843 9.96671 15.9793 10.4867 16.3422L11.0175 16.716L11.2884 16.1255C11.9709 14.6305 13.4767 13.6664 15.118 13.6664C15.8059 13.6664 16.483 13.8343 17.0896 14.1539L17.7559 14.506L17.8805 13.7639C18.1025 12.4151 19.2563 11.4401 20.6213 11.4401C20.7188 11.4401 20.8109 11.4455 20.903 11.4564C20.6105 12.9568 20.1284 14.3651 19.4567 15.6597ZM21.0817 10.3839C20.93 10.3676 20.7784 10.3568 20.6213 10.3568C18.953 10.3568 17.5175 11.4022 16.9813 12.9189C16.3909 12.6968 15.7571 12.583 15.118 12.583C13.2546 12.583 11.5375 13.5689 10.5842 15.1397C10.01 14.8472 9.37087 14.6955 8.71546 14.6955C7.85962 14.6955 7.06879 14.9555 6.40796 15.3997C5.14587 12.8485 4.59337 9.87471 4.77212 6.5543L13 3.8568L21.2171 6.5543C21.293 7.8868 21.2442 9.16513 21.0817 10.3839Z" fill="black"/>
</svg>
