<svg width="26" height="26" viewBox="0 0 26 26" fill="none" xmlns="http://www.w3.org/2000/svg">
<path d="M18.0532 1.97021H7.86992C7.71142 1.97014 7.55445 2.00131 7.408 2.06193C7.26155 2.12256 7.12848 2.21145 7.0164 2.32353C6.90432 2.43561 6.81543 2.56868 6.75481 2.71513C6.69418 2.86158 6.66301 3.01854 6.66309 3.17705V22.2437C6.66309 22.5638 6.79023 22.8707 7.01656 23.0971C7.24288 23.3234 7.54985 23.4505 7.86992 23.4505H18.0532C18.3733 23.4505 18.6803 23.3234 18.9066 23.0971C19.1329 22.8707 19.2601 22.5638 19.2601 22.2437V3.17705C19.2602 3.01854 19.229 2.86158 19.1684 2.71513C19.1077 2.56868 19.0188 2.43561 18.9068 2.32353C18.7947 2.21145 18.6616 2.12256 18.5152 2.06193C18.3687 2.00131 18.2118 1.97014 18.0532 1.97021V1.97021ZM15.0925 21.5937C15.0925 21.7795 15.0187 21.9576 14.8874 22.089C14.756 22.2203 14.5779 22.2941 14.3921 22.2941H11.5327C11.3471 22.2938 11.1691 22.2199 11.0379 22.0886C10.9067 21.9573 10.833 21.7793 10.8328 21.5937V21.4637C10.8337 21.2781 10.9078 21.1003 11.0391 20.969C11.1703 20.8378 11.3481 20.7637 11.5338 20.7628H14.3932C14.579 20.7629 14.7572 20.8369 14.8885 20.9683C15.0198 21.0997 15.0936 21.2779 15.0936 21.4637L15.0925 21.5937ZM18.0717 19.0674C18.0715 19.166 18.0323 19.2605 17.9625 19.3302C17.8927 19.3998 17.7981 19.439 17.6995 19.439H8.22742C8.17841 19.4392 8.12985 19.4297 8.08451 19.4111C8.03918 19.3925 7.99796 19.3651 7.96324 19.3305C7.92851 19.296 7.90095 19.2549 7.88215 19.2096C7.86335 19.1644 7.85367 19.1158 7.85367 19.0668V3.56163C7.85367 3.50831 7.86418 3.45551 7.8846 3.40625C7.90503 3.35699 7.93496 3.31224 7.97269 3.27456C8.01042 3.23688 8.05521 3.20701 8.10449 3.18665C8.15378 3.16629 8.2066 3.15585 8.25992 3.15592H17.6633C17.7166 3.15585 17.7694 3.16629 17.8187 3.18665C17.868 3.20701 17.9127 3.23688 17.9505 3.27456C17.9882 3.31224 18.0181 3.35699 18.0386 3.40625C18.059 3.45551 18.0695 3.50831 18.0695 3.56163L18.0717 19.0674Z" fill="black"/>
</svg>
