<svg width="26" height="26" viewBox="0 0 26 26" fill="none" xmlns="http://www.w3.org/2000/svg">
<path d="M23.5883 12.7945L22.8901 12.6785C22.7253 12.6505 22.5755 12.5656 22.4667 12.4387C22.3578 12.3118 22.2969 12.1508 22.2943 11.9836C22.2761 11.3347 22.0553 10.7077 21.6627 10.1907C21.1443 9.4968 20.3676 8.99901 19.4749 8.78234C18.6261 8.57922 17.7849 8.76501 16.9919 8.99901C15.4915 9.44155 15.2694 8.05759 13.6905 7.52947C13.0607 7.31073 12.3845 7.26123 11.7296 7.38592C10.798 7.57442 10.3641 7.08692 10.1669 6.72617C9.74926 5.98183 9.09637 5.39715 8.31064 5.0638C7.46835 4.69872 6.54697 4.63047 5.71606 4.87638C5.094 5.05366 4.54266 5.4204 4.13872 5.92559C4.03614 6.05725 3.89074 6.14887 3.72771 6.18458C3.56467 6.2203 3.39428 6.19785 3.24606 6.12113L2.75097 5.8633C2.70475 5.83935 2.65279 5.82868 2.60087 5.83247C2.54895 5.83626 2.49909 5.85437 2.45684 5.88478C2.41459 5.91519 2.38159 5.95672 2.36151 6.00476C2.34143 6.05279 2.33506 6.10545 2.3431 6.15688C2.0636 7.03601 1.67468 8.94647 2.67081 10.9452C2.82196 11.3024 3.02671 11.6345 3.27801 11.93C4.46968 13.3302 5.90943 12.7928 6.21926 14.6215C6.36389 15.4757 6.68889 16.3191 7.33456 16.9718C7.98022 17.6245 8.80735 18.0757 9.67239 18.112C11.0266 18.1662 10.8554 19.7836 12.3325 21.082C12.5009 21.2294 12.6822 21.3614 12.8742 21.4763C15.0501 22.8819 17.2449 22.4708 18.2101 22.1756C18.2601 22.1604 18.3048 22.1316 18.3394 22.0924C18.3739 22.0532 18.3968 22.0052 18.4057 21.9537C18.4145 21.9023 18.4088 21.8493 18.3893 21.8009C18.3698 21.7525 18.3372 21.7104 18.2952 21.6794L17.7248 21.2607C17.5904 21.1612 17.4951 21.0177 17.4555 20.8552C17.4159 20.6927 17.4345 20.5215 17.5081 20.3713C17.7849 19.7841 17.8711 19.125 17.7546 18.4863C17.6062 17.6332 17.1387 16.8364 16.4389 16.2427C15.7737 15.6783 14.939 15.4633 14.1265 15.3132C13.1255 15.1285 12.9571 14.5007 12.6391 13.7532C13.2116 13.8074 13.7809 13.7386 14.2863 13.5084C15.5213 12.9461 16.0971 14.465 18.0016 14.9557C18.2182 15.0112 18.4394 15.0475 18.6624 15.064C21.2386 15.3349 23.0104 13.9753 23.7384 13.2765C23.7764 13.2403 23.8035 13.1942 23.8167 13.1434C23.8299 13.0926 23.8286 13.0391 23.813 12.9889C23.7974 12.9388 23.7681 12.894 23.7284 12.8597C23.6887 12.8253 23.6402 12.8027 23.5883 12.7945ZM7.27876 11.7832C6.4121 12.5009 5.0146 12.242 4.15335 11.2041C3.33056 10.2134 3.29643 8.87063 4.04881 8.1253C4.08401 8.09009 4.12139 8.05651 4.15714 8.02455C5.02381 7.3063 6.42185 7.56576 7.2831 8.60305C8.10535 9.5943 8.14001 10.9371 7.38764 11.6808C7.35514 11.7171 7.31776 11.7507 7.27876 11.7832V11.7832ZM11.3071 16.4762C10.5082 17.267 9.09172 17.131 8.14326 16.1723C7.19481 15.2135 7.07347 13.7955 7.87243 13.0052C8.67139 12.2149 10.0878 12.3503 11.0363 13.309C11.9848 14.2678 12.1066 15.6859 11.3071 16.4762V16.4762ZM15.7017 17.1105C16.7308 17.9825 16.9741 19.3855 16.2471 20.2424C16.2141 20.2808 16.18 20.3177 16.1448 20.3507C15.3924 21.095 14.0501 21.0462 13.0681 20.2131C12.0389 19.341 11.7957 17.9381 12.5226 17.0818C12.5559 17.0435 12.59 17.0074 12.625 16.9734C13.379 16.2286 14.7191 16.2774 15.7017 17.1105V17.1105Z" fill="black"/>
</svg>
