<svg width="26" height="26" viewBox="0 0 26 26" fill="none" xmlns="http://www.w3.org/2000/svg">
<path fill-rule="evenodd" clip-rule="evenodd" d="M12.4926 15.2129V20.6371C12.3701 19.9633 12.1253 19.4731 11.6963 19.0441C10.9613 18.3091 10.0426 18.1233 8.32715 18.1233C8.32715 19.8382 8.51132 20.7574 9.24798 21.4924C9.95215 22.1966 10.8405 22.4133 12.4942 22.4133V24.3551H13.3522V21.2541C15.0059 21.2541 15.8942 21.0374 16.5989 20.3333C17.334 19.5977 17.5198 18.679 17.5198 16.9641C15.8043 16.9641 14.8856 17.1477 14.1506 17.8849C13.7216 18.3139 13.4768 18.8058 13.3544 19.4774V15.2129L12.9254 14.8066L12.4926 15.2129Z" fill="black"/>
<path d="M9.2242 4.35927L7.27637 3.75098L7.88466 5.69881L9.11316 5.58831L9.2242 4.35927Z" fill="black"/>
<path d="M7.53631 9.39654L6.74602 8.44971L4.93848 9.39654L6.74602 10.3439L7.53631 9.39654Z" fill="black"/>
<path d="M9.1137 13.2048L7.88466 13.0938L7.27637 15.0416L9.2242 14.4333L9.1137 13.2048Z" fill="black"/>
<path d="M16.6191 14.4333L18.567 15.0416L17.9587 13.0938L16.7302 13.2048L16.6191 14.4333Z" fill="black"/>
<path d="M18.3076 9.39654L19.0979 10.3439L20.9055 9.39654L19.0979 8.44971L18.3076 9.39654Z" fill="black"/>
<path d="M16.7302 5.58831L17.9587 5.69881L18.567 3.75098L16.6191 4.35927L16.7302 5.58831Z" fill="black"/>
<path d="M13.8684 3.22014L12.921 1.4126L11.9736 3.22014L12.921 4.01097L13.8684 3.22014Z" fill="black"/>
<path d="M10.6984 5.02217L10.8192 4.96259C10.8696 4.93876 10.92 4.91601 10.9709 4.89434C10.9974 4.88242 11.0251 4.87051 11.0516 4.85967L11.1171 4.83313C11.1681 4.81309 11.2195 4.79305 11.271 4.77463C11.3143 4.75892 11.3576 4.7443 11.401 4.72967C11.7697 4.60818 12.1515 4.53091 12.5385 4.49946L11.8343 3.91067L11.6718 3.77742L11.512 3.64417L10.0251 2.4043L9.85126 4.33371L9.83284 4.54117L9.81388 4.74863L9.73047 5.66946C10.0263 5.41604 10.3512 5.19875 10.6984 5.02217V5.02217Z" fill="black"/>
<path d="M7.30281 8.14572L7.43606 8.30822L8.0319 9.02484C8.06226 8.63333 8.13955 8.24688 8.2621 7.8738C8.27438 7.83769 8.28738 7.79977 8.3011 7.76005C8.32115 7.70317 8.34281 7.64684 8.36502 7.59051C8.37477 7.56613 8.38398 7.54176 8.39373 7.51792L8.41973 7.45726C8.44356 7.40309 8.46794 7.34893 8.4934 7.29476C8.51127 7.25793 8.52915 7.22109 8.54756 7.18643C8.72326 6.83679 8.94021 6.50945 9.19377 6.21143L8.26915 6.29484L8.06169 6.3138L7.85423 6.33222L5.92969 6.50013L7.16902 7.98592L7.30281 8.14572Z" fill="black"/>
<path d="M8.06299 12.4858L8.27045 12.5047L9.20103 12.5887C8.94589 12.2895 8.72766 11.9607 8.55103 11.6094C8.5337 11.5747 8.51691 11.54 8.50012 11.5054C8.4734 11.449 8.44794 11.3921 8.42374 11.3347L8.39612 11.2714C8.38745 11.2502 8.37933 11.2291 8.37066 11.2074C8.34791 11.1495 8.3257 11.0915 8.30458 11.033C8.29158 10.9967 8.27912 10.9599 8.2672 10.9247C8.14364 10.551 8.06561 10.1638 8.03483 9.77148L7.43899 10.4892L7.30574 10.649L7.17195 10.8115L5.93262 12.2967L7.85391 12.4668L8.06299 12.4858Z" fill="black"/>
<path d="M11.3963 14.0558C11.3579 14.0428 11.3189 14.0298 11.2804 14.0158C11.2262 13.9957 11.1683 13.9741 11.1125 13.9518L11.0513 13.9275L10.9792 13.8966C10.9251 13.8728 10.8709 13.8478 10.8167 13.8218L10.7084 13.7677C10.3586 13.5907 10.0313 13.3725 9.7334 13.1177L9.81736 14.0477L9.83577 14.2552L9.85473 14.4621L10.0286 16.3888L11.5139 15.1495L11.6736 15.0162L11.8361 14.883L12.5495 14.2871C12.1572 14.2567 11.77 14.179 11.3963 14.0558Z" fill="black"/>
<path d="M15.1462 13.772L15.0227 13.8321C14.9729 13.8554 14.9225 13.8776 14.8722 13.8993L14.8072 13.9274L14.7259 13.9599C14.6717 13.9805 14.6224 14 14.5704 14.0184C14.5277 14.0336 14.4854 14.0477 14.4426 14.0618C14.0724 14.1827 13.6891 14.2591 13.3008 14.2893L14.0125 14.8851L14.1723 15.0184L14.3348 15.1516L15.8163 16.3888L15.9912 14.4626L16.0102 14.2557L16.0286 14.0482L16.1115 13.1328C15.8162 13.3833 15.4921 13.5979 15.1462 13.772V13.772Z" fill="black"/>
<path d="M18.5416 10.6477L18.4078 10.4879L17.8239 9.78809C17.7925 10.1707 17.7162 10.5484 17.5964 10.9131C17.5807 10.9613 17.5644 11.009 17.5471 11.0567C17.5297 11.1043 17.5124 11.1504 17.4929 11.197C17.4826 11.2219 17.4729 11.2468 17.4631 11.2712C17.4534 11.2955 17.4387 11.3253 17.4263 11.3562C17.4062 11.4028 17.3857 11.4483 17.3645 11.4938C17.3434 11.5393 17.3207 11.5837 17.2979 11.6281C17.1232 11.9718 16.9085 12.2936 16.6582 12.5869L17.5715 12.5045L17.7789 12.4856L17.9864 12.4666L19.9131 12.2928L18.6737 10.8075L18.5416 10.6477Z" fill="black"/>
<path d="M17.5501 7.73291C17.568 7.7822 17.5848 7.83203 17.601 7.88132C17.7199 8.24568 17.7955 8.62274 17.8264 9.00474L18.4097 8.30545L18.5435 8.14295L18.6768 7.98045L19.914 6.50007L17.9872 6.3262L17.7798 6.30778L17.5723 6.28882L16.665 6.20703C16.9134 6.49903 17.1267 6.81918 17.3004 7.16091C17.3237 7.20749 17.347 7.25407 17.3692 7.30174C17.3914 7.34941 17.4093 7.38895 17.4282 7.43282L17.464 7.51516C17.4754 7.54278 17.4862 7.56932 17.497 7.59803C17.5144 7.64299 17.5317 7.68795 17.5501 7.73291Z" fill="black"/>
<path d="M14.4385 4.72371C14.4862 4.73888 14.5333 4.75513 14.5804 4.77192C14.6276 4.78871 14.6747 4.80659 14.7218 4.82609L14.8074 4.86076L14.8816 4.89217C14.9271 4.91221 14.9731 4.9328 15.0181 4.95392C15.0631 4.97505 15.1096 4.99726 15.1546 5.02001C15.4972 5.19372 15.8182 5.40696 16.1112 5.65538L16.0288 4.74701L16.0104 4.53955L15.9915 4.33371L15.8165 2.4043L14.3323 3.64417L14.1698 3.77742L14.0101 3.91067L13.3086 4.49621C13.6929 4.52723 14.0722 4.60359 14.4385 4.72371V4.72371Z" fill="black"/>
<path d="M16.5356 7.33763C16.4378 7.16595 16.3279 7.00141 16.2068 6.84525C16.1684 6.79596 16.1288 6.74721 16.0882 6.69955C16.0341 6.634 15.9739 6.56955 15.9143 6.5078C15.8797 6.47205 15.845 6.43792 15.8098 6.4038C15.7477 6.34385 15.6838 6.28589 15.6181 6.22992C15.5698 6.1893 15.5211 6.1503 15.4718 6.11184C15.3157 5.99185 15.1511 5.88324 14.9794 5.78684C14.9253 5.75596 14.8711 5.72617 14.8137 5.698C14.7378 5.65973 14.6609 5.62362 14.5829 5.58967C14.5358 5.56909 14.4881 5.54959 14.4405 5.53063C14.3609 5.49975 14.278 5.47159 14.2 5.44505C14.1404 5.42609 14.0803 5.40821 14.0201 5.39088C13.8297 5.33905 13.6358 5.30068 13.44 5.27605C13.3777 5.26846 13.3154 5.26196 13.2531 5.25709C13.1692 5.25005 13.0847 5.24625 13.0002 5.24463C12.946 5.24463 12.8951 5.24463 12.842 5.24463C12.7581 5.24463 12.6736 5.25059 12.5896 5.25763C12.5271 5.26268 12.4648 5.26918 12.4027 5.27713C12.207 5.30213 12.0133 5.34123 11.8231 5.39413C11.763 5.41092 11.7034 5.4288 11.6433 5.4483C11.5653 5.47375 11.4879 5.50246 11.4104 5.53225L11.34 5.56042L11.2549 5.59671C11.1791 5.6303 11.1047 5.66641 11.0318 5.70505C10.9776 5.73375 10.9234 5.76355 10.8693 5.79442C10.698 5.89208 10.534 6.00196 10.3785 6.12321C10.3292 6.16167 10.2805 6.20175 10.2328 6.24184C10.1703 6.29528 10.1099 6.34945 10.0514 6.40434C10.0096 6.44442 9.96902 6.48559 9.92948 6.5273C9.87314 6.58652 9.81898 6.647 9.76698 6.70875C9.72635 6.75642 9.68681 6.80517 9.64889 6.855C9.52908 7.01088 9.42047 7.17505 9.32389 7.3463C9.29302 7.40046 9.26323 7.45463 9.23506 7.51205C9.19877 7.58355 9.1641 7.65559 9.13214 7.72871C9.10777 7.78288 9.08448 7.8403 9.06281 7.89717C9.0341 7.97138 9.00864 8.04667 8.98264 8.12305C8.96368 8.18263 8.94581 8.24275 8.92848 8.30288C8.87634 8.49288 8.83796 8.6864 8.81364 8.88192C8.80552 8.94367 8.79902 9.00596 8.79414 9.06826C8.78764 9.14788 8.78385 9.22696 8.78223 9.30713C8.78223 9.36816 8.78223 9.42937 8.78223 9.49076C8.78223 9.57038 8.78818 9.64946 8.79468 9.72909C8.79974 9.79156 8.80624 9.85385 8.81418 9.91596C8.83889 10.1113 8.87745 10.3046 8.92956 10.4945C8.94635 10.5546 8.96423 10.6147 8.98373 10.6743C9.0081 10.749 9.03464 10.8233 9.06335 10.8975C9.07473 10.9262 9.0861 10.9554 9.09802 10.9847C9.10993 11.0139 9.12239 11.0421 9.13539 11.0708C9.16735 11.1434 9.20093 11.2149 9.23668 11.2848C9.26485 11.3389 9.29464 11.3958 9.32552 11.45C9.42211 11.621 9.53072 11.785 9.65052 11.9407C9.68898 11.9905 9.72852 12.0393 9.76914 12.0864C9.82042 12.1475 9.87368 12.2067 9.92893 12.2641C9.97118 12.3085 10.0145 12.3518 10.0589 12.3941C10.1164 12.4483 10.1754 12.5024 10.2361 12.5566C10.2837 12.5972 10.3325 12.6362 10.3818 12.6747C10.5362 12.7955 10.6991 12.905 10.8693 13.0024C10.9234 13.0338 10.9776 13.0636 11.0345 13.0918C11.106 13.1286 11.178 13.1627 11.2511 13.1952C11.3053 13.2196 11.3627 13.2429 11.4191 13.2651C11.4933 13.2943 11.5691 13.3193 11.6449 13.3458C11.7045 13.3653 11.7646 13.3832 11.8248 13.4C12.0148 13.4511 12.2084 13.4886 12.4038 13.5121C12.4661 13.5202 12.5284 13.5267 12.5907 13.5321C12.6719 13.5386 12.7532 13.543 12.835 13.5446C12.8924 13.5446 12.9503 13.5446 13.0078 13.5446C13.0896 13.5446 13.1703 13.5392 13.2526 13.5327C13.3149 13.5278 13.3772 13.5213 13.4395 13.5137C13.6352 13.4896 13.8289 13.4514 14.0191 13.3994C14.0792 13.3826 14.1393 13.3648 14.1989 13.3453C14.2769 13.3203 14.3549 13.2911 14.4318 13.2629L14.5179 13.2283L14.5878 13.1985C14.6636 13.1656 14.7382 13.1306 14.8115 13.0934C14.8657 13.0647 14.9231 13.0349 14.9773 13.0045C15.1488 12.908 15.3134 12.7994 15.4696 12.6795C15.5195 12.6411 15.5677 12.6015 15.6153 12.5615C15.68 12.5069 15.7426 12.4504 15.8033 12.3919C15.8418 12.3556 15.8786 12.3183 15.9154 12.2803C15.9739 12.2193 16.0306 12.1568 16.0855 12.0929C16.1261 12.0453 16.1657 11.9965 16.2041 11.9472C16.3252 11.7914 16.4351 11.6273 16.5329 11.4559C16.5638 11.4018 16.5936 11.3476 16.6223 11.2907C16.6613 11.2149 16.6974 11.138 16.7306 11.06C16.7512 11.0128 16.7713 10.9657 16.7897 10.9175C16.8211 10.8384 16.85 10.7584 16.8763 10.6775C16.8958 10.618 16.9137 10.5578 16.9305 10.4977C16.9831 10.3074 17.0221 10.1135 17.047 9.91759C17.0549 9.85512 17.0614 9.79282 17.0665 9.73071C17.0735 9.64513 17.0778 9.55846 17.0795 9.47234C17.0795 9.42305 17.0795 9.3743 17.0795 9.325C17.0795 9.23888 17.0735 9.15221 17.0665 9.06609C17.0616 9.0038 17.0551 8.9415 17.0475 8.87921C17.0228 8.68313 16.9841 8.48908 16.9316 8.29855C16.9153 8.23842 16.8969 8.17884 16.8774 8.11871C16.8507 8.03746 16.8215 7.95639 16.7897 7.8755C16.781 7.85275 16.7718 7.82946 16.7621 7.80671C16.7523 7.78396 16.7431 7.76121 16.7328 7.73846C16.6989 7.65866 16.6628 7.58066 16.6245 7.50446C16.5958 7.44705 16.566 7.3918 16.5356 7.33763Z" fill="black"/>
</svg>
