<svg width="26" height="26" viewBox="0 0 26 26" fill="none" xmlns="http://www.w3.org/2000/svg">
<path d="M9.82715 17.6807L10.7631 23.4739H11.9944L11.0269 17.4868L9.82715 17.6807Z" fill="black"/>
<path d="M11.3493 13.9101L10.1494 14.104L10.3433 15.3039L11.5433 15.11L11.3493 13.9101Z" fill="black"/>
<path d="M11.072 12.1933L9.87207 12.3872L10.066 13.5871L11.2659 13.3932L11.072 12.1933Z" fill="black"/>
<path d="M11.7613 13.3139L11.9005 13.2911L12.1074 12.0269L11.5674 12.1141L11.7613 13.3139Z" fill="black"/>
<path d="M9.66477 14.1825L8.46484 14.3765L8.65876 15.5764L9.85869 15.3825L9.66477 14.1825Z" fill="black"/>
<path d="M7.96849 14.4565L6.76855 14.6504L6.96247 15.8503L8.1624 15.6564L7.96849 14.4565Z" fill="black"/>
<path d="M9.38743 12.4658L8.1875 12.6597L8.38142 13.8596L9.58135 13.6657L9.38743 12.4658Z" fill="black"/>
<path d="M7.69114 12.7397L6.49121 12.9336L6.68513 14.1335L7.88506 13.9396L7.69114 12.7397Z" fill="black"/>
<path d="M10.7947 10.4765L9.59473 10.6704L9.78864 11.8703L10.9886 11.6764L10.7947 10.4765Z" fill="black"/>
<path d="M11.484 11.5964L12.1968 11.4816L12.4037 10.2168L11.29 10.3966L11.484 11.5964Z" fill="black"/>
<path d="M10.5173 8.7597L9.31738 8.95361L9.5113 10.1535L10.7112 9.95963L10.5173 8.7597Z" fill="black"/>
<path d="M12.2126 8.48577L11.0127 8.67969L11.2066 9.87962L12.4065 9.6857L12.2126 8.48577Z" fill="black"/>
<path d="M9.11009 10.7485L7.91016 10.9424L8.10407 12.1423L9.30401 11.9484L9.11009 10.7485Z" fill="black"/>
<path d="M7.41282 11.0229L6.21289 11.2168L6.40681 12.4167L7.60674 12.2228L7.41282 11.0229Z" fill="black"/>
<path d="M11.6277 15.6274L10.4277 15.8213L10.6217 17.0212L11.8216 16.8273L11.6277 15.6274Z" fill="black"/>
<path d="M9.94115 15.9003L8.74121 16.0942L8.93513 17.2942L10.1351 17.1003L9.94115 15.9003Z" fill="black"/>
<path d="M8.83177 9.03118L7.63184 9.2251L7.82575 10.425L9.02568 10.2311L8.83177 9.03118Z" fill="black"/>
<path d="M7.13645 9.30608L5.93652 9.5L6.13044 10.6999L7.33037 10.506L7.13645 9.30608Z" fill="black"/>
<path d="M10.24 7.04241L9.04004 7.23633L9.23396 8.43626L10.4339 8.24234L10.24 7.04241Z" fill="black"/>
<path d="M11.9353 6.76849L10.7354 6.9624L10.9293 8.16234L12.1292 7.96842L11.9353 6.76849Z" fill="black"/>
<path d="M8.55443 7.31487L7.35449 7.50879L7.54841 8.70872L8.74834 8.51481L8.55443 7.31487Z" fill="black"/>
<path d="M6.85813 7.58831L5.6582 7.78223L5.85212 8.98216L7.05205 8.78824L6.85813 7.58831Z" fill="black"/>
<path d="M9.96263 5.32561L8.7627 5.51953L8.95661 6.71946L10.1565 6.52555L9.96263 5.32561Z" fill="black"/>
<path d="M11.6579 5.0512L10.458 5.24512L10.6519 6.44505L11.8519 6.25113L11.6579 5.0512Z" fill="black"/>
<path d="M10.4929 3.47796L9.29297 3.67188L9.48689 4.87181L10.6868 4.67789L10.4929 3.47796Z" fill="black"/>
<path d="M8.27708 5.59759L7.07715 5.7915L7.27107 6.99143L8.471 6.79752L8.27708 5.59759Z" fill="black"/>
<path d="M6.58079 5.87151L5.38086 6.06543L5.57478 7.26536L6.77471 7.07144L6.58079 5.87151Z" fill="black"/>
<path d="M8.80833 3.75042L7.6084 3.94434L7.80232 5.14427L9.00225 4.95035L8.80833 3.75042Z" fill="black"/>
<path d="M7.11204 4.02483L5.91211 4.21875L6.10603 5.41868L7.30596 5.22476L7.11204 4.02483Z" fill="black"/>
<path d="M9.37865 1.89593L8.17871 2.08984L8.37263 3.28978L9.57256 3.09586L9.37865 1.89593Z" fill="black"/>
<path d="M7.68235 2.17034L6.48242 2.36426L6.67634 3.56419L7.87627 3.37027L7.68235 2.17034Z" fill="black"/>
<path d="M16.3639 9.55313L16.3888 9.40309L16.4387 9.09597L16.4739 8.87984L16.4988 8.72926L16.5297 8.54184L16.3341 8.50988L16.2334 8.49309L16.1592 8.48117L15.689 8.40426L15.514 8.37555L15.3299 8.34521L15.3006 8.52505L15.2746 8.68376L15.189 9.20647L15.163 9.36572L15.1338 9.54501L15.318 9.5748L15.4929 9.60351L15.9625 9.68042L16.1375 9.70913L16.333 9.74109L16.3639 9.55313Z" fill="black"/>
<path d="M14.7344 7.71662L14.9185 7.74695L14.9478 7.56766L14.9738 7.40841L15.0594 6.8857L15.0854 6.72591L15.1146 6.5477L14.9305 6.51737L14.7555 6.48866L13.9154 6.35107L13.8596 6.68962L13.774 7.21232L13.7188 7.55087L14.5594 7.68791L14.7344 7.71662Z" fill="black"/>
<path d="M17.0579 2.81003L17.2497 2.84091L17.4176 2.86853L17.4728 2.52999L17.6137 1.66928L17.2545 1.61024L16.4144 1.47266L16.273 2.33391L16.2178 2.67245L16.3857 2.69953L17.0579 2.81003Z" fill="black"/>
<path d="M17.0114 13.9071L16.5412 13.8307L16.3662 13.802L16.1707 13.77L16.1404 13.9569L16.1154 14.108L16.1014 14.1925L16.0299 14.6307L16.0055 14.7819L15.9746 14.9693L16.1702 15.0012L16.3451 15.0299L16.8147 15.1069L17.1739 15.1659L17.2297 14.8274L17.3152 14.3046L17.3412 14.1449L17.3705 13.9661L17.1863 13.9358L17.0114 13.9071Z" fill="black"/>
<path d="M18.2257 14.1069L18.0507 14.0782L17.8665 14.0479L17.8368 14.2271L17.8108 14.3864L17.6992 15.0684L17.6699 15.2476L17.8541 15.2774L18.029 15.3061L18.4136 15.369L18.8697 15.4437L18.9634 14.8696L19.0105 14.5825L19.0658 14.2439L18.77 14.1957L18.2257 14.1069Z" fill="black"/>
<path d="M17.4676 12.22L17.2921 12.1913L16.8224 12.1144L16.648 12.0857L16.4519 12.0537L16.4211 12.2417L16.3967 12.3923L16.3111 12.915L16.2862 13.0655L16.2559 13.253L16.4514 13.2849L16.6264 13.3136L17.096 13.3905L17.2709 13.4193L17.4551 13.4496L17.4844 13.2698L17.5104 13.111L17.5959 12.5883L17.6225 12.4285L17.6517 12.2498L17.5033 12.226L17.4676 12.22Z" fill="black"/>
<path d="M18.5069 12.3901L18.3314 12.3614L18.1473 12.3311L18.118 12.5109L18.092 12.6696L18.0064 13.1923L17.9804 13.3521L17.9512 13.5308L18.1353 13.5606L18.3103 13.5893L19.1504 13.7269L19.2062 13.3889L19.249 13.1273L19.2918 12.8662L19.347 12.5277L18.898 12.454L18.5069 12.3901Z" fill="black"/>
<path d="M15.5207 14.7025L15.5451 14.552L15.6307 14.0293L15.6556 13.8781L15.6865 13.6907L15.4904 13.6588L15.3154 13.63L14.8458 13.5531L14.6708 13.5244L14.4867 13.4946L14.4574 13.6739L14.4314 13.8326L14.3458 14.3553L14.29 14.6939L14.6497 14.7529L15.1193 14.8293L15.2937 14.858L15.4898 14.89L15.5207 14.7025Z" fill="black"/>
<path d="M13.7945 14.6127L13.8238 14.4334L13.9353 13.7514L13.9613 13.5922L13.9906 13.4134L13.8427 13.389L13.8064 13.3831L13.6315 13.3544L12.7914 13.2168L12.7356 13.5553L12.7139 13.6902L12.5947 14.416L13.1868 14.513L13.2204 14.519L13.4348 14.5542L13.6103 14.5823L13.7945 14.6127Z" fill="black"/>
<path d="M15.8014 12.9863L15.8263 12.8352L15.9119 12.3125L15.9179 12.2756L15.9368 12.1613L15.9672 11.9739L15.7716 11.942L15.5967 11.9132L15.127 11.8363L14.9526 11.8082L14.7679 11.7778L14.7403 11.9463L14.7387 11.9571L14.7121 12.1158L14.6265 12.6391L14.6005 12.7983L14.5713 12.9771L14.7555 13.0074L14.9304 13.0361L14.971 13.0426L15.4006 13.113L15.5755 13.1417L15.7711 13.1737L15.8014 12.9863Z" fill="black"/>
<path d="M13.2134 12.755L13.7161 12.8374L13.8911 12.8661L14.0752 12.8959L14.105 12.7166L14.131 12.5579L14.2166 12.0352L14.2426 11.8754L14.2719 11.6966L14.0877 11.6663L13.9127 11.6376L13.8526 11.6278L13.0721 11.5L13.0228 11.8017L13.0168 11.8385L12.9312 12.3613L12.8852 12.6445L12.876 12.6998L12.8944 12.7025L13.2134 12.755Z" fill="black"/>
<path d="M16.8324 11.5854L16.9066 11.5973L17.3768 11.6742L17.5512 11.7029L17.7359 11.7333L17.7652 11.554L17.7912 11.3947L17.8768 10.872L17.9028 10.7128L17.932 10.534L17.7478 10.5037L17.705 10.4967L17.5729 10.475L17.3324 10.4354L17.1033 10.3981L16.9283 10.3694L16.7328 10.3374L16.7019 10.5243L16.6835 10.6391L16.6775 10.6759L16.5919 11.1987L16.567 11.3492L16.5361 11.5372L16.7317 11.5692L16.8324 11.5854Z" fill="black"/>
<path d="M18.6127 10.6451L18.4285 10.6147L18.4041 10.7626L18.3993 10.7946L18.3733 10.9533L18.2877 11.476L18.2617 11.6358L18.2324 11.8145L18.4166 11.8449L18.5915 11.873L19.4317 12.0112L19.4869 11.6726L19.5725 11.1499L19.6283 10.8114L18.7876 10.6738L18.6127 10.6451Z" fill="black"/>
<path d="M18.0464 9.83719L18.0724 9.67848L18.1553 9.17094L18.158 9.15577L18.184 8.99598L18.2133 8.81723L18.0291 8.7869L17.8541 8.75819L17.3845 8.68127L17.209 8.65256L17.014 8.62061L16.9831 8.80802L16.9582 8.95915L16.8726 9.48186L16.8483 9.63298L16.8418 9.67252L16.8174 9.8204L17.0129 9.85236L17.1879 9.88106L17.6575 9.95798L17.8325 9.98669L18.0172 10.0165L18.0464 9.83719Z" fill="black"/>
<path d="M19.0051 8.94665L18.894 8.92877L18.7093 8.89844L18.6801 9.07773L18.6541 9.23644L18.5685 9.75915L18.5419 9.91894L18.5127 10.0977L18.6969 10.128L18.8724 10.1567L19.3371 10.2326L19.7125 10.2943L19.7677 9.95577L19.8533 9.43306L19.8847 9.2424L19.9086 9.09452L19.0684 8.95694L19.0051 8.94665Z" fill="black"/>
<path d="M16.0827 11.2705L16.1076 11.1189L16.1504 10.8578L16.1932 10.5961L16.2175 10.445L16.2484 10.2581L16.0529 10.2256L15.8779 10.1969L15.4083 10.1206L15.3449 10.1097L15.2333 10.0919L15.0486 10.0615L15.0194 10.2408L14.9934 10.4001L14.9078 10.9228L14.8818 11.082L14.8525 11.2608V11.2613L15.0367 11.2911L15.2117 11.3198L15.6813 11.3967L15.8568 11.4254L16.0518 11.4574L16.0827 11.2705Z" fill="black"/>
<path d="M14.1718 11.1497L14.188 11.1519L14.3565 11.1801L14.3857 11.0002L14.4117 10.8415L14.4973 10.3188L14.5239 10.1596L14.5531 9.98026L14.3684 9.94993L14.194 9.92122L13.3533 9.78418L13.2981 10.1222L13.2125 10.6449L13.1811 10.8356L13.1572 10.9834L13.9974 11.121L14.1718 11.1497Z" fill="black"/>
<path d="M16.2605 15.547L16.085 15.5183L15.89 15.4863L15.8591 15.6737L15.8342 15.8249L15.6934 16.6861L16.0639 16.7468L16.8931 16.8822L17.034 16.021L17.06 15.8617L17.0892 15.683L16.9051 15.6526L16.2605 15.547Z" fill="black"/>
<path d="M15.0351 15.3464L14.3906 15.2408L14.2058 15.2104L14.1766 15.3897L14.1506 15.549L14.0098 16.4102L14.7307 16.5283L14.8385 16.5457L15.209 16.6063L15.3363 15.8301L15.3498 15.7456L15.3748 15.5945L15.4056 15.4071L15.2101 15.3751L15.0351 15.3464Z" fill="black"/>
<path d="M14.2782 9.40422L14.4526 9.43292L14.6373 9.46326L14.6649 9.29426L14.6665 9.28397L14.6925 9.12472L14.7781 8.60201L14.8041 8.44276L14.8339 8.26347L14.6492 8.23313L14.4742 8.20497L14.2337 8.16542L13.6341 8.06738L13.5789 8.40538L13.5751 8.42759L13.4933 8.92863L13.4375 9.26663L14.1882 9.38959L14.2782 9.40422Z" fill="black"/>
<path d="M18.3277 8.12039L18.3466 8.00394L18.3537 7.96169L18.4393 7.43898L18.4653 7.27973L18.4945 7.10043L18.3103 7.0701L18.1354 7.04139L17.6652 6.96448L17.4908 6.93631L17.2947 6.90381L17.2644 7.09177L17.2395 7.24235L17.2292 7.3041L17.1539 7.76506L17.1295 7.91618L17.0986 8.1036L17.2942 8.13556L17.4691 8.16427L17.6446 8.19298L17.9388 8.24119L18.1137 8.26989L18.2979 8.30023L18.3277 8.12039Z" fill="black"/>
<path d="M19.1747 7.21197L18.9906 7.18164L18.9608 7.36093L18.9348 7.52018L18.8492 8.04289L18.8232 8.20214L18.7939 8.38089L18.9781 8.41122L19.1531 8.43993L19.9937 8.57752L20.049 8.23897L20.1346 7.71627L20.1898 7.37772L19.3497 7.24068L19.1747 7.21197Z" fill="black"/>
<path d="M16.6447 7.83687L16.6691 7.68629L16.6794 7.62454L16.7547 7.16358L16.7796 7.01192L16.8105 6.82504L16.6149 6.79308L16.4394 6.76438L16.1572 6.71833L15.9698 6.68746L15.7954 6.65875L15.6107 6.62842L15.5814 6.80825L15.5554 6.96696L15.4699 7.48967L15.4439 7.64946L15.4141 7.82821L15.5831 7.85583L15.5988 7.85854L15.7737 7.88671L16.2434 7.96417L16.4178 7.99233L16.6139 8.02483L16.6447 7.83687Z" fill="black"/>
<path d="M18.6084 6.40403L18.6344 6.24532L18.707 5.80386L18.72 5.72261L18.7758 5.38407L18.5797 5.35211L18.4221 5.32611L18.4166 5.32557L17.9465 5.24866L17.7038 5.20857L17.576 5.18799L17.5207 5.52599L17.4351 6.0487L17.4102 6.20036L17.3799 6.38724L17.5749 6.4192L17.7504 6.4479L18.22 6.52482L18.3944 6.55353L18.5791 6.58386L18.6084 6.40403Z" fill="black"/>
<path d="M20.2642 5.62783L19.6309 5.52437L19.2713 5.46533L19.216 5.80387L19.1304 6.32658L19.1044 6.48637L19.0752 6.66512L19.2231 6.68896L19.2594 6.69492L19.4343 6.72362L20.2744 6.86121L20.3302 6.52267L20.4158 5.99942L20.4711 5.66196L20.2642 5.62783Z" fill="black"/>
<path d="M18.6648 3.60352L18.6096 3.94206L18.6074 3.95722L18.524 4.46477L18.4688 4.80331L18.6757 4.83689L18.8392 4.86397L19.5407 4.97881L19.6685 4.99939L19.7238 4.66085L19.8646 3.80014L19.7086 3.77414L19.0359 3.66418L18.6648 3.60352Z" fill="black"/>
<path d="M16.0544 6.1704L16.5246 6.24732L16.6996 6.27603L16.8951 6.30798L16.9254 6.12057L16.9504 5.96944L17.0359 5.44673L17.0912 5.10819L16.8843 5.07461L16.7207 5.04753L16.2511 4.97061L16.0198 4.93269L15.8919 4.91211L15.8367 5.25011L15.7511 5.77282L15.7246 5.93261L15.6953 6.11136L15.8795 6.14169L16.0544 6.1704Z" fill="black"/>
<path d="M15.0151 6.00031L15.1998 6.03064L15.229 5.85135L15.255 5.6921L15.3406 5.16939L15.3959 4.83139L15.0368 4.77235L14.3239 4.65589L14.1961 4.63477L14.1387 4.98847L14.0553 5.49602L14 5.83456L14.8401 5.97214L15.0151 6.00031Z" fill="black"/>
<path d="M17.1476 3.35575L16.9803 3.32812L16.925 3.66667L16.8394 4.18938L16.7842 4.52792L16.9797 4.55988L17.1433 4.58642L17.5604 4.65467L17.6129 4.66333L17.8556 4.70342L17.9834 4.724L18.0387 4.38546L18.1243 3.86275L18.1801 3.52475L18.0121 3.49713L17.8096 3.46408L17.3394 3.38717L17.1476 3.35575Z" fill="black"/>
<path d="M15.9295 4.38713L16.1608 4.42504L16.2887 4.44617L16.3439 4.10763L16.4295 3.58492L16.4847 3.24638L16.1256 3.18733L15.4529 3.07738L15.4334 3.07413L15.2855 3.05029L15.1447 3.911L15.1165 4.08108L15.0889 4.24954L15.2958 4.28367L15.9295 4.38713Z" fill="black"/>
<path d="M18.2094 2.998L18.2728 3.00883L18.7792 3.09171L18.9455 3.11879L19.1129 3.14642L19.1681 2.80787L19.3095 1.94662L18.8897 1.87783L18.4688 1.80904L18.1097 1.75L18.0604 2.05225L17.9689 2.61125L17.9131 2.94979L18.0696 2.97525L18.2094 2.998Z" fill="black"/>
<path d="M14.929 17.091L14.7329 17.0591L14.6777 17.3976L13.6826 23.4735H14.9144L15.8769 17.5937L15.9322 17.2557L15.8054 17.2346L14.929 17.091Z" fill="black"/>
</svg>
