<svg width="26" height="26" viewBox="0 0 26 26" fill="none" xmlns="http://www.w3.org/2000/svg">
<path fill-rule="evenodd" clip-rule="evenodd" d="M18.4163 4.3335H10.833L8.66634 6.50016V7.5835H12.9997V18.6877H15.708V7.5835H18.4163V4.3335ZM7.04134 8.66683C7.04134 7.47516 6.06634 6.50016 4.87467 6.50016C3.68301 6.50016 2.70801 7.47516 2.70801 8.66683C2.70801 9.8585 3.68301 10.8335 4.87467 10.8335C6.06634 10.8335 7.04134 9.8585 7.04134 8.66683ZM4.87467 9.75016C4.27884 9.75016 3.79134 9.26266 3.79134 8.66683C3.79134 8.071 4.27884 7.5835 4.87467 7.5835C5.47051 7.5835 5.95801 8.071 5.95801 8.66683C5.95801 9.26266 5.47051 9.75016 4.87467 9.75016ZM18.4163 9.75016C17.8205 9.75016 17.333 10.2377 17.333 10.8335V18.4168C17.333 19.0127 17.8205 19.5002 18.4163 19.5002H22.7497C23.3455 19.5002 23.833 19.0127 23.833 18.4168V10.8335C23.833 10.2377 23.3455 9.75016 22.7497 9.75016H18.4163ZM11.9163 14.0835C11.9163 12.296 10.4538 10.8335 8.66634 10.8335C6.87884 10.8335 5.41634 12.296 5.41634 14.0835C5.41634 15.871 6.87884 17.3335 8.66634 17.3335C10.4538 17.3335 11.9163 15.871 11.9163 14.0835ZM18.4163 18.4168V10.8335H22.7497V18.4168H18.4163ZM15.708 21.1252V19.5002H7.58301V21.1252H15.708Z" fill="black"/>
</svg>
