<svg width="26" height="26" viewBox="0 0 26 26" fill="none" xmlns="http://www.w3.org/2000/svg">
<path fill-rule="evenodd" clip-rule="evenodd" d="M15.4373 13.8546C15.9248 13.3671 16.0467 12.7572 16.0467 11.6197C14.9092 11.6197 14.2998 11.7415 13.8117 12.229C13.5274 12.5134 13.3649 12.8384 13.2836 13.2853V11.2123C14.381 11.2123 14.9698 11.0699 15.4373 10.6024C15.9248 10.1149 16.0467 9.50555 16.0467 8.36751C14.9092 8.36751 14.2998 8.48938 13.8117 8.97742C13.5371 9.25205 13.3757 9.57921 13.2836 10.0153V8.95521C13.8665 8.33446 14.1503 7.86863 14.1503 7.29446C14.1503 6.60492 13.8052 6.08763 13.0009 5.28271C12.1965 6.08763 11.8515 6.60492 11.8515 7.29446C11.8515 7.86863 12.1337 8.33446 12.7181 8.95521V10.0163C12.6255 9.58301 12.4646 9.25313 12.19 8.97851C11.7025 8.49101 11.0926 8.36859 9.95508 8.36859C9.95508 9.50609 10.077 10.116 10.5645 10.6035C11.0319 11.071 11.6207 11.2134 12.7181 11.2134V13.2853C12.6369 12.8384 12.4744 12.5134 12.19 12.229C11.7025 11.7415 11.0926 11.6197 9.95508 11.6197C9.95508 12.7572 10.077 13.3671 10.5645 13.8546C11.0319 14.3215 11.6207 14.464 12.7181 14.464V16.5364C12.6369 16.0895 12.4744 15.7645 12.19 15.4796C11.7025 14.9921 11.0926 14.8702 9.95508 14.8702C9.95508 16.0077 10.077 16.6176 10.5645 17.1051C11.0319 17.5726 11.6207 17.7145 12.7181 17.7145V20.5593H13.2869V17.7123C14.3843 17.7123 14.9731 17.5704 15.4405 17.103C15.928 16.6155 16.0499 16.0061 16.0499 14.868C14.9124 14.868 14.303 14.9899 13.815 15.4774C13.5306 15.7623 13.3681 16.0873 13.2869 16.5342V14.4623C14.3816 14.4623 14.9704 14.3215 15.4373 13.8546Z" fill="black"/>
<path d="M22.3385 6.28355L22.3114 5.89897L13.0001 2.84668L3.68888 5.89626L3.6618 6.28085C3.61991 6.87451 3.60023 7.45861 3.60275 8.03314C3.61196 10.5584 4.04259 12.8848 4.88921 14.9827C4.92749 15.0781 4.96667 15.173 5.00675 15.2676C5.16745 15.645 5.34205 16.015 5.53055 16.3775C6.25086 17.7637 7.17553 19.0336 8.27355 20.1448C8.34721 20.2196 8.42142 20.2932 8.49671 20.3669C8.79716 20.6601 9.11114 20.9432 9.43867 21.2162C9.60226 21.3527 9.76909 21.4867 9.93917 21.6181C10.2801 21.8807 10.6334 22.1334 10.9992 22.3765C11.1823 22.4971 11.3686 22.6157 11.5582 22.7323C11.9381 22.9642 12.3303 23.1868 12.7347 23.4002L13.0001 23.5411L13.2655 23.4002C13.6704 23.189 14.0623 22.9673 14.4415 22.7351C14.6314 22.6184 14.818 22.4998 15.001 22.3792C15.3672 22.1365 15.7204 21.8837 16.0605 21.6208C16.231 21.4894 16.398 21.3554 16.5616 21.2189C16.8888 20.9459 17.2027 20.6628 17.5035 20.3696C17.5788 20.2959 17.653 20.2223 17.7267 20.1475C18.8247 19.0364 19.7494 17.7664 20.4697 16.3802C20.6579 16.0191 20.8323 15.6492 20.993 15.2703C21.0336 15.1756 21.0726 15.0808 21.111 14.9854C21.9577 12.8876 22.3883 10.5611 22.3975 8.03585C22.3997 7.45987 22.38 6.87578 22.3385 6.28355ZM20.903 11.6515C20.6247 13.1146 20.1376 14.5301 19.4568 15.8548C19.3333 16.0917 19.2038 16.3244 19.0684 16.553C17.7143 18.828 15.7643 20.6951 13.2482 22.11C13.1664 22.1555 13.0857 22.201 13.0018 22.2459C12.9189 22.201 12.8393 22.1555 12.7553 22.11C10.2376 20.6919 8.28763 18.8275 6.93346 16.5508C6.79805 16.3215 6.66859 16.0888 6.54509 15.8526C5.86428 14.528 5.37723 13.1124 5.09884 11.6493L5.08746 11.6439C5.01921 11.2972 4.96107 10.9455 4.91305 10.5887C4.91507 10.5846 4.91743 10.5806 4.92009 10.5768C4.75397 9.30743 4.70863 8.02516 4.78467 6.74722L13.0001 4.04918L21.2172 6.74668C21.2933 8.02462 21.2479 9.30689 21.0818 10.5763C21.0845 10.58 21.0868 10.584 21.0888 10.5882C21.0408 10.9453 20.9827 11.2979 20.9144 11.6461L20.903 11.6515Z" fill="black"/>
</svg>
