<svg width="26" height="26" viewBox="0 0 26 26" fill="none" xmlns="http://www.w3.org/2000/svg">
<path fill-rule="evenodd" clip-rule="evenodd" d="M13 22.75C17.3333 17.7125 19.5 13.3792 19.5 9.75C19.5 6.175 16.575 3.25 13 3.25C9.425 3.25 6.5 6.175 6.5 9.75C6.5 13.3792 8.66667 17.7125 13 22.75ZM13 14.625C10.2917 14.625 8.125 12.4583 8.125 9.75C8.125 7.04167 10.2917 4.875 13 4.875C15.7083 4.875 17.875 7.04167 17.875 9.75C17.875 12.4583 15.7083 14.625 13 14.625ZM13 11.375C13.9208 11.375 14.625 10.6708 14.625 9.75C14.625 8.82917 13.9208 8.125 13 8.125C12.0792 8.125 11.375 8.82917 11.375 9.75C11.375 10.6708 12.0792 11.375 13 11.375Z" fill="black"/>
</svg>
