<svg width="26" height="26" viewBox="0 0 26 26" fill="none" xmlns="http://www.w3.org/2000/svg">
<path fill-rule="evenodd" clip-rule="evenodd" d="M18.4707 16.5752C19.4999 15.221 20.0957 13.5419 20.0957 11.7002C20.0957 7.1502 16.5207 3.5752 11.9707 3.5752C7.4207 3.5752 3.8457 7.1502 3.8457 11.7002C3.8457 16.2502 7.4207 19.8252 11.9707 19.8252C13.5415 19.8252 15.004 19.3919 16.1957 18.6335L19.554 21.9919C20.1499 22.5877 21.1249 22.5877 21.7207 21.9919C22.3165 21.396 22.3165 20.421 21.7207 19.8252L18.4707 16.5752ZM5.4707 11.7002C5.4707 8.07103 8.34154 5.2002 11.9707 5.2002C15.5999 5.2002 18.4707 8.07103 18.4707 11.7002C18.4707 15.3294 15.5999 18.2002 11.9707 18.2002C8.34154 18.2002 5.4707 15.3294 5.4707 11.7002ZM11.9707 7.36686C9.47904 7.36686 7.5832 9.26269 7.63737 11.7002C7.63737 12.1335 8.01654 12.5127 8.44987 12.5127C8.8832 12.5127 9.26237 12.1335 9.26237 11.7002C9.26237 10.1835 10.454 8.99186 11.9707 8.99186C12.404 8.99186 12.7832 8.6127 12.7832 8.17936C12.7832 7.74603 12.404 7.36686 11.9707 7.36686Z" fill="black"/>
</svg>
