<svg width="26" height="26" viewBox="0 0 26 26" fill="none" xmlns="http://www.w3.org/2000/svg">
<path d="M2.10352 16.8209H11.1136V12.3284C10.1309 11.5962 8.93628 11.2045 7.71085 11.2125C4.62714 11.2125 2.17393 13.6668 2.10352 16.8209Z" fill="black"/>
<path d="M7.71064 9.8119C9.64617 9.8119 11.2152 8.24284 11.2152 6.30732C11.2152 4.37179 9.64617 2.80273 7.71064 2.80273C5.77511 2.80273 4.20605 4.37179 4.20605 6.30732C4.20605 8.24284 5.77511 9.8119 7.71064 9.8119Z" fill="black"/>
<path d="M23.7115 14.0864C23.9704 13.9862 24.0159 13.9548 24.0116 13.7501L23.9384 11.3315C23.9417 11.2995 23.9381 11.2671 23.9279 11.2366C23.9177 11.2061 23.9012 11.1781 23.8794 11.1544C23.3431 10.441 22.7793 9.74606 22.2338 9.03593C22.1341 8.90431 22.1114 8.90431 21.9792 8.99964L21.7793 9.14968C21.6564 9.24068 21.6428 9.27264 21.7431 9.40426C22.1428 9.92697 22.5523 10.441 22.9569 10.9637C23.0523 11.0861 23.0387 11.1089 22.9428 11.2048C22.7614 11.3819 22.5794 11.5547 22.4012 11.7361C22.3691 11.7629 22.3447 11.7976 22.3303 11.8367C22.316 11.8759 22.3122 11.9182 22.3194 11.9593L22.392 13.723C22.3963 13.9093 22.4331 13.9228 22.6558 14.0366C22.8784 14.1503 22.8876 14.1639 22.919 14.5864C22.9466 14.9114 23.7375 20.1006 22.5008 20.1049C21.7328 20.1098 21.7598 19.0958 21.619 16.6323C21.5692 15.7656 21.4782 13.4045 20.4918 13.2366V12.6998H20.1191V10.7248H12.1973V21.0777H20.1246V15.0273H20.4978V13.9272C20.9853 13.9727 21.0568 16.1637 21.0838 16.6686C21.2463 19.4961 21.2203 20.6595 22.5068 20.6552C24.4476 20.646 23.536 15.4731 23.4656 14.5544C23.4385 14.2137 23.4477 14.1958 23.7115 14.0864ZM13.0607 11.7031H19.2611V15.9487H13.0607V11.7047V11.7031ZM23.2066 13.5805C23.0111 13.5756 23.0024 13.5621 22.9976 13.353L22.9477 12.1483C22.9428 12.0573 22.984 12.0303 23.0387 11.9712C23.3204 11.689 23.3388 11.7031 23.3523 12.0936L23.3886 13.3893C23.393 13.5729 23.3794 13.5908 23.2066 13.5821V13.5805Z" fill="black"/>
<path d="M12.1973 22.1609V22.9138H20.1246V22.1609V21.623H12.1973V22.1609Z" fill="black"/>
</svg>
