<svg width="26" height="26" viewBox="0 0 26 26" fill="none" xmlns="http://www.w3.org/2000/svg">
<path d="M9.15829 19.0479C9.90831 18.8487 10.3549 18.0793 10.1557 17.3292C9.95659 16.5792 9.18715 16.1327 8.43713 16.3318C7.68711 16.5309 7.24054 17.3004 7.43968 18.0504C7.63883 18.8004 8.40827 19.247 9.15829 19.0479Z" fill="black"/>
<path d="M20.8663 19.0483C21.6163 18.8492 22.0629 18.0798 21.8637 17.3297C21.6646 16.5797 20.8952 16.1331 20.1451 16.3323C19.3951 16.5314 18.9485 17.3009 19.1477 18.0509C19.3468 18.8009 20.1163 19.2475 20.8663 19.0483Z" fill="black"/>
<path d="M23.7848 8.7915H19.1016V15.8169C19.5091 15.517 20.0007 15.3531 20.5066 15.3484C20.815 15.3453 21.1209 15.4038 21.4063 15.5204C21.6918 15.637 21.9511 15.8094 22.1692 16.0274C22.3872 16.2455 22.5596 16.5048 22.6762 16.7903C22.7928 17.0758 22.8513 17.3816 22.8483 17.69H25.1877V13.0062L23.7848 8.7915ZM20.9752 13.0062V9.72804H23.3163L24.2533 13.0062H20.9752Z" fill="black"/>
<path d="M16.6697 16.7524H12.455H10.96V17.4956H12.455V18.6255H16.6697V17.4956H18.1647V16.7524H16.6697Z" fill="black"/>
<path d="M2.56708 15.6986V8.73926H2.04925C1.8752 8.73921 1.7057 8.79479 1.56547 8.89788C1.42525 9.00098 1.32165 9.1462 1.26979 9.31234C1.09808 9.86647 0.890625 10.829 0.890625 12.2189C0.890625 13.6088 1.10025 14.5714 1.26979 15.1255C1.3215 15.2917 1.42506 15.4371 1.56532 15.5402C1.70558 15.6433 1.87516 15.6988 2.04925 15.6986H2.56708Z" fill="black"/>
<path d="M17.2647 15.1255C17.4364 14.5714 17.6439 13.6088 17.6439 12.2189C17.6439 10.829 17.4342 9.86647 17.2647 9.31234C17.2128 9.14611 17.1091 9.00083 16.9688 8.89772C16.8285 8.79462 16.6588 8.73909 16.4847 8.73926H16.0703V15.6986H16.4847C16.6588 15.6988 16.8285 15.6434 16.9689 15.5402C17.1092 15.4371 17.2129 15.2918 17.2647 15.1255V15.1255Z" fill="black"/>
<path d="M12.8487 15.6984H14.0913V8.73903H10.831L10.6051 8.26074H7.83501L7.66492 8.73903H4.54492V15.6984H5.68513H12.8487Z" fill="black"/>
<path d="M2.95825 16.7524H1.55371V17.4956H2.95825V16.7524Z" fill="black"/>
<path d="M15.5415 8.26074H14.6201V16.1772H15.5415V8.26074Z" fill="black"/>
<path d="M4.01708 8.26074H3.0957V16.1772H4.01708V8.26074Z" fill="black"/>
<path d="M5.91694 18.7972C6.52861 18.3196 6.63734 17.4366 6.15979 16.825C5.68225 16.2133 4.79927 16.1046 4.1876 16.5821C3.57593 17.0597 3.4672 17.9426 3.94475 18.5543C4.42229 19.166 5.30527 19.2747 5.91694 18.7972Z" fill="black"/>
</svg>
