<svg width="26" height="26" viewBox="0 0 26 26" fill="none" xmlns="http://www.w3.org/2000/svg">
<path fill-rule="evenodd" clip-rule="evenodd" d="M4.38783 5.4165C3.14199 5.4165 2.16699 6.3915 2.16699 7.63734V18.3623C2.16699 19.6082 3.14199 20.5832 4.38783 20.5832H21.6128C22.8587 20.5832 23.8337 19.6082 23.8337 18.3623V7.63734C23.8337 6.3915 22.8587 5.4165 21.6128 5.4165H4.38783ZM22.7503 18.4165C22.7503 19.0123 22.2628 19.4998 21.667 19.4998H4.33366C3.73783 19.4998 3.25033 19.0123 3.25033 18.4165V7.58317C3.25033 6.98734 3.73783 6.49984 4.33366 6.49984H21.667C22.2628 6.49984 22.7503 6.98734 22.7503 7.58317V18.4165ZM11.3753 11.3748C12.0795 11.3748 12.8378 11.5373 13.542 11.9165L14.6253 9.20817C13.542 8.829 12.4587 8.6665 11.3753 8.6665C8.12533 8.6665 5.95866 10.2915 5.95866 12.9998C5.95866 15.7082 7.58366 17.3332 10.8878 17.3332C12.2962 17.3332 13.542 17.1707 14.6253 16.7915V12.9998H11.3753V14.6248H10.8337C10.1837 14.6248 9.20866 14.0832 9.20866 12.9998C9.20866 11.9165 10.292 11.3748 11.3753 11.3748ZM17.8753 10.8332V12.4582H16.2503V13.5415H17.8753V15.1665H18.9587V13.5415H20.5837V12.4582H18.9587V10.8332H17.8753Z" fill="black"/>
</svg>
