<svg width="26" height="26" viewBox="0 0 26 26" fill="none" xmlns="http://www.w3.org/2000/svg">
<path fill-rule="evenodd" clip-rule="evenodd" d="M18.9908 3.52051H14.17L10.8658 4.06217V7.31217L13.0325 8.39551V10.5622H14.6575L15.7408 15.9788L11.4075 17.6038H20.6158L18.9908 15.9788V8.93717L21.6991 8.39551C22.4033 8.23301 22.7825 7.42051 22.7825 6.77051V5.68717C22.7825 4.65801 22.3491 4.17051 21.6991 4.06217L18.9908 3.52051ZM5.9908 5.14551H4.3658V6.22884H5.9908V6.77051L7.66996 7.31217H9.78246V4.06217H7.66996L5.9908 4.60384V5.14551ZM7.6158 15.4372V14.3538H5.9908V12.7288L6.53246 10.5622L5.9908 8.93717H4.90746L4.3658 10.5622L4.90746 12.7288V14.3538H3.28246V15.4372L3.82413 15.9788L3.28246 19.7705C3.0658 21.2872 3.98663 22.4788 5.44913 22.4788C6.91163 22.4788 7.83246 21.2872 7.6158 19.7705L7.07413 15.9788L7.6158 15.4372ZM11.4075 21.3955C11.4075 21.9372 11.895 22.4788 12.4908 22.4788H19.5866C20.1825 22.4788 20.6158 21.9372 20.6158 21.3955V18.6872H11.4075V21.3955V21.3955Z" fill="black"/>
</svg>
