<svg width="26" height="26" viewBox="0 0 26 26" fill="none" xmlns="http://www.w3.org/2000/svg">
<path fill-rule="evenodd" clip-rule="evenodd" d="M21.4173 8.39616L19.7923 7.31283C19.7923 5.79616 18.5464 4.60449 17.0839 4.60449H16.0006C15.2423 4.60449 14.6464 5.20033 14.6464 5.95866C14.6464 6.71699 15.2423 7.31283 16.0006 7.31283H16.5423C15.0256 7.31283 13.8339 8.50449 13.8339 10.0212H10.8548C9.55476 10.0212 8.63392 9.47949 7.87559 8.39616L6.79226 6.77116C6.08809 5.74199 4.40892 6.28366 4.62559 7.85449L5.16726 12.1878C5.16726 15.6545 7.76726 18.417 11.1256 18.6878V19.2295H10.5839C10.2589 19.2295 10.0423 19.4462 10.0423 19.7712C10.0423 20.0962 10.2589 20.3128 10.5839 20.3128H11.1256V20.8545C11.1256 21.1795 11.3423 21.3962 11.6673 21.3962H12.7506C13.0756 21.3962 13.2923 21.1795 13.2923 20.8545C13.2923 20.5295 13.0756 20.3128 12.7506 20.3128H12.2089V18.6878C12.9673 18.6337 13.6714 18.417 14.3214 18.1462H15.4589V18.6878C15.4589 19.0128 15.6756 19.2295 16.0006 19.2295C16.3256 19.2295 16.5423 19.0128 16.5423 18.6878V18.1462H17.6256V19.2295C17.6256 19.5545 17.8423 19.7712 18.1673 19.7712C18.4923 19.7712 18.7089 19.5545 18.7089 19.2295V17.6045C18.7089 17.2795 18.4923 17.0628 18.1673 17.0628H16.0006C17.3548 15.8712 18.1673 14.1378 18.1673 12.1878V12.2962C18.1673 13.0545 18.7631 13.6503 19.5214 13.6503C20.2798 13.6503 20.8756 13.0545 20.8756 12.2962C20.8756 11.2128 20.2256 10.2378 19.2506 9.80449L21.4173 8.39616ZM17.8964 9.04616C17.4089 9.04616 17.0839 8.72116 17.0839 8.23366C17.0839 7.74616 17.4089 7.42116 17.8964 7.42116C18.3839 7.42116 18.7089 7.74616 18.7089 8.23366C18.7089 8.72116 18.3839 9.04616 17.8964 9.04616Z" fill="black"/>
</svg>
