<svg width="26" height="26" viewBox="0 0 26 26" fill="none" xmlns="http://www.w3.org/2000/svg">
<path fill-rule="evenodd" clip-rule="evenodd" d="M21.6123 7.58333C22.3165 7.09583 23.3998 6.39167 23.779 5.41667L23.2373 4.875C22.479 5.63333 21.2873 6.175 19.8248 6.6625L18.904 5.41667H18.3623V7.09583L15.654 7.58333H4.82064C3.30397 7.58333 2.1123 8.775 2.1123 10.2917V12.8375L2.65397 14.625L2.54564 16.25L3.03314 21.125H5.1998V20.5833L5.90397 16.7917L6.44564 16.25L8.66647 16.7917L14.5706 16.25L15.1123 21.125H17.279L17.8206 15.7083L19.9873 12.4583H22.6956C23.5623 12.4583 24.104 11.3208 23.779 10.8333L21.6123 7.58333ZM19.9873 9.75C19.4998 9.75 19.1748 9.425 19.1748 8.9375C19.1748 8.45 19.4998 8.125 19.9873 8.125C20.4748 8.125 20.7998 8.45 20.7998 8.9375C20.7998 9.425 20.4748 9.75 19.9873 9.75Z" fill="black"/>
</svg>
