<svg width="26" height="26" viewBox="0 0 26 26" fill="none" xmlns="http://www.w3.org/2000/svg">
<path fill-rule="evenodd" clip-rule="evenodd" d="M13.0003 21.6663C16.8462 21.6663 20.042 20.2038 20.042 17.333C20.042 15.1663 17.6045 14.3538 16.792 13.5413C15.7087 12.458 14.4087 11.3747 13.0003 11.3747C11.592 11.3747 10.2378 12.458 9.15449 13.5413C8.34199 14.2997 5.90449 15.1663 5.90449 17.333C5.90449 20.2038 9.10033 21.6663 13.0003 21.6663ZM5.95866 13.5413C7.15033 13.5413 8.12533 12.5663 8.12533 11.3747C8.12533 10.1288 7.15033 9.20801 5.95866 9.20801C4.76699 9.20801 3.79199 10.1288 3.79199 11.3747C3.79199 12.5663 4.76699 13.5413 5.95866 13.5413ZM13.0003 20.0413C11.1587 20.0413 9.75033 19.0663 9.75033 17.8747C9.75033 16.683 11.1587 15.708 13.0003 15.708C14.842 15.708 16.2503 16.683 16.2503 17.8747C16.2503 19.0663 14.842 20.0413 13.0003 20.0413ZM10.8337 10.833C11.7545 10.833 12.4587 9.64134 12.4587 8.12468C12.4587 6.06634 11.267 4.33301 9.75033 4.33301C8.82949 4.33301 8.12533 5.52467 8.12533 7.04134C8.12533 9.09968 9.26283 10.833 10.8337 10.833ZM20.042 13.5413C21.2337 13.5413 22.2087 12.5663 22.2087 11.3747C22.2087 10.1288 21.2337 9.20801 20.042 9.20801C18.8503 9.20801 17.8753 10.1288 17.8753 11.3747C17.8753 12.5663 18.8503 13.5413 20.042 13.5413ZM15.167 10.833C16.7378 10.833 17.8753 9.09968 17.8753 7.04134C17.8753 5.52467 17.1712 4.33301 16.2503 4.33301C14.7337 4.33301 13.542 6.06634 13.542 8.12468C13.542 9.64134 14.2462 10.833 15.167 10.833Z" fill="black"/>
</svg>
