<svg width="26" height="26" viewBox="0 0 26 26" fill="none" xmlns="http://www.w3.org/2000/svg">
<path fill-rule="evenodd" clip-rule="evenodd" d="M6.77116 19.2288L7.31283 17.0622C7.90866 16.5205 8.45033 16.033 8.93783 15.4372C10.942 16.358 13.3795 17.008 15.9795 16.5205L16.5212 19.2288H18.6878L19.2295 16.5205C20.4212 16.7372 22.1545 16.683 23.0212 16.5205C23.5087 16.4122 23.942 16.4122 24.1045 15.9788L24.6462 14.3538C24.7545 14.0288 24.5378 14.1913 24.1045 13.8122C23.5087 13.3247 22.8587 12.2413 21.9378 10.5622V8.39551H21.3962L19.7712 9.47884C17.3337 8.12467 15.2753 7.31217 13.2712 7.31217H6.22949C4.71283 7.31217 3.52116 8.50384 3.52116 10.0205C2.92533 10.0205 2.43783 9.53301 2.43783 8.93717C2.43783 8.34134 2.92533 7.85384 3.52116 7.85384C3.84616 7.85384 4.06283 7.63717 4.06283 7.31217C4.06283 6.98717 3.84616 6.77051 3.52116 6.77051C2.32949 6.77051 1.35449 7.74551 1.35449 8.93717C1.35449 10.1288 2.32949 11.1038 3.52116 11.1038V12.7288C3.52116 13.7038 3.79199 15.1122 4.06283 16.5205L4.60449 19.2288H6.77116ZM20.8545 13.8122C20.367 13.8122 20.042 13.4872 20.042 12.9997C20.042 12.5122 20.367 12.1872 20.8545 12.1872C21.342 12.1872 21.667 12.5122 21.667 12.9997C21.667 13.4872 21.342 13.8122 20.8545 13.8122Z" fill="black"/>
</svg>
