<svg width="26" height="26" viewBox="0 0 26 26" fill="none" xmlns="http://www.w3.org/2000/svg">
<path fill-rule="evenodd" clip-rule="evenodd" d="M20.042 7.83773H17.3337V11.8918H14.3545L13.0003 6.48638H14.3545V4.32422H5.68783V12.3783C4.06283 13.135 2.97949 14.8107 2.97949 16.7566C2.97949 19.5134 5.09199 21.6215 7.85449 21.6215C10.0212 21.6215 11.8087 20.3242 12.4587 18.3783H16.5753C16.792 16.4864 18.3628 15.135 20.3128 15.135C21.017 15.135 21.667 15.2972 22.2087 15.6215L23.0212 14.0539V11.8918H20.042V7.83773ZM11.917 6.48638L13.2712 11.8918H7.85449V6.48638H11.917ZM7.85449 19.4594C6.33783 19.4594 5.14616 18.2702 5.14616 16.7026C5.14616 15.1891 6.33783 14.0539 7.85449 14.0539C9.37116 14.0539 10.5628 15.1891 10.5628 16.7026C10.5628 18.2702 9.37116 19.4594 7.85449 19.4594ZM20.3128 16.2161C18.7962 16.2161 17.6045 17.4053 17.6045 18.9188C17.6045 20.4323 18.7962 21.6215 20.3128 21.6215C21.8295 21.6215 23.0212 20.4323 23.0212 18.9188C23.0212 17.4053 21.8295 16.2161 20.3128 16.2161ZM20.3128 20.5404C19.392 20.5404 18.6878 19.8377 18.6878 18.9188C18.6878 17.9999 19.392 17.2972 20.3128 17.2972C21.2337 17.2972 21.9378 17.9999 21.9378 18.9188C21.9378 19.8377 21.2337 20.5404 20.3128 20.5404Z" fill="black"/>
</svg>
