<svg width="26" height="26" viewBox="0 0 26 26" fill="none" xmlns="http://www.w3.org/2000/svg">
<path fill-rule="evenodd" clip-rule="evenodd" d="M13.0003 22.2087C7.85449 22.2087 3.79199 18.1462 3.79199 13.0003C3.79199 7.85449 7.85449 3.79199 13.0003 3.79199C18.1462 3.79199 22.2087 7.85449 22.2087 13.0003C22.2087 18.1462 18.1462 22.2087 13.0003 22.2087ZM11.917 11.917V17.8753H14.0837V11.917H11.917ZM13.0003 10.8337C13.9212 10.8337 14.6253 10.1295 14.6253 9.20866C14.6253 8.28783 13.9212 7.58366 13.0003 7.58366C12.0795 7.58366 11.3753 8.28783 11.3753 9.20866C11.3753 10.1295 12.0795 10.8337 13.0003 10.8337Z" fill="black"/>
</svg>
