<svg width="26" height="26" viewBox="0 0 26 26" fill="none" xmlns="http://www.w3.org/2000/svg">
<path fill-rule="evenodd" clip-rule="evenodd" d="M20.583 9.64176C20.3122 6.71676 17.7122 4.2251 14.6247 4.2251C12.7288 4.2251 10.9955 5.14593 9.91217 6.60843C9.26217 6.12093 8.44967 5.8501 7.58301 5.8501C5.47051 5.8501 3.79134 7.52926 3.79134 9.64176V10.1293C2.16634 10.9418 1.08301 12.5668 1.08301 14.5168C1.08301 17.2251 3.24967 19.3918 5.95801 19.3918H6.98717V18.3084H5.95801C3.84551 18.3084 2.16634 16.6293 2.16634 14.5168C2.16634 13.2168 2.81634 12.0793 3.79134 11.3751L4.44134 11.0501C4.71217 10.9418 4.87467 10.6709 4.87467 10.4001V9.64176C4.87467 8.1251 6.06634 6.93343 7.58301 6.93343C8.34134 6.93343 9.04551 7.25843 9.53301 7.74593C9.85801 8.01676 10.2913 8.01676 10.508 7.6376C11.3747 6.28343 12.8913 5.30843 14.6247 5.30843C17.2788 5.30843 19.4997 7.58343 19.4997 10.1834C19.4997 10.5084 19.7163 10.7251 20.0413 10.7251C22.1538 10.7251 23.833 12.4043 23.833 14.5168C23.833 16.6293 22.1538 18.3084 20.0413 18.3084H18.958V19.3918H20.0413C22.7497 19.3918 24.9163 17.2251 24.9163 14.5168C24.9163 11.9709 23.0205 9.9126 20.583 9.64176ZM8.12467 15.8168L9.20801 16.9001L12.1872 13.9209V21.7751H13.8122V13.9209L16.7913 16.9001L17.8747 15.8168L13.5413 11.4834C13.2705 11.2126 12.7288 11.2126 12.458 11.4834L8.12467 15.8168Z" fill="black"/>
</svg>
