<svg width="26" height="26" viewBox="0 0 26 26" fill="none" xmlns="http://www.w3.org/2000/svg">
<path fill-rule="evenodd" clip-rule="evenodd" d="M18.6875 6.5C18.0375 6.5 17.3875 6.60833 16.7917 6.77083C16.1958 6.60833 15.5458 6.5 14.8958 6.5C14.2458 6.5 13.5958 6.60833 13 6.77083C12.4042 6.60833 11.7542 6.5 11.1042 6.5C10.4542 6.5 9.80417 6.60833 9.20833 6.77083C8.6125 6.60833 7.9625 6.5 7.3125 6.5C3.68333 6.5 0.8125 9.425 0.8125 13C0.8125 16.575 3.68333 19.5 7.3125 19.5C7.9625 19.5 8.6125 19.3917 9.15417 19.2292C9.80417 19.3917 10.4542 19.5 11.1042 19.5C11.7542 19.5 12.4042 19.3917 12.9458 19.2292C13.5958 19.3917 14.2458 19.5 14.8958 19.5C15.5458 19.5 16.1958 19.3917 16.7375 19.2292C17.3875 19.3917 18.0375 19.5 18.6875 19.5C22.2625 19.5 25.1875 16.575 25.1875 13C25.1875 9.425 22.2625 6.5 18.6875 6.5ZM7.3125 18.4167C4.27917 18.4167 1.89583 15.9792 1.89583 13C1.89583 10.0208 4.27917 7.58333 7.3125 7.58333H7.475C5.74167 8.775 4.60417 10.725 4.60417 13C4.60417 15.275 5.74167 17.225 7.475 18.4167H7.3125ZM11.1042 18.4167C8.07083 18.4167 5.6875 15.9792 5.6875 13C5.6875 10.0208 8.07083 7.58333 11.1042 7.58333H11.2667C9.53333 8.775 8.39583 10.725 8.39583 13C8.39583 15.275 9.53333 17.225 11.2667 18.4167H11.1042ZM14.8958 18.4167C11.8625 18.4167 9.47917 15.9792 9.47917 13C9.47917 10.0208 11.8625 7.58333 14.8958 7.58333H15.0583C13.325 8.775 12.1875 10.725 12.1875 13C12.1875 15.275 13.325 17.225 15.0583 18.4167H14.8958ZM18.6875 18.4167C15.6542 18.4167 13.2708 15.9792 13.2708 13C13.2708 10.0208 15.6542 7.58333 18.6875 7.58333C21.6667 7.58333 24.1042 10.0208 24.1042 13C24.1042 15.9792 21.6667 18.4167 18.6875 18.4167ZM19.2292 10.2917C20.0958 10.2917 20.8 10.7792 21.1792 11.5917L22.1 11.1583C21.5583 9.96667 20.475 9.20833 19.2292 9.20833C17.875 9.20833 16.7917 10.075 16.3042 11.375H15.1667V12.4583H16.0333C15.9792 12.6208 15.9792 12.8375 15.9792 13C15.9792 13.1625 15.9792 13.3792 16.0333 13.5417H15.1667V14.625H16.3042C16.7917 15.8708 17.9292 16.7917 19.2292 16.7917C20.475 16.7917 21.5583 15.9792 22.1 14.7875L21.1792 14.3542C20.8542 15.1667 20.0958 15.7083 19.2292 15.7083C18.525 15.7083 17.9292 15.275 17.4958 14.625H19.5V13.5417H17.1167C17.0625 13.3792 17.0625 13.1625 17.0625 13C17.0625 12.8375 17.0625 12.6208 17.1167 12.4583H19.5V11.375H17.4958C17.875 10.725 18.525 10.2917 19.2292 10.2917Z" fill="black"/>
</svg>
