<svg width="26" height="26" viewBox="0 0 26 26" fill="none" xmlns="http://www.w3.org/2000/svg">
<path fill-rule="evenodd" clip-rule="evenodd" d="M6.77116 7.52949L6.50033 6.50033C6.33783 5.79616 5.95866 5.41699 4.87533 5.41699H2.70866C2.38366 5.41699 2.16699 5.68783 2.16699 5.95866C2.16699 6.22949 2.38366 6.50033 2.70866 6.50033H5.41699L7.58366 17.3337H20.042C20.6378 17.3337 21.0712 16.8462 21.1253 16.2503L21.667 9.20866C21.7212 8.66699 21.1253 8.12533 20.5837 8.12533L6.77116 7.52949ZM8.66699 16.2503L7.04199 8.66699L20.5837 9.20866L20.042 16.2503H8.66699ZM9.20866 9.75033V11.917H10.292V9.75033H9.20866ZM11.3753 9.75033V11.917H12.4587V9.75033H11.3753ZM13.542 9.75033V11.917H14.6253V9.75033H13.542ZM15.7087 9.75033V11.917H16.792V9.75033H15.7087ZM17.8753 9.75033V11.917H18.9587V9.75033H17.8753ZM9.20866 13.0003V15.167H10.292V13.0003H9.20866ZM11.3753 13.0003V15.167H12.4587V13.0003H11.3753ZM13.542 13.0003V15.167H14.6253V13.0003H13.542ZM15.7087 13.0003V15.167H16.792V13.0003H15.7087ZM17.8753 13.0003V15.167H18.9587V13.0003H17.8753ZM7.58366 18.417C6.66283 18.417 5.95866 19.1212 5.95866 20.042C5.95866 20.9628 6.66283 21.667 7.58366 21.667C8.50449 21.667 9.20866 20.9628 9.20866 20.042C9.20866 19.1212 8.50449 18.417 7.58366 18.417ZM18.9587 18.417C18.0378 18.417 17.3337 19.1212 17.3337 20.042C17.3337 20.9628 18.0378 21.667 18.9587 21.667C19.8795 21.667 20.5837 20.9628 20.5837 20.042C20.5837 19.1212 19.8795 18.417 18.9587 18.417Z" fill="black"/>
</svg>
