<svg width="26" height="26" viewBox="0 0 26 26" fill="none" xmlns="http://www.w3.org/2000/svg">
<path fill-rule="evenodd" clip-rule="evenodd" d="M20.9185 9.9124C21.5262 9.84415 22.446 9.76723 23.0142 9.2819L22.8582 8.75594C22.1248 8.97694 21.192 8.91465 20.1071 8.72669L19.9489 7.63198L19.6082 7.44836L19.0389 8.50406L17.3825 6.5974C17.1723 6.35558 16.9127 6.16168 16.6211 6.0288C16.3296 5.89592 16.0129 5.82716 15.6925 5.82715H7.40499C7.15098 5.82715 6.89945 5.87718 6.66477 5.97439C6.43009 6.07159 6.21686 6.21407 6.03724 6.39369C5.85763 6.5733 5.71515 6.78654 5.61794 7.02122C5.52074 7.2559 5.4707 7.50742 5.4707 7.76144V9.57927L5.85799 10.856L5.78054 12.0168L6.12883 15.4981H7.67583V15.1124L8.17904 12.4041L8.56579 12.0173L10.1502 12.4041L14.367 12.0173L14.7538 15.4986H16.304L16.6908 11.6306L18.2508 12.4284L19.9543 13.3439C20.4998 13.6369 21.2251 13.1044 21.1855 12.6879L20.9185 9.9124ZM19.1635 10.7249C18.8569 10.5624 18.7627 10.2461 18.9273 9.93948C19.092 9.6329 19.4067 9.53811 19.7133 9.70277C20.0199 9.86744 20.1147 10.1821 19.9494 10.4887C19.7842 10.7953 19.4706 10.8874 19.1635 10.7249Z" fill="black"/>
<path d="M4.10663 22.2539C3.98698 22.254 3.87065 22.2145 3.77582 22.1415C3.68099 22.0686 3.61298 21.9663 3.58242 21.8506C3.55186 21.7349 3.56046 21.6123 3.60689 21.5021C3.65332 21.3918 3.73495 21.3 3.83905 21.241C3.98693 21.1576 7.5343 19.1713 13.8409 17.582C20.1324 15.9966 24.1868 15.8335 24.3579 15.827C24.4291 15.8244 24.5 15.8359 24.5667 15.8607C24.6334 15.8855 24.6946 15.9232 24.7467 15.9717C24.7989 16.0202 24.8409 16.0784 24.8706 16.1431C24.9002 16.2079 24.9168 16.2778 24.9194 16.3489C24.922 16.42 24.9105 16.491 24.8857 16.5577C24.8609 16.6244 24.8232 16.6856 24.7747 16.7377C24.7262 16.7899 24.668 16.8319 24.6032 16.8616C24.5385 16.8912 24.4686 16.9078 24.3975 16.9104C22.9962 16.9645 19.042 17.3892 14.1058 18.6329C7.95409 20.1831 4.40997 22.1645 4.37259 22.1846C4.29138 22.2302 4.19977 22.254 4.10663 22.2539V22.2539Z" fill="black"/>
<path d="M10.7468 17.8294C10.7045 17.8293 10.6623 17.8244 10.6211 17.8147C9.83622 17.6279 8.46743 17.3559 6.40639 17.1198C2.76206 16.7021 1.24918 16.8311 1.23456 16.8327C1.0925 16.8444 0.951565 16.7996 0.842296 16.7081C0.733028 16.6166 0.664237 16.4857 0.650838 16.3438C0.637439 16.2019 0.680511 16.0604 0.770717 15.95C0.860923 15.8397 0.990991 15.7693 1.13272 15.7542C1.19718 15.7483 2.74581 15.6096 6.52935 16.0435C8.64185 16.2861 10.0578 16.5673 10.8713 16.7606C11.0005 16.7913 11.1139 16.8683 11.19 16.977C11.2662 17.0857 11.2997 17.2186 11.2844 17.3504C11.269 17.4822 11.2057 17.6038 11.1067 17.6921C11.0076 17.7804 10.8795 17.8292 10.7468 17.8294V17.8294Z" fill="black"/>
</svg>
