<svg width="26" height="26" viewBox="0 0 26 26" fill="none" xmlns="http://www.w3.org/2000/svg">
<path fill-rule="evenodd" clip-rule="evenodd" d="M16.5208 11.3968C15.925 11.3968 15.3833 11.6676 14.95 12.0468C15.2208 11.0718 15.6 10.0426 16.1958 9.12177C17.225 7.38844 18.7417 5.92594 20.3125 5.43844L19.7708 4.35511C18.2542 5.05928 16.4667 6.41344 15.2208 8.47177C14.4625 8.09261 13.5417 7.98427 12.7292 7.82177C13.0542 7.28011 13.2708 6.68428 13.2708 5.98011C13.2708 4.78844 12.35 3.81344 11.1042 3.81344C9.96667 3.81344 8.9375 4.78844 8.9375 5.98011C8.9375 7.11761 9.53333 7.76761 10.2917 8.14677H10.0208C7.69167 8.14677 6.77083 6.79261 6.77083 4.89678C6.77083 4.40928 6.87917 3.86761 6.9875 3.54261C7.09583 3.10928 7.04167 2.83844 6.77083 2.73011C6.12083 2.51344 5.6875 3.86761 5.6875 4.89678C5.6875 7.38844 6.9875 9.23011 10.0208 9.23011C10.725 9.23011 11.375 9.01344 11.9167 8.63427C12.025 8.63427 12.0792 8.68844 12.1875 8.68844C13.1625 8.90511 14.0292 9.01344 14.7333 9.33844C14.3542 10.2051 14.0292 11.1259 13.8667 12.2093C13.4875 11.7218 12.8917 11.3968 12.1875 11.3968C10.9958 11.3968 10.0208 12.4259 10.0208 13.5634C10.0208 14.8093 10.9958 15.7301 12.1875 15.7301C13.4333 15.7301 14.3542 14.8093 14.3542 13.5634C14.3542 14.8093 15.3292 15.7301 16.5208 15.7301C17.7667 15.7301 18.6875 14.8093 18.6875 13.5634C18.6875 12.4259 17.7667 11.3968 16.5208 11.3968ZM11.4833 7.55094C10.2375 7.17177 10.0208 6.73844 10.0208 5.98011C10.0208 5.38428 10.5083 4.89678 11.1042 4.89678C11.7542 4.89678 12.1875 5.38428 12.1875 5.98011C12.1333 6.57594 11.9167 7.11761 11.4833 7.55094ZM7.85417 11.3968C6.6625 11.3968 5.6875 12.4259 5.6875 13.5634C5.6875 14.8093 6.6625 15.7301 7.85417 15.7301C9.1 15.7301 10.0208 14.8093 10.0208 13.5634C10.0208 12.4259 9.1 11.3968 7.85417 11.3968ZM10.0208 15.1884C8.82917 15.1884 7.85417 16.1634 7.85417 17.3551C7.85417 18.6009 8.82917 19.5218 10.0208 19.5218C11.2667 19.5218 12.1875 18.6009 12.1875 17.3551C12.1875 16.1634 11.2667 15.1884 10.0208 15.1884ZM14.3542 15.1884C13.1625 15.1884 12.1875 16.1634 12.1875 17.3551C12.1875 18.6009 13.1625 19.5218 14.3542 19.5218C15.6 19.5218 16.5208 18.6009 16.5208 17.3551C16.5208 16.1634 15.6 15.1884 14.3542 15.1884ZM12.1875 18.9801C10.9958 18.9801 10.0208 19.9551 10.0208 21.1468C10.0208 22.3926 10.9958 23.3134 12.1875 23.3134C13.4333 23.3134 14.3542 22.3926 14.3542 21.1468C14.3542 19.9551 13.4333 18.9801 12.1875 18.9801Z" fill="black"/>
</svg>
