<svg width="26" height="26" viewBox="0 0 26 26" fill="none" xmlns="http://www.w3.org/2000/svg">
<path fill-rule="evenodd" clip-rule="evenodd" d="M25.4587 11.375C25.4587 9.31667 24.1045 7.6375 22.2087 7.15C21.992 4.92917 20.1503 3.25 17.8753 3.25C16.1962 3.25 14.7878 4.17083 14.0295 5.525C13.7045 5.47083 13.3795 5.41667 13.0003 5.41667C11.0503 5.41667 9.26283 6.3375 8.17949 7.8C7.85449 7.6375 7.47533 7.58333 7.04199 7.58333C5.36283 7.58333 4.00866 8.775 3.79199 10.4C1.89616 10.8875 0.541992 12.5667 0.541992 14.625C0.541992 17.0625 2.43783 18.9583 4.87533 18.9583H17.3337C19.392 18.9583 21.0712 17.6042 21.5587 15.7083C23.7795 15.4917 25.4587 13.65 25.4587 11.375ZM21.667 14.5708C21.667 12.7292 20.5295 11.1583 18.9045 10.5625C18.6337 8.34167 17.1712 6.55417 15.167 5.79583C15.7628 4.92917 16.792 4.33333 17.8753 4.33333C19.717 4.33333 21.1253 5.74167 21.1253 7.58333C21.1253 7.85417 21.342 8.125 21.667 8.17917C23.1837 8.39583 24.3753 9.80417 24.3753 11.375C24.3753 13.0542 23.2378 14.3542 21.667 14.5708ZM4.87533 17.875C3.03366 17.875 1.62533 16.4667 1.62533 14.625C1.62533 13.0542 2.81699 11.6458 4.33366 11.4292C4.44199 11.4292 4.55033 11.375 4.65866 11.2667C4.76699 11.2125 4.87533 11.05 4.87533 10.8333C4.87533 9.64167 5.85033 8.66667 7.04199 8.66667C8.23366 8.66667 9.20866 9.64167 9.20866 10.8333C9.20866 11.1583 9.42532 11.375 9.75032 11.375C10.0753 11.375 10.292 11.1583 10.292 10.8333C10.292 9.80417 9.85866 8.9375 9.15449 8.34167C10.0212 7.20417 11.4837 6.5 13.0003 6.5C15.3295 6.5 17.2795 8.125 17.767 10.2917H17.3337C14.8962 10.2917 13.0003 12.1875 13.0003 14.625C13.0003 14.95 13.217 15.1667 13.542 15.1667C13.867 15.1667 14.0837 14.95 14.0837 14.625C14.0837 12.7833 15.492 11.375 17.3337 11.375C19.1753 11.375 20.5837 12.7833 20.5837 14.625C20.5837 16.4667 19.1753 17.875 17.3337 17.875H4.87533ZM4.87533 19.5C4.55033 19.5 4.33366 19.7167 4.33366 20.0417V21.6667C4.33366 21.9375 4.55033 22.2083 4.87533 22.2083C5.20033 22.2083 5.41699 21.9917 5.41699 21.6667V20.0417C5.41699 19.7167 5.20033 19.5 4.87533 19.5ZM13.542 19.5C13.217 19.5 13.0003 19.7167 13.0003 20.0417V21.6667C13.0003 21.9375 13.217 22.2083 13.542 22.2083C13.867 22.2083 14.0837 21.9917 14.0837 21.6667V20.0417C14.0837 19.7167 13.867 19.5 13.542 19.5ZM9.20866 20.0417C8.88366 20.0417 8.66699 20.2583 8.66699 20.5833V22.2083C8.66699 22.4792 8.88366 22.75 9.20866 22.75C9.53366 22.75 9.75032 22.5333 9.75032 22.2083V20.5833C9.75032 20.2583 9.53366 20.0417 9.20866 20.0417ZM17.8753 20.0417C17.5503 20.0417 17.3337 20.2583 17.3337 20.5833V22.2083C17.3337 22.4792 17.5503 22.75 17.8753 22.75C18.2003 22.75 18.417 22.5333 18.417 22.2083V20.5833C18.417 20.2583 18.2003 20.0417 17.8753 20.0417Z" fill="black"/>
</svg>
