<svg width="26" height="26" viewBox="0 0 26 26" fill="none" xmlns="http://www.w3.org/2000/svg">
<path fill-rule="evenodd" clip-rule="evenodd" d="M25.4587 13.271C25.4587 11.2127 24.1045 9.53349 22.2087 9.04599C21.992 6.82516 20.1503 5.146 17.8753 5.146C16.1962 5.146 14.7878 6.06683 14.0295 7.421C13.7045 7.36683 13.3795 7.31266 13.0003 7.31266C11.0503 7.31266 9.26283 8.2335 8.17949 9.69599C7.85449 9.53349 7.47533 9.47933 7.04199 9.47933C5.36283 9.47933 4.00866 10.671 3.79199 12.296C1.89616 12.7835 0.541992 14.4627 0.541992 16.521C0.541992 18.9585 2.43783 20.8543 4.87533 20.8543H17.3337C19.392 20.8543 21.0712 19.5002 21.5587 17.6043C23.7795 17.3877 25.4587 15.546 25.4587 13.271ZM21.667 16.4668C21.667 14.6252 20.5295 13.0543 18.9045 12.4585C18.6337 10.2377 17.1712 8.45016 15.167 7.69183C15.7628 6.82516 16.792 6.22933 17.8753 6.22933C19.717 6.22933 21.1253 7.63766 21.1253 9.47933C21.1253 9.75016 21.342 10.021 21.667 10.0752C23.1837 10.2918 24.3753 11.7002 24.3753 13.271C24.3753 14.9502 23.2378 16.2502 21.667 16.4668ZM4.87533 19.771C3.03366 19.771 1.62533 18.3627 1.62533 16.521C1.62533 14.9502 2.81699 13.5418 4.33366 13.3252C4.44199 13.3252 4.55033 13.271 4.65866 13.1627C4.76699 13.1085 4.87533 12.946 4.87533 12.7293C4.87533 11.5377 5.85033 10.5627 7.04199 10.5627C8.23366 10.5627 9.20866 11.5377 9.20866 12.7293C9.20866 13.0543 9.42533 13.271 9.75033 13.271C10.0753 13.271 10.292 13.0543 10.292 12.7293C10.292 11.7002 9.85866 10.8335 9.15449 10.2377C10.0212 9.10016 11.4837 8.396 13.0003 8.396C15.3295 8.396 17.2795 10.021 17.767 12.1877H17.3337C14.8962 12.1877 13.0003 14.0835 13.0003 16.521C13.0003 16.846 13.217 17.0627 13.542 17.0627C13.867 17.0627 14.0837 16.846 14.0837 16.521C14.0837 14.6793 15.492 13.271 17.3337 13.271C19.1753 13.271 20.5837 14.6793 20.5837 16.521C20.5837 18.3627 19.1753 19.771 17.3337 19.771H4.87533Z" fill="black"/>
</svg>
