<svg width="26" height="26" viewBox="0 0 26 26" fill="none" xmlns="http://www.w3.org/2000/svg">
<path fill-rule="evenodd" clip-rule="evenodd" d="M21.6125 11.3748C21.2333 8.44984 18.7958 6.229 15.7083 6.229C12.35 6.229 9.75 8.3415 9.75 11.104C9.75 11.429 9.96667 11.6457 10.2917 11.6457C10.6167 11.6457 10.8333 11.429 10.8333 11.104C10.8333 8.9915 13 7.31234 15.7083 7.31234C18.0375 7.31234 19.9875 8.93734 20.475 11.104H20.0417C17.6042 11.104 15.7083 12.9998 15.7083 15.4373C15.7083 15.7623 15.925 15.979 16.25 15.979C16.575 15.979 16.7917 15.7623 16.7917 15.4373C16.7917 13.5957 18.2 12.1873 20.0417 12.1873C21.8833 12.1873 23.2917 13.5957 23.2917 15.4373C23.2917 17.279 21.8833 18.6873 20.0417 18.6873H8.125C7.8 18.6873 7.58333 18.904 7.58333 19.229C7.58333 19.554 7.8 19.7707 8.125 19.7707H20.0417C22.4792 19.7707 24.375 17.8748 24.375 15.4373C24.375 13.5415 23.2375 12.0248 21.6125 11.3748ZM14.625 13.2707C14.95 13.2707 15.1667 13.054 15.1667 12.729C15.1667 12.404 14.95 12.1873 14.625 12.1873H5.95833C5.0375 12.1873 4.33333 11.4832 4.33333 10.5623C4.33333 10.2373 4.11667 10.0207 3.79167 10.0207C3.46667 10.0207 3.25 10.2373 3.25 10.5623C3.25 12.079 4.44167 13.2707 5.95833 13.2707H14.625ZM12.4583 15.4373C12.7833 15.4373 13 15.2207 13 14.8957C13 14.5707 12.7833 14.354 12.4583 14.354H2.16667C1.84167 14.354 1.625 14.5707 1.625 14.8957C1.625 15.2207 1.84167 15.4373 2.16667 15.4373H12.4583ZM15.1667 17.0623C15.1667 16.7373 14.95 16.5207 14.625 16.5207H4.33333C2.81667 16.5207 1.625 17.7123 1.625 19.229C1.625 19.554 1.84167 19.7707 2.16667 19.7707C2.49167 19.7707 2.70833 19.554 2.70833 19.229C2.70833 18.3082 3.4125 17.604 4.33333 17.604H14.625C14.95 17.604 15.1667 17.3873 15.1667 17.0623Z" fill="black"/>
</svg>
