<svg width="26" height="26" viewBox="0 0 26 26" fill="none" xmlns="http://www.w3.org/2000/svg">
<path fill-rule="evenodd" clip-rule="evenodd" d="M25.4596 11.104C25.4596 9.04567 24.1082 7.3665 22.2163 6.879C22.0001 4.65817 20.1623 2.979 17.892 2.979C16.2163 2.979 14.8109 3.89984 14.0542 5.254C13.7299 5.19984 13.4055 5.14567 13.0272 5.14567C11.0812 5.14567 9.29743 6.0665 8.21635 7.529C7.89202 7.3665 7.51365 7.31234 7.08121 7.31234C5.40554 7.31234 4.05419 8.504 3.83797 10.129C1.94608 10.6165 0.594727 12.2957 0.594727 14.354C0.594727 16.7915 2.48662 18.6873 4.91905 18.6873H17.3515C19.4055 18.6873 21.0812 17.3332 21.5677 15.4373C23.7839 15.2207 25.4596 13.379 25.4596 11.104ZM21.6758 14.2998C21.6758 12.4582 20.5407 10.8873 18.9191 10.2915C18.6488 8.07067 17.1893 6.28317 15.1893 5.52484C15.7839 4.65817 16.8109 4.06234 17.892 4.06234C19.7299 4.06234 21.1353 5.47067 21.1353 7.31234C21.1353 7.58317 21.3515 7.854 21.6758 7.90817C23.1893 8.12484 24.3785 9.53317 24.3785 11.104C24.3785 12.7832 23.2434 14.0832 21.6758 14.2998ZM4.91905 17.604C3.08121 17.604 1.67581 16.1957 1.67581 14.354C1.67581 12.7832 2.865 11.3748 4.37851 11.1582C4.48662 11.1582 4.59473 11.104 4.70283 10.9957C4.81094 10.9415 4.91905 10.779 4.91905 10.5623C4.91905 9.37067 5.89202 8.39567 7.08121 8.39567C8.2704 8.39567 9.24337 9.37067 9.24337 10.5623C9.24337 10.8873 9.45959 11.104 9.78392 11.104C10.1082 11.104 10.3245 10.8873 10.3245 10.5623C10.3245 9.53317 9.89202 8.6665 9.18932 8.07067C10.0542 6.93317 11.5136 6.229 13.0272 6.229C15.3515 6.229 17.2974 7.854 17.7839 10.0207H17.3515C14.9191 10.0207 13.0272 11.9165 13.0272 14.354C13.0272 14.679 13.2434 14.8957 13.5677 14.8957C13.892 14.8957 14.1082 14.679 14.1082 14.354C14.1082 12.5123 15.5136 11.104 17.3515 11.104C19.1893 11.104 20.5947 12.5123 20.5947 14.354C20.5947 16.1957 19.1893 17.604 17.3515 17.604H4.91905ZM8.70283 20.3123C8.70283 19.9873 8.43256 19.7707 8.16229 19.7707H6.54067C6.21635 19.7707 6.00013 19.9873 6.00013 20.3123C6.00013 20.6373 6.21635 20.854 6.54067 20.854H8.16229C8.48662 20.854 8.70283 20.6373 8.70283 20.3123ZM12.4866 20.3123C12.4866 19.9873 12.2163 19.7707 11.9461 19.7707H10.3245C10.0001 19.7707 9.78392 19.9873 9.78392 20.3123C9.78392 20.6373 10.0001 20.854 10.3245 20.854H11.9461C12.2704 20.854 12.4866 20.6373 12.4866 20.3123ZM16.2704 20.3123C16.2704 19.9873 16.0001 19.7707 15.7299 19.7707H14.1082C13.7839 19.7707 13.5677 19.9873 13.5677 20.3123C13.5677 20.6373 13.7839 20.854 14.1082 20.854H15.7299C16.0542 20.854 16.2704 20.6373 16.2704 20.3123ZM17.892 19.7707C17.5677 19.7707 17.3515 19.9873 17.3515 20.3123C17.3515 20.6373 17.5677 20.854 17.892 20.854H19.5136C19.838 20.854 20.0542 20.6373 20.0542 20.3123C20.0542 19.9873 19.7839 19.7707 19.5136 19.7707H17.892ZM4.37851 21.9373C4.05419 21.9373 3.83797 22.154 3.83797 22.479C3.83797 22.804 4.05419 23.0207 4.37851 23.0207H6.00013C6.32446 23.0207 6.54067 22.804 6.54067 22.479C6.54067 22.154 6.2704 21.9373 6.00013 21.9373H4.37851ZM8.16229 21.9373C7.83797 21.9373 7.62175 22.154 7.62175 22.479C7.62175 22.804 7.83797 23.0207 8.16229 23.0207H9.78392C10.1082 23.0207 10.3245 22.804 10.3245 22.479C10.3245 22.154 10.0542 21.9373 9.78392 21.9373H8.16229ZM11.9461 21.9373C11.6218 21.9373 11.4055 22.154 11.4055 22.479C11.4055 22.804 11.6218 23.0207 11.9461 23.0207H13.5677C13.892 23.0207 14.1082 22.804 14.1082 22.479C14.1082 22.154 13.838 21.9373 13.5677 21.9373H11.9461ZM15.7299 21.9373C15.4055 21.9373 15.1893 22.154 15.1893 22.479C15.1893 22.804 15.4055 23.0207 15.7299 23.0207H17.3515C17.6758 23.0207 17.892 22.804 17.892 22.479C17.892 22.154 17.6218 21.9373 17.3515 21.9373H15.7299Z" fill="black"/>
</svg>
