<svg width="26" height="26" viewBox="0 0 26 26" fill="none" xmlns="http://www.w3.org/2000/svg">
<path fill-rule="evenodd" clip-rule="evenodd" d="M20.5295 13.8128C20.4212 12.892 20.0962 12.0795 19.6628 11.3753H20.042C21.5045 11.3753 23.1837 10.4545 23.8337 9.20866C23.2378 9.58783 22.6962 9.75033 22.2087 9.75033C20.367 9.75033 18.9587 8.34199 18.9587 6.50033C18.9587 5.36283 19.5003 4.27949 20.5837 3.79199C18.3628 3.79199 16.2503 5.20033 16.2503 7.58366C16.2503 8.07116 16.3587 8.55866 16.467 8.93783C15.9253 8.77533 15.2753 8.66699 14.6253 8.66699C12.6753 8.66699 10.8878 9.58783 9.80449 11.0503C9.47949 10.8878 9.10033 10.8337 8.66699 10.8337C6.98783 10.8337 5.63366 12.0253 5.41699 13.6503C3.52116 14.1378 2.16699 15.817 2.16699 17.8753C2.16699 20.3128 4.06283 22.2087 6.50033 22.2087H18.9587C21.3962 22.2087 23.292 20.3128 23.292 17.8753C23.292 15.9795 22.1545 14.4628 20.5295 13.8128ZM6.50033 21.1253C4.65866 21.1253 3.25033 19.717 3.25033 17.8753C3.25033 16.3045 4.44199 14.8962 5.95866 14.6795C6.06699 14.6795 6.17533 14.6253 6.28366 14.517C6.39199 14.4628 6.50033 14.3003 6.50033 14.0837C6.50033 12.892 7.47533 11.917 8.66699 11.917C9.85866 11.917 10.8337 12.892 10.8337 14.0837C10.8337 14.4087 11.0503 14.6253 11.3753 14.6253C11.7003 14.6253 11.917 14.4087 11.917 14.0837C11.917 13.0545 11.4837 12.1878 10.7795 11.592C11.6462 10.4545 13.1087 9.75033 14.6253 9.75033C16.9545 9.75033 18.9045 11.3753 19.392 13.542H18.9587C16.5212 13.542 14.6253 15.4378 14.6253 17.8753C14.6253 18.2003 14.842 18.417 15.167 18.417C15.492 18.417 15.7087 18.2003 15.7087 17.8753C15.7087 16.0337 17.117 14.6253 18.9587 14.6253C20.8003 14.6253 22.2087 16.0337 22.2087 17.8753C22.2087 19.717 20.8003 21.1253 18.9587 21.1253H6.50033Z" fill="black"/>
</svg>
