<svg width="26" height="26" viewBox="0 0 26 26" fill="none" xmlns="http://www.w3.org/2000/svg">
<path fill-rule="evenodd" clip-rule="evenodd" d="M25.4587 10.2915C25.4587 8.23317 24.1045 6.554 22.2087 6.0665C21.992 3.84567 20.1503 2.1665 17.8753 2.1665C16.1962 2.1665 14.7878 3.08734 14.0295 4.4415C13.7045 4.38734 13.3795 4.33317 13.0003 4.33317C11.0503 4.33317 9.26283 5.254 8.17949 6.7165C7.85449 6.554 7.47533 6.49984 7.04199 6.49984C5.36283 6.49984 4.00866 7.6915 3.79199 9.3165C1.89616 9.804 0.541992 11.4832 0.541992 13.5415C0.541992 15.979 2.43783 17.8748 4.87533 17.8748H17.3337C19.392 17.8748 21.0712 16.5207 21.5587 14.6248C23.7795 14.4082 25.4587 12.5665 25.4587 10.2915ZM21.667 13.4873C21.667 11.6457 20.5295 10.0748 18.9045 9.479C18.6337 7.25817 17.1712 5.47067 15.167 4.71234C15.7628 3.84567 16.792 3.24984 17.8753 3.24984C19.717 3.24984 21.1253 4.65817 21.1253 6.49984C21.1253 6.77067 21.342 7.0415 21.667 7.09567C23.1837 7.31234 24.3753 8.72067 24.3753 10.2915C24.3753 11.9707 23.2378 13.2707 21.667 13.4873ZM4.87533 16.7915C3.03366 16.7915 1.62533 15.3832 1.62533 13.5415C1.62533 11.9707 2.81699 10.5623 4.33366 10.3457C4.44199 10.3457 4.55033 10.2915 4.65866 10.1832C4.76699 10.129 4.87533 9.9665 4.87533 9.74984C4.87533 8.55817 5.85033 7.58317 7.04199 7.58317C8.23366 7.58317 9.20866 8.55817 9.20866 9.74984C9.20866 10.0748 9.42533 10.2915 9.75033 10.2915C10.0753 10.2915 10.292 10.0748 10.292 9.74984C10.292 8.72067 9.85866 7.854 9.15449 7.25817C10.0212 6.12067 11.4837 5.4165 13.0003 5.4165C15.3295 5.4165 17.2795 7.0415 17.767 9.20817H17.3337C14.8962 9.20817 13.0003 11.104 13.0003 13.5415C13.0003 13.8665 13.217 14.0832 13.542 14.0832C13.867 14.0832 14.0837 13.8665 14.0837 13.5415C14.0837 11.6998 15.492 10.2915 17.3337 10.2915C19.1753 10.2915 20.5837 11.6998 20.5837 13.5415C20.5837 15.3832 19.1753 16.7915 17.3337 16.7915H4.87533ZM3.79199 18.9582C3.46699 18.9582 3.25033 19.1748 3.25033 19.4998V22.2082C3.25033 22.479 3.46699 22.7498 3.79199 22.7498C4.11699 22.7498 4.33366 22.5332 4.33366 22.2082V19.4998C4.33366 19.1748 4.11699 18.9582 3.79199 18.9582ZM8.12533 18.9582C7.80033 18.9582 7.58366 19.1748 7.58366 19.4998V22.2082C7.58366 22.479 7.80033 22.7498 8.12533 22.7498C8.45033 22.7498 8.66699 22.5332 8.66699 22.2082V19.4998C8.66699 19.1748 8.45033 18.9582 8.12533 18.9582ZM12.4587 18.9582C12.1337 18.9582 11.917 19.1748 11.917 19.4998V22.2082C11.917 22.479 12.1337 22.7498 12.4587 22.7498C12.7837 22.7498 13.0003 22.5332 13.0003 22.2082V19.4998C13.0003 19.1748 12.7837 18.9582 12.4587 18.9582ZM16.792 18.9582C16.467 18.9582 16.2503 19.1748 16.2503 19.4998V22.2082C16.2503 22.479 16.467 22.7498 16.792 22.7498C17.117 22.7498 17.3337 22.5332 17.3337 22.2082V19.4998C17.3337 19.1748 17.117 18.9582 16.792 18.9582ZM5.95866 20.0415C5.63366 20.0415 5.41699 20.2582 5.41699 20.5832V23.2915C5.41699 23.5623 5.63366 23.8332 5.95866 23.8332C6.28366 23.8332 6.50033 23.6165 6.50033 23.2915V20.5832C6.50033 20.2582 6.28366 20.0415 5.95866 20.0415ZM10.292 20.0415C9.96699 20.0415 9.75033 20.2582 9.75033 20.5832V23.2915C9.75033 23.5623 9.96699 23.8332 10.292 23.8332C10.617 23.8332 10.8337 23.6165 10.8337 23.2915V20.5832C10.8337 20.2582 10.617 20.0415 10.292 20.0415ZM14.6253 20.0415C14.3003 20.0415 14.0837 20.2582 14.0837 20.5832V23.2915C14.0837 23.5623 14.3003 23.8332 14.6253 23.8332C14.9503 23.8332 15.167 23.6165 15.167 23.2915V20.5832C15.167 20.2582 14.9503 20.0415 14.6253 20.0415ZM18.9587 20.0415C18.6337 20.0415 18.417 20.2582 18.417 20.5832V23.2915C18.417 23.5623 18.6337 23.8332 18.9587 23.8332C19.2837 23.8332 19.5003 23.6165 19.5003 23.2915V20.5832C19.5003 20.2582 19.2837 20.0415 18.9587 20.0415Z" fill="black"/>
</svg>
