<svg width="26" height="26" viewBox="0 0 26 26" fill="none" xmlns="http://www.w3.org/2000/svg">
<path fill-rule="evenodd" clip-rule="evenodd" d="M25.4587 10.021C25.4587 7.96266 24.1045 6.2835 22.2087 5.796C21.992 3.57516 20.1503 1.896 17.8753 1.896C16.1962 1.896 14.7878 2.81683 14.0295 4.171C13.7045 4.11683 13.3795 4.06266 13.0003 4.06266C11.0503 4.06266 9.26283 4.9835 8.17949 6.446C7.85449 6.2835 7.47533 6.22933 7.04199 6.22933C5.36283 6.22933 4.00866 7.421 3.79199 9.046C1.89616 9.5335 0.541992 11.2127 0.541992 13.271C0.541992 15.7085 2.43783 17.6043 4.87533 17.6043H17.3337C19.392 17.6043 21.0712 16.2502 21.5587 14.3543C23.7795 14.1377 25.4587 12.296 25.4587 10.021ZM21.667 13.2168C21.667 11.3752 20.5295 9.80433 18.9045 9.2085C18.6337 6.98766 17.1712 5.20016 15.167 4.44183C15.7628 3.57516 16.792 2.97933 17.8753 2.97933C19.717 2.97933 21.1253 4.38766 21.1253 6.22933C21.1253 6.50016 21.342 6.771 21.667 6.82516C23.1837 7.04183 24.3753 8.45016 24.3753 10.021C24.3753 11.7002 23.2378 13.0002 21.667 13.2168ZM4.87533 16.521C3.03366 16.521 1.62533 15.1127 1.62533 13.271C1.62533 11.7002 2.81699 10.2918 4.33366 10.0752C4.44199 10.0752 4.55033 10.021 4.65866 9.91266C4.76699 9.8585 4.87533 9.696 4.87533 9.47933C4.87533 8.28766 5.85033 7.31266 7.04199 7.31266C8.23366 7.31266 9.20866 8.28766 9.20866 9.47933C9.20866 9.80433 9.42533 10.021 9.75033 10.021C10.0753 10.021 10.292 9.80433 10.292 9.47933C10.292 8.45016 9.85866 7.5835 9.15449 6.98766C10.0212 5.85016 11.4837 5.146 13.0003 5.146C15.3295 5.146 17.2795 6.771 17.767 8.93766H17.3337C14.8962 8.93766 13.0003 10.8335 13.0003 13.271C13.0003 13.596 13.217 13.8127 13.542 13.8127C13.867 13.8127 14.0837 13.596 14.0837 13.271C14.0837 11.4293 15.492 10.021 17.3337 10.021C19.1753 10.021 20.5837 11.4293 20.5837 13.271C20.5837 15.1127 19.1753 16.521 17.3337 16.521H4.87533ZM7.20449 20.0418C7.04199 19.771 6.77116 19.6627 6.50033 19.8252L5.41699 20.421V19.2293C5.41699 18.9043 5.20033 18.6877 4.87533 18.6877C4.55033 18.6877 4.33366 18.9043 4.33366 19.2293V20.421L3.25033 19.8252C2.97949 19.6627 2.70866 19.771 2.54616 20.0418C2.38366 20.3127 2.49199 20.6918 2.70866 20.8002L3.73783 21.396L2.70866 21.9918C2.49199 22.1002 2.38366 22.4793 2.54616 22.7502C2.70866 23.021 2.97949 23.1293 3.25033 22.9668L4.33366 22.371V23.5627C4.33366 23.8335 4.55033 24.1043 4.87533 24.1043C5.20033 24.1043 5.41699 23.8877 5.41699 23.5627V22.371L6.50033 22.9668C6.77116 23.1293 7.04199 23.021 7.20449 22.7502C7.36699 22.4793 7.31283 22.1543 7.04199 21.9918L6.01283 21.396L7.04199 20.8002C7.31283 20.6377 7.36699 20.3127 7.20449 20.0418ZM13.1628 20.0418C13.0003 19.771 12.7295 19.6627 12.4587 19.8252L11.3753 20.421V19.2293C11.3753 18.9043 11.1587 18.6877 10.8337 18.6877C10.5087 18.6877 10.292 18.9043 10.292 19.2293V20.421L9.20866 19.8252C8.93783 19.6627 8.66699 19.771 8.50449 20.0418C8.34199 20.3127 8.45033 20.6918 8.66699 20.8002L9.69616 21.396L8.66699 21.9918C8.45033 22.1002 8.34199 22.4793 8.50449 22.7502C8.66699 23.021 8.93783 23.1293 9.20866 22.9668L10.292 22.371V23.5627C10.292 23.8335 10.5087 24.1043 10.8337 24.1043C11.1587 24.1043 11.3753 23.8877 11.3753 23.5627V22.371L12.4587 22.9668C12.7295 23.1293 13.0003 23.021 13.1628 22.7502C13.3253 22.4793 13.2712 22.1543 13.0003 21.9918L11.9712 21.396L13.0003 20.8002C13.2712 20.6377 13.3253 20.3127 13.1628 20.0418ZM19.1212 20.0418C18.9587 19.771 18.6878 19.6627 18.417 19.8252L17.3337 20.421V19.2293C17.3337 18.9043 17.117 18.6877 16.792 18.6877C16.467 18.6877 16.2503 18.9043 16.2503 19.2293V20.421L15.167 19.8252C14.8962 19.6627 14.6253 19.771 14.4628 20.0418C14.3003 20.3127 14.4087 20.6377 14.6253 20.8002L15.6545 21.396L14.6253 21.9918C14.4087 22.1543 14.3003 22.4793 14.4628 22.7502C14.6253 23.021 14.8962 23.1293 15.167 22.9668L16.2503 22.371V23.5627C16.2503 23.8335 16.467 24.1043 16.792 24.1043C17.117 24.1043 17.3337 23.8877 17.3337 23.5627V22.371L18.417 22.9668C18.6878 23.1293 18.9587 23.021 19.1212 22.7502C19.2837 22.4793 19.2295 22.1543 18.9587 21.9918L17.9295 21.396L18.9587 20.8002C19.2295 20.6377 19.2837 20.3127 19.1212 20.0418Z" fill="black"/>
</svg>
