<svg width="26" height="26" viewBox="0 0 26 26" fill="none" xmlns="http://www.w3.org/2000/svg">
<path fill-rule="evenodd" clip-rule="evenodd" d="M18.6489 3.52067C18.6489 3.19567 18.4327 2.979 18.1083 2.979C17.784 2.979 17.5678 3.19567 17.5678 3.52067V5.68734H18.6489V3.52067ZM15.0273 6.7165L13.5137 5.19984C13.2975 4.98317 12.9732 4.98317 12.757 5.19984C12.5408 5.4165 12.5408 5.7415 12.757 5.95817L14.2705 7.47484L15.0273 6.7165ZM23.4597 5.95817C23.6759 5.7415 23.6759 5.4165 23.4597 5.19984C23.2435 4.98317 22.9192 4.98317 22.7029 5.19984L21.1894 6.7165L21.9462 7.47484L23.4597 5.95817ZM18.5948 14.6248C18.5948 14.5165 18.5948 14.4082 18.5408 14.354C20.3786 14.0832 21.8921 12.4582 21.8921 10.5623C21.8921 8.504 20.1624 6.77067 18.1083 6.77067C16.3246 6.77067 14.811 8.07067 14.4327 9.69567C13.8921 9.58734 13.2975 9.479 12.7029 9.479C10.757 9.479 8.97321 10.3998 7.89213 11.8623C7.5678 11.6998 7.18943 11.6457 6.75699 11.6457C5.08132 11.6457 3.72997 12.8373 3.51375 14.4623C1.62186 14.9498 0.270508 16.629 0.270508 18.6873C0.270508 21.1248 2.1624 23.0207 4.59483 23.0207H17.0273C19.4597 23.0207 21.3516 21.1248 21.3516 18.6873C21.3516 16.7915 20.2165 15.2748 18.5948 14.6248ZM18.1083 7.854C19.5678 7.854 20.811 9.154 20.811 10.5623C20.811 11.9165 19.6219 13.1623 18.2705 13.2707C17.73 11.8623 16.757 10.779 15.4597 10.129C15.6759 8.88317 16.811 7.854 18.1083 7.854ZM22.9732 10.0207V11.104H25.1354C25.4597 11.104 25.6759 10.8873 25.6759 10.5623C25.6759 10.2373 25.4597 10.0207 25.1354 10.0207H22.9732ZM4.59483 21.9373C2.75699 21.9373 1.35159 20.529 1.35159 18.6873C1.35159 17.1165 2.54078 15.7082 4.05429 15.4915C4.1624 15.4915 4.27051 15.4373 4.37862 15.329C4.48672 15.2748 4.59483 15.1123 4.59483 14.8957C4.59483 13.704 5.5678 12.729 6.75699 12.729C7.94618 12.729 8.91916 13.704 8.91916 14.8957C8.91916 15.2207 9.13537 15.4373 9.4597 15.4373C9.78402 15.4373 10.0002 15.2207 10.0002 14.8957C10.0002 13.8665 9.5678 12.9998 8.8651 12.404C9.72997 11.2665 11.1894 10.5623 12.7029 10.5623C15.0273 10.5623 16.9732 12.1873 17.4597 14.354H17.0273C14.5948 14.354 12.7029 16.2498 12.7029 18.6873C12.7029 19.0123 12.9192 19.229 13.2435 19.229C13.5678 19.229 13.784 19.0123 13.784 18.6873C13.784 16.8457 15.1894 15.4373 17.0273 15.4373C18.8651 15.4373 20.2705 16.8457 20.2705 18.6873C20.2705 20.529 18.8651 21.9373 17.0273 21.9373H4.59483ZM21.1894 14.4082L22.7029 15.9248C22.9192 16.1415 23.2435 16.1415 23.4597 15.9248C23.6759 15.7082 23.6759 15.3832 23.4597 15.1665L21.9462 13.6498L21.1894 14.4082Z" fill="black"/>
</svg>
