<svg width="26" height="26" viewBox="0 0 26 26" fill="none" xmlns="http://www.w3.org/2000/svg">
<path fill-rule="evenodd" clip-rule="evenodd" d="M20.8 7.31283C20.4208 4.38783 17.9833 2.16699 14.8958 2.16699C12.9458 2.16699 11.1583 3.08783 10.075 4.55033C9.75 4.38783 9.37083 4.33366 8.9375 4.33366C7.25833 4.33366 5.90417 5.52533 5.6875 7.15033C3.79167 7.63783 2.4375 9.31699 2.4375 11.3753C2.4375 13.8128 4.33333 15.7087 6.77083 15.7087H11.4833L8.39583 18.417L13.2708 20.042L10.5625 23.8337H11.1042L17.0625 18.9587L12.1875 17.8753L15.0583 15.7087H19.2292C21.6667 15.7087 23.5625 13.8128 23.5625 11.3753C23.5625 9.47949 22.425 7.96283 20.8 7.31283ZM19.2292 14.6253H6.77083C4.92917 14.6253 3.52083 13.217 3.52083 11.3753C3.52083 9.80449 4.7125 8.39616 6.22917 8.17949C6.3375 8.17949 6.44583 8.12533 6.55417 8.01699C6.6625 7.96283 6.77083 7.80033 6.77083 7.58366C6.77083 6.39199 7.74583 5.41699 8.9375 5.41699C10.1292 5.41699 11.1042 6.39199 11.1042 7.58366C11.1042 7.90866 11.3208 8.12533 11.6458 8.12533C11.9708 8.12533 12.1875 7.90866 12.1875 7.58366C12.1875 6.55449 11.7542 5.68783 11.05 5.09199C11.9167 3.95449 13.3792 3.25033 14.8958 3.25033C17.225 3.25033 19.175 4.87533 19.6625 7.04199H19.2292C16.7917 7.04199 14.8958 8.93783 14.8958 11.3753C14.8958 11.7003 15.1125 11.917 15.4375 11.917C15.7625 11.917 15.9792 11.7003 15.9792 11.3753C15.9792 9.53366 17.3875 8.12533 19.2292 8.12533C21.0708 8.12533 22.4792 9.53366 22.4792 11.3753C22.4792 13.217 21.0708 14.6253 19.2292 14.6253Z" fill="black"/>
</svg>
