<svg width="26" height="26" viewBox="0 0 26 26" fill="none" xmlns="http://www.w3.org/2000/svg">
<path fill-rule="evenodd" clip-rule="evenodd" d="M20.5295 11.9168C20.4212 10.996 20.0962 10.1835 19.6628 9.47933H20.042C21.5045 9.47933 23.1837 8.5585 23.8337 7.31266C23.2378 7.69183 22.6962 7.85433 22.2087 7.85433C20.367 7.85433 18.9587 6.446 18.9587 4.60433C18.9587 3.46683 19.5003 2.3835 20.5837 1.896C18.3628 1.896 16.2503 3.30433 16.2503 5.68766C16.2503 6.17516 16.3587 6.66266 16.467 7.04183C15.9253 6.87933 15.2753 6.771 14.6253 6.771C12.6753 6.771 10.8878 7.69183 9.80449 9.15433C9.47949 8.99183 9.10033 8.93766 8.66699 8.93766C6.98783 8.93766 5.63366 10.1293 5.41699 11.7543C3.52116 12.2418 2.16699 13.921 2.16699 15.9793C2.16699 18.4168 4.06283 20.3127 6.50033 20.3127H18.9587C21.3962 20.3127 23.292 18.4168 23.292 15.9793C23.292 14.0835 22.1545 12.5668 20.5295 11.9168ZM6.50033 19.2293C4.65866 19.2293 3.25033 17.821 3.25033 15.9793C3.25033 14.4085 4.44199 13.0002 5.95866 12.7835C6.06699 12.7835 6.17533 12.7293 6.28366 12.621C6.39199 12.5668 6.50033 12.4043 6.50033 12.1877C6.50033 10.996 7.47533 10.021 8.66699 10.021C9.85866 10.021 10.8337 10.996 10.8337 12.1877C10.8337 12.5127 11.0503 12.7293 11.3753 12.7293C11.7003 12.7293 11.917 12.5127 11.917 12.1877C11.917 11.1585 11.4837 10.2918 10.7795 9.696C11.6462 8.5585 13.1087 7.85433 14.6253 7.85433C16.9545 7.85433 18.9045 9.47933 19.392 11.646H18.9587C16.5212 11.646 14.6253 13.5418 14.6253 15.9793C14.6253 16.3043 14.842 16.521 15.167 16.521C15.492 16.521 15.7087 16.3043 15.7087 15.9793C15.7087 14.1377 17.117 12.7293 18.9587 12.7293C20.8003 12.7293 22.2087 14.1377 22.2087 15.9793C22.2087 17.821 20.8003 19.2293 18.9587 19.2293H6.50033ZM6.50033 20.8543C6.17533 20.8543 5.95866 21.071 5.95866 21.396V23.021C5.95866 23.2918 6.17533 23.5627 6.50033 23.5627C6.82533 23.5627 7.04199 23.346 7.04199 23.021V21.396C7.04199 21.071 6.82533 20.8543 6.50033 20.8543ZM15.167 20.8543C14.842 20.8543 14.6253 21.071 14.6253 21.396V23.021C14.6253 23.2918 14.842 23.5627 15.167 23.5627C15.492 23.5627 15.7087 23.346 15.7087 23.021V21.396C15.7087 21.071 15.492 20.8543 15.167 20.8543ZM10.8337 21.396C10.5087 21.396 10.292 21.6127 10.292 21.9377V23.5627C10.292 23.8335 10.5087 24.1043 10.8337 24.1043C11.1587 24.1043 11.3753 23.8877 11.3753 23.5627V21.9377C11.3753 21.6127 11.1587 21.396 10.8337 21.396ZM19.5003 21.396C19.1753 21.396 18.9587 21.6127 18.9587 21.9377V23.5627C18.9587 23.8335 19.1753 24.1043 19.5003 24.1043C19.8253 24.1043 20.042 23.8877 20.042 23.5627V21.9377C20.042 21.6127 19.8253 21.396 19.5003 21.396Z" fill="black"/>
</svg>
