<svg width="26" height="26" viewBox="0 0 26 26" fill="none" xmlns="http://www.w3.org/2000/svg">
<path fill-rule="evenodd" clip-rule="evenodd" d="M18.6489 1.62516C18.6489 1.30016 18.4327 1.0835 18.1083 1.0835C17.784 1.0835 17.5678 1.30016 17.5678 1.62516V3.79183H18.6489V1.62516ZM15.0273 4.821L13.5137 3.30433C13.2975 3.08766 12.9732 3.08766 12.757 3.30433C12.5408 3.521 12.5408 3.846 12.757 4.06266L14.2705 5.57933L15.0273 4.821ZM23.4597 4.06266C23.6759 3.846 23.6759 3.521 23.4597 3.30433C23.2435 3.08766 22.9192 3.08766 22.7029 3.30433L21.1894 4.821L21.9462 5.57933L23.4597 4.06266ZM18.5948 12.7293C18.5948 12.621 18.5948 12.5127 18.5408 12.4585C20.3786 12.1877 21.8921 10.5627 21.8921 8.66683C21.8921 6.6085 20.1624 4.87516 18.1083 4.87516C16.3246 4.87516 14.811 6.17516 14.4327 7.80016C13.8921 7.69183 13.2975 7.5835 12.7029 7.5835C10.757 7.5835 8.97321 8.50433 7.89213 9.96683C7.5678 9.80433 7.18943 9.75016 6.75699 9.75016C5.08132 9.75016 3.72997 10.9418 3.51375 12.5668C1.62186 13.0543 0.270508 14.7335 0.270508 16.7918C0.270508 19.2293 2.1624 21.1252 4.59483 21.1252H17.0273C19.4597 21.1252 21.3516 19.2293 21.3516 16.7918C21.3516 14.896 20.2165 13.3793 18.5948 12.7293ZM18.1083 5.9585C19.5678 5.9585 20.811 7.2585 20.811 8.66683C20.811 10.021 19.6219 11.2668 18.2705 11.3752C17.73 9.96683 16.757 8.8835 15.4597 8.2335C15.6759 6.98766 16.811 5.9585 18.1083 5.9585ZM22.9732 8.12516V9.2085H25.1354C25.4597 9.2085 25.6759 8.99183 25.6759 8.66683C25.6759 8.34183 25.4597 8.12516 25.1354 8.12516H22.9732ZM4.59483 20.0418C2.75699 20.0418 1.35159 18.6335 1.35159 16.7918C1.35159 15.221 2.54078 13.8127 4.05429 13.596C4.1624 13.596 4.27051 13.5418 4.37862 13.4335C4.48672 13.3793 4.59483 13.2168 4.59483 13.0002C4.59483 11.8085 5.5678 10.8335 6.75699 10.8335C7.94618 10.8335 8.91916 11.8085 8.91916 13.0002C8.91916 13.3252 9.13537 13.5418 9.4597 13.5418C9.78402 13.5418 10.0002 13.3252 10.0002 13.0002C10.0002 11.971 9.5678 11.1043 8.8651 10.5085C9.72997 9.371 11.1894 8.66683 12.7029 8.66683C15.0273 8.66683 16.9732 10.2918 17.4597 12.4585H17.0273C14.5948 12.4585 12.7029 14.3543 12.7029 16.7918C12.7029 17.1168 12.9192 17.3335 13.2435 17.3335C13.5678 17.3335 13.784 17.1168 13.784 16.7918C13.784 14.9502 15.1894 13.5418 17.0273 13.5418C18.8651 13.5418 20.2705 14.9502 20.2705 16.7918C20.2705 18.6335 18.8651 20.0418 17.0273 20.0418H4.59483ZM21.1894 12.5127L22.7029 14.0293C22.9192 14.246 23.2435 14.246 23.4597 14.0293C23.6759 13.8127 23.6759 13.4877 23.4597 13.271L21.9462 11.7543L21.1894 12.5127ZM4.59483 21.6668C4.27051 21.6668 4.05429 21.8835 4.05429 22.2085V23.8335C4.05429 24.1043 4.27051 24.3752 4.59483 24.3752C4.91916 24.3752 5.13537 24.1585 5.13537 23.8335V22.2085C5.13537 21.8835 4.91916 21.6668 4.59483 21.6668ZM13.2435 21.6668C12.9192 21.6668 12.7029 21.8835 12.7029 22.2085V23.8335C12.7029 24.1043 12.9192 24.3752 13.2435 24.3752C13.5678 24.3752 13.784 24.1585 13.784 23.8335V22.2085C13.784 21.8835 13.5678 21.6668 13.2435 21.6668ZM8.91916 22.2085C8.59483 22.2085 8.37861 22.4252 8.37861 22.7502V24.3752C8.37861 24.646 8.59483 24.9168 8.91916 24.9168C9.24348 24.9168 9.4597 24.7002 9.4597 24.3752V22.7502C9.4597 22.4252 9.24348 22.2085 8.91916 22.2085ZM17.5678 22.2085C17.2435 22.2085 17.0273 22.4252 17.0273 22.7502V24.3752C17.0273 24.646 17.2435 24.9168 17.5678 24.9168C17.8921 24.9168 18.1083 24.7002 18.1083 24.3752V22.7502C18.1083 22.4252 17.8921 22.2085 17.5678 22.2085Z" fill="black"/>
</svg>
