<svg width="26" height="26" viewBox="0 0 26 26" fill="none" xmlns="http://www.w3.org/2000/svg">
<path fill-rule="evenodd" clip-rule="evenodd" d="M13 18.4167C16.0333 18.4167 18.4167 16.0333 18.4167 13C18.4167 9.96667 16.0333 7.58333 13 7.58333C9.96667 7.58333 7.58333 9.96667 7.58333 13C7.58333 16.0333 9.96667 18.4167 13 18.4167ZM13 16.7917C10.8875 16.7917 9.20833 15.1125 9.20833 13C9.20833 10.8875 10.8875 9.20833 13 9.20833C15.1125 9.20833 16.7917 10.8875 16.7917 13C16.7917 15.1125 15.1125 16.7917 13 16.7917ZM1.625 12.7292C1.625 13.2708 1.95 13.5417 2.49167 13.5417H5.95833V11.9167H2.49167C1.95 11.9167 1.625 12.2417 1.625 12.7292ZM20.0417 12.4583V14.0833H23.5083C24.05 14.0833 24.375 13.7583 24.375 13.2708C24.375 12.7833 24.05 12.4583 23.5083 12.4583H20.0417ZM17.875 7.58333L18.9583 8.66667L21.6125 6.0125C21.9917 5.63333 21.9917 5.2 21.6667 4.875C21.3417 4.55 20.9083 4.55 20.5292 4.92917L17.875 7.58333ZM8.125 7.58333L5.47083 4.92917C5.09167 4.55 4.65833 4.55 4.33333 4.875C4.00833 5.2 4.00833 5.63333 4.3875 6.0125L7.04167 8.66667L8.125 7.58333ZM17.875 18.4167L20.5292 21.0708C20.9625 21.5042 21.3417 21.45 21.6667 21.125C21.9917 20.8 21.9917 20.3667 21.6125 19.9875L18.9583 17.3333L17.875 18.4167ZM8.125 18.4167L7.04167 17.3333L4.3875 19.9875C4.00833 20.3667 4.00833 20.8 4.33333 21.125C4.65833 21.45 5.09167 21.45 5.47083 21.0708L8.125 18.4167ZM13.2708 1.625C12.7292 1.625 12.4583 1.95 12.4583 2.49167V5.95833H14.0833V2.49167C14.0833 1.95 13.7583 1.625 13.2708 1.625ZM13.5417 20.0417H11.9167V23.5083C11.9167 24.05 12.2417 24.375 12.7292 24.375C13.2167 24.375 13.5417 24.05 13.5417 23.5083V20.0417Z" fill="black"/>
</svg>
