<svg width="26" height="26" viewBox="0 0 26 26" fill="none" xmlns="http://www.w3.org/2000/svg">
<path fill-rule="evenodd" clip-rule="evenodd" d="M20.583 10.8332C20.3122 7.90817 17.7122 5.4165 14.6247 5.4165C12.7288 5.4165 10.9955 6.33734 9.91217 7.79984C9.26217 7.31234 8.44967 7.0415 7.58301 7.0415C5.47051 7.0415 3.79134 8.72067 3.79134 10.8332V11.3207C2.16634 12.1332 1.08301 13.7582 1.08301 15.7082C1.08301 18.4165 3.24967 20.5832 5.95801 20.5832H20.0413C22.7497 20.5832 24.9163 18.4165 24.9163 15.7082C24.9163 13.1623 23.0205 11.104 20.583 10.8332ZM5.95801 19.4998C3.84551 19.4998 2.16634 17.8207 2.16634 15.7082C2.16634 14.4082 2.81634 13.2707 3.79134 12.5665L4.44134 12.2415C4.71217 12.1332 4.87467 11.8623 4.87467 11.5915V10.8332C4.87467 9.3165 6.06634 8.12484 7.58301 8.12484C9.09967 8.12484 10.2913 9.3165 10.2913 10.8332C10.2913 11.1582 10.508 11.3748 10.833 11.3748C11.158 11.3748 11.3747 11.1582 11.3747 10.8332C11.3747 10.0207 11.1038 9.20817 10.6705 8.61234C11.5372 7.31234 12.9997 6.49984 14.6247 6.49984C17.1163 6.49984 19.2288 8.504 19.4455 10.8873C17.0622 11.1582 15.1663 13.2165 15.1663 15.7082C15.1663 16.0332 15.383 16.2498 15.708 16.2498C16.033 16.2498 16.2497 16.0332 16.2497 15.7082C16.2497 13.5957 17.9288 11.9165 20.0413 11.9165C22.1538 11.9165 23.833 13.5957 23.833 15.7082C23.833 17.8207 22.1538 19.4998 20.0413 19.4998H5.95801Z" fill="black"/>
</svg>
