<svg width="26" height="26" viewBox="0 0 26 26" fill="none" xmlns="http://www.w3.org/2000/svg">
<path d="M22.1759 15.7408L21.8942 14.6954L18.563 15.5892L14.0726 13.0054L18.563 10.4108L21.8942 11.3046L22.1705 10.2592L19.8901 9.6471L22.1109 8.36334L21.5692 7.42085L19.3376 8.71543L19.9496 6.4296L18.9042 6.14793L18.0105 9.47918L13.5363 12.0629V6.8846L15.9738 4.4471L15.2101 3.67793L13.5363 5.35168V2.78418H12.453V5.36251L10.7792 3.69418L10.0155 4.45793L12.453 6.89543V12.0683L7.96797 9.4846L7.0688 6.15335L6.02339 6.43501L6.64089 8.71543L4.41464 7.4371L3.87297 8.37418L6.11005 9.66334L3.82422 10.2754L4.10589 11.3208L7.43714 10.4271L11.9059 13.0054L7.43714 15.5838L4.10589 14.69L3.82964 15.7354L6.11005 16.3475L3.87839 17.6367L4.42005 18.5792L6.64089 17.2954L6.0288 19.5758L7.07422 19.8575L7.96797 16.5263L12.453 13.9371V19.1046L10.0155 21.5421L10.7792 22.3058L12.453 20.6375V23.2158H13.5363V20.6483L15.2101 22.3221L15.9738 21.5529L13.5363 19.1154V13.9425L18.0105 16.5208L18.9042 19.8521L19.9551 19.5704L19.3376 17.29L21.5746 18.5792L22.1163 17.6367L19.8901 16.3583L22.1759 15.7408Z" fill="black"/>
</svg>
