<svg width="26" height="26" viewBox="0 0 26 26" fill="none" xmlns="http://www.w3.org/2000/svg">
<path d="M20.0805 14.0707C19.2972 12.1798 17.8244 10.7064 15.9329 9.92317C12.0286 8.30629 7.53708 10.1664 5.9202 14.0707L3.79199 13.1894C5.89528 8.11184 11.7372 5.69221 16.8147 7.7955C19.2745 8.81438 21.1903 10.7303 22.2087 13.1894L20.0805 14.0707Z" fill="black"/>
<path d="M9.53934 15.5704L7.41113 14.6885C8.6873 11.607 12.2336 10.138 15.3146 11.4147C16.8074 12.0328 17.9698 13.1957 18.5884 14.6885L16.4602 15.5698C16.0773 14.6458 15.3574 13.9259 14.4333 13.5429C12.5255 12.7532 10.3302 13.6626 9.53934 15.5704Z" fill="black"/>
<path d="M11.1906 16.2543C10.7767 17.2537 11.2512 18.3999 12.2506 18.8137C13.25 19.2275 14.3961 18.753 14.81 17.7537C15.0169 17.2537 15.0017 16.7174 14.81 16.2543C14.6182 15.7912 14.2494 15.4012 13.7499 15.1943C12.7506 14.7799 11.6044 15.2544 11.1906 16.2543Z" fill="black"/>
</svg>
