<svg width="26" height="26" viewBox="0 0 26 26" fill="none" xmlns="http://www.w3.org/2000/svg">
<path fill-rule="evenodd" clip-rule="evenodd" d="M19.4997 7.69167V3.79167H16.2497V5.47083L12.9997 3.25L2.70801 10.2917V11.375H3.79134V22.2083H15.708V14.625H18.4163V22.2083H22.208V11.375H23.2913V10.2917L19.4997 7.69167ZM18.4163 4.875V6.93333L17.333 6.22917V4.875H18.4163ZM19.4997 21.125V14.0833C19.4997 13.7583 19.283 13.5417 18.958 13.5417H15.1663C14.8413 13.5417 14.6247 13.7583 14.6247 14.0833V21.125H4.87467V11.375H21.1247V21.125H19.4997ZM12.9997 18.9583C13.3247 18.9583 13.5413 18.7417 13.5413 18.4167V14.0833C13.5413 13.7583 13.3247 13.5417 12.9997 13.5417H6.49967C6.17467 13.5417 5.95801 13.7583 5.95801 14.0833V18.4167C5.95801 18.7417 6.17467 18.9583 6.49967 18.9583H12.9997ZM9.20801 14.625V17.875H7.04134V14.625H9.20801ZM10.2913 17.875V14.625H12.458V17.875H10.2913Z" fill="black"/>
</svg>
