<svg width="26" height="26" viewBox="0 0 26 26" fill="none" xmlns="http://www.w3.org/2000/svg">
<path fill-rule="evenodd" clip-rule="evenodd" d="M16.7913 16.7913V7.04134C16.7913 6.44551 16.3038 5.95801 15.708 5.95801H1.08301V18.958H2.16634C2.16634 17.4413 3.35801 16.2497 4.87467 16.2497C5.47051 16.2497 6.06634 16.4663 6.49967 16.7913H7.58301C8.01634 16.4663 8.61217 16.2497 9.20801 16.2497C9.80384 16.2497 10.3997 16.4663 10.833 16.7913H16.7913ZM17.8747 16.7913C18.308 16.4663 18.9038 16.2497 19.4997 16.2497C21.0163 16.2497 22.208 17.4413 22.208 18.958H24.9163V13.5413L23.2913 8.66634H17.8747V16.7913ZM20.0413 9.74967H22.7497L23.833 13.5413H20.0413V9.74967ZM4.87467 20.583C3.95384 20.583 3.24967 19.8788 3.24967 18.958C3.24967 18.0372 3.95384 17.333 4.87467 17.333C5.79551 17.333 6.49967 18.0372 6.49967 18.958C6.49967 19.8788 5.79551 20.583 4.87467 20.583ZM9.20801 20.583C8.28717 20.583 7.58301 19.8788 7.58301 18.958C7.58301 18.0372 8.28717 17.333 9.20801 17.333C10.1288 17.333 10.833 18.0372 10.833 18.958C10.833 19.8788 10.1288 20.583 9.20801 20.583ZM19.4997 20.583C18.5788 20.583 17.8747 19.8788 17.8747 18.958C17.8747 18.0372 18.5788 17.333 19.4997 17.333C20.4205 17.333 21.1247 18.0372 21.1247 18.958C21.1247 19.8788 20.4205 20.583 19.4997 20.583ZM16.7913 20.0413V17.8747H11.9163V20.0413H16.7913Z" fill="black"/>
</svg>
